<svg width="152" height="111" viewBox="0 0 152 111" fill="none" xmlns="http://www.w3.org/2000/svg">
    <path d="M104.513 32.8639C97.8368 31.1811 91.03 30.0793 84.1674 29.5706C77.2861 28.9212 70.4047 28.5733 63.6609 28.4805C56.8316 28.3704 50.0015 28.6336 43.2003 29.2691C36.6143 29.7795 30.1379 31.2642 23.9782 33.6757C21.3241 34.6906 18.8697 36.1749 16.7297 38.0591C15.9582 38.7831 15.3415 39.6592 14.9177 40.6335C14.4678 41.63 14.1886 42.6966 14.092 43.7877C13.5873 47.8 17.6702 53.3894 22.8771 57.2626C28.3125 61.2815 34.194 64.6441 40.4018 67.2818C46.6642 70.0917 53.1283 72.4176 59.7385 74.2396V74.6803C52.8213 73.7829 45.9815 72.3564 39.2778 70.4128C32.4146 68.5223 25.7766 65.878 19.4823 62.5273C16.1256 60.7245 13.0369 58.4525 10.3071 55.7783C7.00792 52.6127 5.06495 48.2673 4.89382 43.6717C4.88066 41.2773 5.36516 38.9069 6.31596 36.7139C7.30043 34.5015 8.75747 32.5372 10.5824 30.9621C13.7933 28.3907 17.5313 26.5762 21.5238 25.651C28.5818 24.0802 35.7898 23.3024 43.0167 23.3317C50.0183 23.2887 57.017 23.6294 63.9821 24.3522C70.8787 25.048 77.7601 26.0221 84.6262 27.2745C91.4845 28.3992 98.2368 30.106 104.812 32.3769L104.513 32.8639Z" fill="#FCE100"/>
    <path d="M46.5947 76.1645C53.272 77.8396 60.0789 78.9337 66.9407 79.4347C73.8221 80.0841 80.7035 80.4552 87.5849 80.5479C94.3913 80.6567 101.199 80.3935 107.977 79.7594C114.547 79.2428 121.007 77.7583 127.153 75.3528C129.83 74.3464 132.302 72.8529 134.447 70.9462C135.217 70.2241 135.84 69.3576 136.282 68.395C136.754 67.3981 137.034 66.3199 137.108 65.2176C137.59 61.2284 133.507 55.639 128.3 51.7658C122.87 47.7445 116.997 44.3744 110.798 41.7234C104.522 38.927 98.0518 36.6014 91.4385 34.7656V34.3018C98.3494 35.2024 105.182 36.6368 111.876 38.5924C118.735 40.485 125.372 43.121 131.672 46.4547C135.023 48.2668 138.11 50.5379 140.847 53.2038C144.148 56.378 146.09 60.731 146.26 65.3335C146.264 67.7223 145.796 70.0878 144.884 72.2913C143.873 74.4936 142.402 76.4481 140.572 78.0199C137.387 80.5587 133.692 82.3634 129.745 83.3078C122.683 84.8412 115.475 85.5801 108.252 85.5111C101.258 85.5663 94.2661 85.2256 87.3097 84.4907C80.4283 83.7949 73.5469 82.8208 66.6655 81.5684C59.8287 80.4597 53.0985 78.7604 46.5488 76.4892L46.5947 76.1645Z" fill="#FCE100"/>
    <path d="M84.6268 55.4767C84.6313 57.1126 84.1549 58.7131 83.2584 60.0749C82.3618 61.4367 81.0854 62.4986 79.591 63.1257C78.0966 63.7528 76.4516 63.9169 74.8648 63.5971C73.278 63.2774 71.821 62.4882 70.6785 61.3298C69.536 60.1714 68.7597 58.6959 68.448 57.0906C68.1362 55.4853 68.303 53.8225 68.9275 52.3133C69.5519 50.8041 70.6058 49.5165 71.9552 48.6138C73.3046 47.7111 74.8887 47.2341 76.5066 47.2433C78.6623 47.2494 80.7277 48.1196 82.2498 49.663C83.7719 51.2064 84.6268 53.2971 84.6268 55.4767Z" fill="#02569C"/>
    <path d="M98.8477 89.4077C89.2706 92.679 79.5035 95.3512 69.6018 97.4092C59.5265 99.6439 49.2481 100.81 38.9336 100.888C33.4033 101.025 27.8838 100.329 22.556 98.8239C16.4285 97.2634 10.8622 93.983 6.49937 89.3613C-2.30881 78.5767 -1.29964 63.4783 4.38898 53.3199C7.08832 48.3679 10.5406 43.8756 14.6194 40.0073C18.4218 36.301 22.5016 32.897 26.8224 29.8258C35.1767 23.8118 44.1709 18.763 53.6369 14.7737C72.3209 6.95365 92.0476 1.97505 112.175 0V0.626212C92.3392 2.99126 73.0989 9.00429 55.4031 18.3686C46.671 22.9355 38.515 28.55 31.1118 35.0905C24.0421 41.2706 18.7028 49.2205 15.6286 58.144C14.4571 61.9773 14.1591 66.0291 14.757 69.9954C15.0214 71.8317 15.5227 73.6251 16.248 75.3297C16.5691 76.1879 17.0279 76.8836 17.349 77.649L18.6105 79.8291C20.674 83.1184 23.5524 85.8049 26.96 87.6218C31.0442 89.7545 35.3965 91.315 39.8971 92.2604C49.5603 94.008 59.4099 94.4525 69.1888 93.5823C79.1679 92.8758 89.077 91.3791 98.8247 89.1062L98.8477 89.4077Z" fill="#02569C"/>
    <path d="M52.6736 22.5199C62.2433 19.3008 71.9938 16.6599 81.8736 14.6113C91.9136 12.3981 102.152 11.2324 112.427 11.1324C117.928 10.9898 123.42 11.6459 128.736 13.0805C134.84 14.596 140.402 17.8097 144.792 22.3576C153.807 33.0262 152.798 48.2174 147.086 58.3294C144.377 63.2661 140.899 67.7298 136.787 71.5492C132.982 75.2175 128.902 78.5828 124.584 81.6148C116.222 87.5593 107.228 92.5381 97.7696 96.4581C79.1063 104.177 59.4211 109.077 39.3467 111V110.397C59.1718 108.07 78.4191 102.146 96.1639 92.9097C104.911 88.3718 113.102 82.8141 120.57 76.3501C127.662 70.2467 133.035 62.3582 136.145 53.4821C137.333 49.6843 137.639 45.6605 137.039 41.7235C136.773 39.8944 136.247 38.1135 135.48 36.4355L134.379 34.1163C133.943 33.4205 133.599 32.6783 133.117 31.9825C130.997 28.7169 128.083 26.0573 124.653 24.2594C120.548 22.204 116.2 20.6843 111.716 19.7368C102.066 18.0097 92.2328 17.573 82.47 18.438C72.5178 19.1439 62.6334 20.6171 52.903 22.8446L52.6736 22.5199Z" fill="#02569C"/>
</svg>
