<svg width="41" height="31" viewBox="0 0 41 31" fill="none" xmlns="http://www.w3.org/2000/svg">
<g clip-path="url(#clip0)">
<path fill-rule="evenodd" clip-rule="evenodd" d="M0.5 0.828491H40.5V30.8285H0.5V0.828491Z" fill="#6FDCFF"/>
<path fill-rule="evenodd" clip-rule="evenodd" d="M4.26224 30.0161C4.46849 30.2161 4.39974 30.5474 4.96849 30.5036C5.83099 30.5036 5.85599 29.9786 5.85599 29.6099C5.85599 29.2411 4.56224 28.7286 4.49974 28.1849C4.43724 27.6411 4.79974 27.4974 5.09974 27.4974C5.39349 27.4974 5.59974 27.6661 5.59974 27.8161C5.59974 27.9661 5.46224 28.0161 5.24974 28.0161C5.03724 28.0161 5.34349 27.9099 5.16224 27.8286C4.98099 27.7474 4.86224 27.9536 4.86224 28.0786C4.86224 28.2161 5.31224 28.2536 5.61224 28.1599C5.67474 28.4536 5.69974 28.4724 5.28099 28.9724C5.58099 28.7786 5.60599 28.7349 5.93724 28.8474C5.60599 28.5599 5.85599 27.9849 5.86224 27.8411C5.86849 27.6974 5.79974 27.5224 5.67474 27.4349C5.43099 27.2161 4.91224 27.2036 4.59974 27.3474C4.14349 27.5474 4.11849 28.1474 4.23724 28.3474L5.49974 29.6224C5.58724 29.7724 5.62474 30.1974 5.08724 30.2161C4.52474 30.2599 4.32474 29.4911 4.22474 29.2349C4.09349 29.5161 3.94349 30.2849 3.37474 30.2411C2.83724 30.2224 2.73724 29.8036 2.82474 29.6474L4.11849 28.3349C4.24349 28.1349 4.21849 27.5349 3.76224 27.3349C3.44974 27.1911 2.93099 27.2099 2.69349 27.4224C2.55599 27.5099 2.48099 27.6786 2.49349 27.8286C2.50599 27.9786 2.74974 28.5474 2.42474 28.8286C2.74974 28.7224 2.78099 28.7661 3.08099 28.9536C2.66224 28.4599 2.69349 28.4411 2.74974 28.1411C3.04974 28.2411 3.49974 28.2036 3.49974 28.0724C3.49974 27.9411 3.37474 27.7224 3.19349 27.8099C3.01849 27.8974 3.31849 28.0036 3.10599 28.0036C2.89974 28.0036 2.74974 27.9599 2.74974 27.8161C2.74974 27.6724 2.95599 27.4849 3.25599 27.4849C3.55599 27.4849 3.91224 27.6349 3.84974 28.1786C3.78724 28.7224 2.47474 29.3099 2.47474 29.6786C2.47474 30.0536 2.56224 30.4974 3.42474 30.4974C3.98724 30.5411 4.05599 30.2099 4.26224 30.0099V30.0161Z" fill="#FFE400"/>
<path fill-rule="evenodd" clip-rule="evenodd" d="M4.19358 22.2847C4.39983 22.0847 4.56858 21.4972 5.13108 21.5347C5.99358 21.5347 6.31858 22.016 6.31858 22.3847C6.31858 22.7535 4.56858 25.7597 4.50608 26.3035C4.44358 26.8472 4.80608 26.9972 5.09983 26.9972C5.39983 26.9972 5.60608 26.8285 5.60608 26.6722C5.60608 26.516 5.45608 26.4847 5.24983 26.4847C5.04358 26.4847 5.33733 26.591 5.16233 26.6722C4.98733 26.7535 4.86233 26.5472 4.86233 26.416C4.86233 26.2847 5.31233 26.241 5.61233 26.341C5.66858 26.0472 5.69358 26.0285 5.28108 25.5285C5.58108 25.716 5.60608 25.766 5.93733 25.6535C5.60608 25.941 5.84983 26.5097 5.86233 26.6535C5.87483 26.7972 5.79983 26.9785 5.66858 27.066C5.43108 27.2847 4.90608 27.291 4.59358 27.1535C4.14358 26.9472 4.11858 26.3535 4.23733 26.1535L5.93733 22.491C6.03108 22.341 5.79358 21.841 5.25608 21.8222C4.69358 21.7785 4.49983 22.3722 4.39983 22.6285L5.16858 22.566C5.16858 22.566 5.19983 22.691 5.16858 22.766C4.91065 22.7848 4.654 22.8182 4.39983 22.866L4.36858 23.2535H4.74358L4.71858 23.4285C4.71858 23.4285 4.39983 23.4035 4.36858 23.4285C4.33733 23.4472 4.30608 23.816 4.30608 23.816C4.30608 23.816 4.24358 23.841 4.18108 23.841C4.11858 23.841 4.05608 23.816 4.05608 23.816C4.05608 23.816 4.03108 23.4472 3.99983 23.4285C3.96858 23.4035 3.64983 23.4285 3.64983 23.4285L3.61858 23.2535H3.99983L3.96858 22.866C3.96858 22.866 3.59358 22.791 3.19983 22.766C3.17483 22.691 3.19983 22.5722 3.19983 22.5722L3.96858 22.6285C3.86858 22.3722 3.67483 21.7785 3.11233 21.816C2.57483 21.841 2.33733 22.341 2.42483 22.491L4.12483 26.1535C4.24358 26.3472 4.21858 26.9472 3.76858 27.1535C3.45608 27.291 2.93108 27.2785 2.69358 27.066C2.56233 26.9785 2.48733 26.8035 2.49983 26.6597C2.51233 26.516 2.74983 25.9347 2.42483 25.6597C2.75608 25.766 2.78733 25.7222 3.08108 25.5285C2.66858 26.0285 2.69358 26.0472 2.75608 26.341C3.04983 26.241 3.49983 26.2785 3.49983 26.416C3.49983 26.541 3.37483 26.7597 3.19983 26.6722C3.02483 26.5847 3.32483 26.4847 3.11233 26.4847C2.90608 26.4847 2.75608 26.5222 2.75608 26.6722C2.75608 26.8222 2.96233 26.9972 3.25608 26.9972C3.54983 26.9972 3.91233 26.8472 3.85608 26.3097C3.79358 25.766 2.04358 22.7472 2.04358 22.3847C2.04358 22.0097 2.36858 21.541 3.23108 21.541C3.79358 21.4972 3.99983 22.0847 4.19983 22.2847H4.19358Z" fill="#FFE400"/>
<path fill-rule="evenodd" clip-rule="evenodd" d="M4.19358 20.7912C4.39983 20.9912 4.56858 21.5787 5.13108 21.5412C5.99358 21.5412 6.31858 21.0599 6.31858 20.6912C6.31858 20.3224 4.56858 17.3162 4.50608 16.7724C4.44358 16.2287 4.80608 16.0787 5.09983 16.0787C5.39983 16.0787 5.60608 16.2474 5.60608 16.4037C5.60608 16.5599 5.45608 16.5912 5.24983 16.5912C5.04358 16.5912 5.33733 16.4912 5.16233 16.4037C4.98733 16.3162 4.86233 16.5287 4.86233 16.6599C4.86233 16.7912 5.31233 16.8349 5.61233 16.7349C5.66858 17.0287 5.69358 17.0474 5.28108 17.5474C5.58108 17.3599 5.60608 17.3099 5.93733 17.4224C5.60608 17.1349 5.84983 16.5662 5.86233 16.4224C5.87483 16.2787 5.79983 16.0974 5.66858 16.0099C5.43108 15.7974 4.90608 15.7849 4.59358 15.9224C4.14358 16.1287 4.11858 16.7224 4.23733 16.9224L5.93733 20.5787C6.03108 20.7287 5.79358 21.2287 5.25608 21.2474C4.69358 21.2912 4.49983 20.6974 4.39983 20.4412L5.16858 20.5037C5.16858 20.5037 5.19983 20.3787 5.16858 20.3037C4.91065 20.2848 4.654 20.2514 4.39983 20.2037L4.36858 19.8162H4.74358L4.71858 19.6412C4.71858 19.6412 4.39983 19.6662 4.36858 19.6412C4.33733 19.6224 4.30608 19.2537 4.30608 19.2537C4.30608 19.2537 4.24358 19.2287 4.18108 19.2287C4.11858 19.2287 4.05608 19.2537 4.05608 19.2537C4.05608 19.2537 4.03108 19.6224 3.99983 19.6412C3.96858 19.6662 3.64983 19.6412 3.64983 19.6412L3.61858 19.8162H3.99983L3.96858 20.2037C3.96858 20.2037 3.59358 20.2787 3.19983 20.3037C3.17483 20.3787 3.19983 20.4974 3.19983 20.4974L3.96858 20.4412C3.86858 20.6974 3.67483 21.2912 3.11233 21.2537C2.57483 21.2287 2.33733 20.7287 2.42483 20.5787L4.12483 16.9224C4.24358 16.7224 4.21858 16.1287 3.76858 15.9224C3.45608 15.7849 2.93108 15.7974 2.69358 16.0099C2.56233 16.0974 2.48733 16.2724 2.49983 16.4162C2.51233 16.5599 2.74983 17.1349 2.42483 17.4162C2.75608 17.3099 2.78733 17.3537 3.08108 17.5474C2.66858 17.0474 2.69358 17.0287 2.75608 16.7349C3.04983 16.8349 3.49983 16.7974 3.49983 16.6599C3.49983 16.5349 3.37483 16.3162 3.19983 16.4037C3.02483 16.4912 3.32483 16.5912 3.11233 16.5912C2.90608 16.5912 2.75608 16.5537 2.75608 16.4037C2.75608 16.2537 2.96233 16.0787 3.25608 16.0787C3.54983 16.0787 3.91233 16.2287 3.85608 16.7662C3.79358 17.3099 2.04358 20.3287 2.04358 20.6912C2.04358 21.0662 2.36858 21.5349 3.23108 21.5349C3.79358 21.5787 3.99983 20.9912 4.19983 20.7912H4.19358Z" fill="#FFE400"/>
<path fill-rule="evenodd" clip-rule="evenodd" d="M4.19358 10.8662C4.39983 10.6662 4.56858 10.0787 5.13108 10.1162C5.99358 10.1162 6.31858 10.5974 6.31858 10.9662C6.31858 11.3349 4.56858 14.3412 4.50608 14.8912C4.44358 15.4287 4.80608 15.5787 5.09983 15.5787C5.39983 15.5787 5.60608 15.4099 5.60608 15.2599C5.60608 15.1099 5.45608 15.0599 5.24983 15.0599C5.04358 15.0599 5.33733 15.1724 5.16233 15.2599C4.98733 15.3474 4.86233 15.1287 4.86233 14.9974C4.86233 14.8724 5.31233 14.8224 5.61233 14.9224C5.66858 14.6287 5.69358 14.6099 5.28108 14.1099C5.58108 14.3037 5.60608 14.3474 5.93733 14.2349C5.60608 14.5224 5.84983 15.0974 5.86233 15.2349C5.87483 15.3724 5.79983 15.5599 5.66858 15.6474C5.43108 15.8662 4.90608 15.8724 4.59358 15.7349C4.14358 15.5287 4.11858 14.9349 4.23733 14.7349L5.93733 11.0787C6.03108 10.9287 5.79358 10.4287 5.25608 10.4099C4.69358 10.3662 4.49983 10.9599 4.39983 11.2162L5.16858 11.1537C5.16858 11.1537 5.19983 11.2787 5.16858 11.3537C4.76858 11.3787 4.39983 11.4537 4.39983 11.4537L4.36858 11.8412H4.74358L4.71858 12.0162C4.71858 12.0162 4.39983 11.9974 4.36858 12.0162C4.33733 12.0349 4.30608 12.4099 4.30608 12.4099C4.30608 12.4099 4.24358 12.4287 4.18108 12.4287C4.11858 12.4287 4.05608 12.4099 4.05608 12.4099C4.05608 12.4099 4.03108 12.0349 3.99983 12.0162C3.96858 11.9974 3.64983 12.0162 3.64983 12.0162L3.61858 11.8412H3.99983L3.96858 11.4537C3.96858 11.4537 3.59358 11.3787 3.19983 11.3537C3.17483 11.2787 3.19983 11.1599 3.19983 11.1599L3.96858 11.2162C3.86858 10.9599 3.67483 10.3662 3.11233 10.4037C2.57483 10.4287 2.33733 10.9287 2.42483 11.0787L4.12483 14.7349C4.24358 14.9349 4.21858 15.5287 3.76858 15.7349C3.45608 15.8724 2.93108 15.8599 2.69358 15.6474C2.56233 15.5599 2.48733 15.3849 2.49983 15.2412C2.51233 15.0974 2.74983 14.5224 2.42483 14.2412C2.75608 14.3474 2.78733 14.3037 3.08108 14.1099C2.66858 14.6099 2.69358 14.6287 2.75608 14.9224C3.04983 14.8224 3.49983 14.8662 3.49983 14.9974C3.49983 15.1224 3.37483 15.3412 3.19983 15.2537C3.02483 15.1724 3.32483 15.0662 3.11233 15.0662C2.90608 15.0662 2.75608 15.1037 2.75608 15.2537C2.75608 15.4037 2.96233 15.5787 3.25608 15.5787C3.54983 15.5787 3.91233 15.4287 3.85608 14.8912C3.79358 14.3474 2.04358 11.3349 2.04358 10.9662C2.04358 10.5974 2.36858 10.1224 3.23108 10.1224C3.79358 10.0787 3.99983 10.6662 4.19983 10.8724L4.19358 10.8662Z" fill="#FFE400"/>
<path fill-rule="evenodd" clip-rule="evenodd" d="M4.19358 9.37234C4.39983 9.57234 4.56858 10.1661 5.13108 10.1223C5.99358 10.1223 6.31858 9.64109 6.31858 9.27234C6.31858 8.90359 4.56858 5.89734 4.50608 5.35359C4.44358 4.80984 4.80608 4.65984 5.09983 4.65984C5.39983 4.65984 5.60608 4.83484 5.60608 4.98484C5.60608 5.13484 5.45608 5.17859 5.24983 5.17859C5.04358 5.17859 5.33733 5.07234 5.16233 4.98484C4.98733 4.89734 4.86233 5.10984 4.86233 5.24109C4.86233 5.37234 5.31233 5.41609 5.61233 5.31609C5.66858 5.60984 5.69358 5.62859 5.28108 6.12859C5.58108 5.94109 5.60608 5.89109 5.93733 6.00359C5.60608 5.72234 5.84983 5.14734 5.86233 5.00359C5.87483 4.85984 5.79983 4.67859 5.66858 4.59109C5.43108 4.37859 4.90608 4.36609 4.59358 4.50984C4.14358 4.70984 4.11858 5.30984 4.23733 5.50359L5.93733 9.16609C6.03108 9.31609 5.79358 9.81609 5.25608 9.84109C4.69358 9.87859 4.49983 9.29109 4.39983 9.02859L5.16858 9.09109C5.16858 9.09109 5.19983 8.96609 5.16858 8.89109C4.91079 8.87412 4.65414 8.84282 4.39983 8.79734L4.36858 8.40359H4.74358L4.71858 8.22859C4.71858 8.22859 4.39983 8.25359 4.36858 8.22859C4.33733 8.20984 4.30608 7.84109 4.30608 7.84109C4.30608 7.84109 4.24358 7.81609 4.18108 7.81609C4.11858 7.81609 4.05608 7.84109 4.05608 7.84109C4.05608 7.84109 4.03108 8.20984 3.99983 8.22859C3.96858 8.25359 3.64983 8.22859 3.64983 8.22859L3.61858 8.40359H3.99983L3.96858 8.79734C3.96858 8.79734 3.59358 8.86609 3.19983 8.89109C3.17483 8.97234 3.19983 9.09109 3.19983 9.09109L3.96858 9.02859C3.86858 9.29109 3.67483 9.87859 3.11233 9.84109C2.57483 9.81609 2.33733 9.31609 2.42483 9.16609L4.12483 5.50359C4.24358 5.30984 4.21858 4.70984 3.76858 4.50359C3.45608 4.36609 2.93108 4.37859 2.69358 4.59109C2.56233 4.67859 2.48733 4.85359 2.49983 4.99734C2.51233 5.14109 2.74983 5.72234 2.42483 5.99734C2.75608 5.89109 2.78733 5.93484 3.08108 6.12859C2.66858 5.62859 2.69358 5.60984 2.75608 5.31609C3.05608 5.41609 3.49983 5.37859 3.49983 5.24109C3.49983 5.11609 3.37483 4.89734 3.19983 4.98484C3.02483 5.07234 3.32483 5.17859 3.11233 5.17859C2.90608 5.17859 2.75608 5.13484 2.75608 4.98484C2.75608 4.83484 2.96233 4.65984 3.25608 4.65984C3.54983 4.65984 3.91858 4.80984 3.85608 5.34734C3.79358 5.89109 2.04358 8.90984 2.04358 9.27234C2.04358 9.64734 2.36858 10.1223 3.23108 10.1223C3.79358 10.1661 3.99983 9.57234 4.19983 9.37234H4.19358Z" fill="#FFE400"/>
<path fill-rule="evenodd" clip-rule="evenodd" d="M4.26224 1.64103C4.46849 1.44103 4.39974 1.10978 4.96849 1.15353C5.83099 1.15353 5.85599 1.67853 5.85599 2.04728C5.85599 2.41603 4.56224 2.92853 4.49974 3.47228C4.43724 4.01603 4.79974 4.15978 5.09974 4.15978C5.39349 4.15978 5.59974 3.99103 5.59974 3.84103C5.59974 3.69103 5.46224 3.64103 5.24974 3.64103C5.03724 3.64103 5.34349 3.74728 5.16224 3.82853C4.98099 3.90978 4.86224 3.70353 4.86224 3.57853C4.86224 3.44103 5.31224 3.39728 5.61224 3.49728C5.67474 3.20353 5.69974 3.18478 5.28099 2.68478C5.58099 2.87853 5.60599 2.92228 5.93724 2.80978C5.60599 3.09728 5.85599 3.67228 5.86224 3.81603C5.86849 3.95978 5.79974 4.13478 5.67474 4.22228C5.42474 4.45353 4.90599 4.45353 4.59349 4.31603C4.13724 4.11603 4.11224 3.51603 4.23099 3.31603L5.49974 2.03478C5.58724 1.88478 5.62474 1.45978 5.08724 1.44103C4.52474 1.39728 4.32474 2.16603 4.22474 2.42228C4.09349 2.14103 3.94349 1.36603 3.37474 1.40978C2.83724 1.42853 2.73724 1.84728 2.82474 2.00353L4.11849 3.31603C4.24349 3.51603 4.21849 4.11603 3.76224 4.31603C3.44974 4.45978 2.93099 4.44728 2.69349 4.22853C2.55599 4.14103 2.48099 3.97228 2.49349 3.82228C2.50599 3.67228 2.74974 3.10353 2.42474 2.82228C2.74974 2.92853 2.78099 2.88478 3.07474 2.69728C2.66224 3.19103 2.69349 3.20978 2.74974 3.50978C3.04974 3.40978 3.49974 3.44728 3.49974 3.57853C3.49974 3.70978 3.37474 3.92853 3.19349 3.84103C3.01849 3.75353 3.31849 3.64728 3.10599 3.64728C2.89974 3.64728 2.74974 3.69103 2.74974 3.83478C2.74974 3.97853 2.95599 4.16603 3.25599 4.16603C3.55599 4.16603 3.91224 4.01603 3.84974 3.47228C3.78724 2.92853 2.47474 2.34103 2.47474 1.97228C2.47474 1.59728 2.56224 1.15353 3.42474 1.15353C3.98724 1.10978 4.05599 1.44103 4.26224 1.64103Z" fill="#FFE400"/>
<path d="M28.0946 13.6977C28.0946 10.7265 25.5531 8.31787 22.4179 8.31787C19.2828 8.31787 16.7412 10.7265 16.7412 13.6977C16.7412 16.6689 19.2828 19.0776 22.4179 19.0776C25.5531 19.0776 28.0946 16.6689 28.0946 13.6977Z" fill="#FFE400"/>
<path fill-rule="evenodd" clip-rule="evenodd" d="M22.1513 5.10939C22.0979 5.10939 21.8444 6.89712 21.751 7.29736C21.6576 8.19789 22.9517 8.16454 22.7383 7.26401L22.1513 5.10272V5.10939ZM22.6049 22.4397C22.6516 22.4397 23.0385 20.672 23.1652 20.2784C23.3186 19.3912 22.0245 19.3445 22.1646 20.2517L22.6049 22.4397ZM13.5595 13.6611C13.5595 13.7078 15.4206 14.0814 15.8342 14.2015C16.7681 14.3549 16.8348 13.1342 15.8742 13.2676L13.5595 13.6678V13.6611ZM31.6836 13.8746C31.6836 13.8279 29.8025 13.5211 29.3822 13.4143C28.4417 13.3009 28.435 14.5216 29.3822 14.3549L31.6836 13.8746ZM15.4673 7.9911C15.434 8.02446 16.6613 9.41195 16.9082 9.75215C17.5485 10.4192 18.3957 9.48532 17.5485 9.03172L15.4673 7.99777V7.9911ZM29.549 19.3979C29.5823 19.3645 28.2349 18.0838 27.9547 17.7702C27.2543 17.1565 26.5005 18.1505 27.381 18.5374L29.549 19.4045V19.3979ZM18.2756 6.05662C18.2356 6.07663 18.8093 7.79766 18.9027 8.20456C19.2229 9.05173 20.3836 8.49807 19.7832 7.77097L18.2823 6.05662H18.2756ZM26.4872 21.5592C26.5339 21.5391 26.0869 19.7848 26.0269 19.3779C25.7667 18.5107 24.5727 18.9776 25.113 19.7514L26.4938 21.5525L26.4872 21.5592ZM28.5084 7.25733C28.4683 7.22398 26.9875 8.36466 26.6273 8.59146C25.9135 9.19182 26.8807 10.0056 27.3744 9.21183L28.5084 7.25733ZM16.3011 20.1783C16.3345 20.2117 17.9021 19.1777 18.2756 18.971C19.0294 18.424 18.1289 17.5434 17.5752 18.3039L16.3078 20.1783H16.3011ZM13.9664 10.566C13.9464 10.606 15.5674 11.5465 15.9209 11.7934C16.7547 12.227 17.2417 11.0929 16.2878 10.9128L13.9664 10.566ZM30.8898 17.1299C30.9098 17.0898 29.3555 16.0426 29.022 15.7757C28.2215 15.2821 27.6545 16.3828 28.5951 16.6229L30.8898 17.1299ZM25.5133 5.59635C25.4666 5.58301 24.5394 7.15728 24.2925 7.49748C24.293 7.60612 24.3274 7.71189 24.3911 7.79996C24.4547 7.88802 24.5443 7.95397 24.6473 7.98855C24.7502 8.02312 24.8615 8.02459 24.9653 7.99275C25.0692 7.96091 25.1605 7.89735 25.2264 7.811L25.5133 5.59635ZM19.2495 21.8927C19.2962 21.9127 20.3369 20.3985 20.6037 20.0716C21.0906 19.2978 19.9099 18.8042 19.6898 19.6981L19.2495 21.8927ZM14.0798 17.2699C14.0998 17.31 15.9476 16.8697 16.3812 16.803C17.2884 16.5495 16.7814 15.4289 15.9809 15.9492L14.0798 17.2699ZM30.8965 10.4192C30.8831 10.3792 29.0087 10.6927 28.5751 10.7327C27.6412 10.9262 28.0748 12.0802 28.9086 11.6133L30.8965 10.4192Z" fill="#FFE400"/>
<path fill-rule="evenodd" clip-rule="evenodd" d="M23.9924 5.22292C23.9457 5.21625 23.3187 6.91726 23.1319 7.29081C22.8584 8.15799 24.1325 8.37145 24.1125 7.45091L23.9991 5.21625L23.9924 5.22292ZM20.7571 22.293C20.8038 22.3064 21.5576 20.6454 21.7711 20.2785C22.1046 19.438 20.8505 19.1445 20.8038 20.0584L20.7505 22.293H20.7571ZM20.1101 5.38968C20.0634 5.40302 20.2368 7.20409 20.2368 7.61767C20.3636 8.50487 21.611 8.19802 21.1974 7.37086L20.1101 5.38968ZM24.6461 22.193C24.6928 22.1863 24.6461 20.3786 24.6795 19.965C24.6194 19.0645 23.3453 19.2913 23.7055 20.1451L24.6394 22.193H24.6461ZM16.8948 6.8839C16.8548 6.91059 17.742 8.50487 17.9088 8.88509C18.3891 9.66555 19.423 8.93179 18.6959 8.31142L16.8948 6.8839ZM27.888 20.7521C27.9281 20.7254 27.1543 19.0711 27.0208 18.6842C26.6006 17.8771 25.52 18.5442 26.1937 19.2045L27.888 20.7521ZM14.5468 9.12523C14.5201 9.16526 15.9543 10.3526 16.2545 10.6595C16.9949 11.2198 17.682 10.1792 16.7748 9.85233L14.5468 9.12523ZM30.1694 18.4441C30.1961 18.4041 28.8553 17.1233 28.5751 16.8031C27.8814 16.1961 27.1209 17.19 28.0014 17.5769L30.1694 18.4441ZM13.5195 11.9202C13.5062 11.9669 15.2739 12.6407 15.6608 12.8341C16.5546 13.1343 16.8415 11.9402 15.8676 11.9136L13.5195 11.9202ZM31.3568 15.7758C31.3768 15.7358 29.6624 14.9487 29.2889 14.7286C28.4217 14.3683 28.0415 15.5424 29.0087 15.6358L31.3568 15.7758ZM13.4595 15.3556C13.4661 15.3956 15.3739 15.3689 15.8075 15.4023C16.7548 15.3556 16.528 14.1482 15.6208 14.4751L13.4595 15.3556ZM31.4835 12.3538C31.4835 12.3071 29.5757 12.2071 29.1488 12.147C28.1949 12.1337 28.335 13.3544 29.2622 13.0809L31.4835 12.3471V12.3538ZM15.0938 18.9177C15.1205 18.9577 16.8281 18.1439 17.2284 17.9905C18.0555 17.5569 17.2951 16.563 16.6347 17.2367L15.0938 18.9177ZM29.9226 8.75835C29.8959 8.71833 28.1415 9.41874 27.7213 9.54548C26.8608 9.92571 27.5478 10.9663 28.2549 10.3393L29.9226 8.75835ZM17.8688 21.2791C17.9088 21.2991 19.1295 19.9116 19.4363 19.6181C20.0167 18.9044 18.9027 18.284 18.5758 19.1512L17.8688 21.2791ZM27.1876 6.35025C27.1543 6.32357 25.8335 7.62434 25.5066 7.89784C24.8796 8.57157 25.9469 9.26532 26.3338 8.42482L27.1809 6.35025H27.1876Z" fill="#FFE400"/>
<path fill-rule="evenodd" clip-rule="evenodd" d="M13.7383 17.2762C13.8402 17.6202 13.8547 19.5467 15.9074 21.4045C17.9455 23.2484 21.4395 23.6612 21.4395 23.6612C21.4395 23.6612 21.454 23.9227 21.2065 23.9364C20.959 23.964 19.7653 23.73 19.1684 23.5511C18.5861 23.386 18.062 23.0833 18.0038 23.097C17.931 23.1246 17.8145 23.3172 17.6398 23.2897C17.4651 23.2622 16.6208 22.4365 16.2423 22.2163C15.4852 21.5978 14.8149 20.8903 14.2478 20.1109C13.8402 19.4917 13.7383 19.0789 13.6073 19.0789C13.4762 19.0789 12.9958 19.3816 12.9958 19.3816C12.9958 19.3816 12.5591 18.7624 12.1806 17.7716C11.7875 16.7808 11.8312 16.2029 11.9185 16.1616C12.0204 16.1203 12.0204 16.8909 12.3116 17.5927C12.6028 18.3083 13.0104 18.5284 13.0104 18.5284C13.0104 18.5284 12.7483 18.1569 12.5445 17.2349C12.3407 16.3129 12.2534 15.4185 12.399 15.1433C12.5445 14.8681 12.6756 14.7855 12.6901 14.7993C12.7192 14.8268 12.4426 15.2258 12.6319 16.2854C12.8211 17.345 13.3307 18.2395 13.4471 18.1982C13.5636 18.1569 13.3743 17.9367 13.3015 17.3175C13.2288 16.6982 13.3743 16.3129 13.5345 16.2579C13.6073 16.2029 13.7237 16.9459 13.7383 17.2762ZM12.3116 19.0376C11.9185 18.6936 11.3071 17.4964 11.1761 17.5514C11.0305 17.6202 12.166 19.3403 12.1951 19.4779C12.2243 19.6431 12.4717 20.1109 12.2825 20.0421C12.0932 19.9733 10.7393 18.6248 10.8995 18.8862C11.0596 19.1477 12.0787 20.3311 12.0204 20.3999C11.9622 20.4687 11.1761 19.7394 11.147 19.8357C11.1324 19.9183 11.9185 20.6338 11.904 20.7164C11.8894 20.799 11.3945 20.2623 11.3945 20.3724C11.3945 20.4825 11.904 21.0192 11.904 21.1017C11.904 21.1843 11.4672 20.7164 11.6128 20.9641C11.7438 21.2393 12.1224 21.4733 12.1078 21.5558C12.0932 21.6384 11.7875 21.4457 11.7875 21.487C11.7875 21.5283 12.3553 21.721 12.4863 21.8723C12.6319 22.0237 13.5636 23.042 14.2624 23.5511C14.9612 24.0603 16.9702 24.9548 17.1157 24.9548C17.2468 24.9548 17.4506 24.6795 17.4069 24.5694C17.3632 24.4594 15.3979 23.8264 14.8592 23.3585C14.306 22.8906 12.9667 21.7622 12.8502 21.7072C12.7483 21.6384 12.4426 21.6659 12.4426 21.5971C12.4426 21.5283 12.8357 21.6384 12.8066 21.5971C12.792 21.5558 12.2679 21.3357 12.2825 21.2944C12.3116 21.2531 12.6464 21.3769 12.6464 21.3356C12.6464 21.2944 12.035 20.9779 12.0641 20.9091C12.0787 20.8403 12.5154 21.1017 12.5154 21.0467C12.5154 21.0191 11.9331 20.6338 11.9477 20.565C11.9622 20.4962 12.399 20.8678 12.3844 20.7852C12.3698 20.7027 12.035 20.2348 12.035 20.1797C12.035 20.1109 12.5591 20.6476 12.6173 20.5375C12.6464 20.4412 12.4281 19.5467 12.4426 19.533C12.4572 19.5192 12.8357 19.7256 12.8939 19.6018C12.9667 19.4642 12.6319 19.2853 12.3116 19.0376ZM19.0228 25.8079C18.7462 25.8492 18.6152 25.7529 18.7753 25.5327C18.9937 25.5327 19.576 25.3538 19.7798 25.2712C19.9837 25.1887 20.202 25.0786 20.3767 24.9272C20.5514 24.7483 20.6679 25.0236 20.566 25.1749C20.4932 25.2712 20.1583 25.4501 19.9109 25.5465C19.5469 25.6566 19.2266 25.8217 19.0228 25.8079ZM20.8426 25.1061C20.6533 24.9135 20.8135 24.7759 21.0901 24.6245C21.4977 24.4181 21.3812 24.1291 21.9053 23.8952C22.1382 23.7576 25.3992 22.5191 26.4619 21.8586C27.5247 21.198 30.5091 19.0651 31.3097 17.5927C32.0959 16.1341 31.7174 16.024 31.8338 15.9689C31.9357 15.9001 32.0522 16.1753 32.0376 16.5056C32.0085 16.8221 31.7465 17.7854 31.8338 17.8817C31.9212 17.978 33.0276 17.1248 33.4934 16.0928C33.9593 15.0607 34.3087 13.9874 34.5271 13.9874C34.76 13.9874 34.1486 15.7488 33.7555 16.4368C33.377 17.1248 32.9257 17.4689 33.0276 17.6202C33.1441 17.7578 34.2796 16.8634 34.6726 16.2029C35.0511 15.5286 35.4151 14.9369 35.4879 15.0607C35.3721 15.8668 35.0359 16.6304 34.5125 17.2762C33.9011 17.9367 33.1732 18.4184 33.2896 18.5147C33.3915 18.6248 34.2213 18.7349 35.0803 18.1844C35.9537 17.6202 36.0411 16.8083 36.143 16.8496C36.2595 16.8909 36.0411 18.0055 35.2113 18.6936C34.3815 19.3816 33.2896 19.4504 33.3188 19.6018C33.377 19.7394 35.6917 18.9688 35.648 19.1477C35.6044 19.3128 32.6491 20.4137 32.62 20.5238C32.62 20.6063 33.1295 20.6338 33.9302 20.455C34.7163 20.2898 35.4733 19.6981 35.5752 19.8357C35.6044 20.0284 35.0075 20.4962 34.1049 20.7164C33.1877 20.9366 32.7364 21.2256 32.7073 21.2944C32.6928 21.3632 34.3378 21.1017 34.3378 21.1843C34.3378 21.2668 32.1832 21.6659 32.1687 21.776C32.1396 21.8723 34.2068 21.3769 34.1777 21.5008C34.1194 21.5971 31.368 22.3677 31.3971 22.409C31.4117 22.464 33.6973 21.9411 33.6536 22.0237C33.5954 22.12 29.8103 23.1246 29.7812 23.1934C29.752 23.2484 33.1295 22.4778 33.1004 22.5466C33.0713 22.6154 31.3534 23.0145 31.3534 23.0558C31.3534 23.097 32.7364 22.8493 32.7073 22.9181C32.6928 22.9732 29.2134 23.8126 29.1406 23.9364C29.0678 24.0741 30.9458 23.5924 30.9167 23.8401C30.8876 24.0878 26.8841 25.3538 26.8696 25.1199C26.8405 24.8859 29.3008 24.2942 29.2862 24.2254C29.2571 24.1566 27.8741 24.363 27.845 24.2392C27.8304 24.1016 28.7621 23.8264 28.6893 23.7713C28.6165 23.7025 27.9177 23.964 27.976 23.8126C28.0488 23.6612 29.3735 23.0833 29.3444 23.042C29.3299 23.0007 28.864 23.1796 28.9077 23.042C28.9659 22.8906 31.7756 22.12 31.7319 22.0237C31.6883 21.9411 30.4363 22.2163 30.3198 22.2439C30.2761 22.1613 32.0668 21.5283 32.0376 21.4182C31.9794 21.3219 31.0768 21.7898 31.0186 21.6659C30.9895 21.5283 32.6054 20.9366 32.5035 20.8403C32.4016 20.7439 31.6737 21.088 31.5718 20.9916C31.4699 20.8953 33.1004 19.8357 32.8529 19.8082C32.6054 19.7944 32.2997 20.1385 32.2706 19.9183C32.2997 19.6431 33.5371 19.189 33.2605 18.9688C32.8238 18.8449 31.3534 19.0651 30.742 19.4091C30.1306 19.7532 28.0924 21.6659 27.5975 21.9686C27.1025 22.2576 25.4138 22.9319 25.0935 23.0695C24.5985 23.2346 24.5112 23.4823 24.0017 23.73C23.0845 23.964 23.0991 24.2254 22.6623 24.3768C22.5022 24.4181 20.8571 25.1612 20.8426 25.1061ZM18.5424 26.0694C18.2658 26.207 18.0183 26.5372 18.1785 26.6749C18.2658 26.84 18.5424 26.3033 18.7608 26.3308L19.9254 26.3859C20.5514 26.4272 20.8571 26.262 21.2065 26.2895C21.5559 26.3171 22.3275 26.1107 22.6914 26.1107C23.0554 26.1107 23.1282 26.1519 23.1573 26.0006C23.201 25.863 22.0218 25.9593 21.4977 25.9455C20.9736 25.918 20.3185 26.0419 19.9254 26.0419C19.5615 26.0281 18.9355 25.918 18.5424 26.0694Z" fill="#FFE400"/>
<path d="M20.2892 25.9043C20.2892 25.7903 20.1784 25.6979 20.0417 25.6979C19.9051 25.6979 19.7943 25.7903 19.7943 25.9043C19.7943 26.0183 19.9051 26.1107 20.0417 26.1107C20.1784 26.1107 20.2892 26.0183 20.2892 25.9043Z" fill="#FFE400"/>
<path fill-rule="evenodd" clip-rule="evenodd" d="M26.0982 25.5052C26.3457 25.4639 27.0153 25.6841 27.4812 25.7804C28.3256 26.0969 29.8978 25.9456 29.8978 26.0969C29.8978 26.2483 29.7959 26.4272 29.432 26.4547C29.068 26.4822 28.1509 26.3171 28.18 26.3171C28.2091 26.3171 28.9079 26.6336 28.7041 26.7162C28.5003 26.7987 27.9034 26.5373 27.8015 26.6061C27.6996 26.6749 28.3547 26.7987 28.2382 26.84C28.1509 26.8813 27.6996 26.785 27.554 26.7987C27.4084 26.8263 27.6705 26.9776 27.4958 27.0327C27.3211 27.1015 27.0299 26.9501 26.9134 26.9914C26.7824 27.0327 27.1755 27.2666 27.0008 27.2941C26.8261 27.3216 26.4185 27.184 26.1855 27.1565C25.9526 27.1565 26.4039 27.3767 26.2583 27.4042C26.1128 27.418 25.7051 27.2253 25.6032 27.2253C25.5013 27.2253 25.6032 27.5005 25.4576 27.5005C25.3121 27.5005 25.1374 27.2666 25.05 27.2666C24.9627 27.2666 25.05 27.5418 24.9044 27.5418C24.7589 27.5418 24.7006 27.2528 24.5842 27.2666C24.4386 27.2941 24.5842 27.6381 24.3804 27.6106C24.1911 27.5969 24.162 27.2528 24.0019 27.2666C23.8563 27.2941 24.031 27.6106 23.8854 27.6106C23.7398 27.6106 23.7107 27.2941 23.5651 27.2666C23.4195 27.2528 23.4778 27.5693 23.3904 27.5693C23.3031 27.5693 23.2157 27.2666 23.1575 27.2666C23.1138 27.2666 23.1575 27.5693 22.9828 27.5418C22.8081 27.5143 22.8081 27.2116 22.7644 27.2253C22.7062 27.2528 22.7062 27.473 22.5897 27.473C22.4733 27.473 22.4587 27.2528 22.415 27.2804C22.3568 27.2941 22.1821 27.5693 22.0656 27.528C21.9346 27.4868 22.0948 27.2666 22.0365 27.2666C21.9783 27.2666 21.8327 27.418 21.7454 27.4042C21.658 27.3904 21.7454 27.2116 21.7163 27.2116C21.6871 27.2116 21.4688 27.3216 21.3669 27.3216C21.265 27.3216 20.9884 27.4592 20.9156 27.3354C20.8428 27.1978 21.1048 27.1978 21.1631 27.0739C21.2067 26.9501 21.0175 26.5786 21.2213 26.4547C21.4105 26.3171 22.0365 26.6336 22.9682 26.4134C24.657 25.9868 25.9672 25.4915 26.0982 25.5052Z" fill="#FFE400"/>
</g>
<defs>
<clipPath id="clip0">
<rect width="40" height="30" fill="white" transform="translate(0.5 0.828491)"/>
</clipPath>
</defs>
</svg>
