<svg width="40" height="31" viewBox="0 0 40 31" fill="none" xmlns="http://www.w3.org/2000/svg">
<g clip-path="url(#clip0)">
<path fill-rule="evenodd" clip-rule="evenodd" d="M-2.5 0.901978H42.5V30.902H-2.5V0.901978Z" fill="#28AE66"/>
<path fill-rule="evenodd" clip-rule="evenodd" d="M12.9277 8.95862C14.5625 9.74377 16.5078 8.95862 17.2109 7.86877C17.9375 6.84924 18.0254 5.14416 16.7773 3.57971C18.7109 5.18518 19.1445 7.00744 18.1777 8.50744C16.8887 10.2242 14.041 10.1715 12.9277 8.95862Z" fill="white"/>
<path fill-rule="evenodd" clip-rule="evenodd" d="M15.8281 4.96838L16.1562 4.97424L15.8984 5.17932L15.998 5.50745L15.7227 5.31409L15.459 5.50745L15.5469 5.18518L15.2832 4.9801L15.6113 4.97424L15.7227 4.65198L15.8281 4.96838ZM14.2051 7.00745H14.5332L14.2754 7.21838L14.375 7.54065L14.0996 7.34729L13.8301 7.54651L13.9238 7.21838L13.6602 7.01917L13.9883 7.00745L14.0938 6.68518L14.2051 7.00745ZM14.3105 5.40198H14.6445L14.3809 5.61292L14.4805 5.93518L14.2109 5.74182L13.9414 5.94104L14.0352 5.61292L13.7715 5.40784L14.0996 5.40198L14.2051 5.07971L14.3105 5.40198ZM14.3105 3.79065H14.6445L14.375 4.00745L14.4746 4.32971L14.2051 4.14221L13.9355 4.33557L14.0293 4.01331L13.7656 3.80823L14.0938 3.80237L14.1992 3.4801L14.3105 3.79065ZM12.5117 5.82971H12.8398L12.5762 6.04065L12.6758 6.36291L12.4062 6.16956L12.1367 6.36877L12.2305 6.04065L11.9668 5.84143L12.2949 5.82971L12.4004 5.50745L12.5117 5.82971Z" fill="white"/>
<path fill-rule="evenodd" clip-rule="evenodd" d="M0.283203 0.901978H9.92773V30.902H0.283203V0.901978Z" fill="#CA3745"/>
<path fill-rule="evenodd" clip-rule="evenodd" d="M0.283203 8.72424V8.50745L0.681641 7.97424L0.605469 7.86292L0.839844 7.54651L0.763672 7.43518L0.605469 7.65198L0.523437 7.54651L1.08594 6.79651L1.16797 6.90198L1.08594 7.00745L1.25 7.2301L1.64844 6.69104L1.24414 6.16956L1.08594 6.36877L1.16797 6.4801L1.08594 6.58557L0.523437 5.83557L0.605469 5.7301L0.763672 5.94104L0.845703 5.83557L0.605469 5.51331L0.681641 5.40784L0.283203 4.86877V4.65198L0.845703 5.40198L0.763672 5.50745L1.00391 5.82971L0.845703 6.04651L1.00391 6.25745L1.25 5.94104L1.81836 6.70276L1.25 7.44104L1.01562 7.11877L0.851562 7.33557L1.00977 7.55237L0.775391 7.86877L0.851562 7.9801L0.289062 8.7301L0.283203 8.72424Z" fill="#FAAE29"/>
<path fill-rule="evenodd" clip-rule="evenodd" d="M0.283203 6.04651L0.365234 6.25745V6.58557H0.605469L0.769531 6.69104L0.605469 6.80237H0.371094V7.11877L0.289062 7.33557V6.04651H0.283203Z" fill="#FAAE29"/>
<path fill-rule="evenodd" clip-rule="evenodd" d="M0.283203 13.8688V13.652L0.681641 13.1188L0.605469 13.0074L0.839844 12.6852L0.763672 12.5797L0.605469 12.7965L0.523437 12.6852L1.08594 11.9352L1.16797 12.0465L1.08594 12.152L1.25 12.3688L1.64844 11.8297L1.24414 11.3082L1.08594 11.5074L1.16797 11.6188L1.08594 11.7242L0.523437 10.9742L0.605469 10.8629L0.763672 11.0739L0.845703 10.9684L0.605469 10.6461L0.681641 10.5407L0.283203 10.0016V9.79065L0.845703 10.5407L0.763672 10.6461L1.00391 10.9684L0.845703 11.1793L1.00391 11.3961L1.24414 11.0739L1.8125 11.8356L1.24414 12.5739L1.00977 12.2516L0.845703 12.4684L1.00391 12.6793L0.769531 13.0016L0.845703 13.1129L0.283203 13.8629V13.8688Z" fill="#FAAE29"/>
<path fill-rule="evenodd" clip-rule="evenodd" d="M0.283203 11.1852L0.365234 11.402V11.7242H0.605469L0.769531 11.8297L0.605469 11.9352H0.371094V12.2574L0.289062 12.4742V11.1852H0.283203Z" fill="#FAAE29"/>
<path fill-rule="evenodd" clip-rule="evenodd" d="M0.283203 19.0074V18.7965L0.681641 18.2574L0.605469 18.152L0.839844 17.8297L0.763672 17.7242L0.605469 17.9352L0.523437 17.8297L1.08594 17.0797L1.16797 17.1852L1.08594 17.2965L1.25 17.5133L1.64844 16.9742L1.24414 16.4469L1.08594 16.652L1.16797 16.7574L1.08594 16.8629L0.523437 16.1129L0.605469 16.0074L0.763672 16.2242L0.845703 16.1129L0.605469 15.7965L0.681641 15.6852L0.283203 15.152V14.9352L0.845703 15.6852L0.763672 15.7965L1.00391 16.1129L0.845703 16.3297L1.00391 16.5465L1.25 16.2242L1.8125 16.986L1.24414 17.7242L1.00977 17.402L0.845703 17.6129L1.00391 17.8297L0.769531 18.152L0.845703 18.2574L0.283203 19.0074Z" fill="#FAAE29"/>
<path fill-rule="evenodd" clip-rule="evenodd" d="M0.283203 16.3297L0.371094 16.5465V16.8688H0.605469L0.769531 16.9742L0.605469 17.0739H0.371094V17.3961L0.289062 17.6129V16.3239L0.283203 16.3297Z" fill="#FAAE29"/>
<path fill-rule="evenodd" clip-rule="evenodd" d="M0.283203 23.8297V23.6129L0.681641 23.0797L0.605469 22.9742L0.839844 22.652L0.763672 22.5465L0.605469 22.7574L0.523437 22.652L1.08594 21.902L1.16797 22.0074L1.08594 22.1129L1.25 22.3297L1.64844 21.7965L1.24414 21.2692L1.08594 21.4742L1.16797 21.5797L1.08594 21.6852L0.523437 20.9352L0.605469 20.8297L0.763672 21.0465L0.845703 20.9352L0.605469 20.6129L0.681641 20.5074L0.283203 19.9742V19.7574L0.845703 20.5074L0.763672 20.6129L1.00391 20.9352L0.845703 21.152L1.00391 21.3629L1.25 21.0465L1.8125 21.8082L1.24414 22.5465L1.00977 22.2242L0.845703 22.4352L1.00391 22.652L0.769531 22.9742L0.845703 23.0797L0.283203 23.8297Z" fill="#FAAE29"/>
<path fill-rule="evenodd" clip-rule="evenodd" d="M0.283203 21.152L0.365234 21.3629V21.6852H0.605469L0.769531 21.7965L0.605469 21.902H0.371094V22.2242L0.289062 22.4352V21.1461L0.283203 21.152Z" fill="#FAAE29"/>
<path fill-rule="evenodd" clip-rule="evenodd" d="M9.92774 8.72424V8.50745L9.5293 7.97424L9.61133 7.86292L9.3711 7.54651L9.44727 7.43518L9.61133 7.65198L9.69336 7.54651L9.13086 6.79651L9.04883 6.90198L9.13086 7.00745L8.96094 7.22424L8.56836 6.68518L8.9668 6.1637L9.13086 6.36291L9.04883 6.47424L9.125 6.57971L9.6875 5.82971L9.61133 5.72424L9.44727 5.93518L9.3711 5.82971L9.60547 5.50745L9.5293 5.40198L9.92774 4.86291V4.65198L9.3711 5.40198L9.44727 5.50745L9.21289 5.82971L9.3711 6.04651L9.20703 6.25745L8.9668 5.93518L8.39844 6.6969L8.9668 7.43518L9.20703 7.11292L9.3711 7.32971L9.20703 7.54651L9.44727 7.86292L9.3711 7.97424L9.92774 8.72424Z" fill="#FAAE29"/>
<path fill-rule="evenodd" clip-rule="evenodd" d="M9.92773 6.04651L9.8457 6.25745V6.58557H9.61133L9.44727 6.69104L9.60547 6.80237H9.8457V7.11877L9.92773 7.33557V6.04651Z" fill="#FAAE29"/>
<path fill-rule="evenodd" clip-rule="evenodd" d="M9.95703 13.8688V13.652L9.5586 13.1188L9.63477 13.0074L9.40039 12.6852L9.47656 12.5797L9.63477 12.7965L9.7168 12.6852L9.1543 11.9352L9.07227 12.0465L9.1543 12.152L8.99024 12.3688L8.5918 11.8297L8.99609 11.3082L9.1543 11.5074L9.07227 11.6129L9.1543 11.7242L9.7168 10.9742L9.63477 10.8629L9.47656 11.0797L9.39453 10.9742L9.63477 10.652L9.5586 10.5465L9.95703 10.0074V9.79651L9.39453 10.5465L9.47656 10.652L9.23633 10.9742L9.39453 11.1852L9.23633 11.402L8.99609 11.0797L8.42773 11.8414L8.99609 12.5797L9.23047 12.2574L9.39453 12.4742L9.23633 12.6852L9.47071 13.0074L9.39453 13.1129L9.95703 13.8629V13.8688Z" fill="#FAAE29"/>
<path fill-rule="evenodd" clip-rule="evenodd" d="M9.95704 11.1852L9.875 11.402V11.7242H9.62891L9.46484 11.8297L9.62891 11.9352H9.86328V12.2574L9.95118 12.4742V11.1852H9.95704Z" fill="#FAAE29"/>
<path fill-rule="evenodd" clip-rule="evenodd" d="M9.92774 19.0074V18.7965L9.5293 18.2574L9.61133 18.152L9.3711 17.8297L9.44727 17.7242L9.61133 17.9352L9.69336 17.8297L9.13086 17.0797L9.04883 17.1852L9.13086 17.2965L8.96094 17.5133L8.56836 16.9742L8.9668 16.4469L9.13086 16.652L9.04883 16.7574L9.125 16.8629L9.6875 16.1129L9.61133 16.0074L9.44727 16.2242L9.3711 16.1129L9.60547 15.7965L9.5293 15.6852L9.92774 15.152V14.9352L9.3711 15.6852L9.44727 15.7965L9.21289 16.1129L9.3711 16.3297L9.20703 16.5465L8.9668 16.2242L8.39844 16.986L8.9668 17.7242L9.20703 17.402L9.3711 17.6129L9.20703 17.8297L9.44727 18.152L9.3711 18.2574L9.92188 19.0074H9.92774Z" fill="#FAAE29"/>
<path fill-rule="evenodd" clip-rule="evenodd" d="M9.92773 16.3297L9.8457 16.5465V16.8688H9.61133L9.44727 16.9742L9.60547 17.0797H9.8457V17.402L9.92773 17.6188V16.3297Z" fill="#FAAE29"/>
<path fill-rule="evenodd" clip-rule="evenodd" d="M9.92774 23.8297V23.6129L9.5293 23.0797L9.61133 22.9742L9.3711 22.652L9.44727 22.5465L9.61133 22.7574L9.69336 22.652L9.13086 21.902L9.04883 22.0074L9.13086 22.1129L8.96094 22.3297L8.56836 21.7965L8.9668 21.2692L9.13086 21.4742L9.04883 21.5797L9.125 21.6852L9.6875 20.941L9.61133 20.8356L9.44727 21.0524L9.3711 20.941L9.60547 20.6188L9.5293 20.5133L9.92774 19.9801V19.7633L9.3711 20.5133L9.44727 20.6188L9.21289 20.941L9.3711 21.1578L9.20703 21.3688L8.9668 21.0524L8.39844 21.8141L8.9668 22.5524L9.20703 22.2301L9.3711 22.441L9.20703 22.6578L9.44727 22.9801L9.3711 23.0856L9.92774 23.8356V23.8297Z" fill="#FAAE29"/>
<path fill-rule="evenodd" clip-rule="evenodd" d="M9.92773 21.152L9.8457 21.3629V21.6852H9.61133L9.44727 21.7965L9.60547 21.902H9.8457V22.2242L9.92773 22.4352V21.1461V21.152Z" fill="#FAAE29"/>
<path fill-rule="evenodd" clip-rule="evenodd" d="M0.283203 2.93518V2.72424L0.681641 2.18518L0.605469 2.07971L0.839844 1.75745L0.763672 1.65198L0.605469 1.86877L0.523437 1.75745L1.08594 1.00745L1.16797 1.11877L1.08594 1.22424L1.25 1.44104L1.64844 0.901978H1.8125L1.25 1.65198L1.00391 1.32971L0.845703 1.54651L1.00391 1.75745L0.769531 2.07971L0.839844 2.19104L0.283203 2.94104V2.93518ZM0.283203 0.901978H0.769531L0.605469 1.00745H0.371094V1.32971L0.277344 1.54651V0.901978H0.283203ZM9.92774 2.93518V2.72424L9.5293 2.18518L9.61133 2.07971L9.37109 1.75745L9.44727 1.65198L9.61133 1.86877L9.6875 1.75745L9.125 1.00745L9.04883 1.11877L9.125 1.22424L8.96094 1.44104L8.5625 0.901978H8.39844L8.9668 1.65198L9.20703 1.32971L9.37109 1.54651L9.20703 1.75745L9.44727 2.07971L9.37109 2.18518L9.92774 2.93518ZM9.92774 0.901978H9.44727L9.60547 1.00745H9.8457V1.32971L9.92774 1.54651V0.901978Z" fill="#FAAE29"/>
<path fill-rule="evenodd" clip-rule="evenodd" d="M4.30273 30.4742C4.30273 30.4742 4.6543 29.8648 5.52148 29.6832C6.39453 29.4957 6.54687 30.0875 7.04492 30.0875C7.54297 30.0875 8.33398 29.6773 8.33398 29.6773C8.33398 29.6773 7.54297 30.4566 6.92773 30.4391C6.32422 30.4215 6.11914 30.0289 5.49219 30.0875C4.87109 30.1461 4.30273 30.4918 4.30273 30.4742Z" fill="#FAAE29"/>
<path fill-rule="evenodd" clip-rule="evenodd" d="M5.98438 30.4742C5.98438 30.4742 5.63867 29.8648 4.77148 29.6832C3.89258 29.4957 3.74609 30.0875 3.24805 30.0875C2.75 30.0875 1.95898 29.6773 1.95898 29.6773C1.95898 29.6773 2.75 30.4566 3.35938 30.4391C3.96875 30.4215 4.17969 30.0289 4.79492 30.0875C5.42188 30.1461 5.98438 30.4918 5.98438 30.4742Z" fill="#FAAE29"/>
<path fill-rule="evenodd" clip-rule="evenodd" d="M3.13669 29.4664C3.06051 29.3082 2.86715 28.6051 2.96676 28.5172C3.12497 28.4586 3.53512 29.1793 3.49411 29.818C3.22458 29.9645 2.32223 29.7594 2.32809 29.5719C2.39255 29.3082 2.90817 29.3961 3.13669 29.4664Z" fill="#FAAE29"/>
<path fill-rule="evenodd" clip-rule="evenodd" d="M2.5859 28.8512C2.53902 28.6754 2.45699 27.9371 2.57418 27.8785C2.73238 27.8668 3.01949 28.6813 2.88473 29.2965C2.59762 29.3668 1.74215 28.9157 1.78316 28.734C1.88863 28.4996 2.3691 28.7223 2.5859 28.8512Z" fill="#FAAE29"/>
<path fill-rule="evenodd" clip-rule="evenodd" d="M2.14066 28.1715C2.1055 27.984 2.09378 27.234 2.21097 27.1989C2.36917 27.2106 2.58597 28.066 2.39847 28.6578C2.1055 28.6813 1.29691 28.0953 1.3555 27.9254C1.47269 27.7028 1.94144 28.0016 2.14066 28.1715Z" fill="#FAAE29"/>
<path fill-rule="evenodd" clip-rule="evenodd" d="M1.78902 27.445C1.7773 27.2516 1.84762 26.5074 1.97066 26.4957C2.12887 26.5367 2.24019 27.4274 1.98238 27.9723C1.69527 27.9371 0.96285 27.193 1.04488 27.0348C1.18551 26.8414 1.61324 27.234 1.78902 27.445Z" fill="#FAAE29"/>
<path fill-rule="evenodd" clip-rule="evenodd" d="M1.54297 26.6774C1.55469 26.484 1.70704 25.7692 1.83008 25.7751C1.97657 25.8512 1.99414 26.7477 1.6836 27.2399C1.40235 27.1462 0.751956 26.2731 0.845706 26.1266C1.01563 25.9626 1.39063 26.4372 1.54883 26.6774H1.54297Z" fill="#FAAE29"/>
<path fill-rule="evenodd" clip-rule="evenodd" d="M1.61328 25.8043C1.5957 26.566 1.45507 26.5778 1.20312 26.0153C1.08593 25.7985 1.07421 24.9196 1.17382 24.8844C1.32031 24.8844 1.60742 25.5114 1.61328 25.8043Z" fill="#FAAE29"/>
<path fill-rule="evenodd" clip-rule="evenodd" d="M7.10933 29.5543C7.18551 29.3902 7.37886 28.6871 7.27926 28.5992C7.12105 28.5406 6.71676 29.2555 6.75191 29.9C7.02144 30.0465 7.92965 29.8414 7.91793 29.6539C7.85347 29.3902 7.34371 29.4781 7.10933 29.5484V29.5543Z" fill="#FAAE29"/>
<path fill-rule="evenodd" clip-rule="evenodd" d="M7.66011 28.9332C7.71285 28.7575 7.78902 28.0192 7.67769 27.9606C7.51949 27.9489 7.22652 28.7575 7.36714 29.3785C7.64839 29.4489 8.50972 28.9977 8.46285 28.816C8.36324 28.5758 7.87691 28.8043 7.66011 28.9332Z" fill="#FAAE29"/>
<path fill-rule="evenodd" clip-rule="evenodd" d="M8.10542 28.2535C8.14058 28.066 8.15229 27.316 8.03511 27.2809C7.8769 27.2926 7.66011 28.1422 7.85347 28.734C8.14643 28.7574 8.95503 28.1774 8.89644 28.0016C8.76753 27.7789 8.3105 28.0836 8.10542 28.2535Z" fill="#FAAE29"/>
<path fill-rule="evenodd" clip-rule="evenodd" d="M8.45703 27.5211C8.46875 27.3336 8.39843 26.5895 8.27539 26.5778C8.11718 26.6188 8.00586 27.5094 8.26367 28.0543C8.55664 28.0192 9.2832 27.275 9.20703 27.1168C9.06054 26.9176 8.63867 27.316 8.45703 27.5211Z" fill="#FAAE29"/>
<path fill-rule="evenodd" clip-rule="evenodd" d="M8.7031 26.7535C8.69724 26.566 8.53904 25.8453 8.42185 25.857C8.2695 25.9273 8.25193 26.8297 8.56833 27.3219C8.84958 27.2281 9.49411 26.3551 9.40036 26.2086C9.23044 26.0445 8.85544 26.5191 8.69724 26.7535H8.7031Z" fill="#FAAE29"/>
<path fill-rule="evenodd" clip-rule="evenodd" d="M8.63281 25.8863C8.65625 26.6481 8.79102 26.6539 9.04297 26.0914C9.16016 25.8805 9.17188 24.9957 9.07227 24.9664C8.92578 24.9664 8.63867 25.5934 8.63281 25.8863Z" fill="#FAAE29"/>
<path fill-rule="evenodd" clip-rule="evenodd" d="M8.43305 20.1744H7.95347V20.4961H7.49132V20.8178H5.64272L5.32881 21.1488L5.48576 21.3142H6.26183L6.41006 21.1488H5.64272L5.79096 20.9833H6.87221L6.41006 21.4705H5.33753L5.03234 21.3142L4.71842 21.4705H3.63717L3.17502 20.9833H4.25627L4.41323 21.1488H3.63717L3.79413 21.3142H4.57019L4.71842 21.1488L4.41323 20.8178H2.71287V20.4961H2.25072V20.1744H1.78857V18.7037H2.25072V18.3819H2.71287V18.051H4.41323L4.71842 17.7293L4.57019 17.5638H3.79413L3.63717 17.7293H4.41323L4.25627 17.8856H3.17502L3.63717 17.3984H4.72714L5.04106 17.5638L5.34625 17.3984H6.4275L6.88965 17.8856H5.8084L5.66016 17.7293H6.4275L6.27055 17.5638H5.5032L5.33753 17.7293L5.65144 18.051H7.50004V18.3819H7.96218V18.7037H8.43305V20.1744Z" fill="#CA3745" stroke="black" stroke-width="0.143245"/>
<path fill-rule="evenodd" clip-rule="evenodd" d="M1.94342 18.8749V20.0147H2.40556V20.3364H2.86771V20.6582H4.41545L5.03454 21.1499L5.64928 20.6627H7.34962V20.341L7.81176 20.3364V20.0147H8.28262V18.8703H7.81612V18.5486H7.35398V18.2177H5.65364L5.0389 17.7305L4.41981 18.2177H2.87207V18.5486H2.40992V18.8703H1.94778L1.94342 18.8749Z" fill="#28AE66" stroke="#FAAE29" stroke-width="1.00271"/>
<path fill-rule="evenodd" clip-rule="evenodd" d="M4.10417 18.3772L3.17853 19.1926V18.3772H4.10417ZM5.95545 18.3772L6.88695 19.1926V18.3772H5.95545ZM4.10417 20.4973L3.17853 19.6819V20.4973H4.10417ZM5.95545 20.4973L6.88695 19.6819V20.4973H5.95545ZM6.26595 18.8665L5.95545 19.1926H6.57645L6.26595 18.8665ZM3.79367 18.8665L3.48903 19.1926H4.10417L3.79367 18.8665ZM3.79367 20.0081L3.48903 19.6819H4.10417L3.79367 20.0081ZM6.26595 20.0081L5.95545 19.6819H6.57645L6.26595 20.0081Z" fill="#CA3745"/>
<path fill-rule="evenodd" clip-rule="evenodd" d="M5.02986 20.8235L4.71936 20.4973H5.34036L5.02986 20.8235ZM5.02986 19.1926L4.71936 18.8665H5.34036L5.02986 19.1926ZM5.02986 18.051L4.71936 18.3846H5.34036L5.02986 18.051ZM5.02986 19.6819L4.71936 20.0081H5.34036L5.02986 19.6819Z" fill="#FAAE29"/>
<path fill-rule="evenodd" clip-rule="evenodd" d="M5.9588 19.1967H6.58226V19.3575H5.96316L5.9588 19.1967Z" fill="#FAAE29" stroke="black" stroke-width="0.0716222"/>
<path fill-rule="evenodd" clip-rule="evenodd" d="M3.6438 19.3575H3.94899V19.5229H3.6438V19.3575ZM6.11582 19.3575H6.42101V19.5229H6.11582V19.3575Z" fill="#CC0000" stroke="black" stroke-width="0.0716222"/>
<path fill-rule="evenodd" clip-rule="evenodd" d="M4.72504 18.3831H5.33977V18.544H4.72504V18.3831ZM4.72504 18.7048H5.33977V18.8703H4.72504V18.7048Z" fill="#990000" stroke="black" stroke-width="0.0716222"/>
<path fill-rule="evenodd" clip-rule="evenodd" d="M4.56805 18.5439H5.4967V18.7094H4.56805V18.5439ZM4.72501 20.0147H5.33975V20.1709H4.72501V20.0147ZM4.72501 20.3364H5.33975V20.4973H4.72501V20.3364ZM4.56805 20.1755H5.4967V20.3364H4.56805V20.1755Z" fill="#990000" stroke="black" stroke-width="0.0716222"/>
<path fill-rule="evenodd" clip-rule="evenodd" d="M5.95885 19.523H6.58231V19.6838H5.96321L5.95885 19.523ZM3.48682 19.1967H4.10592V19.3575H3.48682V19.1967ZM3.48682 19.5184H4.10592V19.6838H3.48682V19.5184ZM3.33423 19.3575H3.63942V19.523H3.33423V19.3575ZM3.95333 19.3575H4.25851V19.523H3.95333V19.3575ZM5.80626 19.3575H6.11144V19.523H5.80626V19.3575ZM6.42535 19.3575H6.73054V19.523H6.42535V19.3575Z" fill="#FAAE29" stroke="black" stroke-width="0.0716222"/>
<path d="M4.65319 20.2896C4.67486 20.2896 4.69243 20.2711 4.69243 20.2482C4.69243 20.2254 4.67486 20.2068 4.65319 20.2068C4.63152 20.2068 4.61395 20.2254 4.61395 20.2482C4.61395 20.2711 4.63152 20.2896 4.65319 20.2896Z" fill="white"/>
<path d="M5.03399 20.2896C5.05566 20.2896 5.07323 20.2711 5.07323 20.2482C5.07323 20.2254 5.05566 20.2068 5.03399 20.2068C5.01232 20.2068 4.99475 20.2254 4.99475 20.2482C4.99475 20.2711 5.01232 20.2896 5.03399 20.2896Z" fill="white"/>
<path d="M5.42065 20.2896C5.44232 20.2896 5.45989 20.2711 5.45989 20.2482C5.45989 20.2254 5.44232 20.2068 5.42065 20.2068C5.39898 20.2068 5.38141 20.2254 5.38141 20.2482C5.38141 20.2711 5.39898 20.2896 5.42065 20.2896Z" fill="white"/>
<path d="M4.80547 20.1339C4.82715 20.1339 4.84471 20.1154 4.84471 20.0925C4.84471 20.0697 4.82715 20.0511 4.80547 20.0511C4.7838 20.0511 4.76624 20.0697 4.76624 20.0925C4.76624 20.1154 4.7838 20.1339 4.80547 20.1339Z" fill="white"/>
<path d="M5.26245 20.1339C5.28412 20.1339 5.30168 20.1154 5.30168 20.0925C5.30168 20.0697 5.28412 20.0511 5.26245 20.0511C5.24077 20.0511 5.22321 20.0697 5.22321 20.0925C5.22321 20.1154 5.24077 20.1339 5.26245 20.1339Z" fill="white"/>
<path d="M4.79962 20.4527C4.82129 20.4527 4.83885 20.4341 4.83885 20.4113C4.83885 20.3885 4.82129 20.3699 4.79962 20.3699C4.77794 20.3699 4.76038 20.3885 4.76038 20.4113C4.76038 20.4341 4.77794 20.4527 4.79962 20.4527Z" fill="white"/>
<path d="M5.26245 20.4601C5.28412 20.4601 5.30168 20.4415 5.30168 20.4187C5.30168 20.3958 5.28412 20.3773 5.26245 20.3773C5.24077 20.3773 5.22321 20.3958 5.22321 20.4187C5.22321 20.4415 5.24077 20.4601 5.26245 20.4601Z" fill="white"/>
<path d="M5.87762 19.4741C5.89929 19.4741 5.91686 19.4556 5.91686 19.4328C5.91686 19.4099 5.89929 19.3914 5.87762 19.3914C5.85595 19.3914 5.83838 19.4099 5.83838 19.4328C5.83838 19.4556 5.85595 19.4741 5.87762 19.4741Z" fill="white"/>
<path d="M6.26428 19.4741C6.28595 19.4741 6.30351 19.4556 6.30351 19.4328C6.30351 19.4099 6.28595 19.3914 6.26428 19.3914C6.24261 19.3914 6.22504 19.4099 6.22504 19.4328C6.22504 19.4556 6.24261 19.4741 6.26428 19.4741Z" fill="white"/>
<path d="M6.65093 19.4741C6.6726 19.4741 6.69017 19.4556 6.69017 19.4328C6.69017 19.4099 6.6726 19.3914 6.65093 19.3914C6.62926 19.3914 6.61169 19.4099 6.61169 19.4328C6.61169 19.4556 6.62926 19.4741 6.65093 19.4741Z" fill="white"/>
<path d="M6.03576 19.3111C6.05743 19.3111 6.075 19.2925 6.075 19.2697C6.075 19.2469 6.05743 19.2283 6.03576 19.2283C6.01409 19.2283 5.99652 19.2469 5.99652 19.2697C5.99652 19.2925 6.01409 19.3111 6.03576 19.3111Z" fill="white"/>
<path d="M6.49273 19.3111C6.5144 19.3111 6.53197 19.2925 6.53197 19.2697C6.53197 19.2469 6.5144 19.2283 6.49273 19.2283C6.47106 19.2283 6.45349 19.2469 6.45349 19.2697C6.45349 19.2925 6.47106 19.3111 6.49273 19.3111Z" fill="white"/>
<path d="M6.0299 19.6299C6.05157 19.6299 6.06914 19.6113 6.06914 19.5885C6.06914 19.5656 6.05157 19.5471 6.0299 19.5471C6.00823 19.5471 5.99066 19.5656 5.99066 19.5885C5.99066 19.6113 6.00823 19.6299 6.0299 19.6299Z" fill="white"/>
<path d="M6.49273 19.6373C6.5144 19.6373 6.53197 19.6188 6.53197 19.5959C6.53197 19.5731 6.5144 19.5546 6.49273 19.5546C6.47106 19.5546 6.45349 19.5731 6.45349 19.5959C6.45349 19.6188 6.47106 19.6373 6.49273 19.6373Z" fill="white"/>
<path d="M4.64733 18.6661C4.669 18.6661 4.68657 18.6476 4.68657 18.6247C4.68657 18.6019 4.669 18.5834 4.64733 18.5834C4.62566 18.5834 4.60809 18.6019 4.60809 18.6247C4.60809 18.6476 4.62566 18.6661 4.64733 18.6661Z" fill="white"/>
<path d="M5.03399 18.6661C5.05566 18.6661 5.07323 18.6476 5.07323 18.6247C5.07323 18.6019 5.05566 18.5834 5.03399 18.5834C5.01232 18.5834 4.99475 18.6019 4.99475 18.6247C4.99475 18.6476 5.01232 18.6661 5.03399 18.6661Z" fill="white"/>
<path d="M5.42065 18.6587C5.44232 18.6587 5.45989 18.6402 5.45989 18.6174C5.45989 18.5945 5.44232 18.576 5.42065 18.576C5.39898 18.576 5.38141 18.5945 5.38141 18.6174C5.38141 18.6402 5.39898 18.6587 5.42065 18.6587Z" fill="white"/>
<path d="M4.79962 18.503C4.82129 18.503 4.83885 18.4845 4.83885 18.4617C4.83885 18.4388 4.82129 18.4203 4.79962 18.4203C4.77794 18.4203 4.76038 18.4388 4.76038 18.4617C4.76038 18.4845 4.77794 18.503 4.79962 18.503Z" fill="white"/>
<path d="M5.26245 18.503C5.28412 18.503 5.30168 18.4845 5.30168 18.4617C5.30168 18.4388 5.28412 18.4203 5.26245 18.4203C5.24077 18.4203 5.22321 18.4388 5.22321 18.4617C5.22321 18.4845 5.24077 18.503 5.26245 18.503Z" fill="white"/>
<path d="M4.79962 18.8219C4.82129 18.8219 4.83885 18.8033 4.83885 18.7805C4.83885 18.7577 4.82129 18.7391 4.79962 18.7391C4.77794 18.7391 4.76038 18.7577 4.76038 18.7805C4.76038 18.8033 4.77794 18.8219 4.79962 18.8219Z" fill="white"/>
<path d="M5.26245 18.8292C5.28412 18.8292 5.30168 18.8107 5.30168 18.7878C5.30168 18.765 5.28412 18.7465 5.26245 18.7465C5.24077 18.7465 5.22321 18.765 5.22321 18.7878C5.22321 18.8107 5.24077 18.8292 5.26245 18.8292Z" fill="white"/>
<path d="M3.41119 19.489C3.43286 19.489 3.45043 19.4705 3.45043 19.4476C3.45043 19.4248 3.43286 19.4062 3.41119 19.4062C3.38952 19.4062 3.37195 19.4248 3.37195 19.4476C3.37195 19.4705 3.38952 19.489 3.41119 19.489Z" fill="white"/>
<path d="M3.79785 19.489C3.81952 19.489 3.83709 19.4705 3.83709 19.4476C3.83709 19.4248 3.81952 19.4062 3.79785 19.4062C3.77617 19.4062 3.75861 19.4248 3.75861 19.4476C3.75861 19.4705 3.77617 19.489 3.79785 19.489Z" fill="white"/>
<path d="M4.1845 19.4815C4.20617 19.4815 4.22374 19.463 4.22374 19.4402C4.22374 19.4173 4.20617 19.3988 4.1845 19.3988C4.16283 19.3988 4.14526 19.4173 4.14526 19.4402C4.14526 19.463 4.16283 19.4815 4.1845 19.4815Z" fill="white"/>
<path d="M3.56933 19.3259C3.591 19.3259 3.60857 19.3074 3.60857 19.2845C3.60857 19.2617 3.591 19.2432 3.56933 19.2432C3.54766 19.2432 3.53009 19.2617 3.53009 19.2845C3.53009 19.3074 3.54766 19.3259 3.56933 19.3259Z" fill="white"/>
<path d="M4.0263 19.3259C4.04797 19.3259 4.06554 19.3074 4.06554 19.2845C4.06554 19.2617 4.04797 19.2432 4.0263 19.2432C4.00463 19.2432 3.98706 19.2617 3.98706 19.2845C3.98706 19.3074 4.00463 19.3259 4.0263 19.3259Z" fill="white"/>
<path d="M3.56353 19.6446C3.5852 19.6446 3.60277 19.6261 3.60277 19.6033C3.60277 19.5804 3.5852 19.5619 3.56353 19.5619C3.54186 19.5619 3.52429 19.5804 3.52429 19.6033C3.52429 19.6261 3.54186 19.6446 3.56353 19.6446Z" fill="white"/>
<path d="M4.0263 19.6521C4.04797 19.6521 4.06554 19.6335 4.06554 19.6107C4.06554 19.5879 4.04797 19.5693 4.0263 19.5693C4.00463 19.5693 3.98706 19.5879 3.98706 19.6107C3.98706 19.6335 4.00463 19.6521 4.0263 19.6521Z" fill="white"/>
<path fill-rule="evenodd" clip-rule="evenodd" d="M5.63867 15.8903L5.90235 15.7614L6.17188 15.8903H5.63867ZM4.8418 15.8903L5.10547 15.7614L5.375 15.8903H4.8418ZM4.04492 15.8903L4.30859 15.7614L4.57813 15.8903H4.04492ZM5.63867 13.0192L5.90235 13.1481L6.17188 13.025H5.63867V13.0192ZM4.8418 13.0192L5.10547 13.1481L5.375 13.025H4.8418V13.0192ZM4.04492 13.0192L4.30859 13.1481L4.57813 13.025H4.04492V13.0192Z" fill="white"/>
<path fill-rule="evenodd" clip-rule="evenodd" d="M5.41602 16.2594L5.10547 16.5114L4.79492 16.2594L4.48437 16.5114L4.17383 16.2594V16.3883L4.38477 16.5055L4.2793 16.6344V16.7575H4.38477L4.48437 16.6403L4.58984 16.7575H4.69531V16.6403L4.58984 16.5114L4.79492 16.3883L5.00586 16.5055L4.90039 16.6344V16.7575H5.00586L5.10547 16.6403L5.21094 16.7575H5.31055V16.6403L5.21094 16.5114L5.41602 16.3883L5.62109 16.5055L5.52148 16.6344V16.7575H5.62109L5.72656 16.6403L5.83203 16.7575H5.93164V16.6403L5.83203 16.5114L6.03711 16.3883V16.2535L5.72656 16.5055L5.41602 16.2535V16.2594ZM5.41602 12.65L5.10547 12.3981L4.79492 12.65L4.48437 12.3981L4.17383 12.65V12.527L4.38477 12.3981L4.2793 12.2809V12.152H4.38477L4.48437 12.275L4.58984 12.152H4.69531V12.275L4.58984 12.4039L4.79492 12.5211L5.00586 12.4039L4.90039 12.275V12.152H5.00586L5.10547 12.275L5.21094 12.152H5.31055V12.275L5.21094 12.4039L5.41602 12.5211L5.62109 12.4039L5.52148 12.275V12.152H5.62109L5.72656 12.275L5.83203 12.152H5.93164V12.275L5.83203 12.4039L6.03711 12.5211V12.65L5.72656 12.3981L5.41602 12.65ZM7.75977 14.7242L8.09961 14.4547L7.76562 14.1852L8.09961 13.9157L7.76562 13.6461H7.92969L8.09961 13.8219L8.26367 13.734H8.42773V13.8278L8.26367 13.9157L8.42773 14.0035V14.0973H8.26367L8.09961 14.0035L7.92969 14.1852L8.09961 14.361L8.26367 14.2789H8.42773V14.3668L8.26367 14.4547L8.42773 14.5426V14.6364H8.26367L8.09961 14.5426L7.92969 14.7242L8.09961 14.9L8.26367 14.8121H8.42773V14.9059L8.26367 14.9938L8.42773 15.0875V15.1754H8.26367L8.09961 15.0875L7.92969 15.2633H7.76562L8.09961 14.9938L7.76562 14.7242H7.75977ZM2.45117 14.7242L2.11719 14.4547L2.45117 14.1852L2.11719 13.9157L2.45117 13.6461H2.28125L2.11719 13.8219L1.95312 13.734H1.77734V13.8278L1.95312 13.9098L1.7832 13.9977V14.0914H1.95312L2.11719 13.9977L2.28125 14.1793L2.11719 14.3551L1.95312 14.2731H1.77734V14.361L1.94727 14.4489L1.77734 14.5367V14.6305H1.95312L2.11719 14.5367L2.28125 14.7184L2.11719 14.9L1.95312 14.8121H1.77734V14.9L1.94727 14.9879L1.77734 15.0817V15.1696H1.95312L2.11719 15.0817L2.28125 15.2574H2.45117L2.11719 14.9879L2.45117 14.7184V14.7242Z" fill="#28AE66"/>
<path fill-rule="evenodd" clip-rule="evenodd" d="M7.89202 15.6426H8.027V15.7621H7.89202V15.6426ZM7.75705 15.7621H7.89202V15.8886H7.76454L7.75705 15.7621ZM7.09715 16.3876H7.23213V16.5141H7.09715V16.3876ZM7.23213 16.2611H7.35961V16.3876H7.23213V16.2611ZM2.84531 16.2611H2.98029V16.3876H2.83781L2.84531 16.2611ZM2.17792 15.6426H2.3129V15.7621H2.17792V15.6426ZM2.3129 15.7621H2.44788V15.8886H2.3129V15.7621ZM2.3129 13.021H2.44788V13.1475H2.3129V13.021ZM2.17792 13.1475H2.3129V13.274H2.17792V13.1475ZM2.98029 12.4025H3.10777V12.529H2.98779L2.98029 12.4025ZM2.84531 12.529H2.98029V12.6555H2.83781L2.84531 12.529ZM7.09715 12.4025H7.23213V12.529H7.09715V12.4025ZM7.23213 12.529H7.35961V12.6555H7.23213V12.529ZM7.75705 13.021H7.89202V13.1475H7.76454L7.75705 13.021ZM7.89202 13.1546H8.027V13.274H7.89202V13.1546ZM2.98779 16.3876H3.11527V16.5141H2.98779V16.3876Z" fill="#28AE66" stroke="black" stroke-width="0.348469"/>
<path fill-rule="evenodd" clip-rule="evenodd" d="M4.70117 14.4547H4.30859V14.2086H4.57227V13.9801H4.83008V13.7692H5.09375V14.0328C4.87695 14.0328 4.70117 14.2086 4.70117 14.4547Z" fill="white"/>
<path fill-rule="evenodd" clip-rule="evenodd" d="M5.48633 14.4547H5.87891V14.2086H5.61523V13.9801H5.35156V13.7692H5.09375V14.0328C5.31055 14.0328 5.48633 14.2086 5.48633 14.4547Z" fill="#FAAE29"/>
<path fill-rule="evenodd" clip-rule="evenodd" d="M5.48633 14.4547H5.87891V14.7008H5.61523V14.9293H5.35156V15.1403H5.09375V14.8766C5.31055 14.8766 5.48633 14.7008 5.48633 14.4547Z" fill="white"/>
<path fill-rule="evenodd" clip-rule="evenodd" d="M4.70117 14.4547H4.30859V14.7008H4.57227V14.9293H4.83008V15.1403H5.09375V14.8766C4.87695 14.8766 4.70117 14.7008 4.70117 14.4547Z" fill="#FAAE29"/>
<path fill-rule="evenodd" clip-rule="evenodd" d="M5.48633 14.4547H5.09375V14.0328C5.31055 14.0328 5.48633 14.2262 5.48633 14.4547Z" fill="#28AE66"/>
<path fill-rule="evenodd" clip-rule="evenodd" d="M5.48633 14.4547H5.09375V14.8766C5.31055 14.8766 5.48633 14.6891 5.48633 14.4547Z" fill="#CA3745"/>
<path fill-rule="evenodd" clip-rule="evenodd" d="M4.70117 14.4547H5.09375V14.8766C4.87695 14.8766 4.70117 14.6891 4.70117 14.4547Z" fill="#28AE66"/>
<path fill-rule="evenodd" clip-rule="evenodd" d="M4.70117 14.4547H5.09375V14.0328C4.87695 14.0328 4.70117 14.2262 4.70117 14.4547Z" fill="#CA3745"/>
<path fill-rule="evenodd" clip-rule="evenodd" d="M5.50391 16.0133L5.10547 15.7614L4.70703 16.0133L4.30859 15.7614L3.91016 16.0133V15.8903L4.17383 15.7614L4.04492 15.6383V15.5153H4.17383L4.30859 15.6383L4.44336 15.5153H4.57812V15.6383L4.44336 15.7614L4.70703 15.8903L4.97656 15.7614L4.8418 15.6383V15.5153H4.97656L5.10547 15.6383L5.24023 15.5153H5.375V15.6383L5.24023 15.7614L5.50391 15.8903L5.77344 15.7614L5.63867 15.6383V15.5153H5.77344L5.90234 15.6383L6.03711 15.5153H6.17187V15.6383L6.03711 15.7614L6.30078 15.8903V16.0074L5.90234 15.7614L5.50391 16.0133ZM5.50391 12.902L5.10547 13.1481L4.70703 12.902L4.30859 13.1481L3.91016 12.902V13.0192L4.17383 13.1481L4.04492 13.2711V13.4H4.17383L4.30859 13.2711L4.44336 13.4H4.57812V13.2653L4.44336 13.1481L4.70703 13.0192L4.97656 13.1422L4.8418 13.2653V13.3942H4.97656L5.10547 13.2653L5.24023 13.3942H5.375V13.2653L5.24023 13.1481L5.50391 13.0192L5.77344 13.1422L5.63867 13.2653V13.3942H5.77344L5.90234 13.2653L6.03711 13.3942H6.17187V13.2653L6.03711 13.1481L6.30078 13.0192V12.8961L5.90234 13.1422L5.50391 12.8961V12.902ZM6.96875 14.7653L6.76953 14.4547L6.96875 14.1442L6.76953 13.8336L6.96875 13.5231H6.86914L6.76953 13.7281L6.66992 13.6227H6.57031V13.7281L6.66992 13.8336L6.57031 13.9391V14.0387H6.66992L6.76953 13.9391L6.86914 14.1442L6.76953 14.3492L6.66992 14.2496H6.57031V14.3492L6.66992 14.4547L6.57031 14.5602V14.6656H6.66992L6.76953 14.5602L6.86914 14.7653L6.76953 14.9762L6.66992 14.8707H6.57031V14.9762L6.66992 15.0758L6.57031 15.1813V15.2867H6.66992L6.76953 15.1813L6.86914 15.3922H6.96875L6.76953 15.0758L6.96875 14.7653Z" fill="#28AE66"/>
<path fill-rule="evenodd" clip-rule="evenodd" d="M3.91247 13.028L3.38755 13.52V15.3895L3.91247 15.8886H6.31209L6.83701 15.3966V13.527L6.30459 13.028H3.91247ZM3.77749 12.6485L2.4502 13.8995V15.0241L3.78499 16.2611H6.43957L7.76686 15.017V13.8925L6.43957 12.6485H3.78499H3.77749Z" fill="#28AE66" stroke="black" stroke-width="0.464625"/>
<path fill-rule="evenodd" clip-rule="evenodd" d="M4.4645 16.0104L4.67446 16.2634L4.89043 16.0104H4.4585H4.4645Z" fill="#FAAE29" stroke="black" stroke-width="0.254484"/>
<path fill-rule="evenodd" clip-rule="evenodd" d="M4.4645 12.899L4.67446 12.646L4.89043 12.899H4.4585H4.4645Z" fill="#FAAE29" stroke="black" stroke-width="0.254484"/>
<path fill-rule="evenodd" clip-rule="evenodd" d="M5.31996 12.899L5.52993 12.646L5.7459 12.899H5.31396H5.31996Z" fill="#FAAE29" stroke="black" stroke-width="0.254484"/>
<path fill-rule="evenodd" clip-rule="evenodd" d="M5.31996 16.0104L5.52993 16.2634L5.7459 16.0104H5.31396H5.31996Z" fill="#FAAE29" stroke="black" stroke-width="0.254484"/>
<path fill-rule="evenodd" clip-rule="evenodd" d="M4.04262 12.899L4.25259 12.646L4.46855 12.899H4.03662H4.04262Z" fill="#CA3745" stroke="black" stroke-width="0.254484"/>
<path fill-rule="evenodd" clip-rule="evenodd" d="M4.89223 12.899L5.1022 12.646L5.31817 12.899H4.88623H4.89223Z" fill="#CA3745" stroke="black" stroke-width="0.254484"/>
<path fill-rule="evenodd" clip-rule="evenodd" d="M5.74184 12.899L5.95181 12.646L6.16777 12.899H5.73584H5.74184Z" fill="#CA3745" stroke="black" stroke-width="0.254484"/>
<path fill-rule="evenodd" clip-rule="evenodd" d="M3.51764 15.6384L3.91131 16.0074H3.51764V15.6384Z" fill="#CA3745" stroke="black" stroke-width="0.522668"/>
<path fill-rule="evenodd" clip-rule="evenodd" d="M3.24219 14.7653L3.44727 14.4547L3.24219 14.1442L3.44141 13.8336L3.24219 13.5231H3.3418L3.44141 13.7281L3.54102 13.6227H3.64062V13.7281L3.54102 13.8336L3.64062 13.9391V14.0387H3.54102L3.44141 13.9391L3.3418 14.1442L3.44141 14.3492L3.54102 14.2496H3.64062V14.3492L3.54102 14.4547L3.64062 14.5602V14.6657H3.54102L3.44141 14.5602L3.3418 14.7653L3.44141 14.9762L3.54102 14.8707H3.64062V14.9762L3.54102 15.0758L3.64062 15.1813V15.2867H3.54102L3.44141 15.1813L3.3418 15.3922H3.24219L3.44141 15.0758L3.24219 14.7653Z" fill="#28AE66"/>
<path fill-rule="evenodd" clip-rule="evenodd" d="M7.09644 14.1186H7.62885L7.76383 14.2324L7.62885 14.3463H7.10393V14.1122L7.09644 14.1186Z" fill="#CA3745" stroke="black" stroke-width="0.330591"/>
<path fill-rule="evenodd" clip-rule="evenodd" d="M3.51432 13.274L3.24436 13.527V15.3895L3.51432 15.6425H3.11688V13.274H3.51432Z" fill="#CA3745" stroke="black" stroke-width="0.464625"/>
<path fill-rule="evenodd" clip-rule="evenodd" d="M4.04262 16.0104L4.25259 16.2634L4.46855 16.0104H4.03662H4.04262Z" fill="#CA3745" stroke="black" stroke-width="0.254484"/>
<path fill-rule="evenodd" clip-rule="evenodd" d="M4.89223 16.0104L5.1022 16.2634L5.31817 16.0104H4.88623H4.89223Z" fill="#CA3745" stroke="black" stroke-width="0.254484"/>
<path fill-rule="evenodd" clip-rule="evenodd" d="M5.74184 16.0104L5.95181 16.2634L6.16777 16.0104H5.73584H5.74184Z" fill="#CA3745" stroke="black" stroke-width="0.254484"/>
<path fill-rule="evenodd" clip-rule="evenodd" d="M6.69662 13.274L6.96658 13.527V15.3895L6.69662 15.6425H7.09406V13.274H6.69662Z" fill="#CA3745" stroke="black" stroke-width="0.464625"/>
<path fill-rule="evenodd" clip-rule="evenodd" d="M6.69916 15.6384L6.30549 16.0074H6.69916V15.6384Z" fill="#CA3745" stroke="black" stroke-width="0.522668"/>
<path fill-rule="evenodd" clip-rule="evenodd" d="M6.69916 13.271L6.30549 12.902H6.69916V13.271Z" fill="#CA3745" stroke="black" stroke-width="0.522668"/>
<path fill-rule="evenodd" clip-rule="evenodd" d="M3.51764 13.271L3.91131 12.902H3.51764V13.271Z" fill="#CA3745" stroke="black" stroke-width="0.522668"/>
<path fill-rule="evenodd" clip-rule="evenodd" d="M3.91252 13.028L3.3876 13.52V15.3895L3.91252 15.8885H6.31215L6.83706 15.3965V13.527L6.30465 13.028H3.91252ZM3.91252 12.9015L3.25262 13.52V15.3895L3.91252 16.015H6.31215L6.97204 15.3895V13.52L6.30465 12.9015H3.91252Z" fill="#28AE66" stroke="black" stroke-width="0.464625"/>
<path fill-rule="evenodd" clip-rule="evenodd" d="M7.09644 14.3419H7.62885L7.76383 14.4558L7.62885 14.5696H7.10393V14.3356L7.09644 14.3419Z" fill="#FAAE29" stroke="black" stroke-width="0.330602"/>
<path fill-rule="evenodd" clip-rule="evenodd" d="M7.09644 14.5639H7.62885L7.76383 14.6777L7.62885 14.7916H7.10393V14.5576L7.09644 14.5639Z" fill="#CA3745" stroke="black" stroke-width="0.330591"/>
<path fill-rule="evenodd" clip-rule="evenodd" d="M7.09644 14.7872H7.62885L7.76383 14.9011L7.62885 15.015H7.10393V14.7809L7.09644 14.7872Z" fill="#FAAE29" stroke="black" stroke-width="0.330602"/>
<path fill-rule="evenodd" clip-rule="evenodd" d="M7.09644 13.8907H7.62885L7.76383 14.0046L7.62885 14.1185H7.10393V13.8844L7.09644 13.8907Z" fill="#FAAE29" stroke="black" stroke-width="0.330602"/>
<path fill-rule="evenodd" clip-rule="evenodd" d="M3.1145 14.1186H2.58209L2.44711 14.2324L2.58209 14.3463H3.107V14.1122L3.1145 14.1186Z" fill="#CA3745" stroke="black" stroke-width="0.330591"/>
<path fill-rule="evenodd" clip-rule="evenodd" d="M3.1145 14.3419H2.58209L2.44711 14.4558L2.58209 14.5696H3.107V14.3356L3.1145 14.3419Z" fill="#FAAE29" stroke="black" stroke-width="0.330602"/>
<path fill-rule="evenodd" clip-rule="evenodd" d="M3.1145 14.5639H2.58209L2.44711 14.6777L2.58209 14.7916H3.107V14.5576L3.1145 14.5639Z" fill="#CA3745" stroke="black" stroke-width="0.330591"/>
<path fill-rule="evenodd" clip-rule="evenodd" d="M3.1145 14.7872H2.58209L2.44711 14.9011L2.58209 15.015H3.107V14.7809L3.1145 14.7872Z" fill="#FAAE29" stroke="black" stroke-width="0.330602"/>
<path fill-rule="evenodd" clip-rule="evenodd" d="M3.1145 13.8907H2.58209L2.44711 14.0046L2.58209 14.1185H3.107V13.8844L3.1145 13.8907Z" fill="#FAAE29" stroke="black" stroke-width="0.330602"/>
<path fill-rule="evenodd" clip-rule="evenodd" d="M2.31287 13.1545V15.755H2.98026V16.3805H7.2321V15.755H7.89199V13.1545H7.2321V12.536H2.98026V13.1545H2.31287ZM2.44785 13.274V15.6425H3.10774V16.261H7.09712V15.6425H7.76451V13.274H7.09712V12.6625H3.10774V13.281H2.44785V13.274Z" fill="#970000" stroke="black" stroke-width="0.348469"/>
<path fill-rule="evenodd" clip-rule="evenodd" d="M8.42497 3.42195L8.02753 2.94208V2.58386L7.6301 2.22565H6.83522L6.16783 1.86743H4.04566L3.37826 2.22565H2.58339L2.18595 2.58386V2.94208L1.78851 3.41519V4.3817L2.18595 4.85482V5.21979L2.58339 5.57801H3.37826L4.04566 5.93622H6.16783L6.83522 5.57801H7.6301L8.03503 5.21979V4.86157L8.43247 4.3817V3.41519L8.42497 3.42195Z" fill="#CA3745" stroke="black" stroke-width="0.341722"/>
<path fill-rule="evenodd" clip-rule="evenodd" d="M1.91797 3.90198V4.2594L2.31641 4.73987V5.09729L2.71484 5.46057H3.51172L4.17969 5.81213H5.10547V3.90784H1.91797V3.90198Z" fill="#FAAE29"/>
<path fill-rule="evenodd" clip-rule="evenodd" d="M3.98633 4.73987L3.5 5.05042H3.20703L3.30664 5.15003L3.11328 5.3551L3.21289 5.46057L3.50586 5.3551L3.59961 5.46057L3.64063 5.18518L4.17969 4.85706L3.98633 4.73987Z" fill="#CA3745"/>
<path fill-rule="evenodd" clip-rule="evenodd" d="M3.45313 4.49963L2.9668 4.81018H2.67969L2.77344 4.90979L2.58594 5.11487L2.67969 5.22034L2.97266 5.11487L3.06641 5.22034L3.11328 4.94494L3.64648 4.62268L3.45313 4.50549V4.49963ZM3.18945 4.01917L2.70313 4.32971H2.41016L2.50977 4.43518L2.31641 4.64026L2.41602 4.73987L2.70898 4.6344L2.80273 4.73987L2.84375 4.46448L3.38281 4.14221L3.18945 4.02502V4.01917Z" fill="#CA3745"/>
<path fill-rule="evenodd" clip-rule="evenodd" d="M8.29296 3.90198V3.54456L7.89453 3.06409V2.70666L7.49609 2.34338H6.69922L6.03711 1.98596H5.10547V3.90198H8.29296Z" fill="#FAAE29"/>
<path fill-rule="evenodd" clip-rule="evenodd" d="M5.10547 5.81799H4.85937L4.57812 5.57776H4.12109L3.875 5.46057L3.99805 5.34338L4.24414 5.46057H4.49023L4.73633 5.09729L5.10547 5.21448V5.46057H4.73633L5.10547 5.81214V5.81799Z" fill="#CA3745"/>
<path fill-rule="evenodd" clip-rule="evenodd" d="M1.91797 3.90198V3.54456L2.31641 3.06409V2.70666L2.71484 2.34338H3.51172L4.17969 1.98596H5.10547V3.90198H1.91797Z" fill="white"/>
<path fill-rule="evenodd" clip-rule="evenodd" d="M5.10547 1.98596H4.85937L4.57812 2.22034H4.12109L3.875 2.34338L3.99805 2.46057L4.24414 2.34338H4.49023L4.73633 2.70666L5.10547 2.58948V2.34338H4.73633L5.10547 1.98596Z" fill="#CA3745"/>
<path fill-rule="evenodd" clip-rule="evenodd" d="M5.10547 1.98596H5.35156L5.63867 2.22034H6.08984L6.33594 2.34338L6.21875 2.46057L5.9668 2.34338H5.7207L5.47461 2.70666L5.10547 2.58948V2.34338H5.47461L5.10547 1.98596Z" fill="#CA3745"/>
<path fill-rule="evenodd" clip-rule="evenodd" d="M8.29296 3.90198V4.2594L7.89453 4.73987V5.09729L7.49609 5.46057H6.69922L6.03711 5.81213H5.10547V3.90784H8.29296V3.90198Z" fill="white"/>
<path fill-rule="evenodd" clip-rule="evenodd" d="M5.10547 5.818H5.35156L5.63867 5.57776H6.08984L6.33594 5.46057L6.21875 5.34339L5.9668 5.46057H5.7207L5.47461 5.09729L5.10547 5.21448V5.46057H5.47461L5.10547 5.81214V5.818ZM3.45312 3.29846L2.9668 2.99377H2.67969L2.77344 2.89417L2.58594 2.68909L2.67969 2.58362L2.97266 2.68909L3.06641 2.58362L3.11328 2.85901L3.64648 3.18127L3.45312 3.29846ZM6.23047 3.06409L6.71094 2.75354H7.00391L6.9043 2.65393L7.09766 2.44885L7.00391 2.34338L6.71094 2.44885L6.61719 2.34338L6.57031 2.61877L6.03711 2.9469L6.23047 3.06409Z" fill="#CA3745"/>
<path fill-rule="evenodd" clip-rule="evenodd" d="M3.98633 3.06409L3.5 2.75354H3.20703L3.30664 2.65393L3.11328 2.44885L3.21289 2.34338L3.50586 2.44885L3.59961 2.34338L3.64063 2.61877L4.17969 2.94104L3.98633 3.05823V3.06409ZM3.18359 3.78479L2.69727 3.47424H2.4043L2.50391 3.36877L2.31055 3.1637L2.42188 3.06995L2.71484 3.17541L2.80859 3.06995L2.84961 3.34534L3.38867 3.6676L3.19531 3.78479H3.18359Z" fill="#CA3745"/>
<path fill-rule="evenodd" clip-rule="evenodd" d="M2.1582 3.90198H2.27539L2.39844 4.01917L2.52148 3.90198H5.10547V5.57776H4.98828L5.10547 5.69495V5.82385L4.73633 5.46643V5.34924H4.85937V5.46643H4.98242V5.34924L3.98633 4.8219H3.14258V4.29456L2.77344 4.03088H2.52734L2.4043 4.14807L2.52148 4.26526H2.4043L2.1582 3.9137V3.90198Z" fill="white"/>
<path fill-rule="evenodd" clip-rule="evenodd" d="M2.1582 3.90198H2.27539L2.39844 3.78479L2.52148 3.90198H5.10547V2.2262H4.98828L5.10547 2.10901V1.98596L4.73633 2.34338V2.46057H4.85937V2.34338H4.98242V2.46057L3.98633 2.99377H3.14258V3.51526L2.77344 3.78479H2.52734L2.4043 3.6676L2.52148 3.54456H2.4043L2.1582 3.90198Z" fill="#FAAE29"/>
<path fill-rule="evenodd" clip-rule="evenodd" d="M2.71484 3.90198H5.10547V5.33752L4.04492 4.73987H3.24805V4.2594L2.7207 3.90198H2.71484Z" fill="#28AE66"/>
<path fill-rule="evenodd" clip-rule="evenodd" d="M6.75781 3.30432L7.24414 2.99377H7.53711L7.4375 2.89416L7.63086 2.68909L7.53711 2.58362L7.24414 2.68909L7.15039 2.58362L7.10352 2.85901L6.57031 3.18127L6.75781 3.29846V3.30432ZM7.02734 3.78479L7.51367 3.47424H7.80078L7.70117 3.36877L7.89453 3.1637L7.80078 3.06409L7.50781 3.16956L7.41406 3.06409L7.36719 3.33948L6.83398 3.66174L7.02734 3.77893V3.78479Z" fill="#CA3745"/>
<path fill-rule="evenodd" clip-rule="evenodd" d="M8.05859 3.90198H7.93554L7.8125 3.78479L7.68945 3.90198H5.10547V2.2262H5.22851L5.10547 2.10901V1.98596L5.47461 2.34338V2.46057H5.35156V2.34338H5.22851V2.46057L6.22461 2.99377H7.06836V3.51526L7.44336 3.78479H7.68945L7.80664 3.6676L7.68945 3.54456H7.80664L8.05859 3.90198Z" fill="white"/>
<path fill-rule="evenodd" clip-rule="evenodd" d="M7.49609 3.90198H5.10547V2.46643L6.17187 3.06409H6.96875V3.54456L7.50195 3.90198H7.49609Z" fill="#28AE66"/>
<path fill-rule="evenodd" clip-rule="evenodd" d="M6.23047 4.73987L6.71094 5.05042H7.00391L6.9043 5.15003L7.09766 5.3551L7.00391 5.46057L6.71094 5.3551L6.61719 5.46057L6.57031 5.18518L6.03711 4.85706L6.23047 4.73987Z" fill="#CA3745"/>
<path fill-rule="evenodd" clip-rule="evenodd" d="M6.75781 4.49963L7.24414 4.81018H7.53711L7.4375 4.90979L7.63086 5.11487L7.53711 5.22034L7.24414 5.11487L7.15039 5.22034L7.10352 4.94494L6.57031 4.62268L6.75781 4.50549V4.49963ZM7.02734 4.01917L7.51367 4.32971H7.80078L7.70117 4.42932L7.89453 4.6344L7.80078 4.73987L7.50781 4.6344L7.41406 4.73987L7.36719 4.46448L6.83398 4.14221L7.02734 4.02502V4.01917Z" fill="#CA3745"/>
<path fill-rule="evenodd" clip-rule="evenodd" d="M8.05859 3.90198H7.93554L7.8125 4.01917L7.68945 3.90198H5.10547V5.57776H5.22851L5.10547 5.69495V5.82385L5.47461 5.46643V5.34924H5.35156V5.46643H5.22851V5.34924L6.22461 4.8219H7.06836V4.29456L7.44336 4.03088H7.68945L7.80664 4.14807L7.68945 4.26526H7.80664L8.05859 3.9137V3.90198Z" fill="#FAAE29"/>
<path fill-rule="evenodd" clip-rule="evenodd" d="M7.49609 3.90198H5.10547V5.33752L6.17188 4.73987H6.96875V4.2594L7.50195 3.90198H7.49609ZM2.71484 3.90198H5.10547V2.46643L4.04492 3.06409H3.24805V3.54455L2.7207 3.90198H2.71484Z" fill="#CA3745"/>
<path fill-rule="evenodd" clip-rule="evenodd" d="M5.36914 3.90198L6.03711 3.54456H6.43555L6.30078 3.42737L6.57031 3.18127L6.43555 3.06409L6.03711 3.18127L5.90234 3.06409L5.84375 3.38635L5.10547 3.76135L5.36914 3.90198ZM4.8418 3.90198L4.17969 4.2594H3.78125L3.91016 4.37659L3.64648 4.62268L3.78125 4.73987L4.17969 4.62268L4.30859 4.73987L4.36719 4.4176L5.10547 4.0426L4.8418 3.90198Z" fill="#CA3745"/>
<path fill-rule="evenodd" clip-rule="evenodd" d="M4.8418 3.90198L4.17969 3.54456H3.78125L3.91602 3.42737L3.65234 3.18127L3.78711 3.06409L4.18555 3.18127L4.31445 3.06409L4.37305 3.38635L5.11133 3.76135L4.84766 3.90198H4.8418ZM5.36914 3.90198L6.03711 4.2594H6.43555L6.30078 4.37659L6.57031 4.62268L6.43555 4.73987L6.03711 4.62268L5.90234 4.73987L5.84375 4.4176L5.10547 4.0426L5.36914 3.90198Z" fill="#28AE66"/>
<path fill-rule="evenodd" clip-rule="evenodd" d="M4.30859 3.90198L5.10547 3.30432L5.90235 3.90198L5.10547 4.49963L4.30859 3.90198Z" fill="white"/>
<path fill-rule="evenodd" clip-rule="evenodd" d="M2.52148 4.14221L2.64453 4.2594L2.52734 4.37659H2.39844L2.0293 3.90198H2.15234L2.39844 4.2594H2.52148L2.4043 4.14221L2.52148 4.02502H2.77344V4.14221H2.52734H2.52148Z" fill="#CA3745"/>
<path fill-rule="evenodd" clip-rule="evenodd" d="M2.52148 3.66174L2.64453 3.54456L2.52734 3.42737H2.39844L2.0293 3.90198H2.15234L2.39844 3.54456H2.52148L2.4043 3.66174L2.52148 3.77893H2.77344V3.66174H2.52734H2.52148ZM7.68945 4.14221L7.57227 4.2594L7.68945 4.37659H7.8125L8.18164 3.90198H8.06445L7.8125 4.2594H7.69531L7.8125 4.14221L7.69531 4.02502H7.44336V4.14221H7.68945Z" fill="#CA3745"/>
<path fill-rule="evenodd" clip-rule="evenodd" d="M7.69532 3.66174L7.56641 3.54456L7.68946 3.42737H7.8125L8.18164 3.90198H8.06446L7.8125 3.54456H7.69532L7.8125 3.66174L7.69532 3.77893H7.44336V3.66174H7.68946H7.69532ZM4.98242 3.42737H5.22852V4.38245H4.98242V3.42737Z" fill="#CA3745"/>
<path fill-rule="evenodd" clip-rule="evenodd" d="M4.61328 3.66174H5.59766V4.14221H4.61328V3.66174Z" fill="#CA3745"/>
<path fill-rule="evenodd" clip-rule="evenodd" d="M3.98131 22.1006L1.77332 23.3179V25.3015L4.00214 26.5187H6.21013L8.41811 25.3015V23.3179L6.21013 22.1232H4.00214L3.98131 22.1006Z" fill="#28AE66" stroke="black" stroke-width="0.346699"/>
<path fill-rule="evenodd" clip-rule="evenodd" d="M2.60938 24.1227H2.73828V23.8707H3.00781V24.1168H3.14258V23.5426H3.00781V23.7887H2.74414V23.5426H2.60938V24.1168V24.1227ZM6.00195 26.0328H6.13672V25.7867H6.40039V26.0328H6.53516V25.4528H6.40625V25.6988H6.13672V25.4528H6.00781V26.027L6.00195 26.0328ZM3.85742 23.1617H3.99219V22.9215H4.26172V23.1676H4.39062V22.5934H4.26172V22.8395H3.99219V22.5934H3.85742V23.1676V23.1617ZM5.82031 23.1617H5.95508V22.9215H6.22461V23.1676H6.35937V22.5934H6.22461V22.8395H5.95508V22.5934H5.82031V23.1676V23.1617ZM7.07422 24.1227H7.20313V23.8707H7.47266V24.1168H7.60742V23.5426H7.47266V23.7887H7.20313V23.5426H7.07422V24.1168V24.1227ZM7.07422 25.0778H7.20313V24.8317H7.47266V25.0778H7.60742V24.5035H7.47266V24.7496H7.20313V24.5035H7.07422V25.0778Z" fill="#CC0000"/>
<path fill-rule="evenodd" clip-rule="evenodd" d="M5.10547 26.4137V24.3102H8.32227V25.2653L6.17188 26.4137H5.09961H5.10547ZM5.10547 22.2125V24.3102H1.89453V23.3551L4.0332 22.2125H5.10547Z" fill="#FAAE29"/>
<path fill-rule="evenodd" clip-rule="evenodd" d="M5.10547 22.2125V24.3102H8.32227V23.3551L6.17188 22.2125H5.09961H5.10547ZM5.10547 26.4137V24.3102H1.89453V25.2653L4.0332 26.4137H5.10547Z" fill="white"/>
<path fill-rule="evenodd" clip-rule="evenodd" d="M6.823 23.4558H8.11111L6.823 22.8844V23.4558ZM8.32277 23.3588V24.3129H6.29083V23.5529H5.86146L5.32323 23.2672V22.5987L5.6498 22.3076H5.22043V23.2672H5.11157V22.216H6.18197L8.32277 23.3588Z" fill="#FAAE29" stroke="black" stroke-width="0.0913537"/>
<path fill-rule="evenodd" clip-rule="evenodd" d="M4.0332 23.6422V24.984H4.35547L5.10547 25.3707L5.85547 24.984H6.17773V23.6481H5.85547L5.10547 23.2672L4.35547 23.6481H4.0332V23.6422Z" fill="#CA3745"/>
<path fill-rule="evenodd" clip-rule="evenodd" d="M3.39379 25.1704H2.10568L3.39379 25.7418V25.1704ZM1.89402 25.2674V24.3133H3.92597V25.0733H4.35534L4.89356 25.359V26.0275L4.567 26.3186H4.99637V25.359H5.10522V26.4102H4.03482L1.89402 25.2674Z" fill="#FAAE29" stroke="black" stroke-width="0.0913537"/>
<path fill-rule="evenodd" clip-rule="evenodd" d="M3.39379 23.4558H2.10568L3.39379 22.8844V23.4558ZM1.89402 23.3588V24.3129H3.92597V23.5529H4.35534L4.89356 23.2672V22.5987L4.567 22.3076H4.99637V23.2672H5.10522V22.216H4.03482L1.89402 23.3588Z" fill="white" stroke="black" stroke-width="0.0913537"/>
<path fill-rule="evenodd" clip-rule="evenodd" d="M6.823 25.1704H8.11111L6.823 25.7418V25.1704ZM8.32277 25.2674V24.3133H6.29083V25.0733H5.86146L5.32323 25.359V26.0275L5.6498 26.3186H5.22043V25.359H5.11157V26.4102H6.18197L8.32277 25.2674Z" fill="white" stroke="black" stroke-width="0.0913537"/>
<path fill-rule="evenodd" clip-rule="evenodd" d="M2.53906 25.0778H2.66797V24.7848H2.9375V25.0778H3.07227V24.4098H2.9375V24.6969H2.66797V24.4039H2.53906V25.0778ZM3.82227 26.0328H3.95703V25.7399H4.2207V26.0328H4.35547V25.3649H4.2207V25.652H3.95703V25.359H3.82227V26.0387V26.0328ZM2.5332 23.5485H2.66797V23.8356H2.9375V23.5426H3.07227V24.2223H2.9375V23.9293H2.66797V24.2164H2.53906V23.5485H2.5332ZM3.82227 22.5934H3.95703V22.8805H4.2207V22.5875H4.35547V23.2614H4.2207V22.9742H3.95703V23.2672H3.82227V22.5934ZM5.85547 26.0328H5.99023V25.7399H6.25977V26.0328H6.39453V25.3649H6.25977V25.652H5.99023V25.359H5.85547V26.0387V26.0328ZM7.14453 24.2164H7.2793V23.9293H7.54297V24.2223H7.67773V23.5485H7.54297V23.8356H7.28516V23.5426H7.15039V24.2223L7.14453 24.2164Z" fill="#CA3745"/>
<path fill-rule="evenodd" clip-rule="evenodd" d="M5.85547 26.0328H5.99023V25.7399H6.25976V26.0328H6.39453V25.3649H6.25976V25.652H5.99023V25.359H5.85547V26.0387V26.0328Z" fill="#CA3745"/>
<path fill-rule="evenodd" clip-rule="evenodd" d="M5.85547 26.0328H5.99023V25.7399H6.25977V26.0328H6.39453V25.3649H6.25977V25.652H5.99023V25.359H5.85547V26.0387V26.0328ZM7.14453 25.0778H7.2793V24.7848H7.54297V25.0778H7.67773V24.4098H7.54297V24.691H7.28516V24.4039H7.15039V25.0778H7.14453ZM5.85547 23.2614H5.99023V22.9742H6.25977V23.2672H6.39453V22.5934H6.25977V22.8805H5.99023V22.5875H5.85547V23.2614Z" fill="#CA3745"/>
<path fill-rule="evenodd" clip-rule="evenodd" d="M5.2168 24.3102L5.64453 23.9586H5.85547V24.1344H5.64453V24.2223H5.9668V23.8766H5.64453V23.6129H5.2168V23.8766H5.32227V23.7008H5.5332V23.8766L5.10547 24.2281L4.67774 23.8766V23.7008H4.89453V23.8766H5V23.6129H4.57227V23.8766H4.25V24.2281H4.57227V24.1403H4.35547V23.9645H4.57227L5 24.316L4.57227 24.6617H4.35547V24.486H4.57227V24.3981H4.25V24.7496H4.57227V25.0074H5V24.7496H4.89453V24.9254H4.67774V24.7496L5.10547 24.3981L5.5332 24.7496V24.9254H5.32227V24.7496H5.2168V25.0074H5.64453V24.7496H5.9668V24.3981H5.64453V24.486H5.85547V24.6617H5.64453L5.2168 24.3102Z" fill="white"/>
<path fill-rule="evenodd" clip-rule="evenodd" d="M2.10395 9.51L2.30956 9.29661H3.55534L4.48665 8.35883H5.73243L6.66374 9.30223H7.90951L8.11513 9.51L7.90951 9.71778H6.65769L5.72638 10.6612H4.4806L3.55534 9.71778H2.30351L2.0979 9.51H2.10395Z" fill="#CA3745"/>
<path fill-rule="evenodd" clip-rule="evenodd" d="M2.20959 9.52715L2.3222 9.42505H3.60594L4.56875 8.43469H5.63853L6.60696 9.43016H7.8907L7.99768 9.53226L7.8907 9.62925H6.60696L5.7455 10.5226H4.46177L3.60594 9.62925H2.31657L2.20959 9.52715Z" fill="#CA3745" stroke="black" stroke-width="0.25734"/>
<path fill-rule="evenodd" clip-rule="evenodd" d="M5.62959 9.61674L6.04082 10.0323L5.83521 10.2401L5.72635 10.139H5.62959V10.2401L5.7324 10.3468H5.94406L6.14967 10.139V9.92559L5.7324 9.51005L6.14967 9.08888V8.88111L5.94406 8.67333H5.7324L5.62959 8.77441V8.88111H5.7324L5.84125 8.77441L6.04687 8.9878L5.62959 9.40335L5.21837 8.9878L5.62959 8.56664V8.45995H5.52679L5.11556 8.88111L4.69828 8.45995H4.59548V8.56664L5.0067 8.9878L4.59548 9.40335L4.1782 8.9878L4.38986 8.77441L4.49267 8.88111H4.59548V8.77441L4.49267 8.67333H4.28101L4.0754 8.88111V9.08888L4.49267 9.51005L4.0754 9.92559V10.139L4.28101 10.3468H4.49267L4.59548 10.2401V10.139H4.48058L4.37777 10.2401L4.16611 10.0323L4.58338 9.61674L4.99461 10.0323L4.58338 10.4535V10.5545H4.68619L5.10346 10.139L5.51469 10.5545H5.6175V10.4535L5.20627 10.0323L5.6175 9.61674H5.62959ZM5.10951 9.08888L4.69224 9.51005L5.10951 9.92559L5.52074 9.51005L5.10951 9.08888ZM4.48662 10.6612V11.5035L4.58943 11.3912L4.69224 11.5035L4.79504 11.3912L4.89785 11.5035L5.0067 11.3912L5.10951 11.5035L5.21232 11.3912L5.31512 11.5035L5.41793 11.3912L5.52074 11.5035L5.62355 11.3912L5.7324 11.5035V10.6612H4.48058H4.48662ZM5.7324 8.35887V7.51654L5.62355 7.62885L5.52074 7.51654L5.41793 7.62885L5.31512 7.51654L5.21232 7.62885L5.10951 7.51654L5.00066 7.62885L4.89785 7.51654L4.79504 7.62885L4.69224 7.51654L4.58943 7.62885L4.48662 7.51654V8.35887H5.7324ZM7.48616 9.30227V8.45995L7.3894 8.57226L7.2866 8.45995L7.18379 8.57226L7.07494 8.45995L6.97213 8.57226L6.86932 8.45995L6.76652 8.57226L6.66371 8.45995V9.30227H7.49221H7.48616ZM3.55531 9.30227V8.45995L3.44646 8.57226L3.34365 8.45995L3.24085 8.57226L3.13804 8.45995L3.03523 8.57226L2.93243 8.45995L2.82357 8.57226L2.72076 8.45995V9.30227H3.54927H3.55531ZM7.49221 9.71782V10.5601L7.3894 10.4478L7.2866 10.5601L7.18379 10.4478L7.07494 10.5601L6.97213 10.4478L6.86932 10.5601L6.76652 10.4478L6.66371 10.5601V9.71782H7.49221ZM3.54927 9.71782V10.5601L3.44646 10.4478L3.34365 10.5601L3.24085 10.4478L3.13804 10.5601L3.03523 10.4478L2.93243 10.5601L2.82357 10.4478L2.72076 10.5601V9.71782H3.54927Z" fill="#FAAE29"/>
<path fill-rule="evenodd" clip-rule="evenodd" d="M5.72642 10.6613V11.1835L5.83528 11.0768L5.93809 11.1891L6.04089 11.0768L6.1437 11.1891L6.24651 11.0768L6.34931 11.1891L6.45817 11.0768L6.56097 11.1891L6.66378 11.0768V9.71786L5.72642 10.6613ZM4.48669 10.6613V11.1835L4.37784 11.0768L4.27503 11.1891L4.17223 11.0768L4.06942 11.1891L3.96661 11.0768L3.86381 11.1891L3.761 11.0768L3.65819 11.1891L3.54934 11.0768V9.71786L4.48669 10.6613ZM4.48669 8.35891V7.83667L4.37784 7.93775L4.27503 7.83667L4.17223 7.93775L4.06942 7.83667L3.96661 7.93775L3.86381 7.83667L3.761 7.93775L3.65819 7.83667L3.54934 7.93775V9.30232L4.48669 8.35891ZM5.72642 8.35891V7.83667L5.83528 7.93775L5.93809 7.83667L6.04089 7.93775L6.1437 7.83667L6.24651 7.93775L6.34931 7.83667L6.45212 7.93775L6.56097 7.83667L6.66378 7.93775V9.30232L5.72642 8.35891ZM2.72084 10.3468L2.61803 10.2401L2.51522 10.3524L2.41242 10.2401L2.30961 10.3524L2.2068 10.2401L2.09795 10.3524L1.99514 10.2401L1.89233 10.3524V8.66776L1.99514 8.78007L2.09795 8.66776L2.2068 8.78007L2.30961 8.66776L2.41242 8.78007L2.51522 8.66776L2.61803 8.78007L2.72084 8.66776V9.30232H2.30961L2.09795 9.51009L2.30961 9.71786H2.72084V10.3468ZM7.49228 10.3468L7.59509 10.2401L7.6979 10.3524L7.8007 10.2401L7.90956 10.3524L8.01236 10.2401L8.11517 10.3524L8.21798 10.2401L8.32079 10.3524V8.66776L8.21798 8.78007L8.11517 8.66776L8.01236 8.78007L7.90956 8.66776L7.8007 8.78007L7.6979 8.66776L7.59509 8.78007L7.49228 8.66776V9.30232H7.90956L8.11517 9.51009L7.90956 9.71786H7.49228V10.3468Z" fill="#28AE66"/>
<path fill-rule="evenodd" clip-rule="evenodd" d="M3.97262 10.7286C3.97262 10.7286 3.88796 10.8073 3.88796 10.8522C3.88796 10.8915 3.97867 10.9757 4.021 10.9757C4.06938 10.9757 4.148 10.8915 4.148 10.8522C4.148 10.8129 4.06334 10.7286 4.06334 10.7286V10.5602C4.06334 10.5602 4.24476 10.8466 4.24476 10.723C4.24476 10.6332 4.06334 10.4816 4.06334 10.4816H3.97262C3.97262 10.4816 3.7912 10.6613 3.7912 10.723C3.7912 10.8466 3.97262 10.5602 3.97262 10.5602V10.7286Z" fill="white"/>
<path fill-rule="evenodd" clip-rule="evenodd" d="M5.05511 11.0487C5.05511 11.0487 4.9523 11.161 4.9523 11.2171C4.9523 11.2733 5.06116 11.3968 5.10954 11.3968C5.17001 11.3968 5.26072 11.2789 5.26072 11.2227C5.26072 11.1666 5.15791 11.0487 5.15791 11.0487V10.8128C5.15791 10.8128 5.33934 11.1947 5.33934 11.0206C5.33934 10.9083 5.15791 10.7005 5.15791 10.7005H5.05511C5.05511 10.7005 4.84345 10.9588 4.87368 11.0206C4.87368 11.1947 5.05511 10.8128 5.05511 10.8128V11.0487Z" fill="#CA3745"/>
<path d="M3.96478 9.61043C4.07791 9.61043 4.16961 9.5628 4.16961 9.50404C4.16961 9.44528 4.07791 9.39764 3.96478 9.39764C3.85166 9.39764 3.75995 9.44528 3.75995 9.50404C3.75995 9.5628 3.85166 9.61043 3.96478 9.61043Z" fill="#28AE66"/>
<path d="M5.10779 9.61043C5.22091 9.61043 5.31262 9.5628 5.31262 9.50404C5.31262 9.44528 5.22091 9.39764 5.10779 9.39764C4.99466 9.39764 4.90295 9.44528 4.90295 9.50404C4.90295 9.5628 4.99466 9.61043 5.10779 9.61043Z" fill="#28AE66"/>
<path d="M6.24463 9.61043C6.35776 9.61043 6.44946 9.5628 6.44946 9.50404C6.44946 9.44528 6.35776 9.39764 6.24463 9.39764C6.1315 9.39764 6.03979 9.44528 6.03979 9.50404C6.03979 9.5628 6.1315 9.61043 6.24463 9.61043Z" fill="#28AE66"/>
<path fill-rule="evenodd" clip-rule="evenodd" d="M3.95444 8.30275C3.95444 8.30275 3.86978 8.21851 3.86978 8.17921C3.86978 8.1399 3.96049 8.05005 3.99677 8.05005C4.04515 8.05005 4.12377 8.13428 4.12377 8.17359C4.12377 8.21851 4.0391 8.30275 4.0391 8.30275V8.47121C4.0391 8.47121 4.22658 8.17921 4.22658 8.30275C4.22658 8.3926 4.04515 8.54983 4.04515 8.54983H3.95444C3.95444 8.54983 3.76697 8.37013 3.76697 8.30836C3.76697 8.18482 3.94839 8.4656 3.94839 8.4656V8.29713L3.95444 8.30275Z" fill="white"/>
<path fill-rule="evenodd" clip-rule="evenodd" d="M5.03094 7.97701C5.03094 7.97701 4.92814 7.8647 4.92814 7.80854C4.92814 7.75239 5.04304 7.63446 5.08537 7.63446C5.14584 7.63446 5.2426 7.74677 5.2426 7.80293C5.2426 7.85908 5.1398 7.98262 5.1398 7.98262V8.20724C5.1398 8.20724 5.32122 7.831 5.32122 8.00508C5.32122 8.11739 5.1398 8.33078 5.1398 8.33078H5.02489C5.02489 8.33078 4.81323 8.06685 4.84347 8.00508C4.84347 7.83662 5.02489 8.21286 5.02489 8.21286V7.97701H5.03094Z" fill="#CA3745"/>
<path fill-rule="evenodd" clip-rule="evenodd" d="M6.17998 10.7286C6.17998 10.7286 6.09532 10.8073 6.09532 10.8522C6.09532 10.8915 6.18603 10.9757 6.22836 10.9757C6.27674 10.9757 6.35536 10.8915 6.35536 10.8522C6.35536 10.8129 6.27069 10.7286 6.27069 10.7286V10.5602C6.27069 10.5602 6.45212 10.8466 6.45212 10.723C6.45212 10.6332 6.27069 10.4816 6.27069 10.4816H6.17393C6.17393 10.4816 5.99251 10.6613 5.99251 10.723C5.99251 10.8466 6.17393 10.5602 6.17393 10.5602V10.7286H6.17998ZM6.16184 8.30275C6.16184 8.30275 6.07717 8.21851 6.07717 8.17359C6.07717 8.1399 6.16789 8.05005 6.20417 8.05005C6.25255 8.05005 6.33117 8.13428 6.33117 8.17359C6.33117 8.21851 6.2465 8.30275 6.2465 8.30275V8.47121C6.2465 8.47121 6.43398 8.17921 6.43398 8.30275C6.43398 8.39259 6.25255 8.54983 6.25255 8.54983H6.16184C6.16184 8.54983 5.97437 8.37013 5.97437 8.30836C5.97437 8.18482 6.15579 8.4656 6.15579 8.4656V8.29713L6.16184 8.30275Z" fill="white"/>
<path fill-rule="evenodd" clip-rule="evenodd" d="M3.07155 10.1446C3.07155 10.1446 2.95664 10.2232 2.95664 10.2569C2.95664 10.2962 3.07759 10.3805 3.13202 10.3748C3.19249 10.3748 3.30135 10.3018 3.30135 10.2625C3.30135 10.2232 3.18645 10.1446 3.18645 10.1446V9.98737C3.18645 9.98737 3.39206 10.2401 3.39206 10.1278C3.39206 10.0491 3.18645 9.90875 3.18645 9.90875H3.07155C3.07155 9.90875 2.83569 10.0884 2.87198 10.1278C2.87198 10.2401 3.07155 9.98737 3.07155 9.98737V10.1446ZM3.04736 8.95973C3.04736 8.95973 2.93245 8.88111 2.93245 8.8418C2.93245 8.8025 3.0534 8.72388 3.10783 8.72949C3.16831 8.72949 3.27716 8.8025 3.27716 8.8418C3.27716 8.88111 3.16226 8.95411 3.16226 8.95411V9.11135C3.16226 9.11135 3.36787 8.85865 3.36787 8.97658C3.36787 9.04958 3.16226 9.18997 3.16226 9.18997H3.04736C3.04736 9.18997 2.8115 9.01588 2.84779 8.97658C2.84779 8.86427 3.04736 9.11135 3.04736 9.11135V8.95973ZM7.05682 10.1165C7.05682 10.1165 6.93588 10.1951 6.93588 10.2344C6.93588 10.2738 7.06287 10.3524 7.1173 10.3524C7.17777 10.3524 7.28663 10.2738 7.28663 10.2401C7.28663 10.1951 7.16568 10.1165 7.16568 10.1165V9.96491C7.16568 9.96491 7.37129 10.2176 7.37129 10.0997C7.37129 10.0267 7.17173 9.88629 7.17173 9.88629H7.05078C7.05078 9.88629 6.82097 10.0604 6.85121 10.0997C6.85121 10.2176 7.05682 9.96491 7.05682 9.96491V10.1221V10.1165ZM7.03264 8.93727C7.03264 8.93727 6.91169 8.85865 6.91169 8.81934C6.91169 8.78003 7.03868 8.70142 7.09311 8.70142C7.15358 8.70142 7.26244 8.78003 7.26244 8.81373C7.26244 8.85865 7.14149 8.93165 7.14149 8.93165V9.08889C7.14149 9.08889 7.3471 8.83619 7.3471 8.9485C7.3471 9.02712 7.14754 9.1675 7.14754 9.1675H7.02659C7.02659 9.1675 6.79678 8.99342 6.82702 8.95411C6.82702 8.83619 7.03264 9.08889 7.03264 9.08889V8.93165V8.93727Z" fill="#CA3745"/>
<path fill-rule="evenodd" clip-rule="evenodd" d="M2.22492 10.1334C2.18863 10.0604 2.20073 10.0267 2.20073 9.9874C2.20073 9.94809 2.30353 9.87509 2.33982 9.87509C2.3882 9.87509 2.46681 9.9537 2.46681 9.99863C2.46681 10.0379 2.46682 10.0716 2.44867 10.1446L2.40029 10.0267C2.33377 10.1952 2.32772 10.1952 2.29144 10.0211L2.23096 10.1334H2.22492ZM2.22492 8.92607C2.19468 8.99907 2.20073 9.03276 2.20073 9.07207C2.20073 9.11138 2.30353 9.18438 2.34587 9.18438C2.39425 9.18438 2.47286 9.10576 2.47286 9.06084C2.47286 9.02153 2.47286 8.98784 2.45472 8.91483L2.40029 9.03276C2.33982 8.8643 2.33377 8.8643 2.29144 9.03838L2.23096 8.92607H2.22492ZM7.81882 10.1166C7.78253 10.0436 7.78858 10.0099 7.78858 9.97055C7.78858 9.93124 7.89744 9.85824 7.93372 9.85824C7.9821 9.85824 8.06072 9.94247 8.06072 9.98178C8.06072 10.0211 8.06072 10.0604 8.04257 10.1278L7.98815 10.0099C7.92767 10.1783 7.92163 10.1839 7.87929 10.0099L7.81882 10.1166ZM7.81882 8.91483C7.78253 8.98222 7.79463 9.01591 7.79463 9.06084C7.79463 9.09453 7.89744 9.17315 7.93372 9.17315C7.9821 9.17315 8.06676 9.08892 8.06676 9.04961C8.06676 9.00468 8.06676 8.97099 8.04862 8.89799L7.98815 9.02153C7.92767 8.84745 7.92767 8.84183 7.88534 9.02153L7.82487 8.90922L7.81882 8.91483Z" fill="white"/>
<path fill-rule="evenodd" clip-rule="evenodd" d="M4.46851 11.5259V11.2227H3.50092V10.6274H2.64218V10.4309H1.8923V8.63396H2.64218V8.43742H3.50092V7.84218H4.46851V7.54456H5.75058V7.84218H6.71817V8.43742H7.57086V8.63957H8.3268V10.4309H7.57691V10.6274H6.72422V11.2227H5.75662V11.5203H4.47456L4.46851 11.5259ZM4.35966 11.6214V11.3238H3.39207V10.7285H2.53938V10.5264H1.78949V8.53849H2.53938V8.34195H3.39207V7.7411H4.35966V7.44348H5.85943V7.7411H6.82702V8.34195H7.67972V8.53849H8.4296V10.5264H7.67972V10.7285H6.82098V11.3238H5.85338V11.6214H4.35966Z" fill="#CA3745" stroke="black" stroke-width="0.0932397"/>
</g>
<defs>
<clipPath id="clip0">
<rect width="40" height="30" fill="white" transform="translate(0 0.901978)"/>
</clipPath>
</defs>
</svg>
