<svg width="40" height="31" viewBox="0 0 40 31" fill="none" xmlns="http://www.w3.org/2000/svg">
<g clip-path="url(#clip0)">
<path d="M0 0.828491H40V10.8285H0V0.828491Z" fill="#00732F"/>
<path d="M0 10.8285H40V20.8285H0V10.8285Z" fill="white"/>
<path d="M0 20.8285H40V30.8285H0V20.8285Z" fill="black"/>
<path d="M0 0.828491H13.75V30.8285H0V0.828491Z" fill="#FF0000"/>
<g clip-path="url(#clip1)">
<path fill-rule="evenodd" clip-rule="evenodd" d="M0 0.828491H40V30.8285H0V0.828491Z" fill="#E30A17"/>
<path fill-rule="evenodd" clip-rule="evenodd" d="M25.4375 16.2973C25.4375 20.4348 22.025 23.791 17.8125 23.791C13.6 23.791 10.1875 20.4348 10.1875 16.291C10.1875 12.1473 13.6 8.80353 17.8125 8.80353C22.025 8.80353 25.4375 12.1598 25.4375 16.2973Z" fill="white"/>
<path fill-rule="evenodd" clip-rule="evenodd" d="M25.8125 16.2973C25.8125 19.6098 23.0875 22.291 19.7187 22.291C16.35 22.291 13.6187 19.6035 13.6187 16.291C13.6187 12.9785 16.35 10.3035 19.7187 10.3035C23.0875 10.3035 25.8187 12.9848 25.8187 16.2973H25.8125Z" fill="#E30A17"/>
<path fill-rule="evenodd" clip-rule="evenodd" d="M26.9187 12.7972L26.8562 15.566L24.275 16.266L26.825 17.1722L26.7625 19.716L28.4187 17.7285L30.9312 18.6035L29.4812 16.4722L31.25 14.3535L28.5312 15.1035L26.9187 12.791V12.7972Z" fill="white"/>
</g>
</g>
<defs>
<clipPath id="clip0">
<rect width="40" height="30" fill="white" transform="translate(0 0.828491)"/>
</clipPath>
<clipPath id="clip1">
<rect width="40" height="30" fill="white" transform="translate(0 0.828491)"/>
</clipPath>
</defs>
</svg>
