<svg width="55" height="56" viewBox="0 0 55 56" fill="none" xmlns="http://www.w3.org/2000/svg">
    <path d="M35.6518 22.9729C35.309 22.9728 34.9692 23.0381 34.6508 23.1654V22.9069C34.6494 22.124 34.3377 21.3736 33.7842 20.82C33.2306 20.2665 32.4802 19.9548 31.6973 19.9534H31.5598C31.0832 19.9574 30.6149 20.0783 30.1958 20.3054C30.0581 19.6396 29.6953 19.0415 29.1684 18.6118C28.6415 18.1821 27.9827 17.9469 27.3028 17.9459C26.8001 17.9454 26.3043 18.0641 25.8563 18.2924V14.0244H31.0813C31.3001 14.0244 31.51 13.9375 31.6647 13.7827C31.8194 13.628 31.9063 13.4182 31.9063 13.1994V5.17487C31.9063 5.06607 31.8848 4.95834 31.843 4.85788C31.8012 4.75743 31.7399 4.66624 31.6628 4.58956C31.5856 4.51287 31.494 4.45222 31.3932 4.41109C31.2925 4.36995 31.1846 4.34915 31.0758 4.34987H14.0258C13.807 4.34987 13.5972 4.43679 13.4425 4.59151C13.2878 4.74623 13.2008 4.95607 13.2008 5.17487V13.1994C13.2008 13.4182 13.2878 13.628 13.4425 13.7827C13.5972 13.9375 13.807 14.0244 14.0258 14.0244H19.8008V34.2094L14.9663 30.2494C13.9958 29.4373 12.7571 29.0165 11.4927 29.0694C10.2284 29.1223 9.02918 29.6451 8.12984 30.5354C7.98518 30.6783 7.89843 30.8697 7.88625 31.0727C7.87407 31.2758 7.93731 31.4761 8.06384 31.6354L19.8008 46.6394V53.5749C19.8008 53.7937 19.8878 54.0035 20.0425 54.1582C20.1972 54.3129 20.407 54.3999 20.6258 54.3999C20.8446 54.3999 21.0545 54.3129 21.2092 54.1582C21.3639 54.0035 21.4508 53.7937 21.4508 53.5749V46.3534C21.4501 46.1698 21.3882 45.9918 21.2748 45.8474L9.85684 31.2394C10.4732 30.8469 11.1987 30.6615 11.9277 30.7099C12.6568 30.7584 13.3514 31.0383 13.9103 31.5089L20.1033 36.5854C20.2238 36.684 20.3697 36.7465 20.5242 36.7657C20.6787 36.7848 20.8355 36.7599 20.9764 36.6938C21.1173 36.6276 21.2367 36.5229 21.3206 36.3918C21.4046 36.2607 21.4497 36.1085 21.4508 35.9529V11.2854C21.4523 10.9401 21.5901 10.6094 21.8342 10.3653C22.0784 10.1211 22.4091 9.98332 22.7543 9.98187H22.8918C23.2381 9.98187 23.5702 10.119 23.8155 10.3633C24.0608 10.6076 24.1994 10.9392 24.2008 11.2854V28.8249C24.2008 29.0437 24.2878 29.2535 24.4425 29.4082C24.5972 29.563 24.807 29.6499 25.0258 29.6499C25.2446 29.6499 25.4545 29.563 25.6092 29.4082C25.7639 29.2535 25.8508 29.0437 25.8508 28.8249V20.8499C25.887 20.4964 26.057 20.1702 26.3259 19.9381C26.5949 19.706 26.9424 19.5855 27.2973 19.6014C27.6426 19.6028 27.9733 19.7406 28.2175 19.9848C28.4616 20.2289 28.5994 20.5596 28.6008 20.9049V22.7749C28.6008 22.7749 28.6008 22.8189 28.6008 22.8409C28.6008 22.8629 28.6008 22.8849 28.6008 22.9069V28.8249C28.6008 29.0437 28.6878 29.2535 28.8425 29.4082C28.9972 29.563 29.207 29.6499 29.4258 29.6499C29.6446 29.6499 29.8545 29.563 30.0092 29.4082C30.1639 29.2535 30.2508 29.0437 30.2508 28.8249V22.9124C30.2523 22.5671 30.3901 22.2364 30.6342 21.9923C30.8784 21.7481 31.2091 21.6103 31.5543 21.6089H31.6918C32.0381 21.6089 32.3702 21.746 32.6155 21.9903C32.8608 22.2346 32.9994 22.5662 33.0008 22.9124V28.8249C33.0008 29.0437 33.0878 29.2535 33.2425 29.4082C33.3972 29.563 33.607 29.6499 33.8258 29.6499C34.0446 29.6499 34.2545 29.563 34.4092 29.4082C34.5639 29.2535 34.6508 29.0437 34.6508 28.8249V25.7999C34.6315 25.6555 34.6427 25.5086 34.6838 25.3688C34.7249 25.2291 34.7949 25.0995 34.8893 24.9885C34.9837 24.8775 35.1003 24.7876 35.2317 24.7246C35.3631 24.6617 35.5062 24.627 35.6518 24.6229C35.9661 24.6228 36.2677 24.7461 36.492 24.9662C36.7162 25.1864 36.8451 25.4857 36.8508 25.7999V40.0394C36.8532 41.1635 36.6327 42.2769 36.2023 43.3153C35.7718 44.3538 35.1398 45.2966 34.3428 46.0894C34.2628 46.1691 34.2001 46.2645 34.1585 46.3695C34.1168 46.4745 34.0972 46.587 34.1008 46.6999V53.0249C34.1008 53.2437 34.1878 53.4535 34.3425 53.6082C34.4972 53.7629 34.707 53.8499 34.9258 53.8499C35.1446 53.8499 35.3545 53.7629 35.5092 53.6082C35.6639 53.4535 35.7508 53.2437 35.7508 53.0249V47.0134C37.5245 45.1252 38.5085 42.6299 38.5008 40.0394V25.7999C38.495 25.0481 38.1923 24.3291 37.6586 23.7995C37.125 23.27 36.4036 22.9728 35.6518 22.9729ZM22.8973 8.32637H22.7598C21.9751 8.32637 21.2224 8.63812 20.6675 9.19304C20.1126 9.74796 19.8008 10.5006 19.8008 11.2854V12.3854H14.8508V5.99987H30.2508V12.3744H25.8508V11.2744C25.8479 10.4925 25.5357 9.74347 24.9822 9.19109C24.4288 8.6387 23.6793 8.32782 22.8973 8.32637Z" fill="#F88950"/>
    <path d="M43.7254 7.6499H35.4754C35.2566 7.6499 35.0467 7.73682 34.892 7.89154C34.7373 8.04626 34.6504 8.2561 34.6504 8.4749C34.6504 8.69371 34.7373 8.90355 34.892 9.05827C35.0467 9.21298 35.2566 9.2999 35.4754 9.2999H43.7254C43.9442 9.2999 44.154 9.21298 44.3088 9.05827C44.4635 8.90355 44.5504 8.69371 44.5504 8.4749C44.5504 8.2561 44.4635 8.04626 44.3088 7.89154C44.154 7.73682 43.9442 7.6499 43.7254 7.6499Z" fill="#F88950"/>
    <path d="M35.5691 12.6001C35.4127 12.4544 35.2058 12.375 34.9921 12.3788C34.7784 12.3826 34.5744 12.4691 34.4233 12.6203C34.2721 12.7715 34.1855 12.9754 34.1818 13.1891C34.178 13.4028 34.2573 13.6097 34.4031 13.7661L41.7566 21.1361C41.9166 21.2538 42.1137 21.3098 42.3117 21.2939C42.5096 21.278 42.6952 21.1911 42.8344 21.0493C42.9735 20.9075 43.0568 20.7203 43.0689 20.5221C43.0811 20.3238 43.0213 20.1278 42.9006 19.9701L35.5691 12.6001Z" fill="#F88950"/>
    <path d="M11.5829 15.317C11.4282 15.1625 11.2185 15.0757 10.9999 15.0757C10.7812 15.0757 10.5716 15.1625 10.4169 15.317L4.91688 20.817C4.83582 20.8925 4.77081 20.9836 4.72572 21.0848C4.68063 21.186 4.65638 21.2952 4.65443 21.406C4.65247 21.5168 4.67285 21.6268 4.71434 21.7295C4.75583 21.8322 4.81759 21.9256 4.89593 22.0039C4.97427 22.0822 5.06759 22.144 5.17032 22.1855C5.27305 22.227 5.38308 22.2474 5.49385 22.2454C5.60462 22.2435 5.71387 22.2192 5.81507 22.1741C5.91627 22.129 6.00735 22.064 6.08288 21.983L11.5829 16.483C11.7374 16.3283 11.8241 16.1186 11.8241 15.9C11.8241 15.6813 11.7374 15.4716 11.5829 15.317Z" fill="#F88950"/>
</svg>
