<svg width="56" height="56" viewBox="0 0 56 56" fill="none" xmlns="http://www.w3.org/2000/svg">
    <path d="M51.5186 42.2762C51.5444 42.1967 51.5619 42.1129 51.5619 42.0246V12.9073C51.5619 12.8185 51.5444 12.7341 51.5181 12.654C51.5142 12.6431 51.512 12.6321 51.5076 12.6212C51.4726 12.5274 51.4211 12.443 51.3564 12.369C51.352 12.3641 51.3515 12.3581 51.3471 12.3532C51.3443 12.3504 51.341 12.3493 51.3383 12.3466C51.2692 12.2731 51.1876 12.2139 51.0961 12.1695C51.0889 12.1663 51.0834 12.1619 51.0763 12.1586C50.9897 12.1197 50.8955 12.0978 50.7963 12.0912C50.7864 12.0906 50.7771 12.0884 50.7672 12.0884C50.7579 12.0879 50.7497 12.0857 50.7404 12.0857H5.13904C5.12973 12.0857 5.12096 12.0879 5.11164 12.0884C5.10287 12.089 5.0941 12.0906 5.08533 12.0912C4.98504 12.0978 4.88913 12.1202 4.80144 12.1597C4.79596 12.1619 4.79157 12.1657 4.78609 12.1679C4.69292 12.2123 4.61017 12.2726 4.54056 12.3471C4.53782 12.3499 4.53453 12.3504 4.53179 12.3532C4.52741 12.3575 4.52686 12.3636 4.52248 12.3685C4.45781 12.4425 4.40574 12.5274 4.37066 12.6212C4.36628 12.6321 4.36409 12.6431 4.36025 12.6546C4.33394 12.7346 4.31641 12.819 4.31641 12.9078V42.0257C4.31641 42.1156 4.33449 42.2011 4.36135 42.2822C4.36518 42.2932 4.36738 42.3036 4.37121 42.3145C4.40684 42.4088 4.45945 42.4938 4.52467 42.5678C4.52851 42.5721 4.5296 42.5776 4.53344 42.582C4.53673 42.5858 4.54111 42.588 4.54495 42.5919C4.5718 42.6198 4.6014 42.6445 4.63209 42.6686C4.64579 42.679 4.65785 42.6916 4.6721 42.7015C4.70827 42.7267 4.74718 42.747 4.78719 42.7656C4.79705 42.77 4.80582 42.7771 4.81569 42.781C4.91489 42.8232 5.02395 42.8473 5.1385 42.8473H50.7393C50.8538 42.8473 50.9629 42.8237 51.0621 42.781C51.0774 42.7744 51.0917 42.7645 51.1065 42.7568C51.1404 42.7398 51.1744 42.7223 51.2057 42.7009C51.2221 42.6894 51.2369 42.6746 51.2528 42.662C51.2808 42.6396 51.3082 42.6171 51.3323 42.5913C51.3367 42.5869 51.3416 42.5836 51.346 42.5793C51.3504 42.5743 51.3514 42.5678 51.3558 42.5628C51.42 42.4894 51.4715 42.405 51.5065 42.3118C51.512 42.2997 51.5148 42.2882 51.5186 42.2762ZM5.96113 14.7718L19.798 27.4109L5.96113 40.1508V14.7718ZM34.321 26.7915C34.264 26.8288 34.2038 26.86 34.1561 26.9127C34.138 26.9324 34.132 26.9581 34.1161 26.979L27.9394 32.6208L7.25784 13.7294H48.621L34.321 26.7915ZM21.0169 28.524L27.3848 34.3407C27.5421 34.4843 27.7405 34.5561 27.9394 34.5561C28.1384 34.5561 28.3368 34.4843 28.4935 34.3407L34.7825 28.5963L48.6172 41.2031H7.24579L21.0169 28.524ZM36.0019 27.4826L49.9177 14.7718V40.1639L36.0019 27.4826Z" fill="#F88950"/>
</svg>

