<svg width="90" height="90" viewBox="0 0 90 90" fill="none" xmlns="http://www.w3.org/2000/svg">
    <path d="M70.3963 57.0298C67.7159 57.0316 65.1339 58.0401 63.1618 59.8555C61.1896 61.6708 59.9712 64.1606 59.7478 66.8318H27.7221C27.2634 66.8303 26.8153 66.6942 26.4332 66.4405C26.0511 66.1868 25.7519 65.8265 25.5726 65.4044C25.3933 64.9822 25.3418 64.5167 25.4246 64.0656C25.5073 63.6145 25.7205 63.1975 26.0379 62.8664L65.8251 27.2941C66.5347 26.5973 67.0208 25.705 67.2214 24.7309C67.422 23.7568 67.3279 22.745 66.9513 21.8245C66.5747 20.904 65.9326 20.1165 65.1067 19.5624C64.2809 19.0082 63.3087 18.7125 62.3142 18.7129H33.7993C33.5761 16.0022 32.3284 13.4783 30.3099 11.6551C28.2915 9.83192 25.6541 8.84643 22.9347 8.89923C20.2152 8.95204 17.6181 10.0392 15.672 11.9394C13.7259 13.8396 12.577 16.41 12.4593 19.1274C12.3415 21.8448 13.2637 24.5049 15.0382 26.5663C16.8126 28.6277 19.306 29.9355 22.0106 30.2233C24.7153 30.5112 27.428 29.7575 29.5966 28.1157C31.7652 26.474 33.2267 24.0675 33.6835 21.3862H62.3142C62.7728 21.3877 63.221 21.5237 63.603 21.7775C63.9851 22.0312 64.2843 22.3915 64.4636 22.8136C64.6429 23.2358 64.6944 23.7013 64.6117 24.1524C64.529 24.6035 64.3157 25.0205 63.9983 25.3516L24.2112 60.9238C23.5016 61.6207 23.0155 62.513 22.8149 63.4871C22.6143 64.4612 22.7083 65.473 23.0849 66.3935C23.4615 67.3139 24.1037 68.1014 24.9295 68.6556C25.7554 69.2098 26.7275 69.5055 27.7221 69.505H59.8637C60.2035 71.5157 61.1112 73.3872 62.4797 74.899C63.8482 76.4107 65.6204 77.4997 67.5874 78.0374C69.5544 78.5752 71.6341 78.5392 73.5813 77.9339C75.5286 77.3286 77.2622 76.1792 78.5776 74.6211C79.8931 73.063 80.7357 71.1612 81.0059 69.14C81.2762 67.1188 80.9629 65.0625 80.103 63.2136C79.243 61.3646 77.8724 59.8 76.1526 58.7044C74.4327 57.6088 72.4355 57.0277 70.3963 57.0298ZM23.1686 27.6238C21.5825 27.6238 20.0319 27.1535 18.7131 26.2723C17.3942 25.391 16.3663 24.1385 15.7593 22.6731C15.1523 21.2077 14.9935 19.5951 15.3029 18.0395C15.6124 16.4838 16.3762 15.0548 17.4978 13.9332C18.6194 12.8116 20.0483 12.0478 21.604 11.7383C23.1597 11.4289 24.7722 11.5877 26.2377 12.1947C27.7031 12.8017 28.9556 13.8296 29.8368 15.1485C30.7181 16.4673 31.1884 18.0179 31.1884 19.604C31.1884 21.731 30.3435 23.7709 28.8395 25.2749C27.3355 26.7789 25.2956 27.6238 23.1686 27.6238ZM70.3963 75.7427C68.8102 75.7427 67.2596 75.2723 65.9408 74.3911C64.6219 73.5098 63.594 72.2573 62.987 70.7919C62.38 69.3265 62.2212 67.714 62.5306 66.1583C62.8401 64.6026 63.6039 63.1736 64.7255 62.052C65.8471 60.9304 67.2761 60.1666 68.8318 59.8572C70.3875 59.5477 72 59.7065 73.4654 60.3135C74.9308 60.9205 76.1833 61.9484 77.0646 63.2673C77.9458 64.5861 78.4161 66.1367 78.4161 67.7229C78.4161 69.8498 77.5712 71.8897 76.0672 73.3937C74.5632 74.8977 72.5233 75.7427 70.3963 75.7427Z" fill="#F88950"/>
    <path d="M74.7539 63.8911C74.5033 63.6408 74.1636 63.5002 73.8094 63.5002C73.4552 63.5002 73.1154 63.6408 72.8648 63.8911L70.5658 66.1902L68.2579 63.8911C68.0045 63.655 67.6694 63.5265 67.3231 63.5326C66.9768 63.5387 66.6464 63.679 66.4015 63.9239C66.1566 64.1688 66.0164 64.4992 66.0103 64.8455C66.0041 65.1917 66.1327 65.5269 66.3688 65.7803L68.6678 68.0793L66.3688 70.3961C66.2375 70.5185 66.1321 70.666 66.0591 70.83C65.986 70.994 65.9467 71.1709 65.9436 71.3504C65.9404 71.5299 65.9734 71.7082 66.0406 71.8746C66.1079 72.041 66.2079 72.1922 66.3349 72.3191C66.4618 72.4461 66.613 72.5461 66.7794 72.6133C66.9458 72.6806 67.1241 72.7136 67.3036 72.7104C67.483 72.7073 67.66 72.668 67.824 72.5949C67.988 72.5219 68.1355 72.4165 68.2579 72.2852L70.5569 69.9862L72.8559 72.2852C73.1064 72.5369 73.4467 72.6788 73.8018 72.6796C74.1569 72.6804 74.4978 72.5402 74.7495 72.2897C75.0012 72.0392 75.143 71.6989 75.1439 71.3438C75.1447 70.9887 75.0044 70.6478 74.7539 70.3961L72.4549 68.0971L74.7539 65.7981C74.8806 65.6737 74.9811 65.5253 75.0498 65.3616C75.1185 65.1979 75.1538 65.0221 75.1538 64.8446C75.1538 64.6671 75.1185 64.4913 75.0498 64.3276C74.9811 64.1639 74.8806 64.0156 74.7539 63.8911Z" fill="#F88950"/>
    <path d="M23.1686 22.7227C24.8911 22.7227 26.2874 21.3264 26.2874 19.6039C26.2874 17.8814 24.8911 16.4851 23.1686 16.4851C21.4461 16.4851 20.0498 17.8814 20.0498 19.6039C20.0498 21.3264 21.4461 22.7227 23.1686 22.7227Z" fill="#F88950"/>
</svg>
