<?xml version="1.0" encoding="UTF-8"?>
<svg xmlns="http://www.w3.org/2000/svg" xmlns:xlink="http://www.w3.org/1999/xlink" width="82pt" height="55pt" viewBox="0 0 82 55" version="1.1">
<g id="surface1">
<path style=" stroke:none;fill-rule:nonzero;fill:rgb(97.254902%,53.72549%,31.372549%);fill-opacity:1;" d="M 30.222656 52.1875 C 20.484375 51.324219 11.890625 47.652344 6.289062 41.976562 C 3.105469 38.742188 1.171875 35.234375 0.300781 31.09375 C -0.105469 29.214844 -0.0976562 26.089844 0.300781 24.191406 C 1.515625 18.441406 5.175781 13.410156 10.9375 9.574219 C 24.085938 0.816406 44.230469 0.863281 57.257812 9.679688 C 58.984375 10.847656 60.097656 11.777344 61.664062 13.339844 C 63.640625 15.320312 65.027344 17.285156 66.492188 20.183594 C 66.546875 20.289062 66.8125 20.425781 67.089844 20.480469 C 68.007812 20.671875 69.246094 21.410156 70.238281 22.347656 C 71.007812 23.074219 71.601562 23.867188 73.070312 26.125 C 74.546875 28.398438 81.257812 38.90625 81.664062 39.589844 C 81.820312 39.863281 81.503906 40.289062 81.152344 40.289062 C 80.902344 40.289062 80.722656 40.113281 80.355469 39.53125 L 76.554688 33.539062 C 70.085938 23.375 69.738281 22.902344 67.933594 21.988281 L 66.988281 21.5 L 64.207031 21.5 C 61.429688 21.5 61.429688 21.507812 61.359375 21.804688 C 60.992188 23.429688 60.921875 23.832031 61.003906 23.90625 C 61.058594 23.953125 62.628906 24.863281 64.507812 25.933594 L 67.921875 27.871094 L 67.710938 28.328125 C 67.589844 28.578125 67.457031 28.78125 67.410156 28.78125 C 67.363281 28.78125 64.492188 27.164062 61.027344 25.191406 C 57.5625 23.222656 54.527344 21.546875 54.277344 21.480469 C 53.292969 21.203125 51.785156 22.308594 51.785156 23.304688 C 51.785156 24.316406 52.078125 24.613281 58.160156 29.667969 C 61.957031 32.828125 64.132812 34.726562 64.457031 35.175781 C 65.066406 35.984375 65.675781 37.195312 66.238281 38.671875 C 67.226562 41.277344 68.839844 42.730469 71.476562 43.402344 L 72.34375 43.621094 L 72.273438 44.105469 C 72.25 44.289062 72.210938 44.476562 72.144531 44.644531 C 72.035156 44.773438 70.28125 44.207031 69.273438 43.714844 C 67.6875 42.945312 66.597656 41.84375 65.53125 39.933594 C 65.066406 40.074219 64.609375 40.238281 64.15625 40.410156 C 62.820312 40.902344 62.757812 40.941406 61.496094 42.191406 C 56.128906 47.511719 48.441406 50.910156 39.144531 52.058594 C 37.636719 52.25 31.828125 52.332031 30.222656 52.1875 Z M 39.46875 50.550781 C 43.734375 49.980469 47.042969 49.121094 50.5 47.6875 C 54.132812 46.175781 57.558594 44.003906 59.953125 41.695312 L 60.898438 40.785156 L 58.519531 39.628906 C 55.984375 38.398438 55.730469 38.191406 55.410156 37.089844 C 55.203125 36.402344 55.433594 35.660156 56.082031 34.945312 L 56.589844 34.386719 L 55.484375 33.539062 C 54.617188 32.863281 54.34375 32.570312 54.175781 32.121094 C 54.042969 31.769531 53.996094 31.390625 54.042969 31.023438 C 54.085938 30.648438 54.226562 30.292969 54.441406 29.992188 L 54.773438 29.519531 L 51.289062 28.894531 C 49.960938 28.671875 48.640625 28.414062 47.320312 28.128906 C 47.03125 28.011719 46.777344 27.832031 46.566406 27.597656 C 46.359375 27.363281 46.214844 27.078125 46.132812 26.773438 C 46.054688 26.457031 47.761719 18 48.144531 16.785156 C 48.277344 16.476562 48.476562 16.195312 48.730469 15.972656 C 48.980469 15.75 49.277344 15.582031 49.597656 15.488281 C 50.171875 15.378906 60.441406 17.210938 60.953125 17.515625 C 61.757812 17.992188 62.015625 18.769531 61.757812 19.953125 L 61.648438 20.449219 L 62.21875 20.449219 C 62.53125 20.449219 63.273438 20.410156 63.863281 20.363281 L 64.9375 20.277344 L 64.40625 19.277344 C 62.792969 16.222656 59.878906 13.164062 56.273438 10.730469 C 54.59375 9.597656 51.011719 7.804688 48.851562 7.015625 C 45.5 5.839844 42.023438 5.054688 38.488281 4.6875 C 36.535156 4.484375 31.40625 4.484375 29.507812 4.695312 C 24.945312 5.195312 20.808594 6.246094 17.195312 7.8125 C 8.8125 11.4375 3.179688 17.4375 1.742188 24.285156 C 1.371094 26.074219 1.335938 29.203125 1.683594 30.832031 C 2.441406 34.425781 4.109375 37.539062 6.816406 40.441406 C 12.332031 46.34375 20.769531 49.96875 30.871094 50.785156 C 32.222656 50.898438 38.09375 50.738281 39.46875 50.550781 Z M 37.625 44.113281 C 37.101562 43.960938 36.574219 43.324219 36.464844 42.730469 C 36.390625 42.332031 36.480469 42.0625 37.035156 40.976562 C 39.265625 36.59375 40.238281 32.558594 40.238281 27.65625 C 40.238281 22.921875 39.378906 19.242188 37.242188 14.824219 C 36.785156 13.878906 36.40625 12.996094 36.40625 12.875 C 36.40625 12.398438 36.796875 11.71875 37.214844 11.453125 C 37.792969 11.085938 38.757812 11.152344 39.214844 11.59375 C 39.394531 11.765625 39.851562 12.527344 40.238281 13.300781 C 41.769531 16.339844 42.8125 19.679688 43.328125 23.160156 C 43.648438 25.3125 43.710938 29.390625 43.457031 31.363281 C 43.027344 34.855469 42.039062 38.246094 40.53125 41.414062 C 39.609375 43.332031 39.039062 44.125 38.558594 44.125 C 38.4375 44.128906 38.328125 44.148438 38.210938 44.175781 C 38.015625 44.195312 37.8125 44.175781 37.625 44.113281 Z M 31.410156 40.808594 C 30.609375 40.570312 30.035156 39.578125 30.261719 38.828125 C 30.320312 38.648438 30.695312 37.820312 31.101562 36.980469 C 32.785156 33.558594 33.503906 29.726562 33.175781 25.914062 C 32.890625 22.855469 32.34375 20.925781 30.988281 18.097656 C 30.070312 16.199219 30.03125 15.902344 30.558594 15.144531 C 31.0625 14.421875 32.328125 14.296875 32.988281 14.917969 C 33.445312 15.34375 34.875 18.371094 35.425781 20.089844 C 37.246094 25.769531 36.96875 31.933594 34.636719 37.421875 C 33.433594 40.277344 32.59375 41.160156 31.410156 40.808594 Z M 25 37.464844 C 24.742188 37.335938 24.523438 37.152344 24.34375 36.933594 C 24.164062 36.710938 24.035156 36.449219 23.964844 36.167969 C 23.894531 35.847656 24.011719 35.484375 24.605469 34.277344 C 26.757812 29.855469 26.78125 25.589844 24.671875 21.269531 C 23.75 19.363281 23.726562 18.984375 24.511719 18.238281 C 24.894531 17.871094 25.054688 17.800781 25.601562 17.800781 C 26.507812 17.800781 26.984375 18.265625 27.789062 19.960938 C 29.042969 22.570312 29.554688 24.828125 29.546875 27.726562 C 29.546875 30.695312 29.066406 32.746094 27.738281 35.488281 C 26.972656 37.066406 26.589844 37.480469 25.828125 37.585938 C 25.542969 37.609375 25.265625 37.570312 25 37.464844 Z M 19.019531 34.347656 C 18.558594 34.09375 18.210938 33.675781 18.046875 33.167969 C 17.902344 32.640625 18.015625 32.226562 18.609375 31.246094 C 19.363281 29.984375 19.539062 29.308594 19.539062 27.65625 C 19.539062 26.007812 19.363281 25.332031 18.609375 24.070312 C 18.382812 23.707031 18.191406 23.328125 18.035156 22.933594 C 17.792969 22.101562 18.476562 21.082031 19.394531 20.90625 C 20.164062 20.761719 20.699219 21.117188 21.417969 22.242188 C 22.425781 23.878906 22.96875 25.769531 22.96875 27.695312 C 22.96875 29.621094 22.425781 31.515625 21.417969 33.148438 C 20.6875 34.292969 19.867188 34.703125 19.019531 34.347656 Z M 63.582031 39.4375 C 64.269531 39.1875 64.867188 38.945312 64.910156 38.90625 C 64.949219 38.871094 64.816406 38.421875 64.613281 37.90625 C 64.195312 36.863281 64.265625 36.886719 62.796875 37.175781 C 61.203125 37.488281 60.277344 37.207031 58.539062 35.910156 C 58.0625 35.554688 57.574219 35.261719 57.453125 35.261719 C 57.324219 35.261719 57.058594 35.449219 56.851562 35.675781 C 56.402344 36.160156 56.339844 36.921875 56.699219 37.371094 C 57.011719 37.761719 61.386719 39.867188 61.902344 39.878906 C 62.136719 39.886719 62.890625 39.6875 63.582031 39.4375 Z M 62.894531 36.039062 C 63.539062 35.90625 63.609375 35.863281 63.5 35.648438 C 63.378906 35.414062 57.332031 30.324219 56.808594 30.007812 C 56.375 29.757812 56.027344 29.816406 55.664062 30.199219 C 54.617188 31.34375 54.738281 31.585938 57.457031 33.703125 C 60.738281 36.253906 61.085938 36.40625 62.894531 36.039062 Z M 54.777344 28.328125 C 54.777344 28.292969 54.09375 27.695312 53.25 26.996094 C 51.179688 25.265625 50.738281 24.621094 50.738281 23.339844 C 50.738281 22.265625 51.441406 21.238281 52.574219 20.644531 C 53.242188 20.339844 53.988281 20.269531 54.703125 20.445312 C 55.101562 20.578125 56.90625 21.570312 59.410156 23.03125 L 59.9375 23.339844 L 60.371094 21.246094 C 60.8125 19.101562 60.824219 18.542969 60.414062 18.414062 C 58.625 18.0625 56.839844 17.734375 55.050781 17.421875 C 50.039062 16.523438 49.484375 16.46875 49.253906 16.855469 C 49.132812 17.066406 47.222656 26.039062 47.222656 26.417969 C 47.222656 26.609375 47.320312 26.851562 47.4375 26.941406 C 47.554688 27.042969 49.179688 27.398438 51.050781 27.738281 C 54.667969 28.398438 54.777344 28.414062 54.777344 28.328125 Z M 54.777344 28.328125 "/>
</g>
</svg>
