<svg width="56" height="55" viewBox="0 0 56 55" fill="none" xmlns="http://www.w3.org/2000/svg">
    <path d="M41.3819 11.3783C38.7945 9.06328 35.4562 7.89425 31.9968 8.08663C28.5314 8.279 25.3482 9.80919 23.0337 12.395C18.2557 17.7342 18.7122 25.9656 24.0515 30.7436C26.5277 32.9589 29.6237 34.0485 32.7104 34.0485C36.281 34.0485 39.8374 32.5895 42.4002 29.7259C47.1777 24.3877 46.7211 16.1563 41.3819 11.3783ZM41.1742 28.6303C37.0017 33.2938 29.8117 33.6928 25.1476 29.5182C20.4836 25.3447 20.0852 18.1551 24.2581 13.4916C26.2799 11.2325 29.0608 9.89579 32.0872 9.72808C32.3026 9.71657 32.5164 9.71054 32.7301 9.71054C35.5247 9.71054 38.1861 10.725 40.2852 12.6032C44.9492 16.7773 45.3477 23.9668 41.1742 28.6303Z" fill="#F88950"/>
    <path d="M50.1971 20.0022C49.9181 15.348 47.8437 11.0818 44.3558 7.98802C40.8679 4.89419 36.388 3.34865 31.7295 3.62323C27.0759 3.90219 22.8092 5.97662 19.7159 9.46451C13.5145 16.4562 13.9607 27.0804 20.5846 33.5372L17.7494 36.7719L16.8402 35.9657C16.5009 35.6642 15.9836 35.6949 15.6821 36.0325L5.81695 47.0569C5.67117 47.2191 5.59663 47.4328 5.60869 47.6504C5.62074 47.868 5.71885 48.0724 5.88108 48.2177L8.98039 50.9914C9.13768 51.1317 9.33334 51.2008 9.52845 51.2008C9.75425 51.2008 9.97896 51.1082 10.1412 50.9267L20.0195 39.8882C20.1653 39.7254 20.2404 39.5111 20.2278 39.2924C20.2152 39.0748 20.116 38.8699 19.9527 38.7252L18.9798 37.8625L21.8133 34.63C24.928 37.1495 28.7518 38.5016 32.7505 38.5016C33.1051 38.5016 33.4619 38.4906 33.8187 38.4692C38.4723 38.1897 42.739 36.1153 45.8328 32.6274C48.9267 29.1395 50.4761 24.6563 50.1971 20.0022ZM9.46433 49.2179L7.59049 47.5408L16.3617 37.7392L18.2438 39.4081L9.46433 49.2179ZM44.6024 31.5367C41.8002 34.6963 37.9352 36.5751 33.7201 36.8278C29.5054 37.0875 25.4432 35.6763 22.2836 32.8746C15.7616 27.0897 15.1615 17.0771 20.9463 10.5552C23.7486 7.39556 27.6135 5.51679 31.8287 5.26413C32.152 5.2444 32.4743 5.23509 32.796 5.23509C36.6621 5.23509 40.3484 6.63046 43.2657 9.21788C46.4253 12.0201 48.3041 15.8851 48.5567 20.1003C48.8088 24.316 47.4042 28.3777 44.6024 31.5367Z" fill="#F88950"/>
</svg>
