<svg width="11" height="10" viewBox="0 0 11 10" fill="none" xmlns="http://www.w3.org/2000/svg">
<path d="M10.5 2H8.9625C8.775 1.1375 8.025 0.5 7.125 0.5C6.225 0.5 5.475 1.1375 5.2875 2H0V2.75H5.2875C5.475 3.6125 6.225 4.25 7.125 4.25C8.025 4.25 8.775 3.6125 8.9625 2.75H10.5V2ZM7.125 3.5C6.4875 3.5 6 3.0125 6 2.375C6 1.7375 6.4875 1.25 7.125 1.25C7.7625 1.25 8.25 1.7375 8.25 2.375C8.25 3.0125 7.7625 3.5 7.125 3.5Z" fill="#4F4F4F"/>
<path d="M0 8H1.5375C1.725 8.8625 2.475 9.5 3.375 9.5C4.275 9.5 5.025 8.8625 5.2125 8H10.5V7.25H5.2125C5.025 6.3875 4.275 5.75 3.375 5.75C2.475 5.75 1.725 6.3875 1.5375 7.25H0V8ZM3.375 6.5C4.0125 6.5 4.5 6.9875 4.5 7.625C4.5 8.2625 4.0125 8.75 3.375 8.75C2.7375 8.75 2.25 8.2625 2.25 7.625C2.25 6.9875 2.7375 6.5 3.375 6.5Z" fill="#4F4F4F"/>
</svg>
