<svg width="56" height="52" viewBox="0 0 56 52" fill="none" xmlns="http://www.w3.org/2000/svg">
<path d="M53.8908 31.1992C52.9719 30.2557 51.7501 29.7362 50.4501 29.7362C50.441 29.7362 50.4319 29.7362 50.4228 29.7368C50.3772 29.7348 46.3015 29.795 44.362 25.1172C43.8078 23.7799 43.6307 22.2748 43.5753 21.574C44.7554 20.2167 45.3995 18.4862 45.3995 16.6534C45.3995 12.8682 42.6179 9.74299 39.0431 9.3057V1.94926C39.0431 1.39495 38.6054 0.946289 38.0662 0.946289H1.10191C0.562004 0.946289 0.125 1.39495 0.125 1.94926V50.9938C0.125 51.5474 0.562004 51.9967 1.10191 51.9967H38.0662C38.6054 51.9967 39.0431 51.5474 39.0431 50.9938V43.6547H52.7094C53.2486 43.6547 53.6863 43.2054 53.6863 42.6517V39.6288H54.3376C54.8768 39.6288 55.3145 39.1795 55.3145 38.6258V34.731C55.3158 33.397 54.8097 32.1433 53.8908 31.1992ZM43.4457 16.6534C43.4457 18.1031 42.8921 19.4651 41.8872 20.4875C41.6964 20.682 41.5915 20.9475 41.598 21.2236C41.6006 21.3246 41.6658 23.7324 42.5645 25.9022C44.9749 31.7187 50.0796 31.7408 50.4586 31.7414C51.233 31.7441 51.9617 32.055 52.5088 32.6174C53.0585 33.1817 53.3613 33.9319 53.3607 34.7296V37.6222H52.9224C52.854 37.6068 52.783 37.5968 52.7094 37.5968C52.6358 37.5968 52.5655 37.6068 52.4964 37.6222H23.0094V34.7296C23.0094 33.0914 24.3002 31.7562 25.8926 31.7408C26.467 31.7735 31.1992 31.8431 33.6974 26.06C34.5539 24.0788 34.7317 21.3447 34.7388 21.229C34.7564 20.9428 34.6535 20.662 34.4562 20.4587C33.4695 19.4404 32.9263 18.0884 32.9263 16.6528C32.9263 13.6753 35.2852 11.2535 38.1847 11.2535C41.0861 11.2541 43.4457 13.676 43.4457 16.6534ZM37.0893 49.9908H2.07882V2.95223H37.0893V9.34314C33.6317 9.88809 30.9725 12.9538 30.9725 16.6534C30.9725 18.4621 31.601 20.1739 32.7518 21.5232C32.673 22.3015 32.4496 24.0019 31.911 25.2469C29.8836 29.9408 26.1472 29.7482 25.9955 29.7382C25.9701 29.7362 25.944 29.7348 25.9186 29.7348C23.2367 29.7348 21.0543 31.9755 21.0543 34.7296V38.6251C21.0543 39.1788 21.4913 39.6281 22.0312 39.6281H22.801L22.8251 42.6591C22.8297 43.2101 23.2654 43.654 23.802 43.654H37.088V49.9908H37.0893ZM51.7331 41.6488H38.3058C38.229 41.6287 38.1495 41.6147 38.0662 41.6147C37.9828 41.6147 37.904 41.6287 37.8265 41.6488H24.7724L24.7561 39.6288H51.7331V41.6488Z" fill="#02569C"/>
<path d="M18.9702 11.0117H6.54844C6.00854 11.0117 5.57153 11.4604 5.57153 12.0147C5.57153 12.569 6.00854 13.0177 6.54844 13.0177H18.9702C19.5101 13.0177 19.9471 12.569 19.9471 12.0147C19.9471 11.4604 19.5101 11.0117 18.9702 11.0117Z" fill="#02569C"/>
<path d="M18.9702 16.6035H6.54844C6.00854 16.6035 5.57153 17.0522 5.57153 17.6065C5.57153 18.1608 6.00854 18.6094 6.54844 18.6094H18.9702C19.5101 18.6094 19.9471 18.1608 19.9471 17.6065C19.9471 17.0522 19.5101 16.6035 18.9702 16.6035Z" fill="#02569C"/>
<path d="M18.9702 22.1943H6.54844C6.00854 22.1943 5.57153 22.643 5.57153 23.1973C5.57153 23.7516 6.00854 24.2003 6.54844 24.2003H18.9702C19.5101 24.2003 19.9471 23.7516 19.9471 23.1973C19.9471 22.643 19.5101 22.1943 18.9702 22.1943Z" fill="#02569C"/>
</svg>
