<svg width="61" height="51" viewBox="0 0 61 51" fill="none" xmlns="http://www.w3.org/2000/svg">
<path d="M44.0506 36.1635C44.0474 36.1635 44.0435 36.1635 44.0402 36.1635C43.6996 36.1595 43.3857 35.9735 43.2111 35.6722L33.9253 19.6005C33.8992 19.5555 33.8771 19.5092 33.8582 19.4609C32.7003 17.5017 32.0894 15.2565 32.0894 12.955C32.1011 6.03438 37.5692 0.411133 44.2812 0.411133C44.2864 0.411133 44.2909 0.411133 44.2962 0.411133C47.5545 0.415831 50.6135 1.72734 52.9099 4.10336C55.205 6.47736 56.4658 9.63331 56.4613 12.9886C56.4613 15.2559 55.853 17.4889 54.7002 19.4602C54.6781 19.5247 54.6488 19.5864 54.613 19.6461L44.8797 35.691C44.6999 35.9843 44.3867 36.1635 44.0506 36.1635ZM35.6941 18.7259L44.0708 33.2243L52.8474 18.7568C52.8695 18.6951 52.8975 18.6347 52.932 18.5776C53.9623 16.8815 54.5068 14.9485 54.5068 12.9879C54.5068 12.9872 54.5068 12.9872 54.5068 12.9866C54.5114 10.1676 53.4524 7.51771 51.5253 5.5236C49.5975 3.52949 47.0289 2.42873 44.2935 2.42404C44.2896 2.42404 44.2851 2.42404 44.2805 2.42404C38.6438 2.42404 34.0523 7.14587 34.0432 12.9564C34.0432 14.9391 34.5844 16.8734 35.6075 18.5487C35.6427 18.6045 35.6714 18.6642 35.6941 18.7259Z" fill="#02569C"/>
<path d="M43.7876 17.8639C43.7844 17.8639 43.7811 17.8639 43.7772 17.8639C42.4017 17.8639 41.1064 17.3102 40.1327 16.3047C39.1577 15.298 38.6224 13.9609 38.625 12.5387C38.6263 11.1211 39.1643 9.78747 40.1399 8.78471C41.1142 7.78396 42.4076 7.23291 43.7837 7.23291C43.785 7.23291 43.787 7.23291 43.789 7.23291C46.6318 7.23627 48.9431 9.62437 48.9405 12.5568C48.9392 13.9764 48.4013 15.3107 47.4257 16.3135C46.452 17.3135 45.1605 17.8639 43.7876 17.8639ZM43.7831 9.24649C42.9286 9.24649 42.1243 9.58879 41.5193 10.211C40.9136 10.8332 40.5795 11.6614 40.5788 12.542C40.5775 13.426 40.9103 14.2569 41.516 14.8825C42.1204 15.5067 42.9247 15.8503 43.7792 15.8503C43.7811 15.8503 43.7831 15.8503 43.7857 15.8503C44.6402 15.8503 45.4419 15.5087 46.0463 14.8879C46.6519 14.2657 46.986 13.4367 46.9867 12.5555C46.988 10.7338 45.5526 9.24917 43.7863 9.24716C43.7857 9.24649 43.7844 9.24649 43.7831 9.24649ZM47.9636 12.5561H47.9701H47.9636Z" fill="#02569C"/>
<path d="M59.9987 50.8328H1.47668C1.14844 50.8328 0.842345 50.663 0.661292 50.3804C0.480889 50.0985 0.449628 49.7415 0.57858 49.43L11.2236 23.7623C11.3773 23.3918 11.731 23.1509 12.1217 23.1509H37.24C37.7799 23.1509 38.2169 23.6012 38.2169 24.1577C38.2169 24.7141 37.7799 25.1645 37.24 25.1645H12.7665L2.95638 48.8186H58.5184L49.0111 25.8974C48.7988 25.3859 49.0293 24.7946 49.5256 24.5758C50.0199 24.3577 50.5957 24.5939 50.808 25.1061L60.8968 49.4294C61.0258 49.7408 60.9945 50.0979 60.8141 50.3798C60.6331 50.663 60.327 50.8328 59.9987 50.8328Z" fill="#02569C"/>
<path d="M43.611 49.8844C43.1213 49.8844 42.6986 49.5059 42.6419 48.9918C42.6361 48.9421 42.0121 43.9887 35.2825 42.8121C34.6567 42.7027 33.6583 42.6027 32.5016 42.4879C26.1328 41.853 20.3235 41.0287 19.2033 37.9594C18.4804 35.9794 19.5367 34.4699 20.3847 33.257C21.3134 31.9294 21.6195 31.3495 21.1454 30.5165C20.8451 29.989 19.8891 29.5594 18.9643 29.144C17.1537 28.3305 14.6737 27.2163 14.6607 24.1624C14.6581 23.6059 15.0938 23.1536 15.633 23.1509C15.6343 23.1509 15.6363 23.1509 15.6376 23.1509C16.1755 23.1509 16.6119 23.5986 16.6145 24.153C16.6216 25.7773 17.8024 26.425 19.7458 27.2982C20.9572 27.8425 22.2096 28.405 22.8315 29.4983C23.994 31.5414 22.8244 33.2141 21.9705 34.435C21.1695 35.58 20.6953 36.3284 21.0327 37.2506C21.8175 39.4004 29.1612 40.132 32.6905 40.4844C33.8843 40.6032 34.9152 40.7059 35.6095 40.8274C43.7712 42.255 44.5541 48.4991 44.5834 48.7642C44.6446 49.3166 44.2597 49.8153 43.7237 49.8784C43.6859 49.8824 43.6481 49.8844 43.611 49.8844Z" fill="#02569C"/>
</svg>
