<svg width="22" height="22" viewBox="0 0 22 22" fill="none" xmlns="http://www.w3.org/2000/svg">
<path d="M0.156412 20.3652L7.25145 13.2641C6.15045 11.8395 5.55487 10.0977 5.55487 8.26562C5.55487 6.07266 6.40999 4.01641 7.95631 2.46602C9.50263 0.915625 11.5626 0.0625 13.7509 0.0625C15.9393 0.0625 17.9992 0.918359 19.5455 2.46602C21.0946 4.01367 21.947 6.07266 21.947 8.26562C21.947 10.4559 21.0918 12.5176 19.5455 14.0652C17.9992 15.6156 15.942 16.4688 13.7509 16.4688C11.9205 16.4688 10.1829 15.8727 8.75953 14.7734L1.66448 21.8719C1.64368 21.8927 1.61898 21.9092 1.59179 21.9205C1.5646 21.9318 1.53546 21.9376 1.50603 21.9376C1.47659 21.9376 1.44745 21.9318 1.42027 21.9205C1.39308 21.9092 1.36837 21.8927 1.34757 21.8719L0.156412 20.6824C0.135595 20.6616 0.119081 20.6369 0.107815 20.6097C0.0965481 20.5825 0.0907478 20.5533 0.0907478 20.5238C0.0907478 20.4944 0.0965481 20.4652 0.107815 20.438C0.119081 20.4108 0.135595 20.3861 0.156412 20.3652ZM9.4234 12.5969C10.5818 13.7535 12.1172 14.3906 13.7509 14.3906C15.3847 14.3906 16.9201 13.7535 18.0784 12.5969C19.2341 11.4375 19.8706 9.90078 19.8706 8.26562C19.8706 6.63047 19.2341 5.09102 18.0784 3.93438C16.9201 2.77773 15.3847 2.14062 13.7509 2.14062C12.1172 2.14062 10.579 2.775 9.4234 3.93438C8.26776 5.09375 7.6312 6.63047 7.6312 8.26562C7.6312 9.90078 8.26776 11.4402 9.4234 12.5969Z" fill="#929292"/>
</svg>
