<svg width="119" height="93" viewBox="0 0 119 93" fill="none" xmlns="http://www.w3.org/2000/svg">
<path d="M79.802 11.0307C79.802 11.0307 79.802 10.9663 79.802 10.9406V3.86139H89.4554C89.9675 3.86139 90.4586 3.65797 90.8207 3.2959C91.1827 2.93382 91.3861 2.44274 91.3861 1.93069C91.3861 1.41864 91.1827 0.927562 90.8207 0.565487C90.4586 0.203411 89.9675 0 89.4554 0H66.2871C65.7751 0 65.284 0.203411 64.9219 0.565487C64.5598 0.927562 64.3564 1.41864 64.3564 1.93069C64.3564 2.44274 64.5598 2.93382 64.9219 3.2959C65.284 3.65797 65.7751 3.86139 66.2871 3.86139H75.9406V10.9406C75.9406 10.9406 75.9406 10.9406 75.9406 11.0178C65.2608 11.522 55.2019 16.1837 47.9139 24.0066C40.6258 31.8294 36.687 42.1927 36.9391 52.8815C37.1913 63.5702 41.6145 73.7362 49.2632 81.2067C56.912 88.6772 67.1796 92.8594 77.8713 92.8594C88.563 92.8594 98.8305 88.6772 106.479 81.2067C114.128 73.7362 118.551 63.5702 118.803 52.8815C119.056 42.1927 115.117 31.8294 107.829 24.0066C100.541 16.1837 90.4818 11.522 79.802 11.0178V11.0307ZM77.6782 89.095C70.3339 89.095 63.1545 86.9172 57.0479 82.8369C50.9413 78.7566 46.1817 72.9571 43.3712 66.1718C40.5606 59.3865 39.8253 51.9202 41.2581 44.717C42.6909 37.5137 46.2275 30.8972 51.4208 25.7039C56.614 20.5107 63.2306 16.974 70.4338 15.5412C77.637 14.1084 85.1034 14.8438 91.8887 17.6544C98.674 20.4649 104.473 25.2244 108.554 31.331C112.634 37.4376 114.812 44.617 114.812 51.9614C114.802 61.8067 110.886 71.2459 103.924 78.2076C96.9627 85.1693 87.5235 89.0848 77.6782 89.095Z" fill="#FF4E4E"/>
<path d="M68.398 77.1505C63.2547 75.2394 58.8175 71.8033 55.6801 67.3019C52.5426 62.8004 50.8545 57.4483 50.8416 51.9614C50.8416 51.4493 50.6382 50.9582 50.2761 50.5962C49.914 50.2341 49.4229 50.0307 48.9109 50.0307C48.3988 50.0307 47.9078 50.2341 47.5457 50.5962C47.1836 50.9582 46.9802 51.4493 46.9802 51.9614C46.996 58.2362 48.9271 64.3566 52.5153 69.5042C56.1035 74.6519 61.1777 78.5814 67.0594 80.7673C67.2728 80.8493 67.5002 80.8886 67.7287 80.8832C68.1776 80.8777 68.6105 80.716 68.9531 80.4259C69.2957 80.1357 69.5264 79.7352 69.6056 79.2934C69.6849 78.8515 69.6076 78.3958 69.3872 78.0047C69.1668 77.6136 68.817 77.3116 68.398 77.1505Z" fill="#FF4E4E"/>
<path d="M94.1792 73.1218C90.4439 76.0374 86.0028 77.9116 81.3079 78.5535C81.0544 78.5695 80.8065 78.6354 80.5784 78.7472C80.3503 78.8591 80.1465 79.0148 79.9785 79.2054C79.6394 79.5904 79.4671 80.0944 79.4995 80.6064C79.5319 81.1185 79.7665 81.5967 80.1515 81.9358C80.5365 82.275 81.0404 82.4473 81.5525 82.4148H81.8099C87.1863 81.6732 92.2684 79.5142 96.5347 76.1594C96.7426 76.0061 96.9177 75.8126 97.0495 75.5904C97.1814 75.3682 97.2672 75.1218 97.3021 74.8659C97.337 74.6099 97.3201 74.3495 97.2525 74.1001C97.1849 73.8508 97.068 73.6175 96.9086 73.4142C96.7492 73.2109 96.5506 73.0416 96.3246 72.9164C96.0986 72.7912 95.8498 72.7127 95.5929 72.6854C95.3359 72.6581 95.0762 72.6827 94.8289 72.7577C94.5817 72.8326 94.352 72.9564 94.1535 73.1218H94.1792Z" fill="#FF4E4E"/>
<path d="M84.0881 51.9614C84.0836 50.7621 83.74 49.5886 83.097 48.5762L96.3931 34.9455C96.7307 34.575 96.9109 34.0877 96.8957 33.5867C96.8805 33.0857 96.6711 32.6102 96.3117 32.2608C95.9522 31.9115 95.471 31.7156 94.9698 31.7145C94.4685 31.7135 93.9865 31.9075 93.6257 32.2554L80.1752 46.0535C78.9055 45.4993 77.4908 45.3697 76.1414 45.6839C74.7921 45.9981 73.5802 46.7394 72.6858 47.7975C71.7915 48.8556 71.2625 50.1741 71.1775 51.5569C71.0925 52.9397 71.456 54.3131 72.2139 55.4728C72.9719 56.6325 74.0839 57.5166 75.3846 57.9938C76.6853 58.4709 78.1052 58.5156 79.4333 58.1211C80.7614 57.7267 81.9268 56.9142 82.7561 55.8044C83.5855 54.6946 84.0346 53.3468 84.0366 51.9614H84.0881ZM77.6525 54.5356C77.1433 54.5356 76.6456 54.3847 76.2223 54.1018C75.799 53.8189 75.469 53.4169 75.2742 52.9465C75.0793 52.4761 75.0284 51.9585 75.1277 51.4592C75.227 50.9598 75.4722 50.5011 75.8322 50.1411C76.1922 49.7811 76.6509 49.5359 77.1503 49.4366C77.6496 49.3373 78.1672 49.3882 78.6376 49.5831C79.108 49.7779 79.51 50.1079 79.7929 50.5312C80.0758 50.9545 80.2267 51.4522 80.2267 51.9614C80.2234 52.6374 79.9542 53.2851 79.4774 53.7643C79.0005 54.2436 78.3543 54.516 77.6782 54.5228L77.6525 54.5356Z" fill="#FF4E4E"/>
<path d="M27.0297 53.4158C27.0297 52.9038 26.8263 52.4127 26.4642 52.0506C26.1021 51.6886 25.6111 51.4851 25.099 51.4851H1.93069C1.41864 51.4851 0.927562 51.6886 0.565487 52.0506C0.203411 52.4127 0 52.9038 0 53.4158C0 53.9279 0.203411 54.419 0.565487 54.781C0.927562 55.1431 1.41864 55.3465 1.93069 55.3465H25.099C25.6111 55.3465 26.1021 55.1431 26.4642 54.781C26.8263 54.419 27.0297 53.9279 27.0297 53.4158Z" fill="#FF4E4E"/>
<path d="M28.9604 69.5049H5.79208C5.28003 69.5049 4.78895 69.7084 4.42687 70.0704C4.0648 70.4325 3.86139 70.9236 3.86139 71.4356C3.86139 71.9477 4.0648 72.4388 4.42687 72.8008C4.78895 73.1629 5.28003 73.3663 5.79208 73.3663H28.9604C29.4725 73.3663 29.9635 73.1629 30.3256 72.8008C30.6877 72.4388 30.8911 71.9477 30.8911 71.4356C30.8911 70.9236 30.6877 70.4325 30.3256 70.0704C29.9635 69.7084 29.4725 69.5049 28.9604 69.5049Z" fill="#FF4E4E"/>
<path d="M28.9604 32.1782H5.79208C5.28003 32.1782 4.78895 32.3816 4.42687 32.7437C4.0648 33.1058 3.86139 33.5969 3.86139 34.1089C3.86139 34.621 4.0648 35.112 4.42687 35.4741C4.78895 35.8362 5.28003 36.0396 5.79208 36.0396H28.9604C29.4725 36.0396 29.9635 35.8362 30.3256 35.4741C30.6877 35.112 30.8911 34.621 30.8911 34.1089C30.8911 33.5969 30.6877 33.1058 30.3256 32.7437C29.9635 32.3816 29.4725 32.1782 28.9604 32.1782Z" fill="#FF4E4E"/>
</svg>
