<svg width="106" height="95" viewBox="0 0 106 95" fill="none" xmlns="http://www.w3.org/2000/svg">
<path d="M106 87.4C106 89.87 105.127 91.7542 103.381 93.0525C101.635 94.3508 99.4921 95 96.9524 95H9.04762C6.50794 95 4.36508 94.335 2.61905 93.005C0.873016 91.675 0 89.8067 0 87.4C0 85.5 0.571429 83.5683 1.71429 81.605L45.619 5.225C47.7143 1.74167 50.1905 0 53.0476 0C55.9048 0 58.3175 1.74167 60.2857 5.225L104.286 81.7C105.429 83.7267 106 85.6267 106 87.4ZM59.619 38.855V24.985H46.381V38.855C46.381 39.7417 46.4444 40.5808 46.5714 41.3725C46.6984 42.1642 46.873 43.0508 47.0952 44.0325C47.3175 45.0142 47.4921 45.8533 47.619 46.55L50.0952 61.94H55.7143L58.2857 46.55C58.4127 45.9167 58.6032 45.0933 58.8571 44.08C59.1111 43.0667 59.3016 42.1642 59.4286 41.3725C59.5556 40.5808 59.619 39.7417 59.619 38.855ZM59.619 75.62C59.619 73.7833 58.9683 72.2317 57.6667 70.965C56.3651 69.6983 54.7937 69.065 52.9524 69.065C51.1746 69.065 49.6349 69.6983 48.3333 70.965C47.0317 72.2317 46.381 73.7833 46.381 75.62C46.381 77.4567 47.0317 79.0242 48.3333 80.3225C49.6349 81.6208 51.1746 82.27 52.9524 82.27C54.7937 82.27 56.3651 81.6208 57.6667 80.3225C58.9683 79.0242 59.619 77.4567 59.619 75.62Z" fill="#02569C"/>
</svg>
