<svg width="27" height="27" viewBox="0 0 27 27" fill="none" xmlns="http://www.w3.org/2000/svg">
<path d="M13.125 0C11.4014 -2.56836e-08 9.69468 0.339488 8.10228 0.999081C6.50988 1.65867 5.06299 2.62545 3.84422 3.84422C2.62545 5.06299 1.65867 6.50988 0.999081 8.10228C0.339488 9.69468 0 11.4014 0 13.125C0 14.8486 0.339488 16.5553 0.999081 18.1477C1.65867 19.7401 2.62545 21.187 3.84422 22.4058C5.06299 23.6245 6.50988 24.5913 8.10228 25.2509C9.69468 25.9105 11.4014 26.25 13.125 26.25C16.606 26.25 19.9444 24.8672 22.4058 22.4058C24.8672 19.9444 26.25 16.606 26.25 13.125C26.25 9.64403 24.8672 6.30564 22.4058 3.84422C19.9444 1.38281 16.606 5.18704e-08 13.125 0ZM14.7656 7.65625C14.7656 8.09108 14.5929 8.5081 14.2854 8.81557C13.9779 9.12304 13.5609 9.29578 13.1261 9.29578C12.6913 9.29578 12.2742 9.12304 11.9668 8.81557C11.6593 8.5081 11.4866 8.09108 11.4866 7.65625C11.4866 7.22171 11.6592 6.80497 11.9664 6.4977C12.2737 6.19043 12.6905 6.01781 13.125 6.01781C13.5595 6.01781 13.9763 6.19043 14.2836 6.4977C14.5908 6.80497 14.7634 7.22171 14.7634 7.65625H14.7656ZM13.125 10.9375C13.4151 10.9375 13.6933 11.0527 13.8984 11.2579C14.1035 11.463 14.2188 11.7412 14.2188 12.0312V18.5938C14.2188 18.8838 14.1035 19.162 13.8984 19.3671C13.6933 19.5723 13.4151 19.6875 13.125 19.6875C12.8349 19.6875 12.5567 19.5723 12.3516 19.3671C12.1465 19.162 12.0312 18.8838 12.0312 18.5938V12.0312C12.0312 11.7412 12.1465 11.463 12.3516 11.2579C12.5567 11.0527 12.8349 10.9375 13.125 10.9375Z" fill="#02569C"/>
</svg>
