<svg width="59" height="59" viewBox="0 0 59 59" fill="none" xmlns="http://www.w3.org/2000/svg">
<path d="M58.4282 7.65851C58.2433 7.43282 57.9723 7.30298 57.6871 7.30298H11.5913L9.71173 0.728054C9.58734 0.295708 9.20699 0 8.7752 0H1.56626C1.02636 0 0.589355 0.456139 0.589355 1.01968C0.589355 1.58323 1.02636 2.03937 1.56626 2.03937H8.04708L19.9224 43.5772C19.9237 43.582 19.9276 43.5861 19.9289 43.5908L21.404 48.8279C20.4727 49.7939 19.8957 51.1311 19.8957 52.6055C19.8957 55.549 22.1888 57.9439 25.0069 57.9439C27.7344 57.9439 29.9624 55.6952 30.0998 52.8788H42.9032C42.9025 52.9162 42.898 52.9529 42.898 52.991C42.898 55.9317 45.1898 58.3246 48.0066 58.3246C50.8233 58.3246 53.1158 55.9317 53.1158 52.991C53.1158 50.0502 50.8233 47.6573 48.0066 47.6573C45.9231 47.6573 44.1302 48.968 43.3363 50.8394H29.8211C29.571 50.0951 29.1678 49.4105 28.6175 48.8361C27.653 47.8293 26.3713 47.2739 25.0088 47.2739C25.0082 47.2739 25.0075 47.2739 25.0075 47.2739C24.3374 47.2739 23.6985 47.4126 23.1117 47.6587L22.1673 44.3053H52.5642C53.0468 44.3053 53.4571 43.9375 53.5293 43.4399L58.6529 8.4763C58.6959 8.18263 58.6138 7.8842 58.4282 7.65851ZM48.0066 49.6974C49.7461 49.6974 51.162 51.1752 51.162 52.9916C51.162 54.808 49.7461 56.2859 48.0066 56.2859C46.267 56.2859 44.8518 54.808 44.8518 52.9916C44.8518 51.1752 46.267 49.6974 48.0066 49.6974ZM25.0075 49.314H25.0082C25.849 49.314 26.6396 49.6566 27.2349 50.2786C27.8308 50.9006 28.1584 51.7279 28.1584 52.6069C28.1584 54.426 26.7445 55.9059 25.0062 55.9059C23.2654 55.9059 21.8488 54.426 21.8488 52.6069C21.8495 50.7912 23.266 49.314 25.0075 49.314ZM51.7247 42.2666H21.5922L19.7452 35.708C19.7218 35.6251 19.6866 35.5496 19.6462 35.4782L12.1742 9.34235H56.5493L51.7247 42.2666Z" fill="#02569C"/>
</svg>
