<svg width="50" height="56" viewBox="0 0 50 56" fill="none" xmlns="http://www.w3.org/2000/svg">
<path d="M14.3538 22.9585H8.45909C7.91918 22.9585 7.48218 23.4072 7.48218 23.9615V30.0094C7.48218 30.5637 7.91918 31.0123 8.45909 31.0123H14.3538C14.8937 31.0123 15.3307 30.5637 15.3307 30.0094V23.9615C15.3307 23.4078 14.893 22.9585 14.3538 22.9585ZM13.3768 29.0071H9.43599V24.9651H13.3768V29.0071Z" fill="#02569C"/>
<path d="M28.5166 22.9585H22.62C22.0801 22.9585 21.6431 23.4072 21.6431 23.9615V30.0094C21.6431 30.5637 22.0801 31.0123 22.62 31.0123H28.5166C29.0565 31.0123 29.4935 30.5637 29.4935 30.0094V23.9615C29.4935 23.4078 29.0565 22.9585 28.5166 22.9585ZM27.5397 29.0071H23.5969V24.9651H27.5397V29.0071Z" fill="#02569C"/>
<path d="M14.3538 37.4971H8.45909C7.91918 37.4971 7.48218 37.9464 7.48218 38.5V44.5519C7.48218 45.1062 7.91918 45.5549 8.45909 45.5549H14.3538C14.8937 45.5549 15.3307 45.1062 15.3307 44.5519V38.5C15.3307 37.9464 14.893 37.4971 14.3538 37.4971ZM13.3768 43.549H9.43599V39.503H13.3768V43.549Z" fill="#02569C"/>
<path d="M28.5166 37.4971H22.62C22.0801 37.4971 21.6431 37.9464 21.6431 38.5V44.5519C21.6431 45.1062 22.0801 45.5549 22.62 45.5549H28.5166C29.0565 45.5549 29.4935 45.1062 29.4935 44.5519V38.5C29.4935 37.9464 29.0565 37.4971 28.5166 37.4971ZM27.5397 43.549H23.5969V39.503H27.5397V43.549Z" fill="#02569C"/>
<path d="M41.5833 37.4971H35.6913C35.1514 37.4971 34.7144 37.9464 34.7144 38.5V44.5519C34.7144 45.1062 35.1514 45.5549 35.6913 45.5549H41.5833C42.1232 45.5549 42.5602 45.1062 42.5602 44.5519V38.5C42.5602 37.9464 42.1226 37.4971 41.5833 37.4971ZM40.6064 43.549H36.6682V39.503H40.6064V43.549Z" fill="#02569C"/>
<path d="M48.8659 5.50166H42.9321V4.33889C42.9321 2.27277 41.2955 0.591797 39.2843 0.591797C37.2719 0.591797 35.6346 2.27277 35.6346 4.33889V5.50166H29.0359V4.33889C29.0359 2.27277 27.3993 0.591797 25.3881 0.591797C23.3744 0.591797 21.7365 2.27277 21.7365 4.33889V5.50166H15.1397V4.33889C15.1397 2.27277 13.5037 0.591797 11.4919 0.591797C9.4782 0.591797 7.84025 2.27277 7.84025 4.33889V5.50166H1.92344C1.38354 5.50166 0.946533 5.95032 0.946533 6.50463V54.7006C0.946533 55.2543 1.38354 55.7036 1.92344 55.7036H48.8672C49.4071 55.7036 49.8441 55.2543 49.8441 54.7006V6.50463C49.8428 5.95032 49.4058 5.50166 48.8659 5.50166ZM37.5878 4.33889C37.5878 3.37804 38.3485 2.59773 39.2837 2.59773C40.2176 2.59773 40.9776 3.37871 40.9776 4.33889V9.47141C40.9776 10.4316 40.2176 11.2126 39.2837 11.2126C38.3485 11.2126 37.5878 10.4316 37.5878 9.47141V4.33889ZM25.3875 2.59707C26.3214 2.59707 27.0814 3.37804 27.0814 4.33822V9.47075C27.0814 10.4309 26.3214 11.2119 25.3875 11.2119C24.451 11.2119 23.6896 10.4309 23.6896 9.47075V6.61429C23.6935 6.57751 23.7007 6.54208 23.7007 6.50396C23.7007 6.46585 23.6935 6.43041 23.6896 6.39364V4.33822C23.6896 3.37804 24.4516 2.59707 25.3875 2.59707ZM9.79342 4.33889C9.79342 3.37804 10.5554 2.59773 11.4913 2.59773C12.4252 2.59773 13.1852 3.37871 13.1852 4.33889V9.47141C13.1852 10.4316 12.4252 11.2126 11.4913 11.2126C10.5548 11.2126 9.79342 10.4316 9.79342 9.47141V4.33889ZM47.8889 53.697H2.89905V7.50693H7.83895V9.47075C7.83895 11.5369 9.47755 13.2178 11.4906 13.2178C13.5018 13.2178 15.1384 11.5369 15.1384 9.47075V7.50693H21.7351V9.47075C21.7351 11.5369 23.3738 13.2178 25.3868 13.2178C27.398 13.2178 29.0346 11.5369 29.0346 9.47075V7.50693H35.6333V9.47075C35.6333 11.5369 37.2706 13.2178 39.283 13.2178C41.2942 13.2178 42.9308 11.5369 42.9308 9.47075V7.50693H47.8876V53.697H47.8889Z" fill="#02569C"/>
<path d="M42.341 21.0932L37.3562 27.4012L35.2766 25.3631C34.8865 24.9807 34.2685 24.9954 33.8953 25.3959C33.5228 25.7971 33.5371 26.4316 33.9272 26.8141L36.7726 29.603C36.955 29.7816 37.1966 29.8805 37.4473 29.8805C37.4682 29.8805 37.4884 29.8798 37.5092 29.8785C37.7814 29.8611 38.0341 29.7267 38.2061 29.5094L43.8585 22.3576C44.1984 21.9276 44.134 21.2958 43.7152 20.9467C43.2964 20.597 42.681 20.6632 42.341 21.0932Z" fill="#02569C"/>
</svg>
