<svg width="62" height="42" viewBox="0 0 62 42" fill="none" xmlns="http://www.w3.org/2000/svg">
<path d="M56.499 0.485352H5.20479C2.61077 0.485352 0.5 2.68021 0.5 5.37757V8.64718V15.693V36.877C0.5 39.5744 2.61077 41.7686 5.20479 41.7686H56.499C59.093 41.7686 61.2031 39.5744 61.2031 36.877V15.693V8.64718V5.37757C61.2031 2.68021 59.093 0.485352 56.499 0.485352ZM2.45317 5.37757C2.45382 3.79966 3.68733 2.51701 5.20414 2.51701H56.4984C58.0152 2.51701 59.2487 3.80033 59.2487 5.37757V7.63136H2.45317V5.37757ZM59.2493 36.8763C59.2493 38.4529 58.0152 39.7362 56.499 39.7362H5.20479C3.68798 39.7362 2.45382 38.4529 2.45382 36.8763V16.7081H59.2493V36.8763V36.8763ZM59.2493 14.6765H2.45382V9.66233H59.2493V14.6765Z" fill="#02569C"/>
<path d="M10.4411 35.5267C12.3201 35.5267 13.848 33.9386 13.848 31.9869C13.848 30.0338 12.3201 28.4443 10.4411 28.4443C8.56353 28.4443 7.03564 30.0338 7.03564 31.9869C7.03564 33.9386 8.56353 35.5267 10.4411 35.5267ZM10.4411 30.476C11.2422 30.476 11.8941 31.1539 11.8941 31.9869C11.8941 32.8185 11.2422 33.495 10.4411 33.495C9.64073 33.495 8.98946 32.8185 8.98946 31.9869C8.98946 31.1539 9.64073 30.476 10.4411 30.476Z" fill="#02569C"/>
<path d="M16.7269 33.8305H44.2523C44.7922 33.8305 45.2292 33.3761 45.2292 32.8147C45.2292 32.2532 44.7922 31.7988 44.2523 31.7988H16.7269C16.187 31.7988 15.75 32.2532 15.75 32.8147C15.75 33.3761 16.187 33.8305 16.7269 33.8305Z" fill="#02569C"/>
</svg>
