<svg width="48" height="51" viewBox="0 0 48 51" fill="none" xmlns="http://www.w3.org/2000/svg">
<path d="M46.5671 14.9352H43.0081V1.83623C43.0081 1.56899 42.9058 1.3127 42.7238 1.12374C42.5417 0.934772 42.2948 0.828613 42.0374 0.828613H26.507C26.2496 0.828613 26.0027 0.934772 25.8206 1.12374C25.6386 1.3127 25.5363 1.56899 25.5363 1.83623V9.56129H19.3889C19.1315 9.56129 18.8846 9.66745 18.7025 9.85641C18.5205 10.0454 18.4182 10.3017 18.4182 10.5689V23.6679H11.9472V9.89716C11.9472 9.62992 11.845 9.37363 11.6629 9.18467C11.4809 8.9957 11.234 8.88954 10.9766 8.88954H1.91718C1.65975 8.88954 1.41286 8.9957 1.23083 9.18467C1.0488 9.37363 0.946533 9.62992 0.946533 9.89716C0.946533 10.1644 1.0488 10.4207 1.23083 10.6097C1.41286 10.7986 1.65975 10.9048 1.91718 10.9048H10.0059V44.1561C10.0038 44.1941 10.0038 44.2323 10.0059 44.2703C10.0059 44.3442 10.0059 44.4181 10.0059 44.492C10.0027 45.3163 10.1619 46.1327 10.4737 46.8908C10.7855 47.6489 11.2434 48.3328 11.8193 48.9005C12.3951 49.4682 13.0766 49.9076 13.8221 50.1918C14.5675 50.476 15.361 50.5989 16.1539 50.5531C16.9468 50.5072 17.7223 50.2935 18.4327 49.925C19.143 49.5566 19.7733 49.0413 20.2848 48.4107C20.7963 47.7801 21.1781 47.0476 21.4069 46.2582C21.6356 45.4687 21.7064 44.6391 21.6149 43.8202H35.9288C35.8373 44.6391 35.9081 45.4687 36.1368 46.2582C36.3656 47.0476 36.7474 47.7801 37.2589 48.4107C37.7704 49.0413 38.4007 49.5566 39.111 49.925C39.8214 50.2935 40.5969 50.5072 41.3898 50.5531C42.1827 50.5989 42.9762 50.476 43.7216 50.1918C44.4671 49.9076 45.1486 49.4682 45.7244 48.9005C46.3003 48.3328 46.7582 47.6489 47.07 46.8908C47.3818 46.1327 47.541 45.3163 47.5378 44.492C47.5378 44.4181 47.5378 44.3442 47.5378 44.2703C47.5399 44.2323 47.5399 44.1941 47.5378 44.1561V15.9429C47.5378 15.6756 47.4355 15.4193 47.2535 15.2304C47.0714 15.0414 46.8245 14.9352 46.5671 14.9352ZM45.5965 23.6679H33.9487V16.9505H45.5965V23.6679ZM27.4776 2.84385H41.0668V14.9352H33.9487V10.5689C33.9487 10.3017 33.8464 10.0454 33.6644 9.85641C33.4823 9.66745 33.2354 9.56129 32.978 9.56129H27.4776V2.84385ZM20.3595 11.5765H32.0074V23.6679H20.3595V11.5765ZM15.8298 48.5224C15.0619 48.5224 14.3113 48.2861 13.6728 47.8432C13.0343 47.4003 12.5366 46.7708 12.2428 46.0344C11.9489 45.2979 11.872 44.4875 12.0218 43.7057C12.1717 42.9238 12.5414 42.2057 13.0844 41.642C13.6274 41.0783 14.3192 40.6945 15.0724 40.539C15.8255 40.3834 16.6062 40.4633 17.3156 40.7683C18.0251 41.0734 18.6315 41.59 19.0581 42.2528C19.4847 42.9156 19.7124 43.6948 19.7124 44.492C19.7124 45.5609 19.3034 46.5861 18.5753 47.342C17.8471 48.0978 16.8596 48.5224 15.8298 48.5224ZM21.3302 41.805C21.2379 41.807 21.1464 41.8228 21.0584 41.852C20.6634 41.0133 20.0866 40.2808 19.3732 39.7122C18.6598 39.1436 17.8293 38.7543 16.9466 38.5747C16.064 38.3951 15.1533 38.4301 14.286 38.6771C13.4186 38.924 12.6181 39.3761 11.9472 39.998V25.6831H45.5965V39.998C44.9288 39.3785 44.1324 38.9271 43.2693 38.6791C42.4063 38.431 41.4997 38.3929 40.6201 38.5677C39.7406 38.7425 38.9117 39.1255 38.1979 39.687C37.4841 40.2485 36.9047 40.9733 36.5047 41.805H21.3302ZM41.7139 48.5224C40.946 48.5224 40.1953 48.2861 39.5568 47.8432C38.9183 47.4003 38.4207 46.7708 38.1268 46.0344C37.8329 45.2979 37.756 44.4875 37.9059 43.7057C38.0557 42.9238 38.4255 42.2057 38.9684 41.642C39.5114 41.0783 40.2032 40.6945 40.9564 40.539C41.7096 40.3834 42.4902 40.4633 43.1997 40.7683C43.9091 41.0734 44.5155 41.59 44.9421 42.2528C45.3687 42.9156 45.5965 43.6948 45.5965 44.492C45.5965 45.5609 45.1874 46.5861 44.4593 47.342C43.7311 48.0978 42.7436 48.5224 41.7139 48.5224Z" fill="#02569C"/>
</svg>
