<svg width="36" height="36" viewBox="0 0 36 36" fill="none" xmlns="http://www.w3.org/2000/svg">
<path d="M5.5 0C2.48023 0 0 2.48023 0 5.5V30.5C0 33.5198 2.48023 36 5.5 36H30.5C33.5198 36 36 33.5198 36 30.5V5.5C36 2.48023 33.5198 0 30.5 0H5.5ZM5.5 3H30.5C31.8982 3 33 4.10177 33 5.5V30.5C33 31.8982 31.8982 33 30.5 33H5.5C4.10177 33 3 31.8982 3 30.5V5.5C3 4.10177 4.10177 3 5.5 3Z" fill="#02569C"/>
<path d="M27.4394 10.4394C27.7113 10.1602 28.0811 9.99768 28.4707 9.98632C28.7726 9.97763 29.0702 10.0603 29.3244 10.2235C29.5786 10.3867 29.7776 10.6228 29.8953 10.901C30.0131 11.1792 30.0441 11.4864 29.9844 11.7825C29.9247 12.0786 29.7769 12.3498 29.5605 12.5605L15.5605 26.5605C15.2792 26.8417 14.8977 26.9997 14.5 26.9997C14.1022 26.9997 13.7208 26.8417 13.4394 26.5605L7.43944 20.5605C7.29548 20.4223 7.18055 20.2568 7.10138 20.0736C7.02221 19.8904 6.98038 19.6932 6.97835 19.4937C6.97632 19.2941 7.01413 19.0962 7.08956 18.9114C7.165 18.7266 7.27654 18.5588 7.41766 18.4177C7.55877 18.2765 7.72663 18.165 7.91139 18.0896C8.09615 18.0141 8.29411 17.9763 8.49367 17.9784C8.69323 17.9804 8.89038 18.0222 9.07357 18.1014C9.25676 18.1806 9.42231 18.2955 9.56053 18.4394L14.5 23.3789L27.4394 10.4394Z" fill="#02569C"/>
</svg>
