<svg width="14" height="12" viewBox="0 0 14 12" fill="none" xmlns="http://www.w3.org/2000/svg">
<path fill-rule="evenodd" clip-rule="evenodd" d="M7.49487 0.238702C7.41629 0.314176 7.35395 0.403836 7.31141 0.502547C7.26888 0.601258 7.24698 0.70708 7.24698 0.813952C7.24698 0.920824 7.26888 1.02665 7.31141 1.12536C7.35395 1.22407 7.41629 1.31373 7.49487 1.3892L11.9617 5.68895L7.49487 9.9887C7.41642 10.0642 7.35419 10.1539 7.31173 10.2526C7.26928 10.3513 7.24743 10.4571 7.24743 10.564C7.24743 10.6708 7.26928 10.7766 7.31173 10.8753C7.35419 10.974 7.41642 11.0637 7.49487 11.1392C7.57332 11.2147 7.66645 11.2747 7.76894 11.3156C7.87144 11.3564 7.9813 11.3775 8.09224 11.3775C8.20318 11.3775 8.31304 11.3564 8.41554 11.3156C8.51804 11.2747 8.61117 11.2147 8.68962 11.1392L13.7521 6.2642C13.8307 6.18873 13.893 6.09907 13.9356 6.00036C13.9781 5.90165 14 5.79582 14 5.68895C14 5.58208 13.9781 5.47626 13.9356 5.37755C13.893 5.27884 13.8307 5.18918 13.7521 5.1137L8.68962 0.238702C8.61124 0.163037 8.51813 0.103004 8.41562 0.0620438C8.31312 0.0210834 8.20322 0 8.09224 0C7.98126 0 7.87137 0.0210834 7.76886 0.0620438C7.66635 0.103004 7.57324 0.163037 7.49487 0.238702Z" fill="#02569C"/>
<path fill-rule="evenodd" clip-rule="evenodd" d="M13 5.8125C13 5.59701 12.9111 5.39035 12.7529 5.23798C12.5946 5.0856 12.38 5 12.1562 5H1.1875C0.963723 5 0.749112 5.0856 0.590878 5.23798C0.432644 5.39035 0.34375 5.59701 0.34375 5.8125C0.34375 6.02799 0.432644 6.23465 0.590878 6.38702C0.749112 6.5394 0.963723 6.625 1.1875 6.625H12.1562C12.38 6.625 12.5946 6.5394 12.7529 6.38702C12.9111 6.23465 13 6.02799 13 5.8125Z" fill="#02569C"/>
</svg>
