<svg width="54" height="37" viewBox="0 0 54 37" fill="none" xmlns="http://www.w3.org/2000/svg">
<path d="M22.23 15.6562C20.634 15.6562 19.0739 16.1475 17.7469 17.0678C16.4199 17.9881 15.3856 19.2962 14.7749 20.8267C14.1641 22.3571 14.0043 24.0412 14.3157 25.6659C14.6271 27.2906 15.3956 28.783 16.5241 29.9544C17.6526 31.1257 19.0904 31.9234 20.6557 32.2466C22.221 32.5698 23.8435 32.4039 25.318 31.77C26.7925 31.136 28.0527 30.0625 28.9394 28.6852C29.8261 27.3078 30.2993 25.6884 30.2993 24.0319C30.2959 21.8116 29.4446 19.6833 27.9321 18.1133C26.4195 16.5434 24.3691 15.6598 22.23 15.6562ZM22.23 30.3925C21.018 30.3925 19.8332 30.0195 18.8254 29.3206C17.8177 28.6217 17.0322 27.6283 16.5684 26.466C16.1046 25.3038 15.9832 24.0248 16.2197 22.791C16.4562 21.5571 17.0398 20.4238 17.8968 19.5342C18.7538 18.6447 19.8457 18.0389 21.0345 17.7935C22.2232 17.548 23.4553 17.674 24.5751 18.1554C25.6948 18.6368 26.6519 19.4521 27.3253 20.4981C27.9986 21.5441 28.358 22.7739 28.358 24.0319C28.3546 25.7178 27.7079 27.3335 26.5594 28.5256C25.4109 29.7177 23.8542 30.389 22.23 30.3925V30.3925Z" fill="#02569C"/>
<path d="M5.32807 15.6562C5.07064 15.6562 4.82375 15.7624 4.64172 15.9513C4.45969 16.1403 4.35742 16.3965 4.35742 16.6637V31.4403C4.35742 31.7075 4.45969 31.9638 4.64172 32.1527C4.82375 32.3417 5.07064 32.4478 5.32807 32.4478C5.58551 32.4478 5.83239 32.3417 6.01443 32.1527C6.19646 31.9638 6.29872 31.7075 6.29872 31.4403V16.6637C6.29872 16.3965 6.19646 16.1403 6.01443 15.9513C5.83239 15.7624 5.58551 15.6562 5.32807 15.6562Z" fill="#02569C"/>
<path d="M38.0063 15.6562C37.7489 15.6562 37.502 15.7624 37.3199 15.9513C37.1379 16.1403 37.0356 16.3965 37.0356 16.6637V31.4403C37.0356 31.7075 37.1379 31.9638 37.3199 32.1527C37.502 32.3417 37.7489 32.4478 38.0063 32.4478C38.2637 32.4478 38.5106 32.3417 38.6927 32.1527C38.8747 31.9638 38.9769 31.7075 38.9769 31.4403V16.6637C38.9769 16.3965 38.8747 16.1403 38.6927 15.9513C38.5106 15.7624 38.2637 15.6562 38.0063 15.6562Z" fill="#02569C"/>
<path d="M52.7387 0H10.6772C10.4197 0 10.1728 0.106147 9.9908 0.295089C9.80877 0.484031 9.7065 0.74029 9.7065 1.00749V5.3733H6.14745C5.89002 5.3733 5.64313 5.47945 5.4611 5.66839C5.27907 5.85734 5.1768 6.11359 5.1768 6.3808V11.4183H0.97065C0.713218 11.4183 0.466329 11.5244 0.284297 11.7134C0.102265 11.9023 0 12.1586 0 12.4258V35.934C0 36.2012 0.102265 36.4574 0.284297 36.6464C0.466329 36.8353 0.713218 36.9415 0.97065 36.9415H43.0322C43.2896 36.9415 43.5365 36.8353 43.7185 36.6464C43.9006 36.4574 44.0028 36.2012 44.0028 35.934V30.8965H48.209C48.4664 30.8965 48.7133 30.7904 48.8953 30.6014C49.0774 30.4125 49.1796 30.1562 49.1796 29.889V25.5232H52.7387C52.9961 25.5232 53.243 25.4171 53.425 25.2281C53.6071 25.0392 53.7093 24.7829 53.7093 24.5157V1.00749C53.7093 0.74029 53.6071 0.484031 53.425 0.295089C53.243 0.106147 52.9961 0 52.7387 0ZM42.0615 34.9265H1.9413V13.4333H42.0615V34.9265ZM47.2383 28.8815H44.0028V12.4258C44.0028 12.1586 43.9006 11.9023 43.7185 11.7134C43.5365 11.5244 43.2896 11.4183 43.0322 11.4183H7.1181V7.38829H47.2383V28.8815ZM51.768 23.5082H49.1796V6.3808C49.1796 6.11359 49.0774 5.85734 48.8953 5.66839C48.7133 5.47945 48.4664 5.3733 48.209 5.3733H11.6478V2.01499H51.768V23.5082Z" fill="#02569C"/>
</svg>
