<svg width="48" height="66" viewBox="0 0 48 66" fill="none" xmlns="http://www.w3.org/2000/svg">
<path d="M23.117 46.5025C23.117 45.9489 22.7136 45.4995 22.2152 45.4995H1.82757C2.29709 35.6109 9.6765 27.7276 18.6791 27.7276C21.9314 27.7276 25.0888 28.7587 27.8079 30.7104C28.2263 31.01 28.7842 30.8769 29.0548 30.4109C29.3247 29.9455 29.2039 29.3243 28.786 29.0241C25.7736 26.8637 22.2789 25.7217 18.6791 25.7217C8.37977 25.7217 0 35.0439 0 46.5025C0 47.0562 0.403388 47.5055 0.901762 47.5055H22.2152C22.713 47.5055 23.117 47.0562 23.117 46.5025Z" fill="#02569C"/>
<path d="M18.8428 24.0345C24.8017 24.0345 29.6496 18.6418 29.6496 12.0129C29.6496 5.38929 24.8017 0 18.8428 0C12.8882 0 8.04395 5.38929 8.04395 12.0129C8.04395 18.6412 12.8882 24.0345 18.8428 24.0345ZM18.8428 2.00594C23.8067 2.00594 27.846 6.49523 27.846 12.0129C27.846 17.5352 23.8073 22.0285 18.8428 22.0285C13.8832 22.0285 9.84747 17.5352 9.84747 12.0129C9.84747 6.49523 13.8832 2.00594 18.8428 2.00594Z" fill="#02569C"/>
<path d="M47.6215 58.9128L41.3729 48.8056C42.565 47.0611 43.2257 44.9528 43.2389 42.7242C43.2756 37.0915 39.1858 32.4746 34.1209 32.4318C29.0752 32.405 24.9049 36.9478 24.8676 42.5805C24.8538 44.8652 25.5271 46.9741 26.6603 48.6865L20.2758 58.6955C20.0612 59.0332 20.054 59.4825 20.2584 59.8275C20.4628 60.1725 20.8355 60.343 21.1999 60.2568L26.2509 59.0559L27.1383 64.3335C27.2086 64.7514 27.5074 65.0744 27.8849 65.1406C27.9318 65.1486 27.9787 65.1526 28.0244 65.1526C28.352 65.1526 28.6586 64.954 28.8173 64.6264L33.9814 53.9989L39.0096 64.7066C39.1666 65.0409 39.4762 65.2455 39.808 65.2455C39.8501 65.2455 39.8928 65.2422 39.9355 65.2355C40.3136 65.1753 40.6172 64.8577 40.6929 64.4412L41.6488 59.1803L46.6758 60.4594C47.0365 60.551 47.4147 60.3878 47.6233 60.0455C47.8331 59.7018 47.8319 59.2525 47.6215 58.9128ZM34.0596 34.4377C34.0752 34.4377 34.092 34.4377 34.1077 34.4377C38.1782 34.4718 41.4648 38.1834 41.4348 42.7102V42.7108C41.4222 44.9013 40.6412 46.9561 39.2357 48.4953C37.844 50.0198 36.0068 50.8576 34.0566 50.857C34.0385 50.857 34.0193 50.857 34.0007 50.857C29.9319 50.8262 26.6441 47.1192 26.6711 42.5938C26.7006 38.0852 30.0113 34.4377 34.0596 34.4377ZM28.4434 61.1788L27.8549 57.6751C27.8104 57.4097 27.6703 57.1743 27.4683 57.0245C27.2651 56.8734 27.0162 56.8206 26.7794 56.8781L23.0863 57.756L27.8993 50.211C29.1774 51.4989 30.7796 52.3888 32.556 52.7145L28.4434 61.1788ZM41.1504 56.9938C40.9118 56.9329 40.6641 56.9824 40.4603 57.1282C40.2559 57.2753 40.114 57.5073 40.0653 57.7728L39.4305 61.2671L35.4254 52.7392C37.164 52.451 38.78 51.6179 40.1146 50.31L44.8248 57.9292L41.1504 56.9938Z" fill="#02569C"/>
</svg>
