<svg width="54" height="58" viewBox="0 0 54 58" fill="none" xmlns="http://www.w3.org/2000/svg">
<path d="M51.3341 33.5343C49.7619 31.7677 47.6312 30.7544 45.3967 30.7108V17.2109C45.3974 17.0473 45.3611 16.8862 45.2912 16.7422C45.2212 16.5983 45.1199 16.4762 44.9965 16.3871L23.1345 0.170045C22.9872 0.0592263 22.8135 0 22.6357 0C22.4579 0 22.2842 0.0592263 22.1369 0.170045L0.40033 16.2875C0.276833 16.378 0.175569 16.5014 0.105694 16.6463C0.0358186 16.7913 -0.00046498 16.9534 0.000123317 17.1179V39.766C-0.0023917 39.9335 0.0336002 40.0989 0.104685 40.2466C0.17577 40.3943 0.279592 40.5193 0.406303 40.6098L22.6984 56.8402C22.8465 56.9485 23.0199 57.0062 23.1972 57.0062C23.3744 57.0062 23.5478 56.9485 23.6959 56.8402L38.0317 45.7586C38.095 45.7058 38.1531 45.6457 38.2049 45.5792L44.2618 57.4049C44.3397 57.5553 44.4508 57.6812 44.5846 57.7707C44.7183 57.8602 44.8704 57.9103 45.0264 57.9164V57.9164C45.1785 57.9165 45.3281 57.8732 45.461 57.7906C45.5938 57.708 45.7053 57.5889 45.785 57.4447L52.5646 45.453C52.5943 45.4034 52.6184 45.3498 52.6363 45.2935C53.6335 43.4554 54.0488 41.2989 53.816 39.1678C53.5833 37.0366 52.7159 35.0535 51.352 33.5343H51.3341ZM23.2002 32.1591L13.3085 24.8511L33.1217 9.97603L43.2045 17.4501L23.2002 32.1591ZM22.6028 2.19635L31.485 8.78018L11.6957 23.642L2.69405 16.9983L22.6028 2.19635ZM1.79209 18.6858L22.1011 33.7403V54.0166L1.79209 39.2279V18.6858ZM23.8931 54.2558V34.0392L43.6047 19.5429V30.8702C41.6221 31.2859 39.8319 32.4574 38.5421 34.1829C37.2523 35.9085 36.5438 38.0802 36.5384 40.3241C36.5088 41.5953 36.7676 42.8543 37.291 43.9848C37.2056 44.0117 37.1248 44.0543 37.0521 44.111L23.8931 54.2558ZM52.0688 40.344C52.0632 41.7812 51.6948 43.1877 51.0056 44.4033C50.9801 44.4522 50.9581 44.5033 50.9399 44.5561L45.0801 54.9667L39.4593 43.9316C39.4049 43.7696 39.3145 43.6256 39.1965 43.5131C38.7784 43.1344 38.3304 41.9784 38.3304 40.344C38.3304 38.316 39.0547 36.371 40.3441 34.9369C41.6334 33.5029 43.3821 32.6972 45.2056 32.6972V32.6972C46.1083 32.6955 47.0025 32.8922 47.8366 33.276C48.6708 33.6598 49.4286 34.2232 50.0664 34.9338C50.7041 35.6444 51.2094 36.4882 51.553 37.4167C51.8967 38.3451 52.072 39.34 52.0688 40.344V40.344Z" fill="#02569C"/>
<path d="M45.0181 35.7871C44.0142 35.7871 43.0513 36.2297 42.3403 37.018C41.6293 37.8063 41.2283 38.876 41.2251 39.9925C41.2228 40.547 41.319 41.0966 41.5084 41.6095C41.6977 42.1225 41.9764 42.5887 42.3283 42.9814C42.6803 43.3742 43.0986 43.6856 43.5592 43.8978C44.0198 44.11 44.5136 44.2187 45.0122 44.2179V44.2179C45.9913 44.1746 46.9174 43.7116 47.5964 42.9258C48.2754 42.14 48.6547 41.0924 48.6547 40.0025C48.6547 38.9126 48.2754 37.865 47.5964 37.0792C46.9174 36.2934 45.9913 35.8304 45.0122 35.7871H45.0181ZM47.0013 40.0058C46.9997 40.5938 46.789 41.1572 46.4152 41.5729C46.0414 41.9887 45.5348 42.223 45.0062 42.2248V42.2248C44.7434 42.2235 44.4834 42.1641 44.2414 42.05C43.9994 41.936 43.7802 41.7695 43.5965 41.5604C43.4061 41.3567 43.255 41.1121 43.1523 40.8414C43.0496 40.5708 42.9975 40.2797 42.9992 39.9859C42.9992 39.3974 43.2094 38.833 43.5835 38.4168C43.9577 38.0007 44.4651 37.7669 44.9942 37.7669V37.7669C45.2585 37.766 45.5204 37.8234 45.7646 37.9357C46.0089 38.048 46.2307 38.2129 46.4173 38.4211C46.6039 38.6293 46.7516 38.8765 46.8518 39.1485C46.952 39.4205 47.0028 39.7119 47.0013 40.0058V40.0058Z" fill="#02569C"/>
</svg>
