<svg width="256" height="63" viewBox="0 0 256 63" fill="none" xmlns="http://www.w3.org/2000/svg">
<path d="M58.3767 18.5815C54.6475 17.643 50.8454 17.0286 47.0123 16.7449C43.1687 16.3828 39.325 16.1888 35.5582 16.1371C31.7437 16.0757 27.9286 16.2225 24.1298 16.5768C20.4511 16.8614 16.8337 17.6894 13.3931 19.0341C11.9106 19.6001 10.5397 20.4278 9.34442 21.4785C8.91346 21.8823 8.56902 22.3708 8.33229 22.9141C8.08097 23.4698 7.92502 24.0646 7.87107 24.6731C7.5892 26.9105 9.86971 30.0274 12.7781 32.1873C15.814 34.4284 19.0992 36.3036 22.5666 37.7745C26.0646 39.3414 29.6751 40.6384 33.3673 41.6545V41.9002C29.5037 41.3998 25.6832 40.6043 21.9388 39.5205C18.1053 38.4662 14.3976 36.9917 10.8819 35.1231C9.00698 34.1178 7.28172 32.8509 5.75702 31.3596C3.91421 29.5943 2.82895 27.1711 2.73336 24.6084C2.72601 23.2732 2.99664 21.9513 3.52771 20.7284C4.07759 19.4947 4.89144 18.3992 5.91076 17.5209C7.70422 16.087 9.79214 15.0751 12.0222 14.5592C15.9645 13.6833 19.9906 13.2495 24.0272 13.2659C27.938 13.2419 31.8472 13.4319 35.7376 13.8349C39.5898 14.2229 43.4335 14.7661 47.2686 15.4645C51.0993 16.0917 54.8709 17.0435 58.5433 18.3099L58.3767 18.5815Z" fill="white"/>
<path d="M26.026 42.7279C29.7556 43.662 33.5576 44.2721 37.3904 44.5515C41.234 44.9136 45.0777 45.1206 48.9214 45.1723C52.7231 45.233 56.5254 45.0862 60.3114 44.7326C63.9813 44.4445 67.5897 43.6167 71.0224 42.2753C72.5177 41.714 73.8986 40.8812 75.0967 39.8179C75.5265 39.4153 75.8746 38.9321 76.1216 38.3953C76.3849 37.8394 76.5415 37.2381 76.5829 36.6234C76.852 34.3989 74.5714 31.2819 71.663 29.1221C68.6302 26.8796 65.3497 25.0003 61.8873 23.522C58.382 21.9625 54.7677 20.6657 51.0738 19.642V19.3833C54.934 19.8855 58.7504 20.6854 62.4895 21.776C66.3208 22.8313 70.0279 24.3013 73.5465 26.1604C75.4182 27.1708 77.1428 28.4373 78.6713 29.9239C80.5149 31.694 81.6 34.1215 81.695 36.6881C81.697 38.0201 81.4356 39.3392 80.9262 40.568C80.3616 41.7962 79.5398 42.886 78.5175 43.7626C76.7385 45.1783 74.6747 46.1847 72.4702 46.7114C68.5256 47.5664 64.4995 47.9785 60.4652 47.94C56.5585 47.9708 52.6532 47.7808 48.7676 47.371C44.924 46.983 41.0803 46.4398 37.2366 45.7414C33.4179 45.1231 29.6587 44.1755 26.0003 42.909L26.026 42.7279Z" fill="white"/>
<path d="M47.2686 31.1915C47.2712 32.1038 47.0051 32.9963 46.5043 33.7557C46.0035 34.5151 45.2906 35.1073 44.4559 35.457C43.6212 35.8067 42.7023 35.8982 41.816 35.7199C40.9297 35.5416 40.1158 35.1015 39.4777 34.4555C38.8395 33.8095 38.4059 32.9867 38.2318 32.0915C38.0577 31.1963 38.1509 30.2691 38.4996 29.4275C38.8484 28.5859 39.4371 27.8678 40.1908 27.3644C40.9445 26.8611 41.8293 26.595 42.7331 26.6002C43.9371 26.6036 45.0907 27.0888 45.941 27.9495C46.7912 28.8102 47.2686 29.9761 47.2686 31.1915" fill="white"/>
<path d="M55.2122 50.1129C49.8629 51.9371 44.4074 53.4272 38.8767 54.5749C33.249 55.821 27.5079 56.4712 21.7467 56.5148C18.6577 56.5911 15.5747 56.2032 12.5988 55.3638C9.17627 54.4935 6.06719 52.6643 3.63028 50.087C-1.2896 44.073 -0.725923 35.6534 2.4515 29.9887C3.95924 27.2272 5.88754 24.7221 8.16577 22.5649C10.2896 20.4981 12.5685 18.5999 14.9819 16.8872C19.6482 13.5336 24.672 10.7181 29.9593 8.49351C40.3955 4.13268 51.414 1.35639 62.6561 0.255005V0.604209C51.5769 1.92307 40.83 5.27621 30.9459 10.4982C26.0685 13.0449 21.5129 16.1758 17.3777 19.8231C13.4289 23.2694 10.4466 27.7027 8.72951 32.6788C8.07515 34.8164 7.9087 37.0759 8.24264 39.2877C8.39035 40.3117 8.67036 41.3118 9.07547 42.2623C9.25484 42.7409 9.51106 43.1289 9.69043 43.5557L10.3951 44.7714C11.5476 46.6057 13.1554 48.1038 15.0587 49.117C17.34 50.3062 19.771 51.1764 22.2848 51.7037C27.6823 52.6782 33.1839 52.9261 38.646 52.4408C44.2199 52.0468 49.7547 51.2122 55.1994 49.9447L55.2122 50.1129Z" fill="white"/>
<path d="M29.4212 12.8132C34.7665 11.0181 40.2127 9.54538 45.7311 8.40297C51.3391 7.1688 57.0576 6.51873 62.797 6.46298C65.8693 6.3835 68.9371 6.74935 71.9065 7.54937C75.3159 8.39445 78.4228 10.1866 80.875 12.7227C85.9102 18.672 85.3465 27.1433 82.1562 32.7822C80.6428 35.5351 78.7005 38.0243 76.4036 40.1542C74.2783 42.1998 71.9994 44.0764 69.5875 45.7672C64.9168 49.0822 59.893 51.8586 54.61 54.0445C44.1854 58.3489 33.1901 61.0812 21.9774 62.1537V61.8174C33.0508 60.5199 43.8016 57.2165 53.7131 52.0657C58.5986 49.5352 63.1738 46.436 67.3453 42.8314C71.3067 39.4279 74.3076 35.0289 76.0448 30.0792C76.7085 27.9613 76.8795 25.7174 76.5445 23.522C76.3955 22.502 76.1021 21.5089 75.6733 20.5732L75.0583 19.2799C74.8149 18.8919 74.6226 18.478 74.3536 18.09C73.1696 16.2689 71.5416 14.7858 69.6259 13.7832C67.3328 12.637 64.9046 11.7896 62.3998 11.2612C57.0096 10.2981 51.5174 10.0546 46.0643 10.537C40.5054 10.9306 34.9843 11.7521 29.5493 12.9943L29.4212 12.8132Z" fill="white"/>
<path d="M107.593 11.5195H103.333V26.9618H107.593V11.5195Z" fill="white"/>
<path d="M111.017 26.9021V11.4599H114.999L120.851 19.4096C121.067 19.7196 121.26 20.0451 121.428 20.3834L122.304 22.1323C122.197 21.5681 122.13 20.9969 122.105 20.4232C122.08 19.9797 122.08 19.5351 122.105 19.0916V11.4599H126.087V26.9021H122.105L116.293 18.9525C116.075 18.6473 115.888 18.321 115.735 17.9786C115.437 17.4818 115.198 16.9054 114.859 16.2496C114.859 16.9054 114.999 17.4818 115.058 17.9786C115.118 18.4755 115.058 18.9127 115.058 19.2903V26.9021H111.017Z" fill="white"/>
<path d="M131.641 26.9618V15.1764H128.177V11.5195H139.305V15.1764H135.861V26.9618H131.641Z" fill="white"/>
<path d="M141.375 26.9618V11.5195H150.871V14.8981H145.496V17.5812H150.532V20.9001H145.496V23.5037H150.871V26.9618H141.375Z" fill="white"/>
<path d="M161.003 21.2778V18.0383H169.304V18.9525C169.381 20.071 169.234 21.1936 168.872 22.2547C168.509 23.3159 167.939 24.2945 167.194 25.1334C166.412 25.9027 165.475 26.4973 164.446 26.8776C163.416 27.2579 162.317 27.4154 161.222 27.3394C160.081 27.3561 158.947 27.1606 157.878 26.7631C156.885 26.3853 155.983 25.803 155.23 25.0539C154.505 24.2979 153.937 23.4063 153.558 22.4305C153.147 21.4201 152.93 20.3412 152.921 19.2506C152.922 18.1592 153.139 17.0788 153.558 16.0707C153.945 15.0825 154.537 14.1872 155.295 13.4439C156.053 12.7005 156.961 12.126 157.957 11.758C159.001 11.3688 160.108 11.1734 161.222 11.1816C162.6 11.1714 163.962 11.4774 165.203 12.076C166.381 12.7137 167.385 13.6277 168.13 14.7392L164.467 16.4881C164.078 15.9428 163.576 15.4884 162.994 15.1565C162.431 14.8565 161.8 14.7059 161.162 14.7193C160.605 14.6886 160.048 14.7854 159.534 15.0024C159.02 15.2194 158.562 15.5508 158.196 15.9713C157.397 16.9403 156.998 18.1771 157.081 19.4295C156.992 20.6826 157.392 21.9216 158.196 22.8876C158.557 23.3153 159.014 23.6529 159.529 23.8737C160.044 24.0945 160.603 24.1924 161.162 24.1595C162.11 24.202 163.043 23.9217 163.81 23.3646C164.162 23.1293 164.46 22.8213 164.684 22.4613C164.907 22.1013 165.05 21.6977 165.104 21.2778H161.003Z" fill="white"/>
<path d="M171.892 26.902V11.4597H176.291C177.497 11.4195 178.704 11.4994 179.895 11.6982C180.533 11.8404 181.136 12.1108 181.666 12.4932C182.202 12.9367 182.643 13.4844 182.96 14.103C183.26 14.7855 183.409 15.5242 183.398 16.2693C183.448 17.3112 183.146 18.3397 182.542 19.1908C181.876 19.9791 180.952 20.5071 179.934 20.6813L184.155 26.902H179.377L175.814 20.9397V26.902H171.892ZM175.873 18.7535H176.69C177.385 18.825 178.086 18.6643 178.68 18.2964C178.898 18.1265 179.068 17.9042 179.176 17.6505C179.284 17.3967 179.326 17.1198 179.297 16.8456C179.333 16.5449 179.3 16.24 179.2 15.9541C179.1 15.6682 178.936 15.4089 178.72 15.1961C178.136 14.8009 177.431 14.6249 176.729 14.6992H175.854L175.873 18.7535Z" fill="white"/>
<path d="M189.868 21.1983H194.008L192.416 16.1105C192.416 15.9515 192.416 15.6931 192.237 15.3553C192.058 15.0174 192.038 14.5603 191.898 14.0237C191.792 14.3818 191.713 14.7471 191.659 15.1168L191.361 16.1105L189.868 21.1983ZM183.896 26.9618L189.211 11.5195H194.486L199.98 26.9021H195.8L194.984 24.1396H189.012L188.196 26.9021L183.896 26.9618Z" fill="white"/>
<path d="M201.374 26.9618V11.5195H205.594V23.3447H210.83V26.9618H201.374Z" fill="white"/>
<path d="M109.711 52.38C107.337 52.38 105.364 51.5949 103.791 50.0248C102.233 48.4396 101.455 46.4769 101.455 44.1368C101.455 41.7967 102.233 39.8416 103.791 38.2715C105.364 36.6862 107.337 35.8936 109.711 35.8936C111.133 35.8936 112.448 36.2258 113.658 36.89C114.868 37.5392 115.821 38.43 116.516 39.5623L113.386 41.374C113.038 40.755 112.539 40.2794 111.889 39.9473C111.239 39.6 110.513 39.4264 109.711 39.4264C108.305 39.4264 107.178 39.8567 106.331 40.7172C105.5 41.5778 105.084 42.7177 105.084 44.1368C105.084 45.556 105.5 46.6958 106.331 47.5564C107.178 48.4169 108.305 48.8472 109.711 48.8472C110.513 48.8472 111.239 48.6736 111.889 48.3263C112.554 47.9791 113.053 47.5035 113.386 46.8996L116.516 48.7113C115.836 49.8436 114.891 50.7419 113.681 51.4062C112.471 52.0554 111.148 52.38 109.711 52.38Z" fill="white"/>
<path d="M131.424 50.0022C129.821 51.5874 127.87 52.38 125.572 52.38C123.273 52.38 121.322 51.5874 119.719 50.0022C118.117 48.4169 117.315 46.4618 117.315 44.1368C117.315 41.8118 118.117 39.8567 119.719 38.2715C121.322 36.6862 123.273 35.8936 125.572 35.8936C127.87 35.8936 129.821 36.6862 131.424 38.2715C133.027 39.8567 133.828 41.8118 133.828 44.1368C133.828 46.4618 133.027 48.4169 131.424 50.0022ZM122.26 47.5337C123.152 48.4094 124.256 48.8472 125.572 48.8472C126.887 48.8472 127.984 48.4094 128.861 47.5337C129.753 46.6581 130.199 45.5258 130.199 44.1368C130.199 42.7478 129.753 41.6155 128.861 40.7399C127.984 39.8642 126.887 39.4264 125.572 39.4264C124.256 39.4264 123.152 39.8642 122.26 40.7399C121.383 41.6155 120.944 42.7478 120.944 44.1368C120.944 45.5258 121.383 46.6581 122.26 47.5337Z" fill="white"/>
<path d="M151.75 36.2107V52.063H148.121V42.846L144.015 49.5719H143.607L139.501 42.846V52.063H135.872V36.2107H139.501L143.811 43.2536L148.121 36.2107H151.75Z" fill="white"/>
<path d="M170.357 36.2107V52.063H166.728V42.846L162.622 49.5719H162.214L158.108 42.846V52.063H154.479V36.2107H158.108L162.418 43.2536L166.728 36.2107H170.357Z" fill="white"/>
<path d="M186.515 50.0022C184.912 51.5874 182.961 52.38 180.663 52.38C178.364 52.38 176.413 51.5874 174.81 50.0022C173.207 48.4169 172.406 46.4618 172.406 44.1368C172.406 41.8118 173.207 39.8567 174.81 38.2715C176.413 36.6862 178.364 35.8936 180.663 35.8936C182.961 35.8936 184.912 36.6862 186.515 38.2715C188.118 39.8567 188.919 41.8118 188.919 44.1368C188.919 46.4618 188.118 48.4169 186.515 50.0022ZM177.351 47.5337C178.243 48.4094 179.347 48.8472 180.663 48.8472C181.978 48.8472 183.075 48.4094 183.952 47.5337C184.844 46.6581 185.29 45.5258 185.29 44.1368C185.29 42.7478 184.844 41.6155 183.952 40.7399C183.075 39.8642 181.978 39.4264 180.663 39.4264C179.347 39.4264 178.243 39.8642 177.351 40.7399C176.474 41.6155 176.035 42.7478 176.035 44.1368C176.035 45.5258 176.474 46.6581 177.351 47.5337Z" fill="white"/>
<path d="M197.314 36.2107C199.507 36.2107 201.337 36.9731 202.803 38.4979C204.285 40.0077 205.026 41.8873 205.026 44.1368C205.026 46.3863 204.285 48.2735 202.803 49.7983C201.337 51.3081 199.507 52.063 197.314 52.063H190.963V36.2107H197.314ZM197.314 48.5755C198.569 48.5755 199.582 48.1754 200.354 47.3752C201.14 46.5599 201.533 45.4805 201.533 44.1368C201.533 42.7931 201.14 41.7212 200.354 40.9211C199.582 40.1058 198.569 39.6982 197.314 39.6982H194.592V48.5755H197.314Z" fill="white"/>
<path d="M207.067 36.2107H210.696V52.063H207.067V36.2107Z" fill="white"/>
<path d="M224.086 36.2107V39.6982H220.003V52.063H216.373V39.6982H212.29V36.2107H224.086Z" fill="white"/>
<path d="M225.674 36.2107H229.304V52.063H225.674V36.2107Z" fill="white"/>
<path d="M235.661 48.5755H242.012V52.063H232.032V36.2107H241.899V39.6982H235.661V42.3251H241.332V45.7673H235.661V48.5755Z" fill="white"/>
<path d="M249.618 52.38C247.999 52.38 246.646 52.0328 245.557 51.3383C244.484 50.6287 243.72 49.67 243.266 48.4622L246.396 46.6505C247.032 48.115 248.143 48.8472 249.731 48.8472C251.168 48.8472 251.886 48.4169 251.886 47.5564C251.886 47.0884 251.651 46.726 251.183 46.4694C250.729 46.1976 249.867 45.8881 248.597 45.5409C247.931 45.3597 247.349 45.1559 246.85 44.9294C246.351 44.703 245.86 44.4086 245.376 44.0462C244.907 43.6688 244.544 43.2008 244.287 42.6422C244.045 42.0836 243.924 41.4419 243.924 40.7172C243.924 39.2528 244.446 38.0827 245.489 37.2071C246.548 36.3314 247.803 35.8936 249.255 35.8936C250.555 35.8936 251.704 36.2031 252.702 36.8221C253.7 37.426 254.487 38.3092 255.061 39.4717L251.999 41.2608C251.712 40.6569 251.357 40.2039 250.933 39.902C250.51 39.5849 249.95 39.4264 249.255 39.4264C248.71 39.4264 248.287 39.5472 247.984 39.7888C247.697 40.0152 247.553 40.2945 247.553 40.6267C247.553 41.0192 247.735 41.3589 248.098 41.6457C248.476 41.9326 249.247 42.2496 250.411 42.5969C251.047 42.7931 251.538 42.9517 251.886 43.0724C252.234 43.1932 252.672 43.397 253.201 43.6839C253.746 43.9556 254.154 44.25 254.426 44.5671C254.714 44.869 254.963 45.2767 255.175 45.79C255.402 46.2882 255.515 46.8619 255.515 47.5111C255.515 49.0208 254.971 50.2135 253.882 51.0892C252.793 51.9497 251.372 52.38 249.618 52.38Z" fill="white"/>
</svg>
