<svg width="256" height="62" viewBox="0 0 256 62" fill="none" xmlns="http://www.w3.org/2000/svg">
<path d="M58.3767 18.3566C54.6475 17.4166 50.8454 16.8012 47.0123 16.517C43.1687 16.1543 39.325 15.96 35.5582 15.9082C31.7437 15.8467 27.9286 15.9937 24.1298 16.3486C20.4511 16.6337 16.8337 17.463 13.3931 18.81C11.9106 19.3769 10.5397 20.2059 9.34442 21.2584C8.91346 21.6628 8.56902 22.1522 8.33229 22.6963C8.08097 23.2529 7.92502 23.8487 7.87107 24.4581C7.5892 26.6993 9.86971 29.8213 12.7781 31.9847C15.8141 34.2295 19.0992 36.1077 22.5666 37.581C26.0646 39.1504 29.6751 40.4496 33.3673 41.4673V41.7135C29.5037 41.2122 25.6832 40.4154 21.9388 39.3298C18.1053 38.2739 14.3976 36.7969 10.8819 34.9253C9.00698 33.9184 7.28172 32.6493 5.75702 31.1556C3.91421 29.3874 2.82895 26.9602 2.73336 24.3934C2.72601 23.056 2.99664 21.7319 3.52771 20.507C4.07759 19.2713 4.89144 18.1741 5.91076 17.2943C7.70423 15.858 9.79214 14.8445 12.0222 14.3277C15.9645 13.4504 19.9906 13.0159 24.0272 13.0323C27.938 13.0083 31.8472 13.1986 35.7376 13.6023C39.5898 13.9909 43.4335 14.535 47.2686 15.2345C51.0993 15.8628 54.8709 16.8161 58.5433 18.0845L58.3767 18.3566Z" fill="#FCE100"/>
<path d="M26.026 42.5425C29.7556 43.4781 33.5576 44.0892 37.3904 44.369C41.234 44.7318 45.0777 44.939 48.9214 44.9909C52.7231 45.0516 56.5254 44.9046 60.3114 44.5504C63.9813 44.2619 67.5897 43.4327 71.0224 42.0891C72.5177 41.5269 73.8985 40.6927 75.0967 39.6277C75.5265 39.2244 75.8746 38.7404 76.1216 38.2027C76.3849 37.6459 76.5415 37.0437 76.5829 36.428C76.852 34.1998 74.5714 31.0778 71.663 28.9144C68.6302 26.6682 65.3497 24.7858 61.8873 23.3051C58.382 21.7431 54.7677 20.4442 51.0738 19.4188V19.1597C54.9339 19.6627 58.7504 20.4639 62.4895 21.5563C66.3208 22.6134 70.0279 24.0857 73.5464 25.9478C75.4182 26.9599 77.1427 28.2285 78.6713 29.7176C80.5149 31.4905 81.6 33.9219 81.695 36.4927C81.697 37.827 81.4356 39.1482 80.9262 40.3791C80.3615 41.6092 79.5398 42.7009 78.5175 43.5788C76.7385 44.9969 74.6746 46.0049 72.4702 46.5324C68.5256 47.3889 64.4995 47.8016 60.4652 47.7631C56.5585 47.7939 52.6532 47.6036 48.7676 47.1931C44.924 46.8045 41.0803 46.2604 37.2366 45.5609C33.4179 44.9416 29.6587 43.9924 26.0003 42.7238L26.026 42.5425Z" fill="#FCE100"/>
<path d="M47.2686 30.9871C47.2711 31.9009 47.0051 32.7948 46.5043 33.5555C46.0035 34.3161 45.2906 34.9092 44.4559 35.2595C43.6212 35.6098 42.7023 35.7014 41.816 35.5228C40.9297 35.3442 40.1158 34.9035 39.4777 34.2564C38.8395 33.6094 38.4059 32.7852 38.2318 31.8885C38.0577 30.9919 38.1509 30.0632 38.4996 29.2202C38.8484 28.3772 39.4371 27.658 40.1908 27.1538C40.9445 26.6496 41.8293 26.3831 42.7331 26.3883C43.9371 26.3917 45.0907 26.8777 45.941 27.7398C46.7912 28.6019 47.2686 29.7696 47.2686 30.9871Z" fill="#02569C"/>
<path d="M55.2122 49.9394C49.8629 51.7666 44.4074 53.2592 38.8767 54.4087C33.2491 55.6569 27.5079 56.3082 21.7467 56.3519C18.6577 56.4283 15.5747 56.0397 12.5988 55.1989C9.17627 54.3273 6.06719 52.495 3.63028 49.9135C-1.2896 43.8897 -0.725923 35.4564 2.4515 29.7823C3.95924 27.0163 5.88754 24.5071 8.16577 22.3464C10.2896 20.2762 12.5685 18.3749 14.9819 16.6594C19.6482 13.3003 24.672 10.4802 29.9593 8.25198C40.3955 3.88402 51.414 1.10318 62.6561 0V0.349776C51.5769 1.67079 40.83 5.02942 30.9459 10.2599C26.0685 12.8108 21.5129 15.9469 17.3777 19.6001C13.4289 23.052 10.4466 27.4926 8.72951 32.4768C8.07516 34.618 7.9087 36.8811 8.24264 39.0965C8.39035 40.1222 8.67036 41.1239 9.07547 42.0761C9.25484 42.5554 9.51106 42.944 9.69043 43.3715L10.3951 44.5892C11.5476 46.4265 13.1554 47.927 15.0587 48.9419C17.34 50.1331 19.771 51.0048 22.2848 51.5328C27.6823 52.509 33.1839 52.7572 38.646 52.2712C44.2199 51.8765 49.7547 51.0406 55.1994 49.771L55.2122 49.9394Z" fill="#02569C"/>
<path d="M29.4212 12.5788C34.7665 10.7807 40.2127 9.30563 45.7311 8.16135C51.3391 6.92516 57.0576 6.27403 62.797 6.21818C65.8693 6.13857 68.9371 6.50502 71.9065 7.30635C75.3159 8.15282 78.4228 9.94787 80.875 12.4881C85.9102 18.4472 85.3465 26.9323 82.1562 32.5805C80.6428 35.3379 78.7005 37.8311 76.4036 39.9645C74.2783 42.0135 71.9995 43.8932 69.5875 45.5868C64.9168 48.9071 59.893 51.6881 54.61 53.8776C44.1854 58.189 33.1901 60.9258 21.9774 62.0001V61.6632C33.0508 60.3636 43.8016 57.0547 53.7131 51.8956C58.5986 49.3609 63.1738 46.2566 67.3453 42.6461C71.3067 39.237 74.3077 34.8308 76.0448 29.873C76.7085 27.7517 76.8795 25.5041 76.5445 23.3051C76.3955 22.2835 76.1021 21.2887 75.6733 20.3515L75.0583 19.056C74.8149 18.6674 74.6226 18.2529 74.3536 17.8642C73.1696 16.0402 71.5416 14.5546 69.6259 13.5504C67.3328 12.4023 64.9046 11.5535 62.3998 11.0243C57.0096 10.0596 51.5174 9.81568 46.0643 10.2988C40.5054 10.6931 34.9843 11.5159 29.5493 12.7602L29.4212 12.5788Z" fill="#02569C"/>
<path d="M107.593 11.2827H103.333V26.7502H107.593V11.2827Z" fill="#02569C"/>
<path d="M111.017 26.6907V11.2231H114.999L120.851 19.1858C121.067 19.4964 121.26 19.8224 121.428 20.1613L122.304 21.9131C122.197 21.348 122.13 20.7758 122.105 20.2011C122.08 19.7569 122.08 19.3116 122.105 18.8673V11.2231H126.087V26.6907H122.105L116.293 18.728C116.075 18.4223 115.888 18.0955 115.735 17.7525C115.437 17.2549 115.198 16.6776 114.859 16.0207C114.859 16.6776 114.999 17.2549 115.058 17.7525C115.118 18.2502 115.058 18.6882 115.058 19.0664V26.6907H111.017Z" fill="#02569C"/>
<path d="M131.641 26.7502V14.9456H128.177V11.2827H139.305V14.9456H135.861V26.7502H131.641Z" fill="#02569C"/>
<path d="M141.375 26.7502V11.2827H150.871V14.6669H145.496V17.3543H150.532V20.6787H145.496V23.2865H150.871V26.7502H141.375Z" fill="#02569C"/>
<path d="M161.003 21.0572V17.8124H169.304V18.7281C169.381 19.8485 169.234 20.9729 168.872 22.0358C168.509 23.0987 167.939 24.0789 167.194 24.9191C166.412 25.6897 165.475 26.2852 164.446 26.6662C163.416 27.0471 162.317 27.2048 161.222 27.1288C160.081 27.1455 158.947 26.9497 157.878 26.5514C156.885 26.1731 155.983 25.5898 155.23 24.8395C154.505 24.0822 153.937 23.1892 153.558 22.2118C153.147 21.1998 152.93 20.1191 152.921 19.0267C152.922 17.9335 153.139 16.8513 153.558 15.8417C153.945 14.8518 154.537 13.955 155.295 13.2105C156.053 12.4659 156.961 11.8904 157.957 11.5219C159.001 11.132 160.108 10.9363 161.222 10.9446C162.6 10.9343 163.962 11.2408 165.203 11.8404C166.381 12.4792 167.385 13.3947 168.13 14.5079L164.467 16.2597C164.078 15.7135 163.576 15.2584 162.994 14.9259C162.431 14.6254 161.8 14.4746 161.162 14.488C160.605 14.4572 160.048 14.5542 159.534 14.7716C159.02 14.9889 158.562 15.3209 158.196 15.7421C157.397 16.7127 156.998 17.9515 157.081 19.2059C156.992 20.4611 157.392 21.7021 158.196 22.6696C158.557 23.098 159.014 23.4362 159.529 23.6574C160.044 23.8786 160.603 23.9766 161.162 23.9437C162.11 23.9862 163.043 23.7054 163.81 23.1474C164.162 22.9118 164.46 22.6032 164.684 22.2427C164.907 21.8821 165.05 21.4779 165.104 21.0572H161.003Z" fill="#02569C"/>
<path d="M171.892 26.6905V11.223H176.291C177.497 11.1827 178.704 11.2628 179.895 11.4619C180.533 11.6043 181.136 11.8752 181.666 12.2582C182.202 12.7024 182.643 13.251 182.96 13.8706C183.26 14.5542 183.409 15.2942 183.398 16.0404C183.448 17.0841 183.146 18.1143 182.542 18.9667C181.876 19.7564 180.952 20.2852 179.934 20.4597L184.155 26.6905H179.377L175.814 20.7185V26.6905H171.892ZM175.873 18.5288H176.69C177.385 18.6004 178.086 18.4394 178.68 18.0709C178.898 17.9007 179.068 17.6781 179.176 17.4239C179.284 17.1698 179.326 16.8924 179.297 16.6178C179.333 16.3166 179.3 16.0111 179.2 15.7248C179.1 15.4384 178.936 15.1787 178.72 14.9655C178.136 14.5697 177.431 14.3934 176.729 14.4678H175.854L175.873 18.5288Z" fill="#02569C"/>
<path d="M189.868 20.9773H194.008L192.416 15.8812C192.416 15.7219 192.416 15.4631 192.237 15.1247C192.058 14.7863 192.038 14.3285 191.898 13.791C191.792 14.1497 191.713 14.5156 191.659 14.8859L191.361 15.8812L189.868 20.9773ZM183.896 26.7502L189.211 11.2827H194.486L199.98 26.6905H195.8L194.984 23.9235H189.012L188.196 26.6905L183.896 26.7502Z" fill="#02569C"/>
<path d="M201.374 26.7502V11.2827H205.594V23.1272H210.83V26.7502H201.374Z" fill="#02569C"/>
<path d="M109.711 52.2102C107.337 52.2102 105.364 51.4238 103.791 49.8511C102.233 48.2633 101.455 46.2974 101.455 43.9535C101.455 41.6095 102.233 39.6512 103.791 38.0785C105.364 36.4907 107.337 35.6968 109.711 35.6968C111.133 35.6968 112.448 36.0295 113.658 36.6948C114.868 37.3451 115.821 38.2373 116.516 39.3715L113.386 41.1861C113.038 40.5661 112.539 40.0898 111.889 39.7571C111.239 39.4093 110.513 39.2354 109.711 39.2354C108.305 39.2354 107.178 39.6663 106.331 40.5283C105.5 41.3903 105.084 42.532 105.084 43.9535C105.084 45.3749 105.5 46.5167 106.331 47.3786C107.178 48.2406 108.305 48.6716 109.711 48.6716C110.513 48.6716 111.239 48.4977 111.889 48.1499C112.554 47.8021 113.053 47.3257 113.386 46.7208L116.516 48.5355C115.836 49.6696 114.891 50.5694 113.681 51.2348C112.471 51.885 111.148 52.2102 109.711 52.2102Z" fill="#FCE100"/>
<path d="M131.424 49.8284C129.821 51.4162 127.87 52.2102 125.572 52.2102C123.273 52.2102 121.322 51.4162 119.719 49.8284C118.117 48.2406 117.315 46.2823 117.315 43.9535C117.315 41.6247 118.117 39.6663 119.719 38.0785C121.322 36.4907 123.273 35.6968 125.572 35.6968C127.87 35.6968 129.821 36.4907 131.424 38.0785C133.027 39.6663 133.828 41.6247 133.828 43.9535C133.828 46.2823 133.027 48.2406 131.424 49.8284ZM122.26 47.3559C123.152 48.233 124.256 48.6716 125.572 48.6716C126.887 48.6716 127.984 48.233 128.861 47.3559C129.753 46.4789 130.199 45.3447 130.199 43.9535C130.199 42.5622 129.753 41.4281 128.861 40.551C127.984 39.6739 126.887 39.2354 125.572 39.2354C124.256 39.2354 123.152 39.6739 122.26 40.551C121.383 41.4281 120.944 42.5622 120.944 43.9535C120.944 45.3447 121.383 46.4789 122.26 47.3559Z" fill="#FCE100"/>
<path d="M151.75 36.0143V51.8926H148.121V42.6605L144.015 49.3974H143.607L139.501 42.6605V51.8926H135.872V36.0143H139.501L143.811 43.0688L148.121 36.0143H151.75Z" fill="#FCE100"/>
<path d="M170.357 36.0143V51.8926H166.728V42.6605L162.622 49.3974H162.214L158.108 42.6605V51.8926H154.479V36.0143H158.108L162.418 43.0688L166.728 36.0143H170.357Z" fill="#FCE100"/>
<path d="M186.515 49.8284C184.912 51.4162 182.961 52.2102 180.663 52.2102C178.364 52.2102 176.413 51.4162 174.81 49.8284C173.207 48.2406 172.406 46.2823 172.406 43.9535C172.406 41.6247 173.207 39.6663 174.81 38.0785C176.413 36.4907 178.364 35.6968 180.663 35.6968C182.961 35.6968 184.912 36.4907 186.515 38.0785C188.118 39.6663 188.919 41.6247 188.919 43.9535C188.919 46.2823 188.118 48.2406 186.515 49.8284ZM177.351 47.3559C178.243 48.233 179.347 48.6716 180.663 48.6716C181.978 48.6716 183.075 48.233 183.952 47.3559C184.844 46.4789 185.29 45.3447 185.29 43.9535C185.29 42.5622 184.844 41.4281 183.952 40.551C183.075 39.6739 181.978 39.2354 180.663 39.2354C179.347 39.2354 178.243 39.6739 177.351 40.551C176.474 41.4281 176.035 42.5622 176.035 43.9535C176.035 45.3447 176.474 46.4789 177.351 47.3559Z" fill="#FCE100"/>
<path d="M197.314 36.0143C199.507 36.0143 201.337 36.778 202.803 38.3053C204.285 39.8176 205.026 41.7003 205.026 43.9535C205.026 46.2067 204.285 48.0969 202.803 49.6243C201.337 51.1365 199.507 51.8926 197.314 51.8926H190.963V36.0143H197.314ZM197.314 48.3994C198.569 48.3994 199.582 47.9986 200.354 47.1972C201.14 46.3806 201.533 45.2993 201.533 43.9535C201.533 42.6076 201.14 41.5339 200.354 40.7325C199.582 39.9159 198.569 39.5076 197.314 39.5076H194.592V48.3994H197.314Z" fill="#FCE100"/>
<path d="M207.067 36.0143H210.696V51.8926H207.067V36.0143Z" fill="#FCE100"/>
<path d="M224.086 36.0143V39.5076H220.003V51.8926H216.373V39.5076H212.29V36.0143H224.086Z" fill="#FCE100"/>
<path d="M225.674 36.0143H229.304V51.8926H225.674V36.0143Z" fill="#FCE100"/>
<path d="M235.661 48.3994H242.012V51.8926H232.032V36.0143H241.899V39.5076H235.661V42.1388H241.332V45.5867H235.661V48.3994Z" fill="#FCE100"/>
<path d="M249.618 52.2102C247.999 52.2102 246.646 51.8623 245.557 51.1667C244.484 50.456 243.72 49.4957 243.266 48.286L246.396 46.4713C247.032 47.9381 248.143 48.6716 249.731 48.6716C251.168 48.6716 251.886 48.2406 251.886 47.3786C251.886 46.9098 251.651 46.5469 251.183 46.2898C250.729 46.0176 249.867 45.7076 248.597 45.3598C247.931 45.1784 247.349 44.9742 246.85 44.7474C246.351 44.5205 245.86 44.2257 245.376 43.8627C244.907 43.4847 244.544 43.0159 244.287 42.4564C244.045 41.8969 243.924 41.2542 243.924 40.5283C243.924 39.0615 244.446 37.8895 245.489 37.0124C246.548 36.1353 247.803 35.6968 249.255 35.6968C250.555 35.6968 251.704 36.0068 252.702 36.6268C253.7 37.2317 254.487 38.1163 255.061 39.2807L251.999 41.0727C251.712 40.4678 251.357 40.0141 250.933 39.7117C250.51 39.3941 249.95 39.2354 249.255 39.2354C248.71 39.2354 248.287 39.3563 247.984 39.5983C247.697 39.8251 247.553 40.1049 247.553 40.4376C247.553 40.8307 247.735 41.171 248.098 41.4583C248.476 41.7456 249.247 42.0632 250.411 42.411C251.047 42.6076 251.538 42.7664 251.886 42.8874C252.234 43.0083 252.672 43.2125 253.201 43.4998C253.746 43.772 254.154 44.0669 254.426 44.3844C254.714 44.6869 254.963 45.0952 255.175 45.6093C255.402 46.1084 255.515 46.683 255.515 47.3333C255.515 48.8455 254.971 50.0401 253.882 50.9172C252.793 51.7792 251.372 52.2102 249.618 52.2102Z" fill="#FCE100"/>
</svg>
