<svg width="26" height="34" viewBox="0 0 26 34" fill="none" xmlns="http://www.w3.org/2000/svg">
    <path d="M24.6151 18.3698L2.94845 33.3698C2.69841 33.5428 2.4058 33.6441 2.10231 33.6628C1.79882 33.6814 1.49601 33.6167 1.22667 33.4756C0.957329 33.3345 0.731726 33.1224 0.574282 32.8622C0.416838 32.6021 0.333555 32.3039 0.333454 31.9998V1.9998C0.333252 1.6956 0.416311 1.39714 0.573633 1.13677C0.730955 0.876405 0.956537 0.664062 1.22593 0.522755C1.49533 0.381447 1.79826 0.316566 2.10189 0.335142C2.40553 0.353718 2.69829 0.455043 2.94845 0.628136L24.6151 15.6281C24.8359 15.7822 25.0161 15.9873 25.1406 16.2259C25.2651 16.4646 25.3301 16.7298 25.3301 16.999C25.3301 17.2681 25.2651 17.5333 25.1406 17.772C25.0161 18.0107 24.8359 18.2157 24.6151 18.3698Z" fill="#F88950"/>
</svg>
