<svg width="26" height="34" viewBox="0 0 26 34" fill="none" xmlns="http://www.w3.org/2000/svg">
    <path d="M1.38488 18.3698L23.0515 33.3698C23.3016 33.5428 23.5942 33.6441 23.8977 33.6628C24.2012 33.6814 24.504 33.6167 24.7733 33.4756C25.0427 33.3345 25.2683 33.1224 25.4257 32.8622C25.5832 32.6021 25.6664 32.3039 25.6665 31.9998V1.9998C25.6667 1.6956 25.5837 1.39714 25.4264 1.13677C25.269 0.876405 25.0435 0.664062 24.7741 0.522755C24.5047 0.381447 24.2017 0.316566 23.8981 0.335142C23.5945 0.353718 23.3017 0.455043 23.0515 0.628136L1.38488 15.6281C1.16415 15.7822 0.983878 15.9873 0.859401 16.2259C0.734924 16.4646 0.669922 16.7298 0.669922 16.999C0.669922 17.2681 0.734924 17.5333 0.859401 17.772C0.983878 18.0107 1.16415 18.2157 1.38488 18.3698Z" fill="#F88950"/>
</svg>
