<svg width="75" height="87" viewBox="0 0 75 87" fill="none" xmlns="http://www.w3.org/2000/svg">
    <path d="M72.8279 46.7428L62.1346 28.2212L61.3875 33.5667L56.0502 31.734L66.7691 50.2999L66.8253 50.394C67.5508 51.5645 67.9339 52.9164 67.9339 54.3046C67.9339 58.3736 64.6516 61.6906 60.5955 61.7463L60.5494 61.743L60.4318 61.7473H45.959V57.0636L35.582 65.26L45.959 73.4565V68.7728H60.4918C60.4964 68.7728 60.5018 68.7728 60.5067 68.7728L60.547 68.7723C68.4992 68.7426 74.9594 62.2636 74.9594 54.3046C74.9597 51.6277 74.2229 49.0142 72.8279 46.7428Z" fill="#F88950"/>
    <path d="M29.5274 65.1227L33.0402 61.7472H14.4878C11.8373 61.7472 9.36787 60.321 8.04285 58.0257C6.71783 55.7305 6.71783 52.8784 8.04238 50.5831L14.5848 39.2521L18.595 41.6204L16.8142 28.5171L4.47974 33.2839L8.53511 35.6792L1.95804 47.0708C-0.617523 51.5327 -0.617523 57.0763 1.95804 61.5385C4.53453 66.0004 9.33578 68.7727 14.4878 68.7727H33.0402L29.5274 65.1227Z" fill="#F88950"/>
    <path d="M21.0922 27.9813L31.0422 10.7463C32.3677 8.45125 34.8371 7.02553 37.4876 7.02553C40.1377 7.02553 42.6076 8.45125 43.9326 10.7465L49.484 20.3623L45.2766 22.7147L57.4949 27.7722L59.5853 14.715L55.6173 16.9336L50.0172 7.23396C47.4405 2.77181 42.6397 0 37.4876 0C32.3351 0 27.5343 2.77181 24.9578 7.23372L15.0078 24.4688L20.2357 22.6894L21.0922 27.9813Z" fill="#F88950"/>
    <path d="M37.6534 48.6902H37.3285C35.7309 48.6902 34.4574 47.8816 34.2425 45.4563H29.0176C29.1384 50.4405 31.9311 53.2381 37.4908 53.2381C43.0455 53.2381 45.969 50.0871 45.969 45.117V44.4995C45.969 39.5294 43.0455 36.3784 37.7505 36.3784C36.3536 36.3784 35.0542 36.6707 33.9172 37.1578L33.9125 32.0254H44.9356V27.4775H29.2305L29.2066 41.3813L33.657 42.9077C34.339 41.5438 35.8663 40.8937 37.1981 40.8937H37.393C39.277 40.8937 40.7713 41.9333 40.7713 44.6292V44.9863C40.772 47.683 39.2777 48.6902 37.6534 48.6902Z" fill="#F88950"/>
    <path d="M31.9289 73.9214H27.1328V86.6786H30.1681V82.0991H31.9291C34.3085 82.0991 37.0067 81.5759 37.0067 78.1737V77.8468C37.0065 74.4612 34.3082 73.9214 31.9289 73.9214ZM33.9338 78.0924C33.9338 79.5315 32.8846 79.8095 32.0603 79.8095H30.1681V76.2112H32.0603C32.8846 76.2112 33.9338 76.4895 33.9338 77.9288V78.0924Z" fill="#F88950"/>
    <path d="M43.3371 73.9214H38.541V86.6786H41.5763V82.0991H43.3373C45.7167 82.0991 48.4149 81.5759 48.4149 78.1737V77.8468C48.4145 74.4612 45.7164 73.9214 43.3371 73.9214ZM45.3417 78.0924C45.3417 79.5315 44.2926 79.8095 43.4683 79.8095H41.576V76.2112H43.4683C44.2926 76.2112 45.3417 76.4895 45.3417 77.9288V78.0924Z" fill="#F88950"/>
</svg>
