<svg width="75" height="87" viewBox="0 0 75 87" fill="none" xmlns="http://www.w3.org/2000/svg">
<path d="M72.8666 46.7428L62.1733 28.2212L61.4265 33.5667L56.0892 31.7339L66.808 50.2998L66.8642 50.3939C67.5897 51.5644 67.9729 52.9163 67.9729 54.3046C67.9729 58.3735 64.6905 61.6905 60.6345 61.7462L60.5883 61.7429L60.4708 61.7472H45.998V57.0635L35.6211 65.2599L45.998 73.4563V68.7727H60.5307C60.5354 68.7727 60.5408 68.7727 60.5457 68.7727L60.586 68.7722C68.5382 68.7425 74.9984 62.2635 74.9984 54.3046C74.9984 51.6276 74.2616 49.0141 72.8666 46.7428Z" fill="#F88950"/>
<path d="M29.5673 65.1226L33.0801 61.747H14.5278C11.8773 61.747 9.40787 60.3209 8.08263 58.0256C6.75762 55.7304 6.75762 52.8783 8.08216 50.583L14.6243 39.2521L18.6345 41.6204L16.8537 28.5171L4.51929 33.2839L8.57465 35.6791L1.99807 47.0708C-0.577482 51.5327 -0.577482 57.0762 1.99807 61.5384C4.57456 66.0003 9.37579 68.7726 14.5278 68.7726H33.0801L29.5673 65.1226Z" fill="#F88950"/>
<path d="M21.1312 27.9812L31.0812 10.7462C32.4067 8.45122 34.8761 7.02551 37.5266 7.02551C40.1767 7.02551 42.6466 8.45122 43.9716 10.7465L49.5229 20.3623L45.3153 22.7146L57.5336 27.7721L59.624 14.7149L55.656 16.9336L50.0559 7.23393C47.4794 2.7718 42.6787 0 37.5266 0C32.3741 0 27.5734 2.7718 24.9969 7.2337L15.0469 24.4687L20.2748 22.6894L21.1312 27.9812Z" fill="#F88950"/>
<path d="M41.0265 51.9497V46.81H43.8999V42.0774H41.0265V26.1895H36.5285L26.0488 43.0237V46.81H36.2239V51.9497H41.0265ZM31.6603 42.1451L36.2913 34.7756L36.2236 36.7364V42.1399L31.6603 42.1451Z" fill="#F88950"/>
<path d="M19.4552 73.9209H16.4199V86.6781H24.851V84.3884H19.4552V73.9209Z" fill="#F88950"/>
<path d="M30.6575 73.9209H26.1797V86.6781H30.6575C35.0042 86.6781 36.8212 85.043 36.8212 80.6267V79.9727C36.8215 75.5567 35.0042 73.9209 30.6575 73.9209ZM33.7302 80.6267C33.7302 83.1782 33.0181 84.3884 30.4887 84.3884H29.2149V76.2107H30.4887C33.0181 76.2107 33.7302 77.421 33.7302 79.9727V80.6267Z" fill="#F88950"/>
<path d="M43.3976 73.9209H38.6016V86.6781H41.6363V82.0986H43.3976C45.7769 82.0986 48.4747 81.5754 48.4747 78.1732V77.8463C48.4745 74.4607 45.7769 73.9209 43.3976 73.9209ZM45.4023 78.0919C45.4023 79.531 44.3531 79.809 43.5283 79.809H41.6361V76.2107H43.5283C44.3529 76.2107 45.4023 76.489 45.4023 77.9282V78.0919Z" fill="#F88950"/>
<path d="M50.0098 86.6781H58.9462V84.3884H53.0446V81.3138H58.0095V79.024H53.0446V76.2107H58.9462V73.9209H50.0098V86.6781Z" fill="#F88950"/>
</svg>
