<svg width="75" height="87" viewBox="0 0 75 87" fill="none" xmlns="http://www.w3.org/2000/svg">
    <path d="M72.786 46.7333L62.0948 28.2153L61.3482 33.5598L56.0119 31.7274L66.7287 50.2896L66.7849 50.3837C67.5102 51.5539 67.8933 52.9056 67.8933 54.2936C67.8933 58.3617 64.6116 61.6781 60.5568 61.7338L60.5102 61.7305L60.3927 61.7347H45.9232V57.052L35.5479 65.2468L45.9232 73.4416V68.7588H60.4526C60.4575 68.7588 60.4627 68.7588 60.4676 68.7588L60.5083 68.7584C68.4589 68.7286 74.9174 62.251 74.9174 54.2936C74.9176 51.6172 74.1808 49.0042 72.786 46.7333Z" fill="#F88950"/>
    <path d="M29.4951 65.11L33.0071 61.7351H14.4585C11.809 61.7351 9.33958 60.3092 8.01482 58.0145C6.69007 55.7197 6.69007 52.8681 8.01482 50.5733L14.5557 39.2446L18.5648 41.6124L16.7845 28.5117L4.45242 33.2776L8.50698 35.6724L1.93123 47.0617C-0.64382 51.5228 -0.64382 57.0653 1.93169 61.5265C4.50721 65.9875 9.3075 68.7593 14.4585 68.7593H33.0071L29.4951 65.11Z" fill="#F88950"/>
    <path d="M21.0614 27.9757L31.0099 10.7441C32.3349 8.44956 34.8044 7.02413 37.4539 7.02413C40.1034 7.02413 42.5728 8.44956 43.8976 10.7443L49.4478 20.3583L45.241 22.7102L57.4569 27.7666L59.5469 14.712L55.5799 16.93L49.9812 7.23251C47.4052 2.77125 42.6049 0 37.4539 0C32.3024 0 27.5025 2.77125 24.927 7.23228L14.9785 24.4639L20.2054 22.6849L21.0614 27.9757Z" fill="#F88950"/>
    <path d="M45.773 32.1453V31.5609C45.773 28.2483 43.6297 24.5454 37.4588 24.5454C31.8074 24.5454 29.1445 27.3061 29.1445 32.7622V33.412H34.3407C34.3407 30.1968 35.51 29.0924 37.2958 29.0924H37.621C39.3424 29.0924 40.5761 30.2291 40.5761 32.5349V32.8601C40.5761 34.2567 40.0247 35.0685 38.8877 36.2701L29.1445 47.0203V50.3006H45.773V45.6941L37.1272 45.6782L42.9472 38.6574C44.8315 36.6274 45.773 35.1333 45.773 32.1453Z" fill="#F88950"/>
    <path d="M24.1411 79.0088H19.8892V73.9067H16.8545V86.6614H19.8892V81.2982H24.1411V86.6614H27.1757V73.9067H24.1411V79.0088Z" fill="#F88950"/>
    <path d="M33.7499 73.9067H29.2734V86.6614H33.7499C38.0957 86.6614 39.9129 85.0266 39.9129 80.6113V79.9573C39.9129 75.5422 38.0955 73.9067 33.7499 73.9067ZM36.822 80.6113C36.822 83.1622 36.11 84.3722 33.5816 84.3722H32.3076V76.1961H33.5816C36.11 76.1961 36.822 77.4062 36.822 79.9573V80.6113Z" fill="#F88950"/>
    <path d="M46.4875 73.9067H41.6924V86.6614H44.727V82.0828H46.4878C48.8666 82.0828 51.5639 81.5598 51.5639 78.1582V77.8314C51.5636 74.4464 48.8664 73.9067 46.4875 73.9067ZM48.492 78.077C48.492 79.5157 47.443 79.7937 46.6189 79.7937H44.727V76.1961H46.6189C47.443 76.1961 48.492 76.4743 48.492 77.9133V78.077Z" fill="#F88950"/>
    <path d="M53.0986 86.6614H62.034V84.3722H56.1333V81.2982H61.0975V79.0088H56.1333V76.1961H62.034V73.9067H53.0986V86.6614Z" fill="#F88950"/>
</svg>
