<svg width="81" height="82" viewBox="0 0 81 82" fill="none" xmlns="http://www.w3.org/2000/svg">
    <path d="M40.5 0.819336C18.1327 0.819336 0 18.9924 0 41.4096C0 63.8267 18.1327 81.9998 40.5 81.9998C62.8673 81.9998 81 63.8267 81 41.4096C81 18.9924 62.8673 0.819336 40.5 0.819336ZM63.2821 19.6847L54.2141 62.3656C54.0441 63.2036 53.0914 63.6143 52.3678 63.16L38.4229 53.8907L31.0879 60.7317C30.435 61.2915 29.4239 61.019 29.1398 60.2057L24.3639 45.1095L11.5393 39.8382C10.5554 39.3888 10.5693 37.8182 11.5779 37.4256L61.6411 18.2985C62.5429 17.9479 63.4743 18.7348 63.2821 19.6847Z" fill="#F88950"/>
    <path d="M30.6802 55.7285L31.4949 47.9681L54.1119 25.811L26.8086 43.7816L30.6802 55.7285Z" fill="#F88950"/>
</svg>
