<svg width="81" height="82" viewBox="0 0 81 82" fill="none" xmlns="http://www.w3.org/2000/svg">
    <path d="M44.3064 38.8091L39.2258 37.679C37.2941 37.2378 35.0692 36.655 35.0692 34.8285C35.0692 32.9986 36.6296 31.7203 39.4467 31.7203C45.1235 31.7203 44.6053 35.6302 47.4232 35.6302C48.9065 35.6302 50.2041 34.756 50.2041 33.2538C50.2041 29.7473 44.6045 27.1157 39.8541 27.1157C34.6971 27.1157 29.2059 29.3102 29.2059 35.1552C29.2059 37.9703 30.2087 40.9649 35.7369 42.3543L42.6005 44.0714C44.6776 44.585 45.1975 45.7555 45.1975 46.8124C45.1975 48.569 43.4555 50.2852 40.3017 50.2852C34.1403 50.2852 34.9953 45.5333 31.6936 45.5333C30.2095 45.5333 29.1328 46.5572 29.1328 48.0191C29.1328 50.8688 32.5847 54.6708 40.3017 54.6708C47.6441 54.6708 51.2817 51.124 51.2817 46.3745C51.2817 43.3075 49.8707 40.0512 44.3064 38.8091Z" fill="#F88950"/>
    <path d="M40.5 0.819336C18.1327 0.819336 0 18.9924 0 41.4096C0 63.8267 18.1327 81.9998 40.5 81.9998C62.8673 81.9998 81 63.8267 81 41.4096C81 18.9924 62.8673 0.819336 40.5 0.819336ZM59.4351 60.6675C57.0065 63.1032 53.7788 64.4416 50.3449 64.4416C48.1209 64.4416 45.9428 63.8621 44.0193 62.7714C42.7709 62.9937 41.4913 63.1106 40.215 63.1106C37.283 63.1106 34.438 62.5344 31.7605 61.3968C29.1726 60.3029 26.8508 58.7323 24.855 56.733C22.8609 54.7336 21.2947 52.4074 20.2024 49.8137C19.0681 47.1295 18.4941 44.279 18.4941 41.3396C18.4941 40.081 18.6066 38.8208 18.8209 37.5878C17.7656 35.6847 17.203 33.5306 17.203 31.3394C17.203 27.897 18.5409 24.6605 20.9695 22.2265C23.398 19.7917 26.6274 18.4516 30.0621 18.4516C32.1663 18.4516 34.2441 18.9776 36.0921 19.9621C36.0954 19.9612 36.0995 19.9612 36.1019 19.9604C37.4489 19.7011 38.8328 19.5711 40.215 19.5711C43.1471 19.5711 45.992 20.1464 48.6687 21.2815C51.2541 22.378 53.5784 23.9468 55.5717 25.9462C57.5675 27.9456 59.1329 30.2734 60.2277 32.8663C61.3619 35.5497 61.936 38.401 61.936 41.3396C61.936 42.6648 61.8111 43.9909 61.5738 45.2857C62.6365 47.1962 63.2016 49.3577 63.2016 51.5555C63.2016 54.9978 61.8645 58.2352 59.4351 60.6675Z" fill="#F88950"/>
</svg>
