<svg width="81" height="82" viewBox="0 0 81 82" fill="none" xmlns="http://www.w3.org/2000/svg">
    <path d="M42.1496 18.0078C30.8649 18.0078 21.6877 27.2047 21.6836 38.5095C21.682 42.384 22.7636 46.1564 24.8111 49.4209L25.2973 50.1963L23.2309 57.7626L30.9733 55.727L31.7207 56.1714C34.8614 58.0399 38.462 59.0277 42.1332 59.0294H42.1414C53.417 59.0294 62.5942 49.8317 62.5992 38.526C62.6016 33.0472 60.4753 27.8961 56.6127 24.0208C52.7501 20.1447 47.6137 18.0095 42.1496 18.0078ZM54.1833 47.3244C53.6708 48.7641 51.2135 50.0786 50.0324 50.2548C48.973 50.4136 47.6318 50.4795 46.1592 50.0103C45.2664 49.7263 44.1207 49.3469 42.6531 48.7122C36.4826 46.0428 32.4533 39.8167 32.1461 39.4059C31.839 38.9943 29.6346 36.064 29.6346 33.0299C29.6346 29.9959 31.223 28.5052 31.7872 27.8878C32.3507 27.2705 33.0176 27.1166 33.4274 27.1166C33.8372 27.1166 34.2479 27.1207 34.6059 27.138C34.9837 27.1569 35.4905 26.9948 35.9898 28.1957C36.5023 29.4304 37.7326 32.4636 37.8862 32.7723C38.0398 33.081 38.1425 33.4407 37.9371 33.8523C37.7318 34.263 37.63 34.5206 37.322 34.8803C37.014 35.2401 36.6764 35.6837 36.3997 35.9603C36.0917 36.2673 35.7714 36.6015 36.1303 37.218C36.4892 37.8354 37.7236 39.8537 39.5518 41.4876C41.9007 43.5874 43.8825 44.2385 44.4977 44.5472C45.1129 44.8559 45.4718 44.804 45.8298 44.3933C46.1888 43.9817 47.3673 42.5931 47.7772 41.9766C48.187 41.36 48.5968 41.4621 49.161 41.6679C49.7245 41.8737 52.7485 43.3644 53.3636 43.673C53.9788 43.9817 54.3886 44.1356 54.5422 44.3933C54.6958 44.6501 54.6958 45.8848 54.1833 47.3244Z" fill="#F88950"/>
    <path d="M40.5 0.819336C18.1327 0.819336 0 18.9924 0 41.4096C0 63.8267 18.1327 81.9998 40.5 81.9998C62.8673 81.9998 81 63.8267 81 41.4096C81 18.9924 62.8673 0.819336 40.5 0.819336ZM42.141 63.1954C42.1401 63.1954 42.1418 63.1954 42.141 63.1954H42.1311C38.0115 63.1937 33.9641 62.1582 30.3693 60.1926L17.3212 63.6234L20.8134 50.8402C18.6591 47.099 17.5257 42.855 17.5282 38.508C17.5323 24.9066 28.5747 13.8413 42.141 13.8413C48.7253 13.8437 54.9056 16.4127 59.5525 21.0758C64.1995 25.738 66.7578 31.9361 66.7545 38.5278C66.7488 52.1292 55.7064 63.1954 42.141 63.1954Z" fill="#F88950"/>
</svg>
