<svg width="81" height="80" viewBox="0 0 81 80" fill="none" xmlns="http://www.w3.org/2000/svg">
    <path d="M78.0894 31.0492C77.9393 30.4106 77.3065 30.0161 76.6729 30.168C76.0417 30.3207 75.6518 30.9618 75.8028 31.6005C76.421 34.2237 76.735 36.9939 76.735 39.8351C76.735 60.1298 60.0512 76.6407 39.5431 76.6407C19.035 76.6407 2.35123 60.1298 2.35123 39.8351C2.35123 19.5389 19.035 3.02711 39.5431 3.02711C47.7107 3.02711 55.5126 5.64214 62.1046 10.5896C62.6244 10.9808 63.3621 10.8706 63.7488 10.343C64.1354 9.81541 64.0264 9.07059 63.505 8.6794C56.5054 3.42484 48.2192 0.648926 39.5431 0.648926C17.7388 0.648926 0 18.2273 0 39.8351C0 61.4414 17.7388 79.0197 39.5431 79.0197C61.3475 79.0197 79.0863 61.4414 79.0863 39.8351C79.0863 36.8093 78.7505 33.8537 78.0894 31.0492Z" fill="#02569C"/>
    <path d="M38.7274 57.5424C38.4158 57.5424 38.1172 57.4175 37.896 57.1945L15.8503 34.8917C15.391 34.427 15.391 33.674 15.8503 33.2093C16.3088 32.7446 17.053 32.7446 17.5122 33.2093L38.6781 54.622L78.6628 9.30733C79.0954 8.81732 79.838 8.77485 80.3223 9.2126C80.8066 9.65034 80.8485 10.4017 80.4167 10.8917L39.604 57.1455C39.3884 57.3897 39.0833 57.5334 38.7605 57.5424C38.7492 57.5424 38.7387 57.5424 38.7274 57.5424Z" fill="#02569C"/>
</svg>
