<svg width="790" height="463" viewBox="0 0 790 463" fill="none" xmlns="http://www.w3.org/2000/svg">
    <path fill-rule="evenodd" clip-rule="evenodd" d="M32.7073 235.629L32.6159 235.475L32.7073 235.243V235.012V234.934L32.7986 234.626L32.7073 234.394V234.24V234.008L32.6159 233.931V233.777L32.5246 233.545V233.082V233.005V232.773L32.6159 232.542L32.5246 232.465H32.6159L32.5246 232.31L32.6159 232.156V232.002L32.7073 231.693L32.89 231.384L32.9814 230.921L33.0727 230.844L33.1641 230.767L33.2555 230.612L33.3468 230.381V230.304L33.5295 230.072L33.6209 229.995V229.918L33.9863 229.455L34.0777 229.3L34.3518 229.223V229.3H34.4431H34.5345V229.223L34.7172 229.3L34.9 229.223L35.174 229.146L35.6308 229.069H35.7222L36.0877 229.146L36.179 229.223L36.3617 229.3L36.2704 229.378V229.3L36.179 229.223L35.9963 229.378L35.9049 229.532L35.6308 229.841V229.763L35.7222 229.686H35.6308H35.5395V229.609H35.4481H35.3568H35.2654L35.5395 229.532L35.6308 229.609L35.7222 229.532V229.3L35.6308 229.223L35.4481 229.146L35.2654 229.223H35.174L34.6259 229.378L34.5345 229.532L34.4431 229.609L34.0777 229.995L33.895 230.227L33.8036 230.381V230.535L33.7123 230.69V230.767L33.6209 231.076V231.539V231.616V231.924V232.465H33.5295V232.773V233.159V233.314V233.545V234.086V234.163V234.626V235.012V235.166V235.398L33.6209 235.475V236.015V236.092V236.247V236.478V236.632V237.327V237.404V237.559V237.636V238.099V238.33V238.716L33.7123 239.102L33.6209 239.257L33.7123 239.411L33.6209 239.874L33.7123 239.951V240.337V240.414L33.8036 241.418V241.649L33.895 242.035V242.267V242.344L33.9863 242.498L33.895 242.575L33.9863 242.73V242.807L34.0777 243.038V243.27L34.1691 243.887L34.2604 244.119V244.505V244.813V245.122L34.3518 245.354V245.74V245.817V246.048L34.5345 246.897V247.206V247.515V247.592V247.746V247.592L34.4431 247.438L34.1691 247.052V247.129L33.895 246.897V246.82L34.0777 247.052V246.974L33.9863 246.897L33.8036 246.666V246.589L33.7123 246.511L33.8036 246.666V246.743V246.897L33.895 247.206H33.9863V247.283L34.2604 247.669H34.3518L34.4431 247.823L34.5345 247.746L34.4431 247.978L34.0777 247.669V247.515L33.9863 247.438L33.895 247.36L33.8036 247.052L33.6209 246.897V246.743V246.589V246.28L33.5295 246.203V246.048L33.6209 245.662L33.5295 245.585L33.6209 245.508V245.431H33.7123L33.6209 245.354L33.7123 245.122L33.8036 245.045V244.891V244.736L33.7123 244.582V244.505L33.8036 244.273L33.7123 244.119V243.887V243.733L33.6209 243.501L33.3468 243.27L33.2555 242.961H33.1641L33.0727 242.807L32.9814 242.575L32.7073 242.189L32.6159 242.112V242.035L32.5246 241.958L32.4332 241.649V241.572V241.263V241.109V240.954L32.3418 240.723V240.337V240.106H32.4332V239.874V239.488V239.411L32.5246 239.334V239.179V239.025V238.948L32.6159 238.793L32.5246 238.716V238.639V238.485V238.33V238.099V237.867V237.713H32.6159L32.5246 237.559H32.6159V237.25V237.096V236.864L32.7073 236.478V236.324V236.169V236.015V235.783V235.629Z" fill="white"/>
    <path fill-rule="evenodd" clip-rule="evenodd" d="M31.4282 188.163L30.9714 188.395L30.7887 188.241L30.6974 188.086L30.606 187.932L30.5146 187.855L30.3319 187.546L30.0578 187.083V186.929L29.9665 186.851V186.62H29.8751V186.466L29.7837 186.388L29.601 185.848L29.5097 185.539L29.4183 185.385L29.3269 185.308L29.2356 185.231L29.0529 185.153L28.8701 185.076V184.845L28.7788 184.768L28.6874 184.69L28.596 184.536L28.5047 184.305L28.4133 184.227L28.2306 183.764L28.0479 183.533L28.322 183.61L28.4133 183.687L28.6874 183.841L28.9615 184.227L29.1442 184.305L29.2356 184.382L29.3269 184.459H29.601L29.6924 184.613H29.7837H29.8751V184.536H29.9665V184.69H29.8751V184.768L29.9665 184.845L30.0578 184.922V185.076L30.1492 185.231L30.2406 185.308H30.3319V185.385L30.5146 185.462L30.3319 185.617L30.2406 185.771H30.1492L29.9665 185.617H29.8751V185.694L29.9665 185.771L30.0578 185.848L30.1492 186.002L30.4233 186.157L30.6974 186.311L31.2455 186.62L31.611 186.774L31.7023 186.851L31.9764 187.083L32.1591 187.237L32.2505 187.392L32.4332 187.546V187.7L32.2505 187.778H32.1591L31.8851 187.623H31.7937H31.5196L31.7023 187.546V187.469L31.4282 187.237H31.2455L31.0628 187.392V187.469L31.1542 187.546H31.3369L31.4282 187.623V187.7L31.2455 187.855V188.009L31.4282 188.163Z" fill="white"/>
    <path fill-rule="evenodd" clip-rule="evenodd" d="M55.3649 175.892H55.5476L55.913 175.969L56.0044 175.892L56.2785 175.815L56.4612 175.892H56.6439L56.918 176.046L57.2835 176.278H57.3748L57.2835 176.046H57.5575H57.7403L57.8316 176.124L57.5575 176.201L57.7403 176.355L57.8316 176.51L57.7403 176.587L57.3748 176.741H57.0094L56.5526 176.587L56.0958 176.201L55.639 176.124L55.4562 176.046L55.2735 175.969L55.3649 175.892Z" fill="white"/>
    <path fill-rule="evenodd" clip-rule="evenodd" d="M0 65.6026L2.55811 63.3644L5.02486 61.5121L7.49162 59.5826L11.4201 56.5726L14.8919 53.8713L16.7191 52.4821L18.729 50.9385L21.0131 49.1634L22.1094 48.3916L24.1193 46.848L25.4898 45.7675L26.8602 44.7641L27.9565 44.1467L29.2356 43.2205L29.6924 42.989L30.4233 42.6803L33.8036 41.6769L36.0877 40.828L38.6458 39.979L39.8335 39.5931L43.5793 38.3582L45.7719 37.6636L48.1473 36.8918L50.34 36.12L51.6191 35.7341L52.4413 35.4254L55.3649 34.5764L55.639 34.4221L57.1921 33.959L58.0143 33.6503L59.202 33.3416L59.9329 33.0328L60.8465 32.7241L62.217 32.3382L65.0491 31.798L67.4245 31.4121L69.6172 31.1805L71.7185 30.7946L73.4544 30.4859L75.7384 30.1L77.9311 29.7913L80.946 29.4054L84.9659 28.7108L85.8795 28.6336L89.4426 28.0162L94.3761 27.3216L95.1983 27.09L96.1119 26.9357L96.8428 26.7813L98.0305 26.6269H98.1219L99.4923 27.6303L102.416 29.5598L107.806 33.0328L111.095 35.271L113.836 37.0462L116.485 38.8213L120.049 41.2139L123.886 43.7608L128.454 46.7708L129.276 47.3111L130.464 48.5459L131.377 49.4721L132.382 50.321L132.656 50.6298L134.21 52.019L135.489 53.1767L136.585 54.3344L137.499 55.1062L138.595 56.2639L138.869 56.4954V57.4216L138.778 58.1934L138.595 59.5826V60.3544L138.686 61.1262L139.143 61.898L139.508 62.5926L140.148 63.1329L140.696 63.6731L141.427 64.3677L142.523 65.8341L143.346 66.8375L144.077 67.9952L145.173 69.5387L145.812 70.6193L146.543 72.0085L147.183 73.3205L147.548 73.8608L147.731 74.6326L147.914 75.0957L148.096 75.4816L148.371 75.7131L149.101 76.2534L150.289 77.6426L150.837 78.4916L151.477 79.2634L152.665 80.4983L153.213 81.1157L153.487 81.7331L154.766 83.7398L155.679 84.8975L156.41 85.9008L157.233 86.7498L158.055 87.8303L158.968 88.8336L159.699 89.2195L160.247 89.5283L160.613 89.9141L160.796 90.3772L160.887 90.6088L161.435 90.9947L162.257 91.6893L162.532 91.9208L162.714 91.998H162.988L163.08 92.1524L163.262 92.2295L163.445 92.1524L163.536 92.2295L163.628 92.3067L163.536 92.3839V92.6926L163.354 92.847L163.445 93.0013L163.628 93.0785L163.719 93.2329L163.536 93.3872H163.902L164.085 93.4644L164.176 93.6188L164.359 93.6959H164.541V93.8503L164.45 94.0047V94.159L164.359 94.2362L164.267 94.3134V94.5449L164.359 94.6221V94.7765L164.45 94.9308H164.816L165.09 94.8536L165.364 95.008V95.1624V95.3939L165.272 95.5483L165.364 95.7798L165.638 95.7026L165.729 95.1624L165.821 94.9308H166.003L166.369 95.2395L166.551 95.3939V95.5483L166.46 95.6254V95.857H166.551L166.369 96.0885L166.46 96.3201V96.4744L166.734 96.5516L167.008 96.4744L167.282 96.3201H167.648L167.922 96.4744L168.287 96.9375H168.379L168.744 97.0147L168.835 97.169L169.018 97.4006L169.201 97.5549L169.475 97.4006L169.658 97.2462H169.932L170.571 97.169L171.028 97.2462H171.302L171.576 97.0919L171.759 96.8603V96.5516L171.85 96.3201H171.942L172.124 96.3972V96.5516H172.216L172.307 96.3972L172.399 96.0113V95.857L172.216 95.6254L171.759 95.4711V95.2395L171.85 95.1624H172.033L172.216 95.2395L172.399 95.3939H172.49L172.581 95.3167L172.399 95.0852V94.9308V94.8536H172.764H172.947L173.038 94.9308L172.947 95.2395L173.221 95.1624L173.312 95.2395L173.221 95.3167L173.129 95.4711H173.221L173.403 95.6254L173.312 95.7026L173.129 95.857L173.221 96.0113L173.312 96.1657L173.495 96.2429L173.678 96.3201V96.0885V96.0113H173.769L173.86 96.1657L174.134 96.4744L174.317 96.3972L174.134 96.1657V96.0113H174.317H174.5V96.2429H174.774L174.865 96.3972L174.957 96.5516L174.865 96.7059L174.957 97.0147L174.865 97.169H174.591V97.2462L174.683 97.3234V97.5549L174.774 97.6321L174.865 97.5549L175.048 97.7093L174.957 97.8636L175.139 97.7865L175.322 97.6321L175.231 97.3234L175.139 96.8603L175.231 96.6288L175.505 96.3972L175.779 96.2429L175.87 96.0885H176.144L176.327 96.0113L176.601 95.7798L176.784 95.6254L176.967 95.5483L177.241 95.7026L177.332 95.7798L177.515 95.9342L177.697 95.857L177.789 95.7026L177.972 95.4711L178.428 95.3939L178.611 95.4711L178.794 95.3167L179.068 95.2395H179.251L179.342 95.3167V95.5483V95.6254H179.616V95.3939L179.707 95.3167L179.89 95.3939L180.256 95.4711H180.53H180.621L180.712 95.7026L180.895 95.7798L181.078 95.857L181.261 95.7026L181.352 95.6254H181.443L181.626 95.7798H181.809H181.9V95.4711L181.626 95.3939L181.535 95.3167V95.1624V94.9308V94.8536L181.717 94.9308H181.9L182.174 94.7765H182.357L182.448 94.8536H182.631L182.722 94.3906H182.814L183.088 94.6221L183.179 94.7765H183.453H183.727L183.91 95.008L184.001 95.2395L184.458 95.5483L185.92 95.7026L186.559 95.857L186.742 95.7026V95.3939V94.9308V94.6993L187.016 94.5449L187.656 94.2362L187.93 93.8503L188.113 93.6188L188.478 93.4644L188.844 93.3101L189.118 93.2329L189.757 93.0013L190.123 92.5383L195.422 92.9241L196.883 93.3101L199.624 93.4644L203.827 93.6959H204.466L205.563 93.7731H208.303L212.049 94.0818L214.516 94.3134L216.8 94.2362L220.82 94.5449H221.003L222.647 94.7765L225.114 94.9308L228.037 95.2395H230.322L230.687 95.3167H232.514L234.159 95.3939L237.448 95.5483L240.645 95.7026L242.016 95.9342L245.67 96.3201L247.954 96.4744L249.416 96.5516L250.421 96.7059L252.522 97.0919H254.167L254.806 96.7831L255.354 96.2429L255.811 95.5483V94.6221V94.0818L256.085 93.6188L256.359 93.1557L257.364 92.3839L259.74 91.6893L260.379 91.3034L260.836 90.9175L261.293 90.2229L261.202 89.6826L260.653 89.2195L259.283 89.6054L258.369 89.837H257.273L256.999 89.6826L256.177 88.5249L254.989 87.1357L254.532 86.4411L254.167 85.4377L253.71 82.1962V80.6526V79.8036L253.893 78.5688L253.801 77.797L253.527 76.6393L252.888 75.5588L252.522 75.4044V75.1729L252.065 74.6326L251.609 73.6293L251.152 72.3944L250.878 71.2367L250.969 69.8475L251.06 68.4582L250.878 67.8408V66.4516L250.695 65.757V64.6764L250.604 62.9013L250.786 62.0523L251.152 61.049L251.517 58.9652L251.791 58.4249L252.522 57.19L252.614 57.0357L252.888 56.8041L253.71 56.1867L254.532 55.8008L255.354 55.5693L255.08 57.1129L254.898 59.4282L254.715 61.1262L254.532 62.1295L254.441 62.5926L254.167 63.2872L253.984 64.7536L253.801 65.6798L253.984 66.6059L254.349 67.918L254.624 69.23L255.08 69.9247L255.446 70.2334L256.085 70.3877H256.268L256.359 70.2334V70.0018V69.7703L256.451 69.23L256.542 68.4582V68.0723L256.725 67.5321V67.1462L256.908 66.6059L256.999 65.9885L257.09 65.6026L257.273 65.2167L257.456 64.9852L257.547 64.7536L257.913 64.5221L258.004 64.1362L258.187 63.9818L258.278 64.059V64.2134H258.461L258.643 64.4449L258.369 64.5993L258.187 64.3677L258.095 64.5221V64.6764L258.369 64.7536L258.735 64.8308L258.918 65.2167H259.192L259.283 64.9852L259.557 64.6764L259.74 64.5993L259.648 64.5221L259.923 64.3677L260.105 64.5993L260.197 64.3677L260.379 64.2134V63.9047L260.562 63.7503V63.5959L260.745 63.5188L261.202 63.3644L261.476 63.5959L261.384 63.8275L261.293 63.9818V64.059H261.384V63.9047L261.567 63.8275L262.115 64.059V64.2134L262.024 64.4449L261.75 64.5221H261.567V64.5993L261.476 64.6764L261.202 64.5221L261.11 64.3677L260.927 64.2906L260.836 64.5221V65.0623L260.927 65.4482L260.745 65.6026L261.019 65.9113L261.202 65.8341L261.476 65.6798L261.658 65.757V65.9885L261.75 66.22L261.841 66.1429L262.024 65.9885V65.6026L262.115 65.3711H262.389L263.029 65.9885L263.394 66.4516L263.486 67.069L263.577 67.3005V67.1462V66.8375V66.6059H263.76L264.216 67.3005L264.765 68.2267V69.1529L264.856 69.9247L264.765 70.4649L264.856 71.0052L264.673 71.6998V72.0857L264.582 72.6259L264.491 72.7803V72.8575V73.2434V73.3977V73.7065V74.0923L264.582 74.1695L264.673 74.0923V73.938L264.765 73.7836V73.8608V74.1695L264.673 74.4782L264.582 74.7098L264.673 74.8641L264.765 75.0957H264.856L264.947 75.1729H265.039H265.404L265.678 75.25L265.77 75.1729V75.0957L265.861 75.25H265.952L266.226 75.3272L266.318 75.4044L266.501 75.4816V75.6359H266.592H266.683L266.775 75.7903H266.866V75.7131V75.5588L266.957 75.4816L266.866 75.25L266.957 75.3272L267.049 75.5588L267.323 75.8675H267.414V75.4816L267.505 75.5588V76.099L267.597 76.2534H267.688L267.78 76.1762H267.871L267.78 76.3306L268.054 76.6393L268.145 76.7165L268.328 76.7936L268.419 76.8708L268.51 76.7936V76.5621V76.4077V76.1762H268.602L268.785 76.2534L268.967 76.4849L269.15 76.6393V76.948V77.0252L268.967 76.948V77.1023L268.876 77.1795V77.4882L268.967 77.6426L269.059 77.8741L269.424 78.26H269.515H269.698L269.881 78.3372L270.064 78.4916L270.338 78.5688L270.703 78.4916L270.886 78.26L271.251 78.3372L271.434 78.26L271.891 78.4144H272.256H272.53L272.622 78.3372L272.804 78.1829L272.987 78.0285L273.079 77.7198H273.17H273.261L273.535 77.4111H273.718L273.992 77.2567H274.083V77.0252L274.175 77.1023V77.1795L274.266 77.2567L274.449 76.948V76.7165L274.814 76.4077L275.18 76.1762L275.454 75.8675L275.728 75.7903L276.185 75.8675L276.642 76.099L276.916 76.1762L277.098 76.099L277.281 76.1762L277.19 76.3306V76.5621L277.281 76.6393L277.464 76.5621L277.647 76.4849L278.012 76.4077L278.195 76.3306H278.286L278.377 76.4849L278.56 76.5621H278.743L278.834 76.4849L279.291 76.1762L279.748 76.099L279.931 75.9447H280.113L280.296 76.099L280.57 76.0218L280.753 75.8675L281.027 75.6359L281.392 75.4044H281.484L281.849 75.0957L282.215 74.9413L282.58 74.5554V74.4782L282.671 74.0923H283.037L283.311 74.2467L283.585 74.4011L283.859 74.787L283.951 75.1729L283.859 75.6359L284.316 76.099H284.407L284.499 76.0218V75.9447L284.681 76.099H285.047H285.23L285.595 76.0218L285.96 75.8675L286.052 75.6359L286.326 75.4816L286.417 75.4044L286.965 75.0185L287.422 74.6326L287.879 74.1695H288.062V74.0923H288.153L288.244 74.2467L288.519 74.1695L288.61 74.0152L288.884 73.8608V73.7836L289.067 73.6293V73.3205L289.341 73.2434V73.089L289.158 73.1662H288.793L288.61 73.3205H288.427H288.244L288.153 73.089V72.9347L288.244 72.7031L288.336 72.4716L288.519 72.3944L288.793 72.3172L290.163 71.3139L290.346 71.1595L290.803 70.8508L291.077 70.7736L291.351 70.6964L291.442 70.8508V70.928H291.716L292.082 70.7736L292.538 70.6193H293.178H293.726L294.092 70.7736H294.64L295.371 70.6964L295.919 70.6193L296.467 70.4649L297.289 70.1562L298.477 69.4616L299.208 68.9985H299.391L299.482 69.1529L299.573 68.9985L299.482 68.8441H299.391L299.299 68.5354V68.3811L299.208 67.9952L299.299 67.8408L299.208 67.6864L299.299 67.4549V67.3005L299.208 67.069L298.842 66.6831V66.5287V66.4516V66.22L298.751 66.1429V65.9885L299.025 65.5254L299.208 65.2939V65.2167L299.391 64.6764H299.573H299.482H299.299L299.208 64.4449V64.1362L299.299 63.7503L299.391 63.6731L299.299 63.5959L299.391 63.5188L299.482 63.4416V63.3644L299.573 63.1329L299.756 62.9785L300.304 62.2839L300.578 61.8208L300.67 61.6664V61.4349V61.2805V61.049L300.578 60.8175V60.7403L300.487 60.6631L300.304 60.5088L300.213 60.3544V60.2772H300.121V60.1229H300.03V59.9685L299.939 59.8913H299.756V59.737L299.573 59.5826H299.665L299.482 59.5054H299.391L299.025 59.1195L298.842 59.1967L298.66 59.0423L298.386 58.888L298.203 58.8108L298.111 58.7336L297.837 58.5793L297.563 58.4249H297.472L297.107 58.039L296.924 57.9618V57.8846L296.65 57.7303V57.6531L296.558 57.4987H296.467L296.193 57.1129V56.9585L295.736 56.727H295.553V56.6498L295.188 56.4182L294.822 56.1095H294.548L294.457 56.0323L294.183 56.1095L293.818 56.0323L293.452 55.9552H293.269H292.995L292.721 55.8008H292.447L292.356 55.7236H292.173L291.99 55.6464V55.8008L291.533 55.7236L291.351 55.8008L291.168 55.7236L290.985 55.878H290.62L290.346 55.8008L289.798 55.3377L289.432 55.1062L289.249 54.6431H289.158V54.4116V54.1028L289.067 53.9485V53.7169L288.975 53.6398V53.1767V52.868V52.7136L289.067 52.3277L289.341 52.019L289.432 51.9418L289.706 51.8646V51.7103L290.072 51.5559V51.4787H290.346L290.529 51.4016H290.894L291.442 51.2472L291.716 51.17V51.0157H291.899L291.808 50.8613H291.899H292.082L291.99 50.7069L292.082 50.6298H292.173V50.4754L292.356 50.321V50.2439L292.447 50.1667V50.0895L292.538 49.7808L292.63 49.5493V49.4721L292.813 49.2405V48.9318L292.63 48.7775L292.538 48.5459H292.356H292.264L292.173 48.3916H291.808L291.533 48.2372L291.442 48.16L291.351 48.0057L291.259 47.9285L291.077 47.8513L290.62 47.6198L290.529 47.8513L290.346 48.0828V48.5459V49.2405L290.437 49.5493V49.7808V50.0123H290.254L289.98 49.7808V49.6264L289.706 49.3949L289.889 49.009L289.706 48.7775L289.158 48.5459L288.793 48.6231L288.519 48.9318L288.427 49.3949L288.153 49.6264L287.879 49.4721L287.422 49.7036L287.605 50.0123L287.422 50.1667L287.148 49.858L286.874 49.7808L286.691 49.858L286.783 49.4721L286.874 49.2405L286.783 49.0862V48.8546L286.6 48.6231L286.509 48.4687L286.783 48.0828V47.8513L287.057 47.6198L287.331 47.4654L287.605 47.2339L287.696 46.9252L287.605 46.7708L287.514 46.6164L287.24 46.5393V46.6936H287.057V46.5393L286.965 46.7708H286.691L286.6 46.6936L286.691 46.5393V46.3077L286.417 46.2305L286.143 46.1534L285.96 45.999L285.869 45.8446L285.778 45.6903H285.686V45.6131L285.412 45.3816V45.3044L285.321 45.15V44.4554L285.23 44.3782L285.321 44.301V44.1467V43.9152L285.504 43.7608V43.6064L285.595 43.6836L285.686 43.5293V43.3749L285.869 43.2205L286.235 42.6803L286.509 42.4487H286.6L286.783 42.5259H286.965V42.4487L287.148 42.3716L287.331 42.2172L287.422 41.8313L287.514 41.1367L287.605 40.7508L288.336 41.2139H289.067L289.889 40.9823L290.894 40.5193L291.99 40.0562L292.995 39.7475L294.366 39.3616L295.097 39.13L298.842 39.6703H299.299L299.847 39.5931L300.03 39.13L299.573 38.0495L298.842 37.1234L298.751 36.8146L299.116 35.5798L299.482 35.0395L299.573 34.9623H299.939L301.949 35.6569H302.954L303.593 35.5026L303.959 35.1167L304.141 34.4992L304.415 32.8785L304.324 32.261L304.233 31.2577L304.598 30.1772L304.507 28.7108L304.964 27.6303V27.09L304.598 26.0095L304.05 25.2377L303.045 24.4659L302.588 23.6169L302.954 22.0733L303.228 21.6874L304.05 21.4559L304.415 22.3049L305.694 23.5398L306.06 23.6169L306.608 22.0733V21.919L307.065 20.5298L306.699 20.2982V19.9895L306.974 19.9123L307.704 20.1439L307.978 19.9123L308.161 19.4492L308.709 19.3721L309.532 19.0633L309.623 18.909L310.171 18.6774H310.537H310.902H311.724L313.003 18.909L314.465 19.4492L314.922 19.6808L315.561 20.221L315.379 21.8418V22.5364L315.561 22.2277L315.927 21.9962L316.932 21.7646L317.389 21.5331L318.028 21.3787L318.942 20.8385L320.038 20.9928L321.409 21.2244L323.601 21.6874L324.789 21.7646L325.703 22.2277H325.885L326.525 22.6908L326.799 22.9223L327.164 23.231L328.078 24.0028L328.443 24.5431L328.992 25.3921L329.174 25.9323L329.448 26.6269L329.722 27.5531L330.179 29.1739L329.997 31.798L329.905 32.1067L329.814 32.4154L329.905 32.4926L330.362 32.3382H330.545L330.91 32.1839L331.001 32.1067L331.732 32.0295L332.646 31.9523H332.92L333.194 32.0295H333.56L333.651 32.1067H334.016L334.473 32.261L335.113 32.4926L335.387 32.6469L335.752 32.8785L336.118 33.0328L336.757 33.3416L337.123 32.7241L337.488 32.3382L337.031 32.1839L336.666 32.0295L336.575 31.9523V31.6436L336.849 31.0262L336.94 30.8718V30.4859L336.849 30.2544L336.757 30.1772L336.483 29.9457L336.3 29.7913L335.935 29.5598L335.478 29.3282L335.021 29.0195L334.108 28.4792L332.829 27.5531L332.098 27.0128L331.55 26.5498L331.001 25.5464L330.727 25.2377L330.362 25.0062L329.722 24.3116L328.169 22.2277L327.164 20.1439L326.433 19.0633L326.068 18.06L325.977 17.7513L324.972 15.899L324.423 15.3587L324.149 15.2815L322.779 15.05L321.591 14.6641L320.586 14.2782L318.759 13.3521L318.028 12.8118L317.389 12.5031L317.115 12.2715L316.841 11.9628L316.658 11.4226L316.566 11.2682L316.658 11.1139L316.841 10.8823L317.115 10.728L317.297 10.6508H317.389L317.845 10.4964L317.937 10.3421L318.12 10.2649L318.302 9.95616L318.759 9.64744L319.125 9.33872L319.399 9.10718L320.404 8.79847L321.317 8.25821L322.048 7.71795L323.51 7.1777L324.698 7.25488L326.251 7.48641L327.53 7.71795L327.987 7.79513L329.722 8.33539L331.093 8.79847L331.276 9.33872H331.55H331.824L332.281 9.4159H332.555L332.92 9.57026L333.011 9.64744L333.377 9.87898L333.468 9.95616L333.651 10.0333L333.834 10.1877L334.108 10.2649L334.382 10.1877H334.473H334.747H334.839L335.204 10.2649L335.478 10.1877L336.3 9.95616L336.757 9.87898L337.214 9.8018L337.762 9.64744L338.31 9.57026L338.676 9.49308L339.041 9.57026L339.955 9.64744L340.412 9.8018H340.686L340.868 9.64744V9.57026L341.143 9.4159L341.417 9.03L341.599 8.79847L341.691 8.48975L341.782 8.10385L341.599 7.64077V7.33206L341.691 7.1777L341.782 6.7918V6.56026V6.4059L341.874 6.17436V6.02L342.056 5.78846H342.148L342.239 5.71129L342.33 5.63411L342.513 5.55693H342.604L343.061 5.47975L343.335 5.40257L343.427 5.32539L343.701 5.17103V5.09385L343.975 4.93949L344.066 4.78513L344.158 4.55359V4.16769L344.066 3.85898L343.975 3.70462L343.883 3.62744L343.792 3.55026L343.518 3.3959L343.335 3.24154L343.153 3.01L343.061 2.46974V2.08385L342.97 1.92949V1.77513V1.38923V1.15769L342.787 0.617436L342.696 0.308718L342.787 0.231539L342.696 0.0771795V0L343.061 0.308718L343.244 0.463077L344.706 1.69795L345.162 2.16103L345.254 2.31539L345.711 2.70128L345.802 2.77846L346.807 3.55026L346.99 3.70462L347.355 3.93616L347.538 4.09052L348.817 5.09385L349.365 5.47975L349.639 5.78846L350.553 6.7918L351.649 7.71795L352.38 8.33539L352.928 8.79847L353.385 9.18436L354.847 10.4964L355.852 11.4997L356.309 11.8856L357.405 12.3487L358.136 12.8118L358.41 13.0433L359.415 13.738L359.598 13.8923L360.054 14.201L360.603 14.6641L361.516 15.4359L361.882 15.7446L362.704 16.2849L363.343 16.5936L363.709 16.748L364.257 17.211H364.988H366.632L367.546 17.5969L367.637 17.7513L370.652 17.2882L371.749 17.1339H371.931L372.936 16.9795L373.393 17.4426L373.484 17.5969L373.667 17.7513L373.941 18.1372L374.581 18.909L375.129 19.6036L375.86 20.5298L375.768 20.7613L376.591 20.9928L376.682 21.1472L376.591 21.3787L376.773 21.7646L376.865 21.8418L377.23 22.1505L377.322 22.3049L377.504 22.5364L377.687 22.768L377.961 22.9995L378.327 23.3082L378.418 23.4626V23.6169L378.235 24.0028L377.778 24.3116V24.3887L378.052 24.8518L378.144 25.0062L378.235 25.0833L378.327 25.1605L378.418 25.2377L378.509 25.4692L378.692 26.0095L378.875 26.241L379.606 26.7813L379.971 27.0128L380.062 27.1672L380.154 27.3987L380.337 27.7846L380.702 27.939L381.159 28.0162L381.524 28.1705L381.981 28.2477L382.529 28.4792L382.986 28.6336L384.082 29.1739L384.448 29.3282L384.63 29.4826L384.905 29.5598L385.361 29.6369L386.001 29.8685L386.184 29.9457H386.366L386.64 30.0228V30.3316V30.6403V30.949L386.732 31.1033V31.1805V31.2577L387.097 31.4121L387.371 31.6436L387.463 32.1067L387.737 32.1839L388.194 32.261H389.107L389.381 32.1067H389.473L389.838 32.261H390.021H390.295L390.478 32.3382H390.569L392.213 32.261L392.488 32.1067L392.762 32.1839H392.853L393.127 32.1067L393.401 31.9523H393.767H393.858L394.223 32.1839V32.1067L394.497 32.4154L394.589 32.4926L394.68 32.7241L394.772 32.8013H394.863L396.142 32.4154L396.599 32.3382L396.873 32.1839L396.964 32.0295L397.147 31.8751V31.798H397.512L397.878 31.9523L398.152 32.1067L398.061 32.261L398.7 32.6469L399.066 32.7241H399.34H399.522H399.888L400.162 32.6469L400.253 32.5698V32.4926H400.893H401.898L402.172 32.3382H402.355V32.261L402.629 32.1839H402.72H403.177L403.451 32.3382H403.634L403.725 32.4926H403.908L405.187 32.9557L406.374 33.4187L406.74 33.4959L406.831 33.4187H407.105H407.654H408.476L409.298 33.1872H409.755L409.846 33.2644L410.303 33.11L410.394 32.5698L410.76 32.1067L411.765 31.7208L412.587 31.5664L412.861 31.4892L412.952 31.798L413.044 32.261V32.6469L413.227 32.7241V32.8013L413.409 32.9557L413.775 33.0328L414.232 32.9557L414.506 33.0328L414.78 33.11L414.962 33.1872L415.054 33.2644L414.962 33.7275L415.602 34.0362L415.693 34.2677L415.602 34.808V34.9623L416.424 35.9657H416.516L416.881 35.8885L417.155 35.9657L417.338 35.8885L418.16 36.3516L418.069 36.8146L418.434 37.3549H418.526L418.8 37.0462V36.8918L419.074 36.969L419.622 37.1234V37.4321L419.439 38.3582L419.987 38.7441V38.8985L420.079 39.3616L419.713 40.2105L419.256 40.0562L418.982 39.8246L418.617 39.7475L417.612 39.4387L417.064 39.2844L417.338 40.6736H416.972L416.881 40.9823L416.79 41.0595L416.241 41.3682L416.15 41.5226V41.5998L416.607 42.0628L417.246 42.4487L417.612 42.7575L418.069 42.9118L418.526 43.0662L419.165 43.2977L419.348 43.1434H419.622L419.987 43.2205V43.1434L420.17 43.3749L420.627 44.2239L420.901 44.3782L421.175 44.4554L421.449 44.7641L421.54 44.8413V44.9185V45.0728L421.449 45.3816L421.084 45.4587L420.901 45.6131L420.81 45.7675V45.8446H420.901L421.175 45.999L421.266 46.2305L421.084 46.4621L420.992 46.6164L420.901 46.7708V46.848L420.81 47.0023V47.2339V47.4654L420.901 47.5426V47.6198L420.81 48.0057L420.718 48.0828V48.2372L420.901 48.4687V48.6231L421.175 48.9318L420.992 49.1634H421.084L420.81 49.3949H420.718V49.4721L420.353 50.2439L420.261 50.4754H420.17L420.079 50.6298V50.9385L419.713 51.0157L419.439 51.17L419.256 51.0928L419.074 50.9385L418.891 50.8613L418.434 50.5526L418.069 50.2439L417.703 49.858H417.064L416.15 49.3949L415.876 49.6264L415.602 49.7808L415.419 49.858L414.962 49.7808L414.871 49.858L414.506 50.1667L414.414 50.321L414.232 51.17L414.78 51.6331L415.145 51.9418L415.236 52.0962V52.4821H415.419V52.6364V53.0223L416.333 53.7169H416.424L416.698 54.0257L416.881 54.1028L417.246 54.3344L417.338 54.4116L417.521 54.3344L417.795 54.2572L418.069 54.1028L418.343 53.9485L418.434 53.6398L419.439 53.4082L420.261 53.7169L420.353 53.8713L420.17 54.3344L419.987 54.7975V54.9518L420.261 55.6464L420.81 55.9552L420.901 56.0323L421.084 56.2639L421.266 56.3411L421.723 56.4954L422.363 56.6498L424.099 57.1129L424.373 56.8813L424.555 56.6498L424.647 56.727L425.012 57.0357L425.286 57.2672L426.108 58.1934L426.2 58.2705L426.839 58.7336L427.113 58.8108L427.57 59.5054L428.027 60.0457L428.484 60.4316L429.489 61.049L430.128 61.2805L432.047 61.6664L433.6 62.2067L433.874 62.4382L434.971 63.5959L436.341 64.4449L436.98 65.2167L436.889 65.6026L436.615 66.2972L436.341 66.1429L436.158 66.0657L436.067 66.1429H435.884L435.427 66.22L434.422 65.9113L433.509 65.2939L432.504 65.3711L432.047 65.2939L430.585 64.2134L429.854 64.059L429.215 63.7503L427.662 63.2872L426.931 63.21L426.839 62.9785L425.926 62.747H425.834V62.8241L426.017 63.3644L424.555 63.0557L424.373 62.9785L424.464 62.747L424.19 62.5926H424.099L424.007 62.5154H423.824L423.276 63.2872V63.3644L423.368 63.4416V63.5188V63.5959L423.459 63.6731L423.276 63.8275L423.185 64.059L423.094 64.5993V64.8308L422.637 64.9852L422.271 65.1395L422.089 65.3711L422.18 65.4482L422.089 65.5254L422.545 66.1429L422.728 66.5287L422.911 66.9918L423.094 67.6864L424.007 68.9985L425.286 70.6193L425.56 70.8508L426.931 72.0857L427.296 72.4716L427.753 73.0118L427.844 73.1662L428.301 74.0152L428.484 74.787L428.758 75.3272L428.575 75.4044L428.484 75.5588L428.667 76.099L428.849 76.3306L428.758 76.4849H428.484V76.7165L428.667 77.1795L428.484 77.2567L427.936 77.0252L427.662 77.1023L426.839 77.797L426.931 78.0285L426.657 78.1057L426.748 78.4916L426.017 78.8775L425.743 78.6459L424.647 79.4177V79.7265L423.916 81.9647L423.002 84.6659L423.185 85.2062L423.094 85.6693L423.185 86.1324L424.099 87.4444L425.012 87.9075L426.108 88.6021L427.296 89.5283L428.301 90.2229L430.311 91.3806L431.682 92.2295L432.321 92.4611L434.24 92.6154L434.605 92.847L434.971 93.0785L436.25 93.7731L437.894 94.7765L441.366 97.4777L442.736 98.1724L444.381 99.0213L445.294 99.4072L446.117 99.6388L447.304 99.716L450.411 99.33H451.05L452.877 98.6354L456.897 97.169L461.465 97.0919H464.206L467.861 97.4777L469.688 97.6321L471.332 97.7865L472.52 97.8636L474.347 98.0952H474.439V98.6354V98.7126L475.718 99.33H475.992L476.083 97.0147H475.9L475.992 96.8603H476.083L476.174 96.6288L476.266 96.4744V96.5516V96.8603L476.448 96.9375L476.723 96.6288L476.905 96.7059L476.723 97.3234L477.271 97.8636L477.453 97.169V97.3234L477.728 97.4006L477.819 97.3234L478.002 97.4006V97.7865V97.8636V98.018L478.184 98.2495L478.55 99.0985L478.824 99.716L478.915 99.8703L479.098 99.716L479.189 99.1757L479.372 98.867L480.012 100.025L480.103 100.102L480.651 100.565L481.473 101.337L482.204 101.723L483.118 102.109L483.849 102.417L484.306 102.649L484.671 102.803L485.676 103.266L487.686 104.192L490.335 104.038H490.609L491.797 103.961H492.619L492.711 104.038L494.264 102.649L494.812 102.186L495.543 101.568L495.908 101.26L496.091 101.105L496.365 101.028L496.457 100.951L496.365 100.874L496.457 100.719L496.639 100.488L496.822 100.179V100.025L497.005 99.8703L496.913 99.4844L496.731 97.5549L496.913 96.7831L497.005 96.0885V95.3167L498.284 95.0852L499.106 95.2395L499.837 95.3939L501.025 95.3167L501.756 95.6254L503.035 96.2429L503.857 96.6288L504.679 96.9375L505.136 96.7831L505.41 96.5516L505.867 96.4744L506.05 96.6288L506.872 96.8603L507.603 97.2462H508.151L508.973 96.8603L509.156 96.7059L509.613 97.4777L509.978 98.4039L510.435 98.7898L510.983 99.1757L511.805 99.4072L513.358 99.4844L513.907 99.7931L515.277 101.105L515.734 101.723L516.373 102.263L517.652 103.035L518.109 103.266L519.48 103.652L521.764 105.659L522.951 105.967L523.317 106.353L523.499 106.508L523.682 107.125L524.23 108.36L524.322 108.9L524.23 109.363L524.139 109.595L524.322 109.904L524.961 110.058L525.601 110.212L526.88 110.907L527.337 111.061L527.885 111.524L528.25 111.987L528.616 112.836L528.524 113.454L528.798 114.226L529.347 114.457L529.621 114.843L529.529 115.306L529.347 116.464L529.438 117.467L529.621 118.007V118.393L529.712 119.397L529.895 119.86L529.164 121.172L529.529 122.407L529.255 122.715L529.073 123.333L529.255 123.95L529.621 124.568L530.078 124.954L530.534 125.417L531.357 126.42L531.631 127.423L532.179 128.195L532.362 131.051L532.727 131.823L533.366 132.363L533.549 132.44L534.189 133.212L534.92 134.447L535.285 135.296L535.742 136.145L535.833 137.225L536.016 137.843L536.107 138.229L536.838 139.232L536.93 139.541L537.386 140.158L537.843 140.621L540.31 142.242L540.767 142.859L540.858 143.014L541.406 143.631L542.959 144.48L544.513 145.098L544.969 145.483L546.066 146.564L547.619 147.413L548.076 147.49L549.263 147.953V148.262L548.898 149.728L548.35 151.272L548.441 151.812L549.263 152.893L550.177 153.51L550.634 153.973L551.273 154.822L551.547 155.362L551.639 155.748V156.366L551.182 157.292L551.091 157.909L551.365 158.681L551.456 159.839L551.639 160.225L552.187 161.923L552.37 163.158L552.826 164.238V165.55L552.735 166.862L551.913 168.097L551.821 168.792L552.096 169.178L552.644 169.795L553.557 170.875L553.74 172.651L554.105 173.345L554.014 173.885L554.197 174.812L554.38 175.352L555.476 176.664L556.938 177.822L574.114 188.55L582.519 193.412L594.761 200.821L599.877 203.677L602.161 205.066L605.268 206.841L608.648 208.616L609.196 210.623L611.115 211.781L611.937 212.321L613.947 213.556H614.038L616.688 215.177L621.987 218.109L623.723 219.035L623.814 219.113L624.362 221.737L624.454 222.046L626.555 223.28L627.651 223.898L628.382 224.515L629.844 225.287L632.219 226.676L634.321 227.988L637.153 229.686L640.35 231.693L640.533 231.77L641.264 232.388L642.634 233.082L643.913 233.854L646.106 235.166L649.761 237.018L650.309 237.327L650.857 237.867H651.314L653.78 237.636L654.055 237.559L656.065 237.636H658.257L659.354 237.327L660.541 237.018L662.277 238.485L665.657 241.263L667.759 242.961L669.951 244.813L674.611 247.592L677.626 249.367L678.813 249.753L679.727 250.216L680.549 250.525L681.097 250.988L684.295 253.072L684.569 253.458L685.026 253.843L686.305 254.615L686.579 254.692L688.68 254.77L690.599 255.387L691.421 256.082L692.335 256.622L693.157 257.239L694.254 258.011L694.984 258.243L696.081 258.937L697.999 259.169L698.365 259.323L701.288 261.561L703.115 262.951L704.943 264.417L705.765 265.498L711.795 269.048L714.079 270.437L717.094 272.135L719.286 273.447L721.388 274.682L721.753 274.913L722.119 275.068L722.301 275.222L722.667 275.454L722.941 275.608L723.489 275.917L723.854 276.148H724.037L724.22 276.38L724.494 276.534L726.321 277.538V277.615L726.139 277.769V277.923V278.001V278.155L726.23 278.232H727.052H727.509L727.6 278.309L728.697 278.464L731.803 279.081L733.721 279.313L735.64 279.544L739.843 280.007L741.944 280.239H742.218H742.309L742.401 280.316L742.492 280.393L742.401 280.47L742.675 280.548H742.766L742.858 280.47H742.949L743.04 280.393L743.223 279.776L743.132 279.544L743.68 279.158L744.137 279.081L744.411 279.004L744.594 279.158L744.868 279.081L745.507 279.004L745.69 279.081L745.873 279.004L746.147 278.927L746.512 279.004L746.786 278.927L746.969 279.004L747.334 279.158V279.236H747.426L747.882 279.467L747.791 279.621L747.974 279.776V279.853L747.882 279.93V280.085H747.974L748.065 280.007L748.339 280.162L748.431 280.47L748.522 280.548L748.979 280.779L749.07 280.856L749.162 281.088L749.344 281.242H750.075V281.474L750.441 281.628L750.532 281.937L751.263 282.091L751.811 281.937L752.268 281.782L753.09 281.937H753.456L754.095 282.323L754.278 282.709L754.552 282.863L755.009 282.94L755.283 282.863L755.74 283.017L756.014 283.326H756.196L756.379 283.558H756.653L756.836 283.403L757.201 283.558V283.789H757.384L757.293 284.021L757.567 284.252L757.658 284.638L758.115 284.792V284.947L758.846 285.024H759.394L760.399 285.487L760.856 285.796L761.039 286.105L761.495 286.259L761.769 286.105H762.318L762.957 285.95L763.779 286.105H764.053L764.328 286.182L764.784 286.259L765.15 286.182L765.515 286.259L765.698 286.568V286.799L765.972 286.953L765.789 287.417L766.155 287.648L766.337 288.034L766.612 288.42L766.886 289.115L767.891 289.578L767.982 289.732L768.53 290.195L768.987 290.812L769.535 291.276L769.718 291.584H770.083L770.814 291.507L770.997 291.661L771.545 291.97L771.728 292.279L771.911 292.51H772.093L772.459 292.433L772.824 292.665L773.19 293.205L773.555 293.514L774.651 293.745L774.925 293.977L775.474 294.054L775.839 293.9H776.113L776.479 293.977L777.209 293.822L777.666 293.591H777.758L778.763 293.745H779.128L779.402 293.591L779.768 293.668L780.133 293.591H780.407L780.59 293.745L780.681 293.822L781.047 293.745L781.138 293.822L780.773 294.131L780.864 294.208L781.778 294.44H782.143L782.6 294.131L783.148 294.286L783.331 294.517L783.513 295.057H783.787L784.062 294.903L784.336 295.057L784.701 295.366H784.884H785.249L785.523 295.212H786.163L786.254 295.289L786.163 295.52L786.346 295.675L786.894 295.829V295.983V296.215L786.985 296.292L787.076 296.215L787.259 296.447H787.625L787.899 296.601V296.832H788.173L788.447 296.755H788.538L788.721 296.91L788.904 297.064H788.995L789.086 296.987H789.178L789.36 297.141H789.543L789.635 297.218L789.817 297.373V297.45L789.909 297.527V297.604L789.817 297.836L790 298.067L789.909 298.376V298.453L789.817 298.608L789.635 298.762L789.817 298.993L789.909 299.379V299.534V299.688L790 300.074L789.909 300.306V300.537L789.452 300.614L789.178 300.691L788.995 300.769L788.63 301L788.447 301.155H788.356V301.232L787.899 301.54L787.442 301.618V301.695L787.259 301.772L787.168 301.926L787.076 302.235L786.985 302.312L786.894 302.235L786.802 302.389L786.528 302.544L786.071 302.775L785.889 302.93L785.797 303.084L785.432 303.316L785.158 303.701L785.249 303.779L784.975 304.319L784.792 304.473L784.336 304.859L784.062 305.013L783.879 305.245L783.787 305.399V305.785L783.605 306.017L783.331 306.171L783.422 306.326L783.239 306.711L783.148 306.866L782.874 307.252L782.508 307.329L782.234 307.869L781.686 310.339V311.034V311.651L782.052 313.195L781.869 314.352L781.686 315.51L781.321 318.906L781.229 320.527L780.955 321.684L781.047 322.842L781.321 323.382L783.605 324.771L784.244 326.855V327.627V328.399L783.97 328.708L784.062 329.171L782.691 329.942L781.503 330.637L781.321 330.791L781.229 330.869L781.047 331.1L780.955 331.255V331.872L780.864 332.026L780.681 332.181L780.773 332.335V332.489L781.047 332.567L781.138 332.644L781.503 332.721L781.96 332.952H782.143H782.326L782.417 333.107V333.338V333.416V333.724L780.316 334.419L779.676 334.573L778.488 335.114H777.484L775.656 335.808L774.012 335.499H772.093H770.814L769.626 335.731H768.804L767.982 335.268L766.794 334.496L766.337 334.419L765.972 333.956L765.698 333.801L765.424 333.57L765.15 333.493H764.693L764.419 333.416L763.962 333.338L763.505 333.184L763.14 333.107L762.957 332.952L762.774 332.798H762.5L762.135 332.875H761.861L761.587 332.952H761.13L760.399 332.721L760.125 332.567L759.759 332.489L759.485 332.335L759.211 332.181L758.937 331.949L758.663 331.718L758.572 331.409L758.48 330.946L758.298 330.406L758.115 330.174L757.475 329.788L757.11 329.634L756.745 329.479L756.379 329.402L756.288 329.171L756.105 329.016L755.74 328.862L755.466 328.708L755.191 328.553L754.643 328.322L753.912 328.09L753.638 328.013L753.273 327.936L752.907 327.859L752.268 327.781L750.349 327.087L749.984 327.01L749.71 326.855H749.344L748.248 326.701H747.426L745.873 326.547L744.228 325.852L742.492 325.312L741.67 325.08L741.305 324.771L740.848 323.768L740.482 323.614L739.751 323.537L738.929 323.228L738.746 323.074L738.655 322.919L738.929 322.61V322.379V322.147L738.564 322.07L738.381 322.688V322.996L737.924 322.842L737.65 322.765L737.559 322.688L737.285 322.765H737.011H736.736L736.554 322.688L736.371 322.765L736.188 322.919H735.914L735.457 322.765H735.366L735.092 323.074L734.909 323.151L734.727 323.305L734.544 323.537L734.178 324.077L733.904 324.386L733.813 325.157L733.356 325.62L732.808 325.929H732.26L731.803 326.392L731.529 328.245L731.62 328.399L731.529 328.476L731.437 328.399L731.163 328.476L726.23 333.956L725.773 334.805L724.859 337.12L724.677 337.197L720.291 337.352H720.2L719.652 337.506L717.094 338.587L716.089 338.741L714.992 338.895L714.17 339.204L712.8 339.667L711.521 340.053V340.516V340.825H711.429H711.247H711.155L708.963 339.821L706.861 340.67L706.405 340.593L705.948 340.516L703.664 340.053L703.207 340.207L695.715 341.751L689.229 344.838L682.742 347.925L683.93 353.559L685.117 359.116L682.833 362.435L680.093 366.526L679.91 366.757L675.159 375.787L675.25 377.099L675.342 377.717L675.159 378.951L675.433 381.112L675.524 381.884L675.616 382.733L675.707 383.814L675.89 385.049L676.164 387.133L674.976 388.753L674.519 389.371L674.245 389.911L673.515 390.837V390.914L672.966 392.458L671.779 393.538L670.956 394.31L670.043 395.159L668.946 396.008L668.307 396.626L667.941 396.857L667.667 397.012L666.845 397.706L666.48 397.938L665.657 398.709L665.566 398.787H665.292L665.201 398.864L664.927 398.787H664.835H664.744L664.652 398.864L664.47 398.787L664.378 399.018L664.287 398.941L664.196 398.864L664.104 399.173H664.013H663.922H663.83V399.018L663.648 399.095L663.556 399.25H663.373L663.282 399.404H663.191L663.099 399.327L662.917 399.404L662.825 399.327H662.734L662.643 399.481L662.46 399.404V399.636H662.368L662.186 399.481H662.094L662.003 399.404H661.912H661.82L661.729 399.558H661.638L661.546 399.636L661.455 399.558H661.364H661.181H660.998H660.907L660.998 399.713L660.724 399.79L660.633 399.713V399.867H660.45L660.541 400.099L660.267 400.176L660.176 400.253L659.993 400.099V400.33L659.81 400.485H659.719L659.628 400.562H659.445V400.639H659.262V400.716H659.171L659.079 400.793H658.897L658.805 400.87H658.623L658.531 400.793H658.349L658.257 400.948L658.166 401.025L658.257 401.256L658.074 401.334L658.166 401.411L658.074 401.488L657.983 401.565L658.074 401.642L657.983 401.797V401.874H657.892V401.951V402.028L657.8 402.105L657.709 402.182L657.618 402.337V402.414L657.526 402.491L657.435 402.8V402.877V403.031L657.344 403.109H657.252L657.07 403.34L656.978 403.572L656.887 403.649L656.795 403.572V403.726L656.704 403.803V403.958L656.613 404.035H656.247L656.065 403.88H655.79L655.608 403.803V403.495L655.516 403.417H655.425L655.151 403.572H655.06L654.968 403.495L654.877 403.572L654.785 403.649H654.603L654.511 403.726V403.803L654.329 403.88H654.237V404.035V404.112H654.055L653.963 404.189L653.872 404.035L653.689 403.803V403.88L653.506 403.803H653.415L653.232 403.495L653.05 403.417H652.958H652.867H652.776L652.684 403.34V403.263L652.501 403.186H652.41H652.319L652.227 403.263H652.136H652.045L651.953 403.34H651.862L651.771 403.263L651.588 403.34L651.496 403.572L651.314 403.649H651.131L650.857 403.495H650.766H650.583L650.217 403.417L649.943 403.572H649.852H649.761L649.669 403.649L649.761 403.726L649.669 403.88L649.578 404.035V404.266V404.344H649.395H649.304L649.121 404.421V404.344H648.938V404.421L648.847 404.575L648.664 404.498L648.482 404.652V404.729L648.116 404.807L648.025 404.961H647.933L647.842 405.193L647.751 405.27L647.659 405.424L647.385 405.578L647.111 405.656L647.02 405.733H646.837L646.563 405.656L646.472 405.578V405.501V405.424L646.38 405.347H646.198H646.106H646.015L645.923 405.501V405.578L645.741 405.733V405.81H645.649V405.964L645.558 406.041L645.467 406.119V406.273V406.35L645.375 406.427L645.284 406.505L645.101 406.659L645.01 406.736L644.827 406.582V406.736H644.644L644.462 406.89H644.37H644.096H644.005V407.045L644.096 407.122L644.005 407.431V407.508L644.188 407.739V407.817L644.096 407.971L644.005 408.048V408.125L644.096 408.28L644.188 408.511L644.096 408.588L643.913 408.743V408.897H644.005L644.096 409.051V409.283L644.005 409.437V409.515V409.669L644.096 409.9H644.188V409.978L644.005 410.055L644.096 410.132V410.209H644.188V410.286L644.096 410.518L644.188 410.672V410.827V410.904L644.279 411.058H644.37V411.135V411.444V411.521L644.644 411.29H644.736L644.827 411.367V411.444L644.736 411.598L644.644 411.676L644.736 411.83L644.827 411.907L644.644 411.984V412.139V412.216L644.553 412.525H644.736V412.679L644.827 412.756L644.736 412.833L644.644 412.988L643.731 412.525L643.183 412.293L642.817 412.062L642.269 411.753L641.812 411.521L641.355 411.29L640.807 411.058L640.716 410.981L640.259 410.749L635.234 412.062L630.301 413.296L627.651 413.991L624.362 414.763L621.804 415.072L618.789 415.457H618.515L616.962 415.689L615.683 417.541L615.043 418.467L613.582 418.776L613.033 418.853L612.394 419.008L610.018 419.471L607.369 420.011L606.181 420.243L605.907 420.32L603.623 417.387L603.258 418.082L602.436 418.313L602.527 418.622L603.258 418.776L603.532 418.93V419.085L603.349 419.316L602.801 419.702L602.161 419.548L600.791 419.625H600.334L600.151 419.471L599.695 419.625L599.512 419.548L599.055 419.779H598.781L597.867 420.088L597.228 420.165L597.045 419.702L596.588 419.548L596.406 419.394H596.223H595.949L595.309 419.625H595.127L595.035 419.471L594.761 419.548L594.578 419.471L594.396 419.702H594.304L594.122 419.779L594.03 419.857L593.665 420.088L593.573 420.32L593.117 420.551L593.025 420.474L592.934 420.397H592.843L592.751 420.32H592.66L592.568 420.088H592.477L592.203 420.165L592.02 420.474L591.929 420.783V420.937V421.091L591.838 421.246L591.564 421.323L591.381 421.4V421.555L591.472 421.709V421.863L591.381 421.94H591.198L591.107 422.095H590.924L590.833 422.249V422.404V422.558V422.789H590.924L591.015 422.944V423.175H590.833V423.33V423.484L591.015 423.638L591.198 423.716V423.793L591.289 423.87H591.381H591.564L591.655 423.947L591.746 424.102L591.838 424.179L592.02 424.333L592.112 424.41L592.294 424.565L592.386 424.642L592.477 424.796V424.95V425.105L592.568 425.182L592.751 425.568L593.025 425.799V425.877L592.934 426.108L592.843 426.185L592.934 426.263L593.025 426.34L593.117 426.494L593.208 426.648L593.482 426.88L593.573 426.957H593.756L593.848 427.034L594.122 427.266L594.304 427.42H594.487V427.652L594.67 427.806L594.761 427.96L594.853 428.038V428.192L594.944 428.269L595.127 428.346H595.218H595.309H595.401H595.675L595.858 428.424L595.949 428.655L595.858 428.809V428.887L595.949 429.195V429.35L596.132 429.504L596.497 429.658L596.68 429.813L596.954 429.89H597.319L597.593 429.736L597.867 429.89L598.142 430.044L598.507 430.199L598.781 430.585L598.69 430.893V430.97L598.781 431.125L598.964 431.202L599.146 431.279L598.69 431.511L597.959 431.665L596.954 432.051L596.771 432.128L596.223 432.283L595.492 432.514L594.396 432.977L594.03 433.132L592.751 433.595H592.66L592.112 433.826L591.564 434.058V434.135V434.366V434.444L591.198 434.521L591.289 434.675V434.752L591.015 434.829H590.924L590.833 434.752H590.741L590.559 434.907L590.65 435.215L590.741 435.37L590.833 435.447L590.924 435.524L590.833 435.601V435.678L590.924 435.756L590.833 435.91L590.924 436.219V436.373L591.015 436.527L591.107 436.605V436.682L591.289 436.836L591.381 436.759V436.99V437.222L591.289 437.299L591.107 437.454V437.531L591.198 437.762V437.994L591.015 438.148V438.303V438.38L591.289 438.303L591.198 438.766V438.92H591.289H591.381L591.472 438.766H591.564V439.074V439.229L591.746 439.152L591.838 439.229H591.929H592.02H592.203L592.294 439.074H592.386L592.568 439.229V439.46L592.477 439.537V439.615L592.386 439.846L592.477 440L592.386 440.309L592.294 440.618L592.203 440.695V440.849L592.112 440.927H592.02L591.929 440.849L591.838 440.927H591.564V441.004V441.158L591.746 441.235V441.39V441.544H591.929V441.621L591.838 441.776V441.853L591.929 442.162L592.02 442.239L591.929 442.316L591.655 442.239L591.564 442.316V442.393L591.746 442.625V442.779H591.929L591.746 443.01L591.655 443.165V443.396V443.551V443.628H591.381V443.782V443.937V444.014V444.245L591.472 444.323L591.381 444.4V444.786L591.289 444.863L591.107 445.017L591.015 445.326L590.924 445.48L591.015 445.712V445.866V446.021H590.924V446.175L590.833 446.484L590.65 446.329L590.559 446.252H590.467L590.376 446.484L590.284 446.406V446.329L590.193 446.406L589.828 446.561L589.736 446.484H589.645V446.561L589.554 446.638H589.188H589.005H588.914H588.823H588.64V446.715H588.457L588.366 446.792V446.715H588.275L588.183 446.792H588V446.715L587.909 446.638L587.818 446.561L587.635 446.638H587.452L587.361 446.561L587.087 446.638L587.178 446.715L587.087 446.792L586.813 446.715L586.721 446.792L586.539 446.638H586.356V446.561L586.265 446.406H586.173L586.082 446.484V446.561L586.265 446.792L586.447 446.947L586.539 447.024L586.63 447.101V447.178V447.333V447.41H586.539L586.356 447.255L586.082 447.178L585.808 446.947L585.716 446.869V446.947L585.625 447.024L585.442 447.178H585.351L584.986 447.255V447.333L584.894 447.41L584.437 447.641L583.889 447.873L583.615 448.027L583.25 448.259L583.158 448.182H583.067H582.793L582.701 448.259L582.61 448.336L582.519 448.413H582.336L582.062 448.49L581.879 448.567L581.697 448.645L581.605 448.722V448.799L581.422 448.953L581.331 449.03V449.185H581.148L581.057 449.339L580.783 449.185V449.262L580.509 449.416V449.494L580.6 449.648L580.417 449.725V449.879L580.326 449.802L580.143 449.879V449.802L580.052 449.725L579.961 449.802H579.869H579.595L579.413 449.879V449.957L579.504 450.111V450.265V450.343L579.413 450.497L579.321 450.574V450.651L579.138 450.806H578.956H578.864L578.773 450.651L578.682 450.574H578.499V450.651V450.728L578.316 451.037H578.133L578.042 451.114L577.859 451.423L577.768 451.5L577.677 451.732L577.585 451.886L577.494 452.04L577.311 452.118V452.195V452.272L577.22 452.349H577.037H576.946L576.58 452.504L576.398 452.658L576.489 452.735H576.306H576.215L576.123 452.889L575.941 452.967V453.044L575.849 453.121L575.758 453.044L575.667 453.198L575.575 453.275H575.484L575.301 453.198H575.119L575.027 453.121L574.844 453.198V453.121H574.662L574.296 453.044L574.205 453.198H574.114L573.931 453.121L573.748 453.275L573.565 453.121L573.474 453.198L573.291 453.43L573.2 453.661L573.109 453.738L573.017 453.816L572.835 453.738L572.652 453.816L572.378 453.893L572.195 453.97V454.124L572.104 454.279L571.921 454.356V454.433L571.738 454.51V454.587L571.647 454.665V454.742L571.464 454.819L571.555 454.973V455.128L571.373 455.282V455.514V455.822L571.281 455.899L571.099 456.054L570.825 456.131H570.55H570.459L570.185 456.054L570.094 455.977L569.82 456.285L569.546 456.517L569.454 456.671L569.271 456.826L569.089 456.748L568.815 456.903H568.632L568.449 456.826L568.266 456.671L568.175 456.748L568.084 456.826H567.901L567.81 456.903L567.718 457.057L567.444 457.212H567.261L566.987 457.134V457.057L566.805 457.134H566.713L566.622 457.212H566.531L566.165 457.134L566.074 457.212V457.366L565.8 457.443L565.526 457.597L565.434 457.675V457.752L565.343 457.906L565.252 457.983L565.16 458.138V458.215L564.795 458.292V458.446L564.703 458.524L564.521 458.446H564.429L564.338 458.215L564.155 457.829V457.752V457.597L564.064 457.52L563.972 457.366L563.881 457.289V457.134L563.79 456.98L563.698 456.903L563.607 456.826L563.333 456.903L563.242 456.98V457.212L563.15 457.289L562.876 457.443H562.602L562.419 457.52L562.328 457.443H562.237L562.145 457.597L562.054 457.675L561.871 457.752V457.597L561.78 457.366V457.212L561.688 457.134H561.414H561.232L561.049 457.057L560.958 456.98H560.866H560.683L560.592 457.057L560.409 456.98L560.318 456.826V456.594L560.135 456.517H560.044L559.953 456.285V456.131V455.977V455.822L560.044 455.668L559.953 455.591H559.678L559.496 455.514H559.313V455.436L559.13 455.359V455.282L559.039 455.128V454.973V454.742H558.948H558.674L558.491 455.05L558.399 455.205L558.308 455.128H558.125H558.034H557.943H557.851L557.76 454.896H557.669H557.577V454.819L557.486 454.587H557.394L557.303 454.742H557.029H556.846L556.755 454.665V454.587L556.481 454.51L556.389 454.433L555.11 455.514L555.019 455.668L554.38 456.285L552.735 457.752L551.821 458.601L550.999 459.373L550.086 460.144L549.263 460.916L548.989 461.148L548.624 461.534L547.893 462.151L547.345 462.614L547.071 462.846L546.797 463V462.923L546.614 462.768L546.431 462.614V462.537L546.523 462.383L546.614 462.228L546.523 462.074V461.997L546.431 461.842V461.765L546.523 461.688V461.379V461.225L546.431 461.071L546.523 460.993V460.916L546.614 460.762L546.523 460.685L546.431 460.607L546.157 460.221V459.99L546.066 459.681V459.604V459.45V459.373V459.141L546.157 459.064V458.909L546.248 458.832V458.678V458.446L546.157 458.369V458.292L546.066 458.215L545.974 458.138L546.157 457.906V457.675L545.974 457.443V457.366V457.289L546.157 457.212V457.134V456.98L546.066 456.826L546.157 456.748H546.066L545.974 456.671L545.883 456.594V456.517L545.974 456.44V456.363L546.066 456.208V456.131L545.974 456.054V455.977V455.745L545.792 455.591L545.152 455.05L545.061 454.896V454.819L545.152 454.665L544.969 454.587V454.51V454.356L545.061 454.279V454.202V454.124L544.878 454.047L544.695 453.97L544.604 453.893V453.738V453.507L544.33 453.353L543.69 453.121L538.94 451.114L538.391 450.883L537.386 449.957L535.833 448.49L535.742 448.413L535.102 447.641L534.189 446.484L534.097 446.329L533.458 445.48L531.813 445.172L529.803 444.708L528.068 444.4L527.154 444.631L525.966 444.863L525.327 445.017H525.235L524.596 445.172L524.048 445.326L523.774 445.403L523.043 445.557L521.764 445.866L521.033 446.021L520.211 446.252L519.754 446.329L519.206 446.484H519.114L518.201 446.715L517.652 446.869L515.917 446.638L514.455 446.406L511.805 446.021L509.521 445.712L507.237 445.403L506.963 445.326L506.506 445.017L505.684 444.554L504.679 443.937L502.03 442.239L501.299 441.776L499.38 440.541V440.309H499.197V440.155L499.106 440.078V440L499.015 439.846H498.741V439.769L498.649 439.692H498.558L498.466 439.537L498.192 439.46H497.918L497.827 439.383L497.644 439.152L497.553 439.074L497.279 438.766L497.096 438.611H496.913L496.639 438.688L496.457 438.457L496.365 438.38L496.091 438.148L496 438.071L495.908 437.917L495.817 437.839L495.726 437.762L495.908 437.531H496.091L496.274 437.376H496.365L496.457 437.299V437.222L496.639 436.99L496.548 436.759L496.457 436.682V436.759L496.274 436.913L496.182 436.836V436.759L496.274 436.682L496.182 436.605L496.274 436.527L496.182 436.45H496.091L496 436.527H495.908L495.726 436.605L495.452 436.45H495.269V436.527H495.178L495.086 436.064L494.903 435.91L494.812 435.756L494.903 435.601L494.812 435.215V435.138L494.903 434.984H495.086L495.178 434.829V434.752L495.086 434.598L494.903 434.521H494.721L494.355 434.289H493.99L493.716 434.366V434.444L492.802 434.521H492.254L492.163 434.598L492.254 434.907L492.619 435.138H492.437L492.254 435.061V435.293H492.163H491.98H491.889V435.447L491.158 436.219H490.609L490.335 435.987L490.061 435.447L489.604 435.678V435.447L489.422 435.293V435.138L489.239 435.061L488.874 434.907L488.051 434.444V434.289L488.234 434.058L488.325 433.98L488.234 433.749L488.143 433.672L488.051 433.363L487.777 433.209H487.32L486.955 433.054L486.864 432.9L487.046 432.746V432.668L486.772 432.437L486.498 432.051L486.864 431.742L486.772 431.588H486.407V431.202L486.498 430.816L486.59 430.585L486.864 430.276L487.046 430.353H487.138V430.199L487.229 430.044L487.503 429.967L487.686 429.736L487.869 429.504L488.051 429.195L488.143 428.809L488.234 428.424L488.143 428.115L488.234 427.729L488.143 427.42V427.112L488.325 426.726L488.417 426.417L488.508 426.108V425.799L488.417 425.491L488.325 425.182V424.796L488.417 424.487L488.691 423.947L488.874 423.638L488.965 423.253L488.782 422.712L488.417 422.172L488.325 421.94L488.234 421.632L488.143 421.323L488.051 421.091L487.869 420.783V420.474L487.777 420.165V419.857V419.471L487.869 419.162L487.96 418.776L487.686 418.699L487.32 418.776L486.955 418.699L486.864 418.39L486.955 418.082L486.681 417.85L486.041 417.387L485.767 417.078L484.58 416.152L483.94 415.921L483.483 415.843L483.209 415.689L482.661 415.612H482.113H481.93L481.839 415.535L481.656 415.457L481.565 415.226H481.382L481.291 415.303V415.457L481.108 415.38H481.017L480.925 415.149L480.834 414.994H481.017L481.108 414.686H481.291L481.565 414.763L481.747 414.686V414.608L481.93 414.531L482.204 414.3L482.296 414.068L482.387 413.914L482.478 413.837L482.935 413.682L483.301 413.451L483.666 413.374L483.849 413.142L483.94 412.756L484.031 412.37L483.94 412.139L483.757 411.83L483.575 411.598L483.483 411.29V410.981V410.827L483.666 410.518L483.94 410.364L484.214 410.132L484.762 409.823L485.036 409.746L484.58 409.36L484.488 409.206V409.051V408.974L484.671 408.82L485.036 408.588L485.128 408.511L485.219 408.357V408.203L485.311 407.971L485.585 407.739L485.767 407.662L485.859 407.508L485.767 407.199V407.045L485.859 406.89L485.95 406.813L486.133 406.582L486.315 406.427H486.498H486.681H486.772H486.955L487.046 406.35L487.138 406.119L487.229 405.964L487.138 405.81H487.046H486.864L486.59 405.887L486.407 405.733L486.224 405.656L486.133 405.578L486.041 405.424V405.27L486.133 405.193L486.315 405.038L486.407 404.961H486.59L486.772 404.807L486.864 404.729V404.652L486.498 404.421L486.407 404.266L486.315 404.189L486.407 404.112L486.59 403.958L486.681 403.88L486.772 403.726L486.864 403.572L486.955 403.495V403.34V403.186L486.864 402.954L486.681 402.491V402.182H486.59L486.498 402.028V401.874V401.719V401.565H486.407H486.133L486.041 401.488L485.859 401.411V401.334L485.676 401.256V401.102L485.767 400.948L485.585 400.87L485.493 400.793V400.716L485.585 400.639V400.485L485.493 400.407L485.402 400.176L485.311 400.021L485.128 399.944V399.867V399.79L485.036 399.636V399.404L484.945 399.25V399.095L484.854 399.018L484.762 398.941V398.787L484.854 398.709L484.945 398.632V398.555L484.854 398.478L484.762 398.246L484.671 398.169V398.092H484.762L484.671 398.015V397.938L484.762 397.86L484.854 397.706L484.762 397.166L484.488 397.012L484.306 396.78V396.626L484.214 396.548L484.123 396.471V396.163L483.94 396.008L483.666 395.931L483.301 395.622V395.314V395.159V395.082V394.928V394.85V394.773L483.209 394.696H483.118L482.935 394.619L482.844 394.542L482.661 394.465V394.387V394.31L482.935 394.156H483.026L483.118 394.233L483.209 394.31L483.301 394.233V394.156V394.001L483.209 393.847L483.301 393.77L483.209 393.616L482.935 393.538L482.752 393.384L482.661 393.307V393.152L482.844 392.998V392.612L483.026 392.535L483.118 392.226L482.752 391.84L482.661 391.532L482.57 391.223V390.914L482.387 390.374L482.296 390.065L482.387 389.679L482.661 389.525L482.844 389.448L483.118 389.294L483.301 389.062L483.575 388.83L483.757 388.445L483.483 388.136L483.575 387.75V387.21L483.392 386.978V386.592L483.666 386.438L484.031 386.284L484.123 385.898L484.031 385.512L483.849 385.203L483.94 384.971L483.666 384.74L483.026 384.586L483.209 384.277L483.301 384.2L483.392 383.968V383.814L483.301 383.659V383.582L483.118 383.505V383.351L483.209 383.274L483.392 383.196L483.483 382.888L483.666 382.656L483.757 382.579L483.94 382.502L484.214 382.425L484.397 382.347L484.488 382.27V382.193V382.116L484.397 381.961L484.214 381.884L484.123 381.73V381.653V381.576L484.397 381.267L484.58 381.112L484.671 380.958V380.881L484.58 380.418L484.671 380.032L484.58 379.569L484.397 379.337L484.306 378.951L484.214 378.488L484.031 378.257L483.849 378.025L483.666 377.485L483.575 377.331L483.392 377.099L482.935 376.79L482.844 376.559L482.478 376.019V375.787V375.556V375.401V375.247L482.113 375.324L481.565 375.401H480.012L478.641 375.478L476.448 375.556L474.804 375.633L474.164 375.71H473.251L471.789 375.787L470.419 375.864L469.048 375.941L467.769 376.019L466.216 376.096L464.663 376.173L463.658 376.25L462.379 376.327L460.917 376.405L459.821 376.482L457.354 376.636H456.349L454.156 376.482L452.695 376.327H450.593H449.132L447.304 376.405L446.025 376.482L443.924 376.405L442.371 376.327H440.544L438.808 376.25H438.077L437.985 376.019V375.71L438.077 375.478H437.803L437.529 375.324L437.346 375.015L436.98 374.552L436.158 373.626L435.975 373.317L435.701 372.931L435.336 372.314L435.153 371.774L434.971 371.311L434.605 370.77L434.24 370.23L433.783 369.613L433.691 368.764L433.235 368.378L432.869 367.992L432.412 367.606V367.452L432.504 367.375L432.412 367.297L432.138 367.066L431.773 366.757L431.133 365.985L430.951 365.522L430.859 365.059L430.768 364.982L430.494 364.905H430.22L429.854 364.596L429.489 364.442L429.215 364.287L428.301 363.438L427.936 362.975L427.662 362.358L427.479 362.204L427.296 361.972L427.022 361.663L426.931 361.586V361.355L426.748 361.277L426.383 360.891V360.814V360.66L426.291 360.506L425.926 360.197L425.834 360.12L425.743 360.042L425.652 359.888L425.012 359.425L424.647 358.962L424.099 358.267V358.113L424.007 357.881L423.916 357.65L424.007 357.418V357.11V356.955V356.724L423.916 356.415L423.824 356.184L423.642 355.875L423.368 355.643L422.819 355.103L422.454 354.64L421.906 354.1L421.266 353.328L420.81 353.096L420.535 353.019L419.805 352.479L419.622 352.402L419.439 352.325H419.348L419.165 352.17L418.982 352.093L417.886 351.784L417.155 352.016H416.059L415.054 352.093L414.323 351.861L413.957 351.63L413.775 351.553H413.409H413.318L413.227 351.476L413.044 351.321V351.167L412.952 351.09L412.861 351.012L412.678 350.858L412.222 350.549H412.039H411.856L411.217 350.009L411.125 349.932L410.943 349.855L410.851 349.778L410.577 349.469L410.486 349.315L410.394 349.237L410.212 349.16L410.029 348.929L409.755 348.697L409.572 348.62L409.481 348.697V348.774L409.389 348.851L409.298 348.774L409.207 348.697L409.024 348.543L408.841 348.388H408.658L408.476 348.466L408.019 347.925L407.928 348.002L407.745 348.157V348.002L407.654 347.925L407.471 347.848L407.288 347.771L406.831 347.462L406.192 347.154H405.918L405.735 347.076L405.644 347.154L405.552 347.308V347.385V347.462L405.461 347.539L405.37 347.694V347.925L405.278 348.157H405.004L404.913 348.234L404.73 348.08L404.639 348.002L404.273 347.925H404.182L403.999 347.848L403.725 347.308V347.154L403.451 347.076L403.085 346.922L402.811 346.845L401.441 346.382L401.258 346.305L401.076 346.227H400.436L400.253 346.15H400.071H399.888L399.705 346.227L399.614 346.305L399.522 346.536L399.431 346.768L399.34 346.845L399.157 347.231L399.248 347.385V347.462L399.066 347.539L398.974 347.462L398.883 347.539L398.791 347.462L398.152 347.617L398.061 347.385V347.308H397.969L397.786 347.462H397.695L397.604 347.308L397.512 347.154H397.33L397.238 346.999H397.147L397.056 346.922H396.873L396.782 346.845L396.69 346.768L396.599 346.845H396.416L396.325 346.768L396.051 346.69H395.959H395.868H395.777V346.768L395.685 346.845H395.502L395.137 346.768L394.863 346.69L394.772 346.768L394.589 346.845H394.406L394.223 346.69L394.041 346.536L393.949 346.459V346.15L393.858 346.073H393.767L393.675 345.919L393.767 345.533L393.584 345.378V345.224L393.767 344.992L393.858 344.838L393.767 344.684L393.858 344.529H393.949L394.041 344.452V344.221V344.143H393.675L393.493 344.066L393.401 343.989L393.31 343.835L393.218 343.68L393.036 343.603L392.853 343.526L392.762 343.68L392.488 343.449L392.396 343.372L391.757 343.14L391.209 342.831L390.66 342.368L390.295 342.291L389.747 341.905V341.674H389.929H390.295L390.386 341.597V341.519H390.478V341.365L390.569 341.211L390.66 341.056V340.825L390.569 340.439L390.204 339.976L389.929 339.821L389.655 339.744V339.667L389.381 339.358L389.29 339.204L389.199 338.895L388.468 338.664L388.376 338.587V338.509L388.468 338.278V338.124H388.285L388.194 338.046L387.828 337.969L387.737 337.815H387.645L387.554 337.66L387.463 337.506L387.371 337.352L387.463 337.275L387.554 337.12V336.657L387.463 336.58L387.28 336.503L387.097 336.426L386.915 336.58L386.549 336.426L386.366 336.503H386.275H386.184L386.092 336.426L385.91 336.348L385.635 336.04L385.453 335.885L385.544 335.731L385.635 335.499L385.453 335.345V335.268L385.179 335.036L385.27 334.65L385.087 334.419L384.996 333.879L385.087 333.338L384.905 332.567L384.63 331.563L384.356 330.56L384.63 329.788L385.087 329.634L385.544 329.402L385.727 329.248L385.91 329.171L386.275 328.939L385.91 328.553L385.361 328.09L384.905 328.322L384.539 328.09L384.996 326.855L385.179 326.315L384.722 325.543L383.9 324.849L383.443 324.463L382.986 323.459L382.072 323.305L381.707 323.382L381.159 323.305L379.971 323.922L379.697 324.077L379.423 324.231L379.149 324.308V324.54L378.966 324.463L378.875 324.54L378.509 324.617L378.418 324.54H378.327L378.235 324.463H378.144V324.54L378.052 324.463L377.961 324.386H377.87V324.231L377.596 324.308V324.231L377.504 324.077L377.413 324.154L377.23 324L377.139 324.077L377.048 324.154V324.077V324V323.922H376.865L376.773 323.845L376.682 323.922L376.499 324V324.154L376.408 324.231H376.225L376.134 324.308V324.386L375.677 324.231L375.038 323.768L374.946 323.537L374.764 323.459L374.672 323.382L374.489 323.228L374.215 322.996H374.033L373.941 322.765L373.759 322.688H373.576V322.842H373.393L373.302 322.765L373.028 322.61L372.662 322.225L372.023 320.912L371.566 320.835L371.2 320.681L370.835 320.604L370.561 320.449L370.195 320.295L369.739 319.832L369.465 319.678L369.19 319.446L369.008 319.292L368.734 319.06L367.911 318.52L367.729 318.288L367.455 318.057L367.181 317.825L366.998 317.594L366.724 317.439L366.358 317.362H365.901L365.536 317.439H365.079L364.714 317.285L364.074 316.976L363.617 316.59L363.252 316.436L362.704 316.127L362.338 315.973L361.973 315.819L361.607 315.741L361.242 315.587L360.877 315.433L360.511 315.356L360.146 315.201L359.323 315.047L358.867 315.124L358.593 315.201H358.136L357.77 315.278L357.314 315.201H356.948L356.583 315.124L356.217 314.97L355.943 314.815L355.669 314.584L355.395 314.429L355.212 314.198L354.938 313.966L354.755 313.735L354.299 313.272L354.025 313.195L353.568 313.04L353.202 313.117L353.02 313.426L353.111 314.121V314.429L353.02 314.815L352.563 315.201L351.923 315.51H351.558H351.101L350.279 315.356L349.822 315.278L349.456 315.201L349.182 315.356L348.908 315.51L348.726 315.819L348.543 316.05L348.177 316.205L347.903 316.282H347.447H346.99H346.533L346.076 316.205L345.711 316.127L345.254 316.05L344.797 315.973L344.523 315.819L344.158 315.664L343.792 315.51L342.513 314.892L342.239 314.738L341.965 314.584L341.691 314.352L341.417 314.121L341.051 313.889L340.96 313.966L340.777 313.889L340.503 313.658L340.229 313.58L339.864 313.503L339.315 313.272L338.767 312.963H338.402L338.128 313.04L337.854 313.195L337.579 313.426L337.397 313.658L337.214 313.889L336.94 314.507L336.757 314.738L336.575 315.124L336.392 315.433L336.026 315.896L335.844 316.127L335.57 316.359L334.93 316.668L334.199 316.822H333.834L333.011 316.745L332.372 316.899L332.189 316.822L331.915 316.745H331.641L331.367 316.822L331.093 316.899L330.819 317.208L330.545 317.439L330.271 317.517H330.088H329.814H329.722L329.54 317.594H329.448L329.266 317.517L329.083 317.362V317.285V317.208V317.053H328.992H328.9H328.717H328.626H328.352L328.261 316.976L327.987 316.59L328.078 316.282L327.804 315.973V315.664L327.895 315.587L327.438 315.51L326.982 315.433H326.159L325.337 315.51H325.154H324.972L324.515 315.433L323.875 315.278L323.784 315.201L323.601 315.124L323.51 314.97H323.053L322.505 314.815L322.231 314.738L321.865 314.661L321.591 314.507L321.043 314.352L320.495 314.198V313.735L320.586 313.349V313.195L320.678 313.117L320.86 313.04V312.886L320.678 312.5L320.495 312.191L320.586 311.96V311.497V311.419L320.404 311.188L320.495 310.956H320.038L319.947 310.725L319.855 310.416L319.764 310.185V310.107V309.953L319.673 309.413L319.49 309.027L319.307 308.872L319.216 308.795H318.942L318.759 308.718L318.028 308.409H317.754L316.566 307.715L316.018 308.023L315.836 308.255L314.922 308.332L314.739 307.792L314.648 307.638L314.374 307.56L313.917 307.869L313.643 308.101H313.46V307.792L313.186 307.252L313.003 307.406L312.729 307.483L312.547 307.175L312.09 307.02L311.907 306.943L311.359 307.175H310.445L310.354 307.097H310.171H309.988L309.714 307.02H309.44L309.258 306.48L308.892 306.557L308.527 306.326L308.344 306.403L307.887 306.094L307.065 305.554L306.425 305.091L306.151 304.859L305.694 304.705L305.329 304.936L304.964 304.319L304.324 304.55L304.141 304.087L303.685 304.319L303.502 304.242L303.319 303.701L303.045 303.624H302.954H302.588L302.497 303.547L302.314 303.701H302.04L301.857 303.47L301.949 303.161L301.126 303.084L300.487 303.007L300.121 302.93L299.847 303.084H299.665L299.573 303.161L298.477 303.547L298.203 303.624L297.929 303.316L297.381 303.007L297.198 302.621L297.107 302.312L297.198 301.849L296.924 301.926L296.65 301.772L296.558 301.463L296.193 301.54L296.01 301.309L295.827 301.54L295.279 301.463L294.822 301.618L294.548 301.54H294.274L294.092 301.232L293.818 301L293.726 300.691L293.452 300.46L293.087 300.306L292.813 300.228L292.447 300.151L292.082 300.074L291.716 300.151L291.351 300.074L290.985 300.228L290.711 300.46L290.163 300.383L289.798 300.306L289.524 300.074L289.249 299.997H288.884L288.701 299.92L288.153 299.997L287.97 299.92L287.788 300.074H287.331L286.965 299.997L286.6 299.842L286.143 299.765L285.778 299.688L285.595 299.534L285.504 299.457H285.321L284.955 299.225L284.59 299.148H284.316L283.951 299.302L283.676 299.457L283.311 299.534L282.946 299.688L282.58 299.92L282.032 299.842L281.758 299.92L281.575 300.074L281.392 300.228L280.844 300.306L280.661 300.228L280.479 299.92L280.205 299.765L280.113 299.457L279.839 299.225L279.474 299.148L279.108 299.071H278.652L278.286 299.148H277.829L277.464 299.071L277.19 298.916L276.824 298.762L276.55 298.53L276.276 298.376L276.093 298.145L275.819 297.913L275.545 297.759L275.271 297.604L275.088 297.373L274.723 297.218L274.358 297.141L273.901 297.064L273.444 296.987L273.261 296.755L272.987 296.524L272.53 296.447L272.256 296.292L272.074 296.061L271.891 295.829L271.799 295.52L271.891 295.135L272.074 294.44L272.165 294.131L272.348 293.822L272.53 293.051L272.622 292.742L272.713 292.356L272.804 291.97L272.987 291.661L273.079 291.353L273.17 290.967V290.581V290.195L273.079 289.964L272.804 289.732L272.53 289.5L272.256 289.346L272.074 289.115L271.799 288.96L271.617 288.729L271.434 288.497L271.251 288.188V287.802L271.16 287.494L271.069 287.262L270.886 286.953L270.429 286.568L270.155 286.336L269.698 286.259L269.333 286.182L269.059 286.027L268.785 285.796L268.693 285.564L268.419 285.333V284.947V284.561V283.866L268.236 283.249L268.054 282.94L267.962 282.709L267.871 282.4L267.688 282.168L267.505 281.937L267.231 281.705L266.957 281.628L266.592 281.474L266.409 281.242L266.135 280.625L266.044 280.393L266.135 279.93V279.621L265.952 279.313L265.861 279.236L265.313 279.313L265.039 279.236H264.765L264.582 279.158V278.85L264.399 278.772H263.851L263.486 278.927L263.12 279.004L262.663 278.541L262.207 278.772L262.115 278.927L262.024 279.004L261.384 279.236L261.11 279.467L260.927 279.699L260.745 280.007L260.653 280.239L260.471 280.548L260.288 280.856L259.923 281.397L259.648 281.551L258.735 282.014L258.369 282.091L258.095 282.246L257.73 282.4L257.456 282.631L257.273 282.863L257.09 283.094L256.908 283.326L256.634 283.558L256.177 283.789L256.085 283.866L255.72 283.943H255.263L254.898 283.789L254.441 283.712L253.801 283.48L253.162 284.329L253.07 284.175L252.979 284.252H252.796L252.705 284.098L252.248 283.326L252.065 283.017L251.974 282.709H251.609H251.152H250.786L250.604 282.863H250.421L249.873 282.786L249.507 282.709H249.233H248.959H248.776L248.594 282.554L248.32 282.709L247.954 282.631L247.406 282.709L246.949 282.477L246.767 282.323L246.127 282.4L245.67 282.246L245.213 282.091L244.848 281.86L244.482 281.782L244.208 281.705L243.569 281.782L243.295 281.551L243.021 281.319L242.747 281.165L242.473 281.088L242.381 280.933L242.198 280.856L241.559 280.702L241.285 280.47H240.919L240.737 280.085L240.554 279.93L240.28 279.699L239.914 279.621L239.823 279.467L239.549 279.39L239.366 279.236L239.275 279.004V278.85V278.772L239.184 278.618L239.001 278.541L238.909 278.464L238.818 278.541L238.635 278.618L238.27 278.695L237.996 278.85L237.722 279.004L237.356 279.081L236.991 279.236L236.717 279.313L236.351 279.467H235.895L235.529 279.544L235.164 279.467H234.615H234.159H233.793L233.154 279.776L232.697 280.085L232.514 280.393L232.24 280.625L231.966 280.779L231.418 281.088L231.052 281.165L230.504 281.088L230.139 281.011L229.773 280.856L229.225 280.47L229.042 280.239L228.129 279.776L227.763 279.699L227.307 279.621H226.85L226.484 279.699L225.753 279.776L225.297 279.853H224.931H224.474L224.018 279.776H223.104L222.739 279.853H222.282L221.551 280.007L221.185 280.085L220.911 280.162L220.546 280.316L220.272 280.47L219.906 280.625L219.45 281.011L219.175 281.165L218.353 281.705L218.079 281.937L217.896 282.091L217.622 282.246L217.348 282.477L217.074 282.709L216.8 282.863L216.617 283.094L216.343 283.249L215.795 283.635L215.43 283.712L215.338 284.021L215.064 284.175L215.338 284.407L215.247 284.484L215.156 284.561L215.064 284.638L214.973 284.715L214.881 284.792L214.699 284.715L214.607 284.792L214.699 284.87V285.101L214.881 285.41V285.641L215.064 285.873L215.247 286.413V286.49H215.156L215.064 286.568L215.156 286.645V286.722H215.338L215.521 286.876L215.612 286.953L215.795 287.031H215.886L216.069 286.953L216.161 287.417L216.069 287.648L216.161 287.802H216.343V287.957L216.435 288.343L216.526 288.497L216.252 288.574L216.161 288.651H216.069V288.806H215.978V288.96H215.795V289.037V289.115L215.612 289.192L215.43 289.578L215.521 290.041V290.89V290.812L215.064 290.658H214.79L214.699 290.89L214.607 290.967V290.89L214.516 290.735H214.425H214.242H214.151L214.059 290.581H213.968L213.785 290.504L213.602 290.581L213.511 290.504L213.328 290.581L213.237 290.504L213.054 290.427H212.963L212.872 290.504L212.78 290.581H212.689L212.506 290.658V290.735L212.232 290.658H211.775L211.41 290.735L211.044 290.812L210.77 290.89L210.496 290.812L210.131 290.89L209.857 290.967L209.4 291.044H209.126L208.943 291.198L208.669 291.044L208.029 290.735L207.755 290.504L207.481 290.349L207.116 290.195L206.933 290.041L206.568 289.886L206.111 289.809L205.745 289.886L205.38 289.964L204.558 290.041H204.192L203.827 290.195L203.461 290.272L203.096 290.349L202.73 290.427H202.365L202.091 290.272L201.725 290.349L201.543 290.427L200.995 290.504L200.538 290.581L199.99 290.658H199.076L198.802 290.735H198.436L198.162 290.812L197.888 290.735L197.523 290.812L197.066 290.735L196.883 290.89L196.609 290.812L196.152 290.89V290.812L196.061 290.735L195.787 290.812L195.696 290.735L195.33 290.504L194.873 290.812L194.599 290.658L194.325 290.504L193.686 290.195L193.32 290.041L192.955 289.964H192.041H191.767L190.945 290.118L190.488 290.041L190.031 289.964L189.666 289.886L188.844 289.655L188.569 289.5L188.204 289.423L187.382 288.806L187.108 288.729L186.559 288.343L186.194 288.188H185.829L185.463 288.266L185.006 288.343H184.641L183.819 288.111L183.453 288.034H182.996L182.722 288.111L182.357 288.266L181.991 288.343L181.626 288.42L180.895 288.497L180.53 288.574L180.256 288.729L179.89 288.806L178.702 288.96H176.967L176.51 289.037H176.144H175.688L175.322 289.115L174.957 289.269L174.591 289.346L174.408 289.423L174.043 289.5L173.586 289.578H173.221L172.764 289.655H172.399L171.576 289.732L171.211 289.809L170.845 289.886L170.571 289.964L170.114 290.041L169.658 289.964L169.201 290.041H168.379H167.922H167.556L167.191 290.195L166.369 290.272L166.003 290.349L165.821 290.504L165.455 290.658L164.998 291.044L164.724 291.276L164.45 291.43L163.993 291.893L163.811 292.125L163.354 292.588L163.08 292.819L162.806 292.973L162.532 293.128L162.257 293.282H161.892L161.527 293.514L160.978 293.745L160.613 293.822L160.339 293.977L159.973 294.054L159.334 294.363L159.06 294.517L158.877 294.98L158.329 295.135L157.872 295.289L157.507 295.443L157.233 295.598L156.684 296.061L156.593 295.906L156.502 295.983L156.319 295.906V295.983H156.136V296.061H155.954V296.138L156.045 296.215L155.954 296.292L155.862 296.215V296.138L155.771 296.215V296.292H155.588L155.497 296.215L155.405 296.292V296.369V296.524H155.223L155.131 296.601L155.04 296.524H154.949L154.857 296.601L154.674 296.678L154.766 296.832H154.583L154.492 296.755L154.4 296.678L154.309 296.755H154.218V296.678H154.126L154.035 296.832H153.852V296.987H153.761V297.141H153.669H153.578V297.218L153.669 297.296H153.578H153.487L153.395 297.373L153.487 297.45L153.304 297.527L153.213 297.45H153.03V297.681L152.939 297.759V297.836V297.913V297.99H153.03L152.939 298.067H152.847H152.756L152.847 298.145L152.939 298.222H152.756V298.299L152.847 298.376L152.939 298.453H152.847H152.756L152.665 298.53V298.608H152.573L152.482 298.53L152.573 298.453H152.482L152.39 298.53V298.608H152.299V298.53L152.208 298.608L152.116 298.53L152.025 298.299V298.222H151.934H151.842L151.751 298.145L151.66 298.222L151.568 298.067L151.477 298.145V297.99H151.385L151.203 298.067L151.111 297.99H151.02L150.929 297.836L150.837 297.913L150.746 297.99H150.655L150.563 297.913V297.99L150.655 298.067L150.472 298.145V298.067H150.38L150.289 298.145V298.222L150.198 298.299V298.376L150.106 298.453L150.015 298.376H149.924H149.741L149.65 298.299L149.558 298.222V298.376L149.65 298.453H149.558L149.467 298.53L149.376 298.453L149.284 298.53L149.193 298.608L149.101 298.53V298.608H149.01L148.919 298.53L148.827 298.453L148.736 298.53L148.553 298.453V298.608V298.685L148.371 298.762H148.279L148.371 298.916H148.188L148.279 299.071H148.188H148.096L148.005 299.148H147.914V299.071L147.731 299.225H147.64L147.548 299.379L147.457 299.457L147.366 299.534H147.274V299.611H147.091L147.183 299.765V299.842H147L146.909 299.92H146.817L146.726 300.151H146.543V300.228H146.635V300.306L146.452 300.383L146.361 300.46L146.452 300.537H146.269L146.178 300.46L146.087 300.614L145.995 300.537L145.904 300.614V300.691V300.769H145.995L145.904 300.846L145.995 301L145.904 301.077H145.812V301.232H145.721L145.63 301.309V301.232H145.538V301.309L145.264 301.386H145.082H144.99L144.899 301.463L144.99 301.54H144.899L144.807 301.695H144.716L144.625 301.772V301.926V302.003V302.081H144.533L144.442 302.158H144.533L144.625 302.235L144.442 302.312V302.389L144.351 302.312V302.467H144.259L143.985 302.544H143.894L143.802 302.621L143.62 302.775V302.852V302.93V303.007H143.711L143.528 303.084L143.437 303.007L143.254 303.161H143.346H143.437V303.316L143.528 303.393L143.62 303.47L143.711 303.547L143.62 303.779H143.528H143.437V303.856H143.254H143.163V303.933L143.346 304.01L143.254 304.087L143.072 304.242L142.98 304.165V304.319H142.798H142.706V304.396L142.615 304.473V304.55L142.523 304.705L142.798 304.782H142.706H142.615V304.859H142.523L142.249 304.782H142.158L142.067 304.859H141.975L141.884 304.936H141.701L141.61 305.013V305.091L141.427 305.168V305.245H141.336L141.244 305.322V305.477L141.427 305.554L141.518 305.631L141.427 305.708L141.336 305.785L141.244 305.708L141.336 305.631H141.244H141.153V305.708H140.879H140.696V305.862L140.513 306.017L140.422 306.094V306.171H140.331V306.094H140.148L140.057 306.248H140.148L140.057 306.326H139.965L139.783 306.403H139.6L139.508 306.48L139.326 306.557L139.143 306.634L139.052 306.789L138.96 306.943L139.052 307.02H139.143H139.234L139.143 307.175H138.96V307.329V307.406L138.686 307.56H138.504L138.412 307.715L138.321 307.638L138.138 307.715H138.229L138.138 307.792L138.047 307.869V307.946L138.229 307.869V307.946L138.047 308.023L137.955 307.946L137.864 307.869V307.946V308.023H137.773L137.681 308.178V308.255H137.59L137.499 308.178V308.332V308.255L137.407 308.101H137.316H137.133L136.95 308.255H136.859V308.332L136.768 308.409L136.585 308.332V308.409V308.487V308.564L136.494 308.641L136.402 308.564H136.311L136.402 308.641H136.219L136.128 308.718L136.037 308.872L135.854 308.95L135.671 309.104L135.58 309.027V309.104V309.258V309.413L135.489 309.49H135.397H135.306L135.489 309.413V309.336V309.258H135.397L135.306 309.181L135.123 309.104L134.94 309.258V309.181L134.849 309.258L134.94 309.104H134.849L134.758 309.181L134.666 309.104H134.575V309.336V309.181H134.392L134.484 309.336L134.301 309.413L134.21 309.567V309.49L134.301 309.413L134.21 309.336V309.258L134.027 309.336V309.413V309.49V309.567L133.935 309.644L133.844 309.567L133.753 309.799H133.57L133.661 309.876L133.479 309.799L133.387 310.03H133.479L133.387 310.185L133.479 310.339H133.387V310.416H133.296L133.205 310.339L133.113 310.416H133.022L133.113 310.493H132.93V310.57H132.839V310.648L132.656 310.57L132.565 310.725H132.656H132.748V310.879H132.93V310.956H132.656L132.565 311.034L132.656 311.111L132.565 311.188V311.265L132.474 311.342H132.382H132.291L132.382 311.419H132.291V311.497V311.574H132.2V311.651H132.017V311.574V311.651V311.805H131.926L131.834 311.651L131.743 311.728V311.805V311.96L131.651 312.114V312.268H131.743L131.834 312.346L131.743 312.423L131.651 312.346L131.56 312.423V312.5V312.423L131.469 312.5L131.56 312.577L131.469 312.654L131.56 312.731H131.469L131.651 313.04V313.117H131.56L131.469 313.195L131.651 313.272V313.349H131.56H131.469L131.377 313.272V313.349H131.286V313.426H131.377V313.503L131.286 313.658L131.195 313.812L131.103 313.889L131.012 313.966L130.921 313.889V313.966L131.103 314.121H131.012L131.103 314.198V314.275H130.921L130.829 314.198L130.921 314.429H130.829L130.646 314.507L130.555 314.661H130.372L130.464 314.738L130.555 314.892H130.464H130.372H130.281V314.97L130.464 315.124V315.201H130.555V315.278V315.433V315.587H130.646L130.555 315.664L130.464 315.587L130.372 315.664V315.741H130.19L130.281 315.819H130.098V315.973L130.007 316.05L129.916 315.973L130.007 316.05L130.098 316.127V316.282H129.916V316.205V316.127L129.733 316.282V316.436H129.916V316.513H129.824L129.733 316.59V316.513L129.641 316.59V316.668V316.745L129.733 316.822H129.55V316.899H129.733V316.976H129.641H129.55V317.053L129.459 317.131V317.208H129.55V317.285H129.641V317.362L129.733 317.439V317.517L129.641 317.671V317.902L129.824 318.134H129.916L130.098 318.211L130.19 318.288L130.372 318.211H130.646H130.738L130.829 318.288L130.921 318.211V318.288L131.012 318.443L131.103 318.597L131.195 318.829L131.103 319.446L130.921 320.064L130.829 320.99L130.738 321.144L130.555 321.221L130.464 321.684L130.281 321.916L130.19 322.147V322.919L130.007 323.614L129.459 323.922L128.728 324.231L128.637 324.617L128.728 324.926H128.819L128.728 325.003V325.08V325.235H128.545V325.157L128.454 325.08L128.362 325.157V325.312H128.271L128.088 325.235L127.997 325.312L128.088 325.389V325.543H127.997L127.906 325.466H127.814V325.543L127.632 325.62L127.449 325.543L127.357 325.62H127.266L127.175 325.543L127.083 325.466V325.62H126.901L126.809 325.543L126.718 325.62L126.627 325.543V325.62H126.535L126.444 325.775L126.535 325.698L126.718 325.775L126.627 325.852L126.444 325.775L126.352 325.852L126.444 325.929L126.352 326.006L126.261 326.161L126.17 326.238L126.078 326.392L125.987 326.315V326.469L125.896 326.547L125.804 326.624V326.701V326.778L125.622 327.01L125.439 327.241L125.256 327.318V327.55L125.073 327.704L124.891 327.859L124.708 328.013L124.16 328.245L123.977 328.399V328.476L123.612 328.63L123.338 328.862H123.155H123.063H122.972L122.881 328.939L122.789 328.785L122.698 328.862L122.607 328.785L122.515 328.862L122.424 328.785L122.515 328.708H122.424L122.333 328.63L122.424 328.553H122.333H122.15V328.63H121.876L121.784 328.708L121.693 328.63L121.784 328.476H121.693L121.602 328.553V328.476H121.51L121.419 328.553H121.328H121.236L121.328 328.476V328.399V328.322V328.245L121.054 328.167H120.871H120.779V328.245H120.688H120.597L120.505 328.322L120.414 328.245L120.323 328.167L120.14 328.09L120.049 327.936L119.957 327.781L119.774 327.704L119.592 327.781V327.704L119.409 327.627H119.226L119.135 327.55V327.473L118.952 327.55V327.473H118.77H118.587H118.495L118.587 327.55L118.495 327.627L118.404 327.55H118.313L118.221 327.627L118.13 327.704L118.039 327.936L118.13 328.013L118.039 328.167L117.947 328.245L117.856 328.167V328.09L117.765 328.167H117.582L117.673 328.09L117.582 328.013L117.49 328.09H117.399L117.49 328.167H117.399L117.308 328.09L117.216 328.167L117.308 328.245L117.216 328.322H117.125H117.216L117.125 328.245L116.942 328.322V328.245H116.851L116.942 328.399V328.476L116.76 328.322L116.668 328.245L116.577 328.476L116.485 328.399L116.303 328.476V328.553H116.211V328.63L116.12 328.708L116.029 328.785L115.937 328.862V328.939L115.846 328.862L115.755 328.939V328.862L115.663 328.939L115.572 329.016H115.481H115.389V329.094H115.298L115.115 329.016H115.024L114.932 328.939V329.016L114.75 329.094V329.171H114.658H114.567L114.476 329.248V329.325L114.384 329.402V329.325L114.293 329.557L114.11 329.711L114.019 329.788L113.927 329.711V329.865H113.745H113.653L113.471 329.788H113.379L113.105 329.865L113.014 329.942L112.922 330.097L112.74 330.251L112.557 330.406V330.483L112.374 330.56L112.283 330.714L112.192 330.791H112.1H112.009L111.917 330.869L111.643 330.946L111.552 331.023L111.461 331.1L111.369 331.177L111.278 331.255L111.187 331.332H111.004L110.912 331.409L110.821 331.486H110.73L110.547 331.64L110.273 331.718L108.08 333.338L105.248 334.033L101.776 333.879L100.589 335.036L99.8578 335.499L99.675 335.577H99.5837V335.731L94.102 335.268L90.0821 334.882L88.7117 334.805L87.7067 334.419L86.2449 334.342L85.7881 334.265H85.3313L84.3264 334.187L83.5955 332.258L83.4128 331.872L83.3214 330.791L82.8646 329.248L82.4078 328.167L80.3978 322.379L79.7583 320.604L79.0274 318.983L77.7484 315.278L76.7434 311.342L76.1039 307.638L76.0125 306.789L75.8298 304.165L75.647 300.923L75.8298 297.99L76.1039 294.903L76.4693 292.588V292.433L77.2002 289.655L78.1138 286.49L78.4792 284.098L78.662 281.011L78.8447 276.843L79.0274 273.833L78.9361 273.061L78.662 272.212L78.2052 271.209L77.7484 270.051L77.5656 268.662L77.1088 266.81L76.7434 265.112V263.337L76.9261 261.716L77.657 258.706L78.2052 256.776L79.0274 255.464L80.3065 252.84L80.5805 252.454L81.0374 251.991L81.6769 251.297L82.0423 250.448L82.3164 249.444L82.4078 248.364L82.4991 247.823L83.0473 246.743L83.6868 245.74L83.9609 245.431L84.5091 244.813L85.24 243.887L85.8795 243.193H86.7017L87.2499 242.189L87.4326 241.109L86.7017 240.954L85.9709 240.414L86.1536 239.411L86.3363 238.408H86.9758L87.0672 237.867L86.519 237.404L86.0622 237.636L85.6054 238.099L85.0572 237.944L85.24 237.327L85.514 236.787L85.1486 236.555L84.8745 236.941L84.5091 237.404H84.235L84.0523 236.71L84.3264 236.247L84.5091 235.706L84.1436 235.783L83.6868 236.169L83.23 236.015L82.6819 235.783L81.7682 236.247L81.4028 236.941L81.4942 237.867L80.5805 237.559L80.1237 236.555L80.0324 235.552V234.78L79.8497 233.391L80.1237 232.388L79.8497 232.002L79.3929 232.31L79.1188 232.928L79.3929 233.314L78.9361 233.7L78.2052 233.468L77.4743 233.391L76.8347 233.082L76.1952 232.928L75.9211 232.31V231.616L75.8298 231.153L75.2816 231.23L75.0075 231.77L74.6421 232.233L74.2766 232.156V231.77V231.153H73.9112L73.4544 230.998L73.1803 230.535H72.7235V229.686L72.084 229.763L72.1753 230.304L72.6321 231.076V231.924L72.4494 232.696L71.9012 232.465L71.8099 231.77L71.3531 231.384L71.079 230.535V229.763L70.6222 229.378L70.3481 230.149L70.2567 230.921L69.7999 229.763L69.6172 228.76L69.5258 227.988L69.2518 227.448L69.8913 227.062L70.5308 226.908L70.9876 226.213L70.6222 225.75L71.079 225.056L71.3531 224.284L70.6222 224.515L70.1654 224.978L69.6172 225.441L69.2518 225.364L69.5258 224.901L69.8913 224.515L70.074 223.821L70.2567 222.972V222.431L70.5308 222.046L70.1654 221.66L68.9777 221.814L68.795 222.354L68.1554 222.972L67.6073 223.666L67.2418 224.207L67.0591 224.901L67.1505 225.519L67.6986 226.213L67.6073 226.908L67.3332 227.757L67.2418 228.529L66.6936 228.606V227.988L66.785 226.831V225.904L66.1455 225.827L65.506 225.364L65.78 224.978L65.4146 224.67L64.9578 224.592V224.052L64.501 223.821L64.7751 222.817L65.0491 222.123L65.6887 221.66L66.1455 221.274L66.3282 220.888L66.1455 220.656L65.2319 221.042L64.3183 221.582L63.4047 222.046L63.6787 221.351L63.3133 220.888L62.3997 221.042L61.9429 220.502L62.1256 219.421L62.7651 218.341L63.3133 217.492L63.5874 216.874L62.9478 217.26L62.3083 217.878L61.4861 218.264L61.1206 218.495L61.212 217.878L61.0293 217.646H60.4811L60.7552 216.874L61.3947 216.18L61.4861 215.331L61.0293 215.485L60.4811 216.334L59.7502 216.874L59.6588 216.18L60.207 215.485L60.5725 214.559L61.1206 213.942V213.479L60.5725 213.633L59.5675 214.405L58.6539 214.791L57.923 215.64L57.4662 216.18L56.8266 215.948L57.3748 215.254L58.1057 214.405L57.5575 213.942L56.8266 214.25L56.2785 214.945L55.7303 215.177L55.913 214.636L56.0044 214.25L56.0958 214.096L56.1871 214.019L56.2785 213.71L56.3698 213.633V213.556L56.4612 213.479L56.5526 213.401V213.324L56.4612 213.401H56.3698H56.2785H56.0958L55.639 213.71L55.1821 214.019L54.634 214.25L54.3599 214.559L53.629 214.713L53.2636 214.791V214.868L52.9895 214.945L52.8981 215.099L52.8068 214.713L52.9895 214.636L53.7204 214.173L53.629 214.096L53.7204 213.864H53.629L53.5376 213.787L53.3549 213.864V213.71H53.2636V213.633L53.0808 213.71L52.8981 213.633L52.9895 213.479L53.1722 213.401L53.0808 213.093L52.9895 212.861L53.1722 212.398L52.9895 212.244H52.7154L52.4413 212.321V212.63H52.1672L51.8931 212.707L50.9795 213.016L49.8832 213.324L48.8782 213.247L47.3251 213.016L46.2287 212.63L46.1374 212.012L45.3151 211.858L44.3102 211.626H43.762L43.3052 211.703L43.2138 211.781L43.1225 211.858L43.0311 211.781H42.8484L42.4829 211.858L42.1175 212.244L41.1125 212.707L40.3816 212.784L39.5594 212.938L39.468 213.324L39.9248 213.864L40.5644 214.096L41.3866 213.864L42.5743 214.019L42.2089 214.945L41.3866 215.948L40.9298 216.566L40.6557 217.492L40.1076 219.344L40.5644 220.502L40.9298 221.582V222.354L40.473 222.509L40.1076 221.737L39.9248 220.27L39.7421 218.958V216.797L39.1939 214.868L38.4631 213.479L37.6408 211.781L37.5494 211.549L37.4581 211.395L37.3667 211.318L37.184 211.163L37.0926 211.009L36.7272 210.623L36.5445 210.546H36.2704V210.469L36.179 210.314L36.0877 210.469V210.391L35.9963 210.469V210.546L36.0877 210.7V210.777V210.854H35.9963V210.469V210.391L36.0877 210.237V210.005V209.851L35.9963 209.697L35.9049 209.62L35.9963 209.079L36.179 208.539L36.4531 208.153L37.3667 206.918L39.3767 204.757L40.6557 202.982L42.757 200.127L43.6706 198.814L44.4015 197.194L45.0411 195.187L45.6806 193.798L46.5028 193.18L47.5078 193.026L48.1473 193.258L48.6041 193.952L47.8733 194.338L47.051 194.415L46.4115 194.57L45.8633 195.496L45.5892 196.576L44.9497 197.271L44.5842 198.197L44.2188 199.2L43.8534 200.204L43.4879 200.667L43.0311 201.284L43.3052 202.056L43.3966 202.673H44.3102L45.7719 202.365L47.5078 202.133L50.4314 201.747L52.624 201.439L54.8167 201.361L55.8217 201.902L56.6439 202.596L57.1921 203.291L56.918 203.908L57.1921 204.68L56.6439 205.452L56.0044 206.301L55.3649 206.995L54.8167 207.459L54.7253 208.153L54.634 208.771L55.0908 207.536L56.0044 206.995L56.7353 206.147L57.3748 205.066L57.923 204.449L58.6539 204.834L58.3798 205.683L57.6489 206.378L57.2835 207.15L56.6439 207.69L56.3698 208.385L56.5526 208.848L57.3748 208.308L57.923 207.459L58.8366 206.841L59.7502 205.992L60.5725 205.606H61.3947L61.8515 206.378L62.3997 206.687L63.1306 206.532L63.6787 205.992L63.9528 205.066L63.7701 203.908L64.0442 203.059L64.6837 203.137L64.8664 203.677L65.2319 204.603L66.0541 205.143H67.1505L68.5209 204.526L68.4295 203.985L68.0641 203.908L67.79 203.368L67.4245 203.445L67.3332 202.828L67.79 202.365L68.3382 201.824L68.5209 202.673H69.2518L69.7086 201.979L70.074 201.439L70.1654 200.975L70.3481 200.667L70.7135 200.821L70.8963 200.975L70.8049 201.361L70.6222 201.67L70.2567 202.288V202.365L70.8963 202.596L71.3531 202.442L71.4444 202.365V201.979L71.6272 201.593V201.439V201.284V201.207L71.3531 201.284L71.079 201.207V200.898L71.1703 200.744H71.8099L72.084 200.281V200.127L71.9926 200.049L71.6272 199.895L71.3531 200.049L71.1703 200.435L71.079 200.59V200.898H70.9876L70.8049 200.744L69.9827 200.435L69.5258 200.667L68.9777 200.049L67.6073 200.744L66.9677 200.59L66.4196 199.663L65.9628 198.969L66.3282 198.583L66.785 197.965L66.8764 196.962L66.5109 196.268L65.9628 196.576L65.5973 196.036L65.3232 196.113L65.5973 196.731L64.9578 196.499L64.7751 196.036L64.501 195.882L64.2269 195.573L63.5874 196.036L64.2269 196.653L64.3183 197.502L63.1306 196.576L62.3997 197.117L61.7601 197.039V196.422L62.3997 196.036L62.6738 195.496L62.3997 195.264L62.3083 194.415L62.0342 193.952L61.5774 193.721L61.1206 194.029L60.8465 194.492L61.0293 195.187V195.573L60.4811 195.11L60.207 194.492H59.6588L59.4761 193.952L59.0193 193.335L58.1057 191.945L57.6489 191.482L57.1007 190.788L56.5526 190.711L56.4612 191.174L56.8266 191.945L57.3748 192.331L57.5575 192.872L57.4662 193.18L56.7353 192.872L56.4612 192.331L56.1871 191.868L55.8217 191.56L55.4562 191.791L55.7303 192.563L56.1871 193.335L56.3698 193.643L56.6439 193.721L56.918 193.952V194.029V194.107L56.8266 194.184H56.6439L56.4612 194.338L56.1871 194.415L55.913 194.338L55.639 194.029L55.2735 193.489L54.9994 193.026L54.8167 192.64L54.634 192.331L54.5426 191.637L54.634 190.788L54.9081 188.935L55.4562 187.392L55.2735 187.006L54.9081 187.315L54.634 188.087L53.9944 188.704L53.629 188.395L53.7204 187.16L54.5426 186.697L55.2735 186.157L55.8217 184.845L56.7353 182.993L58.3798 181.835L59.2934 180.754L60.4811 179.905L62.5824 179.674L63.1306 178.979L64.0442 178.362L65.8714 178.902L67.2418 179.288L68.8863 179.983L70.7135 180.137L72.9062 180.523L73.4544 181.449L72.358 183.301L72.6321 183.764L72.358 183.919L72.2667 184.305L72.7235 184.382L72.9976 184.768L72.2667 185.077V185.308H72.358V185.54L72.6321 185.617L73.363 184.999H73.6371L73.8198 185.231L74.1853 185.154V185.462L73.6371 185.617L72.8148 186.389L73.2717 186.234L73.5457 186.389L73.7285 186.311L74.1853 186.389L74.6421 186.003V185.771L76.5607 184.305L77.2002 184.768L78.3879 185.231L80.1237 185.308H81.6769L82.4078 185.925V186.157L82.4991 186.466L85.7881 186.62L88.1635 186.929L91.5439 187.546L92.5489 187.778L93.7366 187.315L90.9044 185.617L87.7981 183.996L85.7881 182.221L83.1387 181.835L79.5756 180.909L77.0175 179.751L74.368 177.204L73.2717 177.127L72.7235 176.587L68.8863 175.198L67.1505 174.117L65.5973 173.422L63.7701 173.654L62.8565 173.5L61.9429 173.808L61.1206 174.04L61.0293 174.58L60.8465 174.657L60.5725 174.734L60.2984 174.812L60.207 174.889H60.0243H59.9329L59.6588 174.812V174.734L59.4761 174.58L59.2934 174.426L59.1107 174.349L58.7452 174.271L58.5625 174.349H58.4711H58.2884L58.1057 174.58L58.0143 174.812L57.8316 174.889L57.6489 174.812L57.4662 174.657V174.734L57.3748 174.657L57.1007 174.503L56.918 174.426L56.8266 174.271V174.194L56.2785 173.5L55.2735 172.959L54.2685 172.651H53.2636L53.1722 172.728L52.9895 172.651H52.8068L52.4413 172.805L52.3499 172.959L51.8931 173.345L51.5277 173.731L51.2536 173.885L50.9795 174.04L50.7054 174.271L50.6141 174.426H50.5227L50.34 174.58L48.7869 175.275V175.506L48.6041 175.583L48.056 175.892L47.4164 176.818L47.2337 177.127L47.051 177.204L46.1374 177.127L45.5892 176.895L44.8583 176.51L43.9447 175.969L43.6706 175.738L43.2138 175.583L42.4829 175.352L42.3002 175.275H42.2089L42.1175 175.12L42.0261 175.043L41.8434 174.966L41.5693 174.889L41.478 174.734L41.2039 174.657H41.0212L40.8384 174.58L40.6557 174.503L40.473 174.426L40.1076 174.349L40.0162 174.271L39.9248 174.349H39.8335L39.7421 174.426L39.6507 174.503H39.1026L38.6458 174.426L38.4631 174.349L38.2803 174.426L38.0976 174.349L37.6408 174.503L37.4581 174.58V174.657V174.966L37.5494 175.043H37.4581V175.198L37.6408 175.275L37.7322 175.352H37.8235L37.7322 175.429H37.6408L37.5494 175.506V175.583H37.3667L37.184 175.738L37.0013 175.969H36.9099L36.7272 175.892V175.815H36.5445L36.2704 175.738L35.9963 175.661L35.8136 175.738H35.6309H35.4481L34.9 175.892L34.7172 175.969L34.6259 176.124H34.5345L34.3518 176.047L34.1691 176.124L33.895 176.047L33.7123 175.892H33.6209H33.5295V175.815L33.6209 175.738L33.8036 175.661L34.0777 175.583L34.1691 175.506L34.2604 175.352V175.198H34.1691V175.12V175.043L34.3518 174.966V174.889L34.2604 174.657L34.1691 174.503H33.8036H33.6209L33.5295 174.426H33.2555L33.1641 174.503H33.0727V174.58H32.7987V174.657L31.885 174.734V174.58H31.7937L31.611 174.734L31.5196 174.657V174.58L31.3369 174.503L31.2455 174.58V174.426L30.8801 174.503L30.7887 174.426L30.606 174.58L30.5146 174.657L30.4233 174.734V174.812H30.3319L30.2405 174.966H30.3319H30.2405L30.0578 175.12L29.9665 175.275V175.352H29.8751L29.7837 175.429H29.601H29.5097V175.506L29.3269 175.429L29.1442 175.506H29.0529L28.7788 175.352H28.6874H28.5047L28.4133 175.429L28.322 175.506L28.2306 175.429L28.1392 175.352V175.12V174.889L27.7738 174.734H27.6824H27.4083L27.317 174.657L27.2256 174.58H26.8602L26.5861 174.503H26.4034L25.7638 174.734L25.4898 174.889L25.3984 175.043L25.1243 175.661H25.307V175.815L25.3984 175.892L25.307 176.124L25.1243 176.355V176.51L25.2157 176.664L25.3984 176.895L25.6725 177.05V177.59L25.7638 177.822L25.8552 177.976V178.516L25.9466 178.902L26.1293 179.597L26.312 180.214L26.4034 180.523L26.4947 180.677H26.5861V180.986V181.295L26.6775 181.526L26.8602 182.144L27.0429 182.684L27.317 182.993L27.7738 183.147L27.8652 183.224H27.9565V183.301L27.7738 183.379L27.5911 183.301H27.4083L27.0429 183.224L26.8602 183.147L26.7688 183.07L26.4947 182.915L26.2207 182.838L25.9466 182.607L25.8552 182.452L25.7638 182.375V182.298L25.6725 182.144L25.5811 181.681L25.4898 181.218L25.3984 180.909L25.307 180.677V180.6L25.2157 180.523L24.9416 180.446L24.8502 180.291L24.7589 179.905L24.6675 179.674L24.5762 179.52V179.211L24.4848 179.057L24.3934 178.902L24.3021 178.825L24.1193 178.748L23.9366 178.671V178.516L23.6625 178.285H23.5712V178.208L23.4798 178.13L23.3885 178.285L23.2971 178.208L23.1144 178.13H22.8403L22.7489 177.976H22.5662H22.4748L22.2921 177.899L22.2008 177.744L22.1094 177.822L22.018 177.667L21.744 177.513H21.5612L21.4699 177.59L21.3785 177.513L21.1958 177.436L21.1044 177.204L20.9217 176.895H20.8303L20.9217 176.818L20.6476 176.124L20.5563 175.969L20.4649 175.815L20.3735 175.892V175.969L20.4649 176.047H20.3735V175.969V175.815L20.4649 175.738L20.3735 175.429L20.2822 175.352L20.0995 175.275L19.9167 175.043H19.8254H19.734H19.5513L19.3686 174.966L19.1858 174.889L18.9118 174.812H18.729H18.455L18.2722 174.734L18.1809 174.657L17.9981 174.58H17.8154L17.7241 174.503L17.6327 174.194L17.45 174.117L17.3586 174.194L17.2673 174.04V173.885L17.45 173.577V173.422L17.5413 173.036L17.6327 172.651V172.342V172.265L17.0845 171.879L16.7191 171.57L16.5364 171.261V171.03L16.1709 170.49L15.9882 170.258V169.949L16.7191 168.483L17.2673 167.016L17.3586 165.782L17.45 165.55V165.473H17.5413V165.319V165.087V164.933L17.45 164.315L17.3586 164.084V164.007V163.929L17.2673 163.775H17.1759V163.698H17.2673V163.621L17.1759 163.235L16.8105 162.617L16.1709 162.463L15.9882 162L16.1709 161.228L16.2623 160.611L16.0796 160.225L15.9882 160.148H15.8055V160.07L15.7141 159.916L15.3487 159.376L14.9832 158.604L14.8005 157.909L14.3437 157.369V156.752L14.5264 155.98V155.131L14.6178 153.973L14.7091 153.124L15.0746 151.735L15.5314 150.423L15.8055 149.265L15.7141 147.953V146.795L15.8968 145.406L16.2623 144.017L16.7191 142.782L17.2673 141.856L18.1809 140.39L19.4599 138.846L20.6476 137.225L21.8353 135.219L22.018 134.987L22.2008 134.601L22.4748 134.215L22.7489 133.829L22.8403 133.366L22.9317 132.903L23.023 132.517L23.1144 131.977V131.668L22.9317 131.128L22.8403 130.974L22.6576 130.819L22.5662 130.665L22.2921 130.588H22.2008H21.9267V130.665L21.744 130.742V130.819L21.6526 130.974L21.4699 131.051L21.2872 130.974L21.1044 130.433L21.1958 129.816L21.2872 129.507H21.3785V129.584H21.4699L21.744 129.97L21.9267 130.125L22.018 129.816V129.276L21.744 129.121L21.6526 128.967L21.4699 128.89L21.5612 128.813L21.8353 128.89H22.1094L22.2008 128.735L22.2921 128.272L22.5662 128.195L22.8403 127.964L23.5712 126.189L23.7539 125.648V124.954L23.9366 124.182L24.028 122.947L24.3934 122.638L24.7589 121.866L25.4898 119.705V119.32L25.5811 119.088L25.7638 118.856L26.0379 118.393L26.4947 117.853L27.1343 116.387L27.4083 115.538L27.4997 114.766L27.5911 114.226V113.763L27.4997 113.3L27.2256 112.528L26.9515 112.142L26.8602 112.065V111.91L26.4034 111.293V111.139L26.312 110.907L26.2207 110.521L26.1293 110.367V110.135L26.0379 110.058L25.9466 109.904L25.8552 109.981V110.135L25.7638 110.29L25.6725 110.367L25.4898 110.444L25.307 110.521L24.7589 110.135V109.904L24.2107 109.363L23.9366 109.209L23.7539 109.132L23.5712 108.9L23.2971 108.746L23.023 108.592L22.7489 108.437V108.823L22.9317 109.055L23.023 109.132L22.6576 108.9L22.5662 108.746V108.514L22.4748 108.051L22.2008 107.743L22.1094 107.357L22.018 106.971V106.508L22.1094 105.967V105.119V104.655L22.4748 103.961L22.5662 103.189L22.4748 102.263L22.2008 101.028L21.2872 99.33L20.9217 98.6354L20.739 97.9408L20.6476 97.0919V96.1657L20.5563 95.6254L20.4649 94.8536L20.0995 93.9275L19.9167 93.4644L19.734 93.0013L19.2772 92.3067L19.1858 92.1524L19.0031 91.9208L18.9118 91.7665L18.729 91.3806L18.455 90.6088L18.2722 89.9141L18.0895 89.4511L17.7241 88.9108L17.2673 88.3706L17.0845 88.139L16.8105 87.9847L16.6277 87.8303L16.445 87.9075L16.3536 87.9847H16.2623L16.1709 87.5988V87.5216H15.9882L15.8968 87.5988L15.7141 87.6759V87.7531L15.5314 87.5988L15.3487 87.3672H15.2573L15.3487 87.0585V87.1357L15.44 86.9041V86.827L15.3487 86.7498L15.44 86.6726L14.9832 86.0552L14.6178 85.5149L14.3437 85.3606L13.9783 85.129L13.8869 84.9747L13.6128 84.7431L13.3387 84.5116L13.2474 84.4344L12.9733 84.3572L12.8819 84.4344L12.7906 84.3572L12.6078 84.28L12.5165 84.3572L12.4251 84.2029V84.1257L12.3338 84.0485L12.151 83.8941L11.877 83.7398H11.7856L11.6942 83.6626L11.5115 83.1223L11.1461 82.7365L10.872 82.5821L10.4152 82.3506L10.1411 82.119L9.95837 82.0418L9.86701 81.9647L9.68428 81.8103L9.59292 81.7331L9.50156 81.8103L9.59292 81.7331L9.4102 81.5788H9.22748L9.13612 81.8103L9.22748 81.5788L8.95339 81.5016H8.86203H8.77067L8.67931 81.4244H8.58795L8.49659 81.3472L8.31387 81.27L8.2225 81.1929H7.94842L7.85706 81.1157L7.7657 81.0385L7.58298 80.9613L7.30889 80.8841V80.807L7.21753 80.6526V80.5754L7.12617 80.4983H7.03481V80.3439L6.94345 80.1124L6.66937 79.8808H6.578L6.30392 79.8036L6.1212 79.6493L5.93848 79.7265L5.84711 79.6493L5.75575 79.5721V79.4177H5.93848L6.02984 79.2634L7.49162 76.2534L8.13114 74.5554L8.31387 73.8608L8.40523 73.3977L8.2225 72.7803L8.03978 72.7031L7.94842 72.6259H7.85706L7.7657 72.1629L7.85706 71.6998L7.7657 71.4682L7.85706 71.3139L7.7657 71.1595V70.8508L7.67434 70.6193V70.4649L7.58298 70.3105L7.40025 70.1562L7.21753 70.0018L6.94345 69.7703H6.76073L6.578 69.6159L6.21256 69.3844H6.1212L5.75575 69.3072L5.57303 69.23L5.29895 69.1529L5.11623 68.9985L4.9335 68.9213L4.84214 68.8441V68.6898L4.75078 68.6126L4.65942 68.4582L4.29397 68.2267L4.20261 68.0723L3.56309 67.5321L3.01492 67.1462L2.00995 66.8375L1.46178 66.9146L1.00497 66.6059L0.365445 66.22L0.182722 65.757L0 65.6026Z" fill="#02569C"/>
    <path fill-rule="evenodd" clip-rule="evenodd" d="M257.547 62.5924V62.5152L257.73 62.5924L257.638 62.4381L257.73 61.8978L257.913 61.7434L258.095 61.6663L258.187 61.8206L258.095 61.8978L258.004 61.975V62.0522L258.461 61.8978L258.552 61.975L258.643 61.8978H259.192L259.374 61.975H259.466L259.557 62.1293V62.2837L259.648 62.3609H259.74L260.014 62.5924V62.7468L259.831 62.824L259.74 62.9011V63.0555V63.1327L259.557 63.3642H259.74L259.831 63.5957V63.7501H259.648L259.557 63.6729L259.374 63.4414L259.283 63.3642H259.1L259.009 63.2099H258.643V63.0555L258.461 62.9783L258.187 62.9011L258.095 63.1327V63.2099L257.821 63.1327V62.9783L257.638 62.824L257.547 62.5924Z" fill="white"/>
    <path d="M338 252.261C338 255.778 336.788 259.151 334.632 261.638C332.475 264.125 329.55 265.522 326.5 265.522C323.45 265.522 320.525 264.125 318.368 261.638C316.212 259.151 315 255.778 315 252.261C315 248.744 316.212 245.371 318.368 242.884C320.525 240.397 323.45 239 326.5 239C329.55 239 332.475 240.397 334.632 242.884C336.788 245.371 338 248.744 338 252.261Z" fill="#FF4E4E"/>
    <path d="M324.967 256.681H328.033V297.72C328.033 298.325 327.872 298.905 327.584 299.332C327.297 299.76 326.907 300 326.5 300C326.093 300 325.703 299.76 325.416 299.332C325.128 298.905 324.967 298.325 324.967 297.72V256.681Z" fill="#FF4E4E"/>
</svg>
