<svg width="33" height="32" viewBox="0 0 33 32" fill="none" xmlns="http://www.w3.org/2000/svg">
<path d="M16.0577 0C7.22075 0 0.0571289 7.16337 0.0571289 16C0.0571289 24.8366 7.22075 32 16.0577 32C24.8946 32 32.0582 24.8366 32.0582 16C32.0582 7.16337 24.8946 0 16.0577 0Z" fill="url(#paint0_linear)"/>
<path d="M25.0792 20.4065C25.0386 20.1559 24.8813 19.9418 24.6456 19.8145L21.1599 17.7638L21.1312 17.7477C20.985 17.6747 20.8236 17.6372 20.6602 17.6385C20.3681 17.6385 20.0892 17.7489 19.8957 17.9427L18.8668 18.9705C18.8228 19.0123 18.6794 19.0727 18.6358 19.0749C18.6239 19.074 17.4387 18.9887 15.2568 16.8098C13.0788 14.6354 12.9864 13.4483 12.9857 13.4483C12.9869 13.3876 13.0467 13.2448 13.0893 13.2006L13.9666 12.3248C14.2757 12.0155 14.3683 11.5027 14.185 11.1054L12.2474 7.46496C12.1066 7.17553 11.8331 6.99683 11.5296 6.99683C11.3149 6.99683 11.1077 7.08569 10.9458 7.24716L8.55424 9.62986C8.32493 9.85761 8.12748 10.2558 8.08444 10.5763C8.06353 10.7295 7.63921 14.3868 12.6606 19.4015C16.9235 23.6577 20.2475 23.9884 21.1655 23.9884C21.2773 23.9899 21.389 23.9841 21.5001 23.9712C21.8201 23.9285 22.2184 23.7318 22.4462 23.5038L24.8358 21.1179C25.0308 20.9222 25.1198 20.6636 25.0792 20.4065Z" fill="white"/>
<defs>
<linearGradient id="paint0_linear" x1="16.0577" y1="0" x2="16.0577" y2="32" gradientUnits="userSpaceOnUse">
<stop stop-color="#00E073" stop-opacity="0.49"/>
<stop offset="1" stop-color="#00E073"/>
</linearGradient>
</defs>
</svg>
