<svg width="33" height="32" viewBox="0 0 33 32" fill="none" xmlns="http://www.w3.org/2000/svg">
<path d="M30.9827 18.6712C30.9726 18.7276 30.9655 18.7846 30.9548 18.841L30.9001 18.5178C30.9301 18.5682 30.9548 18.6206 30.9827 18.6713C31.1494 17.7656 31.2337 16.8466 31.2346 15.9256C31.2346 13.8809 30.8352 11.8971 30.0462 10.0298C29.2849 8.22592 28.1959 6.6059 26.8073 5.21505C25.4208 3.8242 23.8035 2.73245 22.0049 1.96949C20.1425 1.17959 18.1635 0.77925 16.1237 0.77925C15.1624 0.77925 14.1994 0.869718 13.2623 1.05003C13.2603 1.05053 13.2578 1.05053 13.2552 1.05103C13.308 1.07897 13.3612 1.10391 13.4128 1.13285L13.0951 1.08298C13.1483 1.07296 13.2021 1.06168 13.2552 1.05103C11.9697 0.36588 10.5236 0 9.06007 0C6.67074 0 4.42403 0.932619 2.73435 2.62682C1.04517 4.32052 0.114258 6.57244 0.114258 8.96758C0.115069 10.489 0.502422 11.9852 1.2398 13.315C1.24942 13.2602 1.25605 13.2048 1.26667 13.1499L1.32142 13.4674C1.29305 13.4177 1.26817 13.3658 1.2398 13.315C1.0894 14.1771 1.01328 15.0505 1.01229 15.9256C1.01229 17.9707 1.41168 19.954 2.20071 21.8219C2.96086 23.6262 4.05052 25.2451 5.43757 26.636C6.82612 28.0269 8.4413 29.1202 10.2419 29.8812C12.1044 30.6726 14.0839 31.0734 16.1237 31.0734C17.0116 31.0734 17.9015 30.9921 18.77 30.8377C18.7194 30.8093 18.6678 30.7833 18.616 30.7534L18.9389 30.8103C18.8832 30.8209 18.8269 30.8276 18.7702 30.8377C20.1125 31.5993 21.6286 31.9997 23.1711 32C25.56 32 27.8056 31.0688 29.4953 29.3742C31.1853 27.6815 32.1154 25.4291 32.1154 23.0339C32.1146 21.5068 31.7247 20.0051 30.9827 18.6713V18.6712ZM16.1839 25.202C10.8156 25.202 8.41392 22.5564 8.41392 20.5738C8.41392 19.5567 9.16295 18.844 10.1952 18.844C12.4926 18.844 11.8975 22.1506 16.1839 22.1506C18.3784 22.1506 19.5901 20.9562 19.5901 19.734C19.5901 18.999 19.2283 18.184 17.7834 17.8269L13.0085 16.6321C9.16295 15.6654 8.46505 13.5817 8.46505 11.6228C8.46505 7.55593 12.2852 6.02888 15.8728 6.02888C19.1775 6.02888 23.0733 7.85966 23.0733 10.2995C23.0733 11.345 22.1702 11.953 21.1382 11.953C19.1775 11.953 19.5384 9.23272 15.589 9.23272C13.6292 9.23272 12.5437 10.1224 12.5437 11.3953C12.5437 12.6659 14.0915 13.0717 15.4354 13.3784L18.9698 14.1648C22.8412 15.0294 23.8228 17.2951 23.8228 19.4291C23.8228 22.7342 21.2919 25.202 16.1839 25.202ZM18.616 30.7534C18.6678 30.7834 18.7194 30.8093 18.7702 30.8377C18.8269 30.8276 18.8832 30.8209 18.9389 30.8101L18.616 30.7534ZM30.9548 18.841C30.9655 18.7846 30.9726 18.7277 30.9827 18.6713C30.9548 18.6204 30.93 18.5682 30.9002 18.5178L30.9548 18.841ZM1.26667 13.1499C1.25605 13.2048 1.24942 13.2602 1.2398 13.315C1.26817 13.3658 1.29305 13.4177 1.32142 13.4674L1.26667 13.1499ZM13.4128 1.13285C13.3612 1.10391 13.308 1.07897 13.2553 1.05103C13.2021 1.06168 13.1483 1.07283 13.0951 1.08298L13.4128 1.13285Z" fill="#00AFF0"/>
</svg>
