<svg width="33" height="33" viewBox="0 0 33 33" fill="none" xmlns="http://www.w3.org/2000/svg">
<path d="M16.1715 7.42675C10.9784 7.42675 6.75684 11.6482 6.7497 16.841C6.7497 18.6196 7.24972 20.3553 8.19261 21.8482L8.41404 22.2053L7.46401 25.6768L11.0284 24.741L11.3713 24.9482C12.8142 25.8053 14.4714 26.2625 16.1643 26.2625H16.1715C21.3573 26.2625 25.6932 22.041 25.6932 16.8482C25.6932 14.3339 24.6075 11.9696 22.8288 10.191C21.0431 8.40533 18.6858 7.42675 16.1715 7.42675ZM21.7074 20.8839C21.4716 21.5482 20.343 22.1482 19.8002 22.2268C18.9001 22.3625 18.2001 22.291 16.4072 21.5196C13.5714 20.291 11.7142 17.4339 11.5713 17.2482C11.4284 17.0625 10.4141 15.7125 10.4141 14.3196C10.4141 12.9268 11.1427 12.241 11.407 11.9553C11.6642 11.6696 11.9713 11.5982 12.1642 11.5982C12.3499 11.5982 12.5428 11.5982 12.707 11.6053C12.8785 11.6125 13.1142 11.541 13.3428 12.091C13.5785 12.6553 14.1428 14.0482 14.2142 14.191C14.2857 14.3339 14.3357 14.4982 14.2357 14.6839C13.6928 15.7696 13.1142 15.7268 13.4071 16.2268C14.5 18.1053 15.5929 18.7553 17.2572 19.591C17.5429 19.7339 17.7072 19.7125 17.8715 19.5196C18.0358 19.3339 18.5787 18.691 18.7644 18.4125C18.9501 18.1268 19.143 18.1768 19.4001 18.2696C19.6573 18.3625 21.0502 19.0482 21.3359 19.191C21.6216 19.3339 21.8074 19.4053 21.8788 19.5196C21.9431 19.6553 21.9431 20.2268 21.7074 20.8839ZM28.7433 0.94104H3.59959C1.70667 0.94104 0.170898 2.47675 0.170898 4.36961V29.5125C0.170898 31.4053 1.70667 32.941 3.59959 32.941H28.7433C30.6362 32.941 32.172 31.4053 32.172 29.5125V4.36961C32.172 2.47675 30.6362 0.94104 28.7433 0.94104ZM16.1643 28.1696C14.2642 28.1696 12.3999 27.691 10.7498 26.791L4.74249 28.3696L6.34968 22.4982C5.35679 20.7839 4.83535 18.8339 4.83535 16.8339C4.84249 10.591 9.92124 5.51247 16.1643 5.51247C19.193 5.51247 22.0359 6.69104 24.1789 8.8339C26.3147 10.9768 27.6004 13.8196 27.6004 16.8482C27.6004 23.091 22.4074 28.1696 16.1643 28.1696Z" fill="#02569C"/>
</svg>
