<svg width="33" height="32" viewBox="0 0 33 32" fill="none" xmlns="http://www.w3.org/2000/svg">
<path d="M16.1715 6.48571C10.9784 6.48571 6.75684 10.7071 6.7497 15.9C6.7497 17.6786 7.24972 19.4143 8.19261 20.9071L8.41404 21.2643L7.46401 24.7357L11.0284 23.8L11.3713 24.0071C12.8142 24.8643 14.4714 25.3214 16.1643 25.3214H16.1715C21.3573 25.3214 25.6932 21.1 25.6932 15.9071C25.6932 13.3929 24.6075 11.0286 22.8288 9.25C21.0431 7.46429 18.6858 6.48571 16.1715 6.48571ZM21.7074 19.9429C21.4716 20.6071 20.343 21.2071 19.8002 21.2857C18.9001 21.4214 18.2001 21.35 16.4072 20.5786C13.5714 19.35 11.7142 16.4929 11.5713 16.3071C11.4284 16.1214 10.4141 14.7714 10.4141 13.3786C10.4141 11.9857 11.1427 11.3 11.407 11.0143C11.6642 10.7286 11.9713 10.6571 12.1642 10.6571C12.3499 10.6571 12.5428 10.6571 12.707 10.6643C12.8785 10.6714 13.1142 10.6 13.3428 11.15C13.5785 11.7143 14.1428 13.1071 14.2142 13.25C14.2857 13.3929 14.3357 13.5571 14.2357 13.7429C13.6928 14.8286 13.1142 14.7857 13.4071 15.2857C14.5 17.1643 15.5929 17.8143 17.2572 18.65C17.5429 18.7929 17.7072 18.7714 17.8715 18.5786C18.0358 18.3929 18.5787 17.75 18.7644 17.4714C18.9501 17.1857 19.143 17.2357 19.4001 17.3286C19.6573 17.4214 21.0502 18.1071 21.3359 18.25C21.6216 18.3929 21.8074 18.4643 21.8788 18.5786C21.9431 18.7143 21.9431 19.2857 21.7074 19.9429ZM28.7433 0H3.59959C1.70667 0 0.170898 1.53571 0.170898 3.42857V28.5714C0.170898 30.4643 1.70667 32 3.59959 32H28.7433C30.6362 32 32.172 30.4643 32.172 28.5714V3.42857C32.172 1.53571 30.6362 0 28.7433 0ZM16.1643 27.2286C14.2642 27.2286 12.3999 26.75 10.7498 25.85L4.74249 27.4286L6.34968 21.5571C5.35679 19.8429 4.83535 17.8929 4.83535 15.8929C4.84249 9.65 9.92124 4.57143 16.1643 4.57143C19.193 4.57143 22.0359 5.75 24.1789 7.89286C26.3147 10.0357 27.6004 12.8786 27.6004 15.9071C27.6004 22.15 22.4074 27.2286 16.1643 27.2286Z" fill="url(#paint0_linear)"/>
<defs>
<linearGradient id="paint0_linear" x1="16.1715" y1="0" x2="16.1715" y2="32" gradientUnits="userSpaceOnUse">
<stop stop-color="#00E676" stop-opacity="0.5"/>
<stop offset="0.770833" stop-color="#00E676"/>
</linearGradient>
</defs>
</svg>
