<?xml version="1.0" standalone="no"?>
<!DOCTYPE svg PUBLIC "-//W3C//DTD SVG 20010904//EN"
 "http://www.w3.org/TR/2001/REC-SVG-20010904/DTD/svg10.dtd">
<svg version="1.0" xmlns="http://www.w3.org/2000/svg"
 width="225.000000pt" height="225.000000pt" viewBox="0 0 225.000000 225.000000"
 preserveAspectRatio="xMidYMid meet">
<metadata>
Created by potrace 1.16, written by Peter Selinger 2001-2019
</metadata>
<g transform="translate(0.000000,225.000000) scale(0.100000,-0.100000)"
fill="#000000" stroke="none">
<path d="M855 2024 c-143 -75 -361 -190 -485 -255 l-225 -118 -5 -712 c-3
-479 -2 -719 5 -733 11 -21 12 -21 974 -24 707 -1 967 1 977 9 12 10 14 134
12 736 l-3 724 -485 255 c-266 140 -489 254 -495 254 -5 0 -127 -62 -270 -136z
m469 -63 c105 -55 306 -160 446 -234 l255 -134 3 -661 2 -662 -115 0 -115 0 0
569 c0 504 -2 571 -16 585 -14 14 -87 16 -659 16 -572 0 -645 -2 -659 -16 -14
-14 -16 -81 -16 -585 l0 -569 -115 0 -115 0 0 659 0 660 103 55 c245 131 793
416 801 416 5 0 95 -45 200 -99z m386 -1151 l0 -540 -585 0 -585 0 0 540 0
540 585 0 585 0 0 -540z"/>
<path d="M962 438 c-16 -16 -15 -53 2 -67 9 -8 62 -11 166 -9 141 3 154 5 166
23 12 18 11 24 -2 43 -14 21 -22 22 -168 22 -105 0 -156 -4 -164 -12z"/>
</g>
</svg>
