<svg xmlns="http://www.w3.org/2000/svg" viewBox="0 0 40 40" fill="none"><path d="M14 28H10.0745C6.51896 28 3.67452 24.1724 4.03007 20.3449C4.38562 16.5173 6.87452 13.4552 12.2079 13.4552C12.5634 7.33114 15.7935 4.65859 20.0301 5.03471C24.2667 5.41083 26.4 9.62112 26.4 9.62112C26.4 9.62112 31.3778 9.23831 31.7333 14.597C31.7333 14.597 36 16.1345 36 21.1038C36 26.0731 31.7634 28 29.2745 28H24"  stroke-width="2" stroke-linecap="round" stroke="black"/><path d="M19 34V17"  stroke-width="2" stroke-linecap="round" stroke="black"/><path d="M12.2929 22.2929C11.9024 22.6834 11.9024 23.3166 12.2929 23.7071C12.6834 24.0976 13.3166 24.0976 13.7071 23.7071L12.2929 22.2929ZM19 17L19.7071 16.2929L19 15.5858L18.2929 16.2929L19 17ZM24.2929 23.7071C24.6834 24.0976 25.3166 24.0976 25.7071 23.7071C26.0976 23.3166 26.0976 22.6834 25.7071 22.2929L24.2929 23.7071ZM13.7071 23.7071L19.7071 17.7071L18.2929 16.2929L12.2929 22.2929L13.7071 23.7071ZM18.2929 17.7071L24.2929 23.7071L25.7071 22.2929L19.7071 16.2929L18.2929 17.7071Z" fill="black"/></svg>