<svg width="40" height="40" viewBox="0 0 40 40" fill="none" xmlns="http://www.w3.org/2000/svg">
    <path d="M13.7792 24.4666C13.4725 24.4666 13.2658 24.4966 13.1592 24.5266V26.4899C13.2858 26.5199 13.4442 26.5282 13.6625 26.5282C14.4608 26.5282 14.9525 26.1249 14.9525 25.4432C14.9525 24.8332 14.5292 24.4666 13.7792 24.4666ZM19.5908 24.4866C19.2575 24.4866 19.0408 24.5166 18.9125 24.5466V28.8966C19.0408 28.9266 19.2475 28.9266 19.4342 28.9266C20.7958 28.9366 21.6825 28.1866 21.6825 26.5999C21.6925 25.2166 20.8842 24.4866 19.5908 24.4866Z" fill="#F88950"/>
    <path d="M23.3332 3.33325H9.99984C9.11578 3.33325 8.26794 3.68444 7.64281 4.30956C7.01769 4.93468 6.6665 5.78253 6.6665 6.66659V33.3333C6.6665 34.2173 7.01769 35.0652 7.64281 35.6903C8.26794 36.3154 9.11578 36.6666 9.99984 36.6666H29.9998C30.8839 36.6666 31.7317 36.3154 32.3569 35.6903C32.982 35.0652 33.3332 34.2173 33.3332 33.3333V13.3333L23.3332 3.33325ZM15.8298 26.9833C15.3148 27.4666 14.5548 27.6833 13.6698 27.6833C13.4982 27.6851 13.3267 27.6751 13.1565 27.6533V30.0299H11.6665V23.4699C12.3389 23.3696 13.0184 23.3239 13.6982 23.3333C14.6265 23.3333 15.2865 23.5099 15.7315 23.8649C16.1548 24.2016 16.4415 24.7533 16.4415 25.4033C16.4398 26.0566 16.2232 26.6083 15.8298 26.9833ZM22.1748 29.2416C21.4748 29.8233 20.4098 30.0999 19.1082 30.0999C18.3282 30.0999 17.7765 30.0499 17.4015 29.9999V23.4716C18.0742 23.3734 18.7534 23.3272 19.4332 23.3333C20.6948 23.3333 21.5148 23.5599 22.1548 24.0433C22.8465 24.5566 23.2798 25.3749 23.2798 26.5499C23.2798 27.8216 22.8148 28.6999 22.1748 29.2416ZM28.3332 24.6166H25.7798V26.1349H28.1665V27.3583H25.7798V30.0316H24.2698V23.3833H28.3332V24.6166ZM23.3332 14.9999H21.6665V6.66659L29.9998 14.9999H23.3332Z" fill="#F88950"/>
</svg>
