<svg width="33" height="33" viewBox="0 0 33 33" fill="none" xmlns="http://www.w3.org/2000/svg">
<path d="M16.0577 0.94104C7.22075 0.94104 0.0571289 8.10441 0.0571289 16.941C0.0571289 25.7777 7.22075 32.941 16.0577 32.941C24.8946 32.941 32.0582 25.7777 32.0582 16.941C32.0582 8.10441 24.8946 0.94104 16.0577 0.94104Z" fill="#02569C"/>
<path d="M25.0792 21.3475C25.0386 21.097 24.8813 20.8828 24.6456 20.7556L21.1599 18.7048L21.1312 18.6888C20.985 18.6157 20.8236 18.5783 20.6602 18.5795C20.3681 18.5795 20.0892 18.69 19.8957 18.8837L18.8668 19.9116C18.8228 19.9533 18.6794 20.0138 18.6358 20.016C18.6239 20.015 17.4387 19.9298 15.2568 17.7508C13.0788 15.5764 12.9864 14.3893 12.9857 14.3893C12.9869 14.3286 13.0467 14.1859 13.0893 14.1417L13.9666 13.2658C14.2757 12.9565 14.3683 12.4437 14.185 12.0465L12.2474 8.406C12.1066 8.11657 11.8331 7.93787 11.5296 7.93787C11.3149 7.93787 11.1077 8.02673 10.9458 8.1882L8.55424 10.5709C8.32493 10.7987 8.12748 11.1969 8.08444 11.5174C8.06353 11.6706 7.63921 15.3278 12.6606 20.3425C16.9235 24.5988 20.2475 24.9295 21.1655 24.9295C21.2773 24.9309 21.389 24.9251 21.5001 24.9122C21.8201 24.8695 22.2184 24.6728 22.4462 24.4448L24.8358 22.059C25.0308 21.8633 25.1198 21.6047 25.0792 21.3475Z" fill="white"/>
</svg>
