<svg width="33" height="33" viewBox="0 0 33 33" fill="none" xmlns="http://www.w3.org/2000/svg">
<path d="M30.9827 19.6122C30.9726 19.6686 30.9655 19.7256 30.9548 19.782L30.9001 19.4588C30.9301 19.5092 30.9548 19.5616 30.9827 19.6123C31.1494 18.7066 31.2337 17.7876 31.2346 16.8666C31.2346 14.8219 30.8352 12.8382 30.0462 10.9708C29.2849 9.16696 28.1959 7.54694 26.8073 6.15609C25.4208 4.76524 23.8035 3.67349 22.0049 2.91053C20.1425 2.12063 18.1635 1.72029 16.1237 1.72029C15.1624 1.72029 14.1994 1.81076 13.2623 1.99107C13.2603 1.99157 13.2578 1.99157 13.2552 1.99207C13.308 2.02001 13.3612 2.04495 13.4128 2.07389L13.0951 2.02402C13.1483 2.014 13.2021 2.00272 13.2552 1.99207C11.9697 1.30692 10.5236 0.94104 9.06007 0.94104C6.67074 0.94104 4.42403 1.87366 2.73435 3.56786C1.04517 5.26156 0.114258 7.51348 0.114258 9.90862C0.115069 11.4301 0.502422 12.9262 1.2398 14.2561C1.24942 14.2012 1.25605 14.1458 1.26667 14.0909L1.32142 14.4084C1.29305 14.3587 1.26817 14.3068 1.2398 14.2561C1.0894 15.1181 1.01328 15.9915 1.01229 16.8666C1.01229 18.9118 1.41168 20.8951 2.20071 22.7629C2.96086 24.5673 4.05052 26.1862 5.43757 27.577C6.82612 28.968 8.4413 30.0612 10.2419 30.8222C12.1044 31.6136 14.0839 32.0144 16.1237 32.0144C17.0116 32.0144 17.9015 31.9331 18.77 31.7787C18.7194 31.7503 18.6678 31.7244 18.616 31.6944L18.9389 31.7513C18.8832 31.762 18.8269 31.7686 18.7702 31.7787C20.1125 32.5403 21.6286 32.9407 23.1711 32.941C25.56 32.941 27.8056 32.0098 29.4953 30.3152C31.1853 28.6225 32.1154 26.3701 32.1154 23.975C32.1146 22.4478 31.7247 20.9462 30.9827 19.6123V19.6122ZM16.1839 26.1431C10.8156 26.1431 8.41392 23.4974 8.41392 21.5148C8.41392 20.4977 9.16295 19.785 10.1952 19.785C12.4926 19.785 11.8975 23.0916 16.1839 23.0916C18.3784 23.0916 19.5901 21.8972 19.5901 20.675C19.5901 19.94 19.2283 19.125 17.7834 18.7679L13.0085 17.5732C9.16295 16.6065 8.46505 14.5227 8.46505 12.5639C8.46505 8.49697 12.2852 6.96992 15.8728 6.96992C19.1775 6.96992 23.0733 8.8007 23.0733 11.2406C23.0733 12.2861 22.1702 12.8941 21.1382 12.8941C19.1775 12.8941 19.5384 10.1738 15.589 10.1738C13.6292 10.1738 12.5437 11.0634 12.5437 12.3363C12.5437 13.6069 14.0915 14.0127 15.4354 14.3195L18.9698 15.1059C22.8412 15.9705 23.8228 18.2362 23.8228 20.3702C23.8228 23.6752 21.2919 26.1431 16.1839 26.1431ZM18.616 31.6944C18.6678 31.7245 18.7194 31.7503 18.7702 31.7787C18.8269 31.7686 18.8832 31.762 18.9389 31.7512L18.616 31.6944ZM30.9548 19.782C30.9655 19.7256 30.9726 19.6687 30.9827 19.6123C30.9548 19.5615 30.93 19.5092 30.9002 19.4588L30.9548 19.782ZM1.26667 14.0909C1.25605 14.1458 1.24942 14.2012 1.2398 14.2561C1.26817 14.3068 1.29305 14.3587 1.32142 14.4084L1.26667 14.0909ZM13.4128 2.07389C13.3612 2.04495 13.308 2.02001 13.2553 1.99207C13.2021 2.00272 13.1483 2.01387 13.0951 2.02402L13.4128 2.07389Z" fill="#02569C"/>
</svg>
