<svg width="32" height="32" viewBox="3 2 32 32" fill="none" xmlns="http://www.w3.org/2000/svg">
<path d="M19.0006 2C10.1636 2 3 9.16337 3 18C3 26.8366 10.1636 34 19.0006 34C27.8375 34 35.0011 26.8366 35.0011 18C35.0011 9.16337 27.8375 2 19.0006 2Z" fill="#40B3E0"/>
<path d="M26.8155 11.1995L23.954 25.6012C23.954 25.6012 23.5539 26.6 22.4534 26.1206L15.8503 21.067L13.4492 19.9086L9.40737 18.5502C9.40737 18.5502 8.78709 18.3306 8.72701 17.8512C8.66694 17.3718 9.4274 17.1121 9.4274 17.1121L25.4947 10.8201C25.4947 10.8201 26.8154 10.2409 26.8154 11.1997" fill="white"/>
<path d="M15.3424 25.4393C15.3424 25.4393 15.1496 25.4213 14.9093 24.6621C14.6694 23.9031 13.4487 19.9083 13.4487 19.9083L23.1533 13.7563C23.1533 13.7563 23.7136 13.4167 23.6936 13.7563C23.6936 13.7563 23.7936 13.8162 23.4933 14.0959C23.1933 14.3756 15.8699 20.9471 15.8699 20.9471" fill="#D2E5F1"/>
</svg>
