<svg width="33" height="33" viewBox="0 0 33 33" fill="none" xmlns="http://www.w3.org/2000/svg">
<path d="M16.0006 0.94104C7.16362 0.94104 0 8.10441 0 16.941C0 25.7777 7.16362 32.941 16.0006 32.941C24.8375 32.941 32.0011 25.7777 32.0011 16.941C32.0011 8.10441 24.8375 0.94104 16.0006 0.94104Z" fill="#02569C"/>
<path d="M23.8155 10.1405L20.954 24.5423C20.954 24.5423 20.5539 25.541 19.4534 25.0616L12.8503 20.008L10.4492 18.8496L6.40737 17.4912C6.40737 17.4912 5.78709 17.2716 5.72701 16.7922C5.66694 16.3128 6.4274 16.0532 6.4274 16.0532L22.4947 9.76117C22.4947 9.76117 23.8154 9.18195 23.8154 10.1407" fill="white"/>
<path d="M12.3424 24.3803C12.3424 24.3803 12.1496 24.3623 11.9093 23.6032C11.6694 22.8442 10.4487 18.8493 10.4487 18.8493L20.1533 12.6973C20.1533 12.6973 20.7136 12.3577 20.6936 12.6973C20.6936 12.6973 20.7936 12.7573 20.4933 13.0369C20.1933 13.3166 12.8699 19.8881 12.8699 19.8881" fill="#DEDEDE"/>
</svg>
